<svg xmlns="http://www.w3.org/2000/svg" xmlns:xlink="http://www.w3.org/1999/xlink" contentStyleType="text/css" data-diagram-type="CLASS" height="679px" preserveAspectRatio="none" style="width:1668px;height:679px;background:#FFFFFF;" version="1.1" viewBox="0 0 1668 679" width="1668px" zoomAndPan="magnify"><defs/><g><!--cluster CCTNS System--><g class="cluster" data-entity="CCTNS System" data-source-line="1" data-uid="ent0002" id="cluster_CCTNS System"><path d="M8.5,6 L124.5898,6 A3.75,3.75 0 0 1 127.0898,8.5 L134.0898,28.2969 L1437.5,28.2969 A2.5,2.5 0 0 1 1440,30.7969 L1440,277.5 A2.5,2.5 0 0 1 1437.5,280 L8.5,280 A2.5,2.5 0 0 1 6,277.5 L6,8.5 A2.5,2.5 0 0 1 8.5,6 " fill="none" style="stroke:#000000;stroke-width:1.5;"/><line style="stroke:#000000;stroke-width:1.5;" x1="6" x2="134.0898" y1="28.2969" y2="28.2969"/><text fill="#000000" font-family="sans-serif" font-size="14" font-weight="bold" lengthAdjust="spacing" textLength="115.0898" x="10" y="20.9951">CCTNS System</text></g><!--cluster User Management--><g class="cluster" data-entity="User Management" data-source-line="2" data-uid="ent0003" id="cluster_User Management"><path d="M32.5,49 L177.5264,49 A3.75,3.75 0 0 1 180.0264,51.5 L187.0264,71.2969 L300.5,71.2969 A2.5,2.5 0 0 1 303,73.7969 L303,253.5 A2.5,2.5 0 0 1 300.5,256 L32.5,256 A2.5,2.5 0 0 1 30,253.5 L30,51.5 A2.5,2.5 0 0 1 32.5,49 " fill="none" style="stroke:#000000;stroke-width:1.5;"/><line style="stroke:#000000;stroke-width:1.5;" x1="30" x2="187.0264" y1="71.2969" y2="71.2969"/><text fill="#000000" font-family="sans-serif" font-size="14" font-weight="bold" lengthAdjust="spacing" textLength="144.0264" x="34" y="63.9951">User Management</text></g><!--cluster Complaint Management--><g class="cluster" data-entity="Complaint Management" data-source-line="7" data-uid="ent0007" id="cluster_Complaint Management"><path d="M329.5,49 L518.6318,49 A3.75,3.75 0 0 1 521.1318,51.5 L528.1318,71.2969 L528.5,71.2969 A2.5,2.5 0 0 1 531,73.7969 L531,145.5 A2.5,2.5 0 0 1 528.5,148 L329.5,148 A2.5,2.5 0 0 1 327,145.5 L327,51.5 A2.5,2.5 0 0 1 329.5,49 " fill="none" style="stroke:#000000;stroke-width:1.5;"/><line style="stroke:#000000;stroke-width:1.5;" x1="327" x2="528.1318" y1="71.2969" y2="71.2969"/><text fill="#000000" font-family="sans-serif" font-size="14" font-weight="bold" lengthAdjust="spacing" textLength="188.1318" x="331" y="63.9951">Complaint Management</text></g><!--cluster Investigation Management--><g class="cluster" data-entity="Investigation Management" data-source-line="10" data-uid="ent0009" id="cluster_Investigation Management"><path d="M557.5,49 L770.5918,49 A3.75,3.75 0 0 1 773.0918,51.5 L780.0918,71.2969 L780.5,71.2969 A2.5,2.5 0 0 1 783,73.7969 L783,145.5 A2.5,2.5 0 0 1 780.5,148 L557.5,148 A2.5,2.5 0 0 1 555,145.5 L555,51.5 A2.5,2.5 0 0 1 557.5,49 " fill="none" style="stroke:#000000;stroke-width:1.5;"/><line style="stroke:#000000;stroke-width:1.5;" x1="555" x2="780.0918" y1="71.2969" y2="71.2969"/><text fill="#000000" font-family="sans-serif" font-size="14" font-weight="bold" lengthAdjust="spacing" textLength="212.0918" x="559" y="63.9951">Investigation Management</text></g><!--cluster Prosecution Management--><g class="cluster" data-entity="Prosecution Management" data-source-line="13" data-uid="ent0011" id="cluster_Prosecution Management"><path d="M809.5,49 L1012.3789,49 A3.75,3.75 0 0 1 1014.8789,51.5 L1021.8789,71.2969 L1021.5,71.2969 A2.5,2.5 0 0 1 1024,73.7969 L1024,145.5 A2.5,2.5 0 0 1 1021.5,148 L809.5,148 A2.5,2.5 0 0 1 807,145.5 L807,51.5 A2.5,2.5 0 0 1 809.5,49 " fill="none" style="stroke:#000000;stroke-width:1.5;"/><line style="stroke:#000000;stroke-width:1.5;" x1="807" x2="1021.8789" y1="71.2969" y2="71.2969"/><text fill="#000000" font-family="sans-serif" font-size="14" font-weight="bold" lengthAdjust="spacing" textLength="201.8789" x="811" y="63.9951">Prosecution Management</text></g><!--cluster Search Management--><g class="cluster" data-entity="Search Management" data-source-line="16" data-uid="ent0013" id="cluster_Search Management"><path d="M1050.5,49 L1213.6211,49 A3.75,3.75 0 0 1 1216.1211,51.5 L1223.1211,71.2969 L1223.5,71.2969 A2.5,2.5 0 0 1 1226,73.7969 L1226,145.5 A2.5,2.5 0 0 1 1223.5,148 L1050.5,148 A2.5,2.5 0 0 1 1048,145.5 L1048,51.5 A2.5,2.5 0 0 1 1050.5,49 " fill="none" style="stroke:#000000;stroke-width:1.5;"/><line style="stroke:#000000;stroke-width:1.5;" x1="1048" x2="1223.1211" y1="71.2969" y2="71.2969"/><text fill="#000000" font-family="sans-serif" font-size="14" font-weight="bold" lengthAdjust="spacing" textLength="162.1211" x="1052" y="63.9951">Search Management</text></g><!--cluster Audit Management--><g class="cluster" data-entity="Audit Management" data-source-line="19" data-uid="ent0015" id="cluster_Audit Management"><path d="M1252.5,49 L1403.7402,49 A3.75,3.75 0 0 1 1406.2402,51.5 L1413.2402,71.2969 L1413.5,71.2969 A2.5,2.5 0 0 1 1416,73.7969 L1416,145.5 A2.5,2.5 0 0 1 1413.5,148 L1252.5,148 A2.5,2.5 0 0 1 1250,145.5 L1250,51.5 A2.5,2.5 0 0 1 1252.5,49 " fill="none" style="stroke:#000000;stroke-width:1.5;"/><line style="stroke:#000000;stroke-width:1.5;" x1="1250" x2="1413.2402" y1="71.2969" y2="71.2969"/><text fill="#000000" font-family="sans-serif" font-size="14" font-weight="bold" lengthAdjust="spacing" textLength="150.2402" x="1254" y="63.9951">Audit Management</text></g><!--class User--><g class="entity" data-entity="User" data-source-line="3" data-uid="ent0004" id="entity_User"><rect fill="#F1F1F1" height="48" rx="2.5" ry="2.5" style="stroke:#181818;stroke-width:0.5;" width="63.9102" x="46.04" y="84"/><ellipse cx="61.04" cy="100" fill="#ADD1B2" rx="11" ry="11" style="stroke:#181818;stroke-width:1;"/><path d="M64.0087,105.6406 Q63.4306,105.9375 62.79,106.0781 Q62.1494,106.2344 61.4463,106.2344 Q58.9463,106.2344 57.6181,104.5938 Q56.3056,102.9375 56.3056,99.8125 Q56.3056,96.6875 57.6181,95.0313 Q58.9463,93.375 61.4463,93.375 Q62.1494,93.375 62.79,93.5313 Q63.4463,93.6875 64.0087,93.9844 L64.0087,96.7031 Q63.3838,96.125 62.79,95.8594 Q62.1963,95.5781 61.5713,95.5781 Q60.2275,95.5781 59.54,96.6563 Q58.8525,97.7188 58.8525,99.8125 Q58.8525,101.9063 59.54,102.9844 Q60.2275,104.0469 61.5713,104.0469 Q62.1963,104.0469 62.79,103.7813 Q63.3838,103.5 64.0087,102.9219 L64.0087,105.6406 Z " fill="#000000"/><text fill="#000000" font-family="sans-serif" font-size="14" lengthAdjust="spacing" textLength="31.9102" x="75.04" y="104.8467">User</text><line style="stroke:#181818;stroke-width:0.5;" x1="47.04" x2="108.9502" y1="116" y2="116"/><line style="stroke:#181818;stroke-width:0.5;" x1="47.04" x2="108.9502" y1="124" y2="124"/></g><!--class PolicePersonnel--><g class="entity" data-entity="PolicePersonnel" data-source-line="4" data-uid="ent0005" id="entity_PolicePersonnel"><rect fill="#F1F1F1" height="48" rx="2.5" ry="2.5" style="stroke:#181818;stroke-width:0.5;" width="142.0176" x="144.99" y="84"/><ellipse cx="159.99" cy="100" fill="#ADD1B2" rx="11" ry="11" style="stroke:#181818;stroke-width:1;"/><path d="M162.9588,105.6406 Q162.3806,105.9375 161.74,106.0781 Q161.0994,106.2344 160.3963,106.2344 Q157.8963,106.2344 156.5681,104.5938 Q155.2556,102.9375 155.2556,99.8125 Q155.2556,96.6875 156.5681,95.0313 Q157.8963,93.375 160.3963,93.375 Q161.0994,93.375 161.74,93.5313 Q162.3963,93.6875 162.9588,93.9844 L162.9588,96.7031 Q162.3338,96.125 161.74,95.8594 Q161.1463,95.5781 160.5213,95.5781 Q159.1775,95.5781 158.49,96.6563 Q157.8025,97.7188 157.8025,99.8125 Q157.8025,101.9063 158.49,102.9844 Q159.1775,104.0469 160.5213,104.0469 Q161.1463,104.0469 161.74,103.7813 Q162.3338,103.5 162.9588,102.9219 L162.9588,105.6406 Z " fill="#000000"/><text fill="#000000" font-family="sans-serif" font-size="14" lengthAdjust="spacing" textLength="110.0176" x="173.99" y="104.8467">PolicePersonnel</text><line style="stroke:#181818;stroke-width:0.5;" x1="145.99" x2="286.0076" y1="116" y2="116"/><line style="stroke:#181818;stroke-width:0.5;" x1="145.99" x2="286.0076" y1="124" y2="124"/></g><!--class Citizen--><g class="entity" data-entity="Citizen" data-source-line="5" data-uid="ent0006" id="entity_Citizen"><rect fill="#F1F1F1" height="48" rx="2.5" ry="2.5" style="stroke:#181818;stroke-width:0.5;" width="79.8789" x="46.06" y="192"/><ellipse cx="61.06" cy="208" fill="#ADD1B2" rx="11" ry="11" style="stroke:#181818;stroke-width:1;"/><path d="M64.0288,213.6406 Q63.4506,213.9375 62.81,214.0781 Q62.1694,214.2344 61.4663,214.2344 Q58.9663,214.2344 57.6381,212.5938 Q56.3256,210.9375 56.3256,207.8125 Q56.3256,204.6875 57.6381,203.0313 Q58.9663,201.375 61.4663,201.375 Q62.1694,201.375 62.81,201.5313 Q63.4663,201.6875 64.0288,201.9844 L64.0288,204.7031 Q63.4038,204.125 62.81,203.8594 Q62.2163,203.5781 61.5913,203.5781 Q60.2475,203.5781 59.56,204.6563 Q58.8725,205.7188 58.8725,207.8125 Q58.8725,209.9063 59.56,210.9844 Q60.2475,212.0469 61.5913,212.0469 Q62.2163,212.0469 62.81,211.7813 Q63.4038,211.5 64.0288,210.9219 L64.0288,213.6406 Z " fill="#000000"/><text fill="#000000" font-family="sans-serif" font-size="14" lengthAdjust="spacing" textLength="47.8789" x="75.06" y="212.8467">Citizen</text><line style="stroke:#181818;stroke-width:0.5;" x1="47.06" x2="124.9389" y1="224" y2="224"/><line style="stroke:#181818;stroke-width:0.5;" x1="47.06" x2="124.9389" y1="232" y2="232"/></g><!--class Complaint--><g class="entity" data-entity="Complaint" data-source-line="8" data-uid="ent0008" id="entity_Complaint"><rect fill="#F1F1F1" height="48" rx="2.5" ry="2.5" style="stroke:#181818;stroke-width:0.5;" width="103.5859" x="377.21" y="84"/><ellipse cx="392.21" cy="100" fill="#ADD1B2" rx="11" ry="11" style="stroke:#181818;stroke-width:1;"/><path d="M395.1788,105.6406 Q394.6006,105.9375 393.96,106.0781 Q393.3194,106.2344 392.6163,106.2344 Q390.1163,106.2344 388.7881,104.5938 Q387.4756,102.9375 387.4756,99.8125 Q387.4756,96.6875 388.7881,95.0313 Q390.1163,93.375 392.6163,93.375 Q393.3194,93.375 393.96,93.5313 Q394.6163,93.6875 395.1788,93.9844 L395.1788,96.7031 Q394.5538,96.125 393.96,95.8594 Q393.3663,95.5781 392.7413,95.5781 Q391.3975,95.5781 390.71,96.6563 Q390.0225,97.7188 390.0225,99.8125 Q390.0225,101.9063 390.71,102.9844 Q391.3975,104.0469 392.7413,104.0469 Q393.3663,104.0469 393.96,103.7813 Q394.5538,103.5 395.1788,102.9219 L395.1788,105.6406 Z " fill="#000000"/><text fill="#000000" font-family="sans-serif" font-size="14" lengthAdjust="spacing" textLength="71.5859" x="406.21" y="104.8467">Complaint</text><line style="stroke:#181818;stroke-width:0.5;" x1="378.21" x2="479.7959" y1="116" y2="116"/><line style="stroke:#181818;stroke-width:0.5;" x1="378.21" x2="479.7959" y1="124" y2="124"/></g><!--class Investigation--><g class="entity" data-entity="Investigation" data-source-line="11" data-uid="ent0010" id="entity_Investigation"><rect fill="#F1F1F1" height="48" rx="2.5" ry="2.5" style="stroke:#181818;stroke-width:0.5;" width="122.8564" x="607.57" y="84"/><ellipse cx="622.57" cy="100" fill="#ADD1B2" rx="11" ry="11" style="stroke:#181818;stroke-width:1;"/><path d="M625.5388,105.6406 Q624.9606,105.9375 624.32,106.0781 Q623.6794,106.2344 622.9763,106.2344 Q620.4763,106.2344 619.1481,104.5938 Q617.8356,102.9375 617.8356,99.8125 Q617.8356,96.6875 619.1481,95.0313 Q620.4763,93.375 622.9763,93.375 Q623.6794,93.375 624.32,93.5313 Q624.9763,93.6875 625.5388,93.9844 L625.5388,96.7031 Q624.9138,96.125 624.32,95.8594 Q623.7263,95.5781 623.1013,95.5781 Q621.7575,95.5781 621.07,96.6563 Q620.3825,97.7188 620.3825,99.8125 Q620.3825,101.9063 621.07,102.9844 Q621.7575,104.0469 623.1013,104.0469 Q623.7263,104.0469 624.32,103.7813 Q624.9138,103.5 625.5388,102.9219 L625.5388,105.6406 Z " fill="#000000"/><text fill="#000000" font-family="sans-serif" font-size="14" lengthAdjust="spacing" textLength="90.8564" x="636.57" y="104.8467">Investigation</text><line style="stroke:#181818;stroke-width:0.5;" x1="608.57" x2="729.4264" y1="116" y2="116"/><line style="stroke:#181818;stroke-width:0.5;" x1="608.57" x2="729.4264" y1="124" y2="124"/></g><!--class Prosecution--><g class="entity" data-entity="Prosecution" data-source-line="14" data-uid="ent0012" id="entity_Prosecution"><rect fill="#F1F1F1" height="48" rx="2.5" ry="2.5" style="stroke:#181818;stroke-width:0.5;" width="114.0586" x="857.97" y="84"/><ellipse cx="872.97" cy="100" fill="#ADD1B2" rx="11" ry="11" style="stroke:#181818;stroke-width:1;"/><path d="M875.9388,105.6406 Q875.3606,105.9375 874.72,106.0781 Q874.0794,106.2344 873.3763,106.2344 Q870.8763,106.2344 869.5481,104.5938 Q868.2356,102.9375 868.2356,99.8125 Q868.2356,96.6875 869.5481,95.0313 Q870.8763,93.375 873.3763,93.375 Q874.0794,93.375 874.72,93.5313 Q875.3763,93.6875 875.9388,93.9844 L875.9388,96.7031 Q875.3138,96.125 874.72,95.8594 Q874.1263,95.5781 873.5013,95.5781 Q872.1575,95.5781 871.47,96.6563 Q870.7825,97.7188 870.7825,99.8125 Q870.7825,101.9063 871.47,102.9844 Q872.1575,104.0469 873.5013,104.0469 Q874.1263,104.0469 874.72,103.7813 Q875.3138,103.5 875.9388,102.9219 L875.9388,105.6406 Z " fill="#000000"/><text fill="#000000" font-family="sans-serif" font-size="14" lengthAdjust="spacing" textLength="82.0586" x="886.97" y="104.8467">Prosecution</text><line style="stroke:#181818;stroke-width:0.5;" x1="858.97" x2="971.0286" y1="116" y2="116"/><line style="stroke:#181818;stroke-width:0.5;" x1="858.97" x2="971.0286" y1="124" y2="124"/></g><!--class Search--><g class="entity" data-entity="Search" data-source-line="17" data-uid="ent0014" id="entity_Search"><rect fill="#F1F1F1" height="48" rx="2.5" ry="2.5" style="stroke:#181818;stroke-width:0.5;" width="80.4053" x="1096.8" y="84"/><ellipse cx="1111.8" cy="100" fill="#ADD1B2" rx="11" ry="11" style="stroke:#181818;stroke-width:1;"/><path d="M1114.7688,105.6406 Q1114.1906,105.9375 1113.55,106.0781 Q1112.9094,106.2344 1112.2063,106.2344 Q1109.7063,106.2344 1108.3781,104.5938 Q1107.0656,102.9375 1107.0656,99.8125 Q1107.0656,96.6875 1108.3781,95.0313 Q1109.7063,93.375 1112.2063,93.375 Q1112.9094,93.375 1113.55,93.5313 Q1114.2063,93.6875 1114.7688,93.9844 L1114.7688,96.7031 Q1114.1438,96.125 1113.55,95.8594 Q1112.9563,95.5781 1112.3313,95.5781 Q1110.9875,95.5781 1110.3,96.6563 Q1109.6125,97.7188 1109.6125,99.8125 Q1109.6125,101.9063 1110.3,102.9844 Q1110.9875,104.0469 1112.3313,104.0469 Q1112.9563,104.0469 1113.55,103.7813 Q1114.1438,103.5 1114.7688,102.9219 L1114.7688,105.6406 Z " fill="#000000"/><text fill="#000000" font-family="sans-serif" font-size="14" lengthAdjust="spacing" textLength="48.4053" x="1125.8" y="104.8467">Search</text><line style="stroke:#181818;stroke-width:0.5;" x1="1097.8" x2="1176.2053" y1="116" y2="116"/><line style="stroke:#181818;stroke-width:0.5;" x1="1097.8" x2="1176.2053" y1="124" y2="124"/></g><!--class AuditTrail--><g class="entity" data-entity="AuditTrail" data-source-line="20" data-uid="ent0016" id="entity_AuditTrail"><rect fill="#F1F1F1" height="48" rx="2.5" ry="2.5" style="stroke:#181818;stroke-width:0.5;" width="99.3818" x="1283.31" y="84"/><ellipse cx="1298.31" cy="100" fill="#ADD1B2" rx="11" ry="11" style="stroke:#181818;stroke-width:1;"/><path d="M1301.2788,105.6406 Q1300.7006,105.9375 1300.06,106.0781 Q1299.4194,106.2344 1298.7163,106.2344 Q1296.2163,106.2344 1294.8881,104.5938 Q1293.5756,102.9375 1293.5756,99.8125 Q1293.5756,96.6875 1294.8881,95.0313 Q1296.2163,93.375 1298.7163,93.375 Q1299.4194,93.375 1300.06,93.5313 Q1300.7163,93.6875 1301.2788,93.9844 L1301.2788,96.7031 Q1300.6538,96.125 1300.06,95.8594 Q1299.4663,95.5781 1298.8413,95.5781 Q1297.4975,95.5781 1296.81,96.6563 Q1296.1225,97.7188 1296.1225,99.8125 Q1296.1225,101.9063 1296.81,102.9844 Q1297.4975,104.0469 1298.8413,104.0469 Q1299.4663,104.0469 1300.06,103.7813 Q1300.6538,103.5 1301.2788,102.9219 L1301.2788,105.6406 Z " fill="#000000"/><text fill="#000000" font-family="sans-serif" font-size="14" lengthAdjust="spacing" textLength="67.3818" x="1312.31" y="104.8467">AuditTrail</text><line style="stroke:#181818;stroke-width:0.5;" x1="1284.31" x2="1381.6918" y1="116" y2="116"/><line style="stroke:#181818;stroke-width:0.5;" x1="1284.31" x2="1381.6918" y1="124" y2="124"/></g><!--class UserManagement--><g class="entity" data-entity="UserManagement" data-source-line="24" data-uid="ent0017" id="entity_UserManagement"><rect fill="#F1F1F1" height="48" rx="2.5" ry="2.5" style="stroke:#181818;stroke-width:0.5;" width="156.1338" x="1475.93" y="84"/><ellipse cx="1490.93" cy="100" fill="#ADD1B2" rx="11" ry="11" style="stroke:#181818;stroke-width:1;"/><path d="M1493.8988,105.6406 Q1493.3206,105.9375 1492.68,106.0781 Q1492.0394,106.2344 1491.3363,106.2344 Q1488.8363,106.2344 1487.5081,104.5938 Q1486.1956,102.9375 1486.1956,99.8125 Q1486.1956,96.6875 1487.5081,95.0313 Q1488.8363,93.375 1491.3363,93.375 Q1492.0394,93.375 1492.68,93.5313 Q1493.3363,93.6875 1493.8988,93.9844 L1493.8988,96.7031 Q1493.2738,96.125 1492.68,95.8594 Q1492.0863,95.5781 1491.4613,95.5781 Q1490.1175,95.5781 1489.43,96.6563 Q1488.7425,97.7188 1488.7425,99.8125 Q1488.7425,101.9063 1489.43,102.9844 Q1490.1175,104.0469 1491.4613,104.0469 Q1492.0863,104.0469 1492.68,103.7813 Q1493.2738,103.5 1493.8988,102.9219 L1493.8988,105.6406 Z " fill="#000000"/><text fill="#000000" font-family="sans-serif" font-size="14" lengthAdjust="spacing" textLength="124.1338" x="1504.93" y="104.8467">UserManagement</text><line style="stroke:#181818;stroke-width:0.5;" x1="1476.93" x2="1631.0638" y1="116" y2="116"/><line style="stroke:#181818;stroke-width:0.5;" x1="1476.93" x2="1631.0638" y1="124" y2="124"/></g><!--class ComplaintManagement--><g class="entity" data-entity="ComplaintManagement" data-source-line="24" data-uid="ent0018" id="entity_ComplaintManagement"><rect fill="#F1F1F1" height="48" rx="2.5" ry="2.5" style="stroke:#181818;stroke-width:0.5;" width="195.8096" x="1456.1" y="192"/><ellipse cx="1471.1" cy="208" fill="#ADD1B2" rx="11" ry="11" style="stroke:#181818;stroke-width:1;"/><path d="M1474.0688,213.6406 Q1473.4906,213.9375 1472.85,214.0781 Q1472.2094,214.2344 1471.5063,214.2344 Q1469.0063,214.2344 1467.6781,212.5938 Q1466.3656,210.9375 1466.3656,207.8125 Q1466.3656,204.6875 1467.6781,203.0313 Q1469.0063,201.375 1471.5063,201.375 Q1472.2094,201.375 1472.85,201.5313 Q1473.5063,201.6875 1474.0688,201.9844 L1474.0688,204.7031 Q1473.4438,204.125 1472.85,203.8594 Q1472.2563,203.5781 1471.6313,203.5781 Q1470.2875,203.5781 1469.6,204.6563 Q1468.9125,205.7188 1468.9125,207.8125 Q1468.9125,209.9063 1469.6,210.9844 Q1470.2875,212.0469 1471.6313,212.0469 Q1472.2563,212.0469 1472.85,211.7813 Q1473.4438,211.5 1474.0688,210.9219 L1474.0688,213.6406 Z " fill="#000000"/><text fill="#000000" font-family="sans-serif" font-size="14" lengthAdjust="spacing" textLength="163.8096" x="1485.1" y="212.8467">ComplaintManagement</text><line style="stroke:#181818;stroke-width:0.5;" x1="1457.1" x2="1650.9096" y1="224" y2="224"/><line style="stroke:#181818;stroke-width:0.5;" x1="1457.1" x2="1650.9096" y1="232" y2="232"/></g><!--class InvestigationManagement--><g class="entity" data-entity="InvestigationManagement" data-source-line="25" data-uid="ent0020" id="entity_InvestigationManagement"><rect fill="#F1F1F1" height="48" rx="2.5" ry="2.5" style="stroke:#181818;stroke-width:0.5;" width="215.0801" x="1446.46" y="300"/><ellipse cx="1461.46" cy="316" fill="#ADD1B2" rx="11" ry="11" style="stroke:#181818;stroke-width:1;"/><path d="M1464.4288,321.6406 Q1463.8506,321.9375 1463.21,322.0781 Q1462.5694,322.2344 1461.8663,322.2344 Q1459.3663,322.2344 1458.0381,320.5938 Q1456.7256,318.9375 1456.7256,315.8125 Q1456.7256,312.6875 1458.0381,311.0313 Q1459.3663,309.375 1461.8663,309.375 Q1462.5694,309.375 1463.21,309.5313 Q1463.8663,309.6875 1464.4288,309.9844 L1464.4288,312.7031 Q1463.8038,312.125 1463.21,311.8594 Q1462.6163,311.5781 1461.9913,311.5781 Q1460.6475,311.5781 1459.96,312.6563 Q1459.2725,313.7188 1459.2725,315.8125 Q1459.2725,317.9063 1459.96,318.9844 Q1460.6475,320.0469 1461.9913,320.0469 Q1462.6163,320.0469 1463.21,319.7813 Q1463.8038,319.5 1464.4288,318.9219 L1464.4288,321.6406 Z " fill="#000000"/><text fill="#000000" font-family="sans-serif" font-size="14" lengthAdjust="spacing" textLength="183.0801" x="1475.46" y="320.8467">InvestigationManagement</text><line style="stroke:#181818;stroke-width:0.5;" x1="1447.46" x2="1660.5401" y1="332" y2="332"/><line style="stroke:#181818;stroke-width:0.5;" x1="1447.46" x2="1660.5401" y1="340" y2="340"/></g><!--class ProsecutionManagement--><g class="entity" data-entity="ProsecutionManagement" data-source-line="26" data-uid="ent0022" id="entity_ProsecutionManagement"><rect fill="#F1F1F1" height="48" rx="2.5" ry="2.5" style="stroke:#181818;stroke-width:0.5;" width="206.2822" x="1450.86" y="408"/><ellipse cx="1465.86" cy="424" fill="#ADD1B2" rx="11" ry="11" style="stroke:#181818;stroke-width:1;"/><path d="M1468.8288,429.6406 Q1468.2506,429.9375 1467.61,430.0781 Q1466.9694,430.2344 1466.2663,430.2344 Q1463.7663,430.2344 1462.4381,428.5938 Q1461.1256,426.9375 1461.1256,423.8125 Q1461.1256,420.6875 1462.4381,419.0313 Q1463.7663,417.375 1466.2663,417.375 Q1466.9694,417.375 1467.61,417.5313 Q1468.2663,417.6875 1468.8288,417.9844 L1468.8288,420.7031 Q1468.2038,420.125 1467.61,419.8594 Q1467.0163,419.5781 1466.3913,419.5781 Q1465.0475,419.5781 1464.36,420.6563 Q1463.6725,421.7188 1463.6725,423.8125 Q1463.6725,425.9063 1464.36,426.9844 Q1465.0475,428.0469 1466.3913,428.0469 Q1467.0163,428.0469 1467.61,427.7813 Q1468.2038,427.5 1468.8288,426.9219 L1468.8288,429.6406 Z " fill="#000000"/><text fill="#000000" font-family="sans-serif" font-size="14" lengthAdjust="spacing" textLength="174.2822" x="1479.86" y="428.8467">ProsecutionManagement</text><line style="stroke:#181818;stroke-width:0.5;" x1="1451.86" x2="1656.1422" y1="440" y2="440"/><line style="stroke:#181818;stroke-width:0.5;" x1="1451.86" x2="1656.1422" y1="448" y2="448"/></g><!--class SearchManagement--><g class="entity" data-entity="SearchManagement" data-source-line="27" data-uid="ent0024" id="entity_SearchManagement"><rect fill="#F1F1F1" height="48" rx="2.5" ry="2.5" style="stroke:#181818;stroke-width:0.5;" width="172.6289" x="1467.69" y="516"/><ellipse cx="1482.69" cy="532" fill="#ADD1B2" rx="11" ry="11" style="stroke:#181818;stroke-width:1;"/><path d="M1485.6588,537.6406 Q1485.0806,537.9375 1484.44,538.0781 Q1483.7994,538.2344 1483.0963,538.2344 Q1480.5963,538.2344 1479.2681,536.5938 Q1477.9556,534.9375 1477.9556,531.8125 Q1477.9556,528.6875 1479.2681,527.0313 Q1480.5963,525.375 1483.0963,525.375 Q1483.7994,525.375 1484.44,525.5313 Q1485.0963,525.6875 1485.6588,525.9844 L1485.6588,528.7031 Q1485.0338,528.125 1484.44,527.8594 Q1483.8463,527.5781 1483.2213,527.5781 Q1481.8775,527.5781 1481.19,528.6563 Q1480.5025,529.7188 1480.5025,531.8125 Q1480.5025,533.9063 1481.19,534.9844 Q1481.8775,536.0469 1483.2213,536.0469 Q1483.8463,536.0469 1484.44,535.7813 Q1485.0338,535.5 1485.6588,534.9219 L1485.6588,537.6406 Z " fill="#000000"/><text fill="#000000" font-family="sans-serif" font-size="14" lengthAdjust="spacing" textLength="140.6289" x="1496.69" y="536.8467">SearchManagement</text><line style="stroke:#181818;stroke-width:0.5;" x1="1468.69" x2="1639.3189" y1="548" y2="548"/><line style="stroke:#181818;stroke-width:0.5;" x1="1468.69" x2="1639.3189" y1="556" y2="556"/></g><!--class AuditManagement--><g class="entity" data-entity="AuditManagement" data-source-line="28" data-uid="ent0026" id="entity_AuditManagement"><rect fill="#F1F1F1" height="48" rx="2.5" ry="2.5" style="stroke:#181818;stroke-width:0.5;" width="160.9395" x="1473.53" y="624"/><ellipse cx="1488.53" cy="640" fill="#ADD1B2" rx="11" ry="11" style="stroke:#181818;stroke-width:1;"/><path d="M1491.4988,645.6406 Q1490.9206,645.9375 1490.28,646.0781 Q1489.6394,646.2344 1488.9363,646.2344 Q1486.4363,646.2344 1485.1081,644.5938 Q1483.7956,642.9375 1483.7956,639.8125 Q1483.7956,636.6875 1485.1081,635.0313 Q1486.4363,633.375 1488.9363,633.375 Q1489.6394,633.375 1490.28,633.5313 Q1490.9363,633.6875 1491.4988,633.9844 L1491.4988,636.7031 Q1490.8738,636.125 1490.28,635.8594 Q1489.6863,635.5781 1489.0613,635.5781 Q1487.7175,635.5781 1487.03,636.6563 Q1486.3425,637.7188 1486.3425,639.8125 Q1486.3425,641.9063 1487.03,642.9844 Q1487.7175,644.0469 1489.0613,644.0469 Q1489.6863,644.0469 1490.28,643.7813 Q1490.8738,643.5 1491.4988,642.9219 L1491.4988,645.6406 Z " fill="#000000"/><text fill="#000000" font-family="sans-serif" font-size="14" lengthAdjust="spacing" textLength="128.9395" x="1502.53" y="644.8467">AuditManagement</text><line style="stroke:#181818;stroke-width:0.5;" x1="1474.53" x2="1633.4695" y1="656" y2="656"/><line style="stroke:#181818;stroke-width:0.5;" x1="1474.53" x2="1633.4695" y1="664" y2="664"/></g><!--link UserManagement to ComplaintManagement--><g class="link" data-entity-1="UserManagement" data-entity-2="ComplaintManagement" data-source-line="24" data-uid="lnk19" id="link_UserManagement_ComplaintManagement"><path codeLine="24" d="M1554,132.26 C1554,149.94 1554,168.13 1554,185.79 " fill="none" id="UserManagement-to-ComplaintManagement" style="stroke:#181818;stroke-width:1;"/><polygon fill="#181818" points="1554,191.79,1558,182.79,1554,186.79,1550,182.79,1554,191.79" style="stroke:#181818;stroke-width:1;"/></g><!--link ComplaintManagement to InvestigationManagement--><g class="link" data-entity-1="ComplaintManagement" data-entity-2="InvestigationManagement" data-source-line="25" data-uid="lnk21" id="link_ComplaintManagement_InvestigationManagement"><path codeLine="25" d="M1554,240.26 C1554,257.94 1554,276.13 1554,293.79 " fill="none" id="ComplaintManagement-to-InvestigationManagement" style="stroke:#181818;stroke-width:1;"/><polygon fill="#181818" points="1554,299.79,1558,290.79,1554,294.79,1550,290.79,1554,299.79" style="stroke:#181818;stroke-width:1;"/></g><!--link InvestigationManagement to ProsecutionManagement--><g class="link" data-entity-1="InvestigationManagement" data-entity-2="ProsecutionManagement" data-source-line="26" data-uid="lnk23" id="link_InvestigationManagement_ProsecutionManagement"><path codeLine="26" d="M1554,348.26 C1554,365.94 1554,384.13 1554,401.79 " fill="none" id="InvestigationManagement-to-ProsecutionManagement" style="stroke:#181818;stroke-width:1;"/><polygon fill="#181818" points="1554,407.79,1558,398.79,1554,402.79,1550,398.79,1554,407.79" style="stroke:#181818;stroke-width:1;"/></g><!--link ProsecutionManagement to SearchManagement--><g class="link" data-entity-1="ProsecutionManagement" data-entity-2="SearchManagement" data-source-line="27" data-uid="lnk25" id="link_ProsecutionManagement_SearchManagement"><path codeLine="27" d="M1554,456.26 C1554,473.94 1554,492.13 1554,509.79 " fill="none" id="ProsecutionManagement-to-SearchManagement" style="stroke:#181818;stroke-width:1;"/><polygon fill="#181818" points="1554,515.79,1558,506.79,1554,510.79,1550,506.79,1554,515.79" style="stroke:#181818;stroke-width:1;"/></g><!--link SearchManagement to AuditManagement--><g class="link" data-entity-1="SearchManagement" data-entity-2="AuditManagement" data-source-line="28" data-uid="lnk27" id="link_SearchManagement_AuditManagement"><path codeLine="28" d="M1554,564.26 C1554,581.94 1554,600.13 1554,617.79 " fill="none" id="SearchManagement-to-AuditManagement" style="stroke:#181818;stroke-width:1;"/><polygon fill="#181818" points="1554,623.79,1558,614.79,1554,618.79,1550,614.79,1554,623.79" style="stroke:#181818;stroke-width:1;"/></g><!--SRC=[XP513i8W44Ntd89qtokOcAvSQ9gq7e3Wf1Bfq00rKTExsr8hj46S7N_U_vCPEiPlh06Q5KLzgcZrC1RQZBu87QjRccS3cXuPZeyMq2xzgRXanj09s4Ybae932TeeH92RRY6iU08wTLWFArJRIIRG9YT-gLZ40UzWh6YO5GgJCIio5bLgPO3tVuC2BXPJ0TFycaoOaPXvtrz4-XgEg3KJykCV29d-n7jedk_yqRnE8ffZLvS9-1-wymH721nHrV7poW6w5HpbblFQ6m00]--></g></svg>