<svg xmlns="http://www.w3.org/2000/svg" xmlns:xlink="http://www.w3.org/1999/xlink" contentStyleType="text/css" data-diagram-type="CLASS" height="1009px" preserveAspectRatio="none" style="width:624px;height:1009px;background:#FFFFFF;" version="1.1" viewBox="0 0 624 1009" width="624px" zoomAndPan="magnify"><defs/><g><!--class User--><g class="entity" data-entity="User" data-source-line="1" data-uid="ent0002" id="entity_User"><rect fill="#F1F1F1" height="129.4844" rx="2.5" ry="2.5" style="stroke:#181818;stroke-width:0.5;" width="122.3936" x="267.26" y="7"/><ellipse cx="308.5775" cy="23" fill="#ADD1B2" rx="11" ry="11" style="stroke:#181818;stroke-width:1;"/><path d="M311.5463,28.6406 Q310.9682,28.9375 310.3275,29.0781 Q309.6869,29.2344 308.9838,29.2344 Q306.4838,29.2344 305.1557,27.5938 Q303.8432,25.9375 303.8432,22.8125 Q303.8432,19.6875 305.1557,18.0313 Q306.4838,16.375 308.9838,16.375 Q309.6869,16.375 310.3275,16.5313 Q310.9838,16.6875 311.5463,16.9844 L311.5463,19.7031 Q310.9213,19.125 310.3275,18.8594 Q309.7338,18.5781 309.1088,18.5781 Q307.765,18.5781 307.0775,19.6563 Q306.39,20.7188 306.39,22.8125 Q306.39,24.9063 307.0775,25.9844 Q307.765,27.0469 309.1088,27.0469 Q309.7338,27.0469 310.3275,26.7813 Q310.9213,26.5 311.5463,25.9219 L311.5463,28.6406 Z " fill="#000000"/><text fill="#000000" font-family="sans-serif" font-size="14" lengthAdjust="spacing" textLength="31.9102" x="328.4259" y="27.8467">User</text><line style="stroke:#181818;stroke-width:0.5;" x1="268.26" x2="388.6536" y1="39" y2="39"/><ellipse cx="278.26" cy="52.6484" fill="none" rx="3" ry="3" style="stroke:#038048;stroke-width:1;"/><text fill="#000000" font-family="sans-serif" font-size="14" lengthAdjust="spacing" textLength="96.3936" x="287.26" y="55.9951">userID: String</text><ellipse cx="278.26" cy="68.9453" fill="none" rx="3" ry="3" style="stroke:#038048;stroke-width:1;"/><text fill="#000000" font-family="sans-serif" font-size="14" lengthAdjust="spacing" textLength="90.6514" x="287.26" y="72.292">name: String</text><ellipse cx="278.26" cy="85.2422" fill="none" rx="3" ry="3" style="stroke:#038048;stroke-width:1;"/><text fill="#000000" font-family="sans-serif" font-size="14" lengthAdjust="spacing" textLength="77.7725" x="287.26" y="88.5889">role: String</text><line style="stroke:#181818;stroke-width:0.5;" x1="268.26" x2="388.6536" y1="95.8906" y2="95.8906"/><ellipse cx="278.26" cy="109.5391" fill="#84BE84" rx="3" ry="3" style="stroke:#038048;stroke-width:1;"/><text fill="#000000" font-family="sans-serif" font-size="14" lengthAdjust="spacing" textLength="45.0283" x="287.26" y="112.8857">login()</text><ellipse cx="278.26" cy="125.8359" fill="#84BE84" rx="3" ry="3" style="stroke:#038048;stroke-width:1;"/><text fill="#000000" font-family="sans-serif" font-size="14" lengthAdjust="spacing" textLength="55.1934" x="287.26" y="129.1826">logout()</text></g><!--class PolicePersonnel--><g class="entity" data-entity="PolicePersonnel" data-source-line="9" data-uid="ent0003" id="entity_PolicePersonnel"><rect fill="#F1F1F1" height="80.5938" rx="2.5" ry="2.5" style="stroke:#181818;stroke-width:0.5;" width="176.4932" x="24.21" y="220.93"/><ellipse cx="54.724" cy="236.93" fill="#ADD1B2" rx="11" ry="11" style="stroke:#181818;stroke-width:1;"/><path d="M57.6928,242.5706 Q57.1146,242.8675 56.474,243.0081 Q55.8334,243.1644 55.1303,243.1644 Q52.6303,243.1644 51.3021,241.5237 Q49.9896,239.8675 49.9896,236.7425 Q49.9896,233.6175 51.3021,231.9612 Q52.6303,230.305 55.1303,230.305 Q55.8334,230.305 56.474,230.4612 Q57.1303,230.6175 57.6928,230.9144 L57.6928,233.6331 Q57.0678,233.055 56.474,232.7894 Q55.8803,232.5081 55.2553,232.5081 Q53.9115,232.5081 53.224,233.5862 Q52.5365,234.6487 52.5365,236.7425 Q52.5365,238.8362 53.224,239.9144 Q53.9115,240.9769 55.2553,240.9769 Q55.8803,240.9769 56.474,240.7112 Q57.0678,240.43 57.6928,239.8519 L57.6928,242.5706 Z " fill="#000000"/><text fill="#000000" font-family="sans-serif" font-size="14" lengthAdjust="spacing" textLength="110.0176" x="72.1716" y="241.7767">PolicePersonnel</text><line style="stroke:#181818;stroke-width:0.5;" x1="25.21" x2="199.7032" y1="252.93" y2="252.93"/><line style="stroke:#181818;stroke-width:0.5;" x1="25.21" x2="199.7032" y1="260.93" y2="260.93"/><ellipse cx="35.21" cy="274.5784" fill="#84BE84" rx="3" ry="3" style="stroke:#038048;stroke-width:1;"/><text fill="#000000" font-family="sans-serif" font-size="14" lengthAdjust="spacing" textLength="136.8076" x="44.21" y="277.9251">registerComplaint()</text><ellipse cx="35.21" cy="290.8753" fill="#84BE84" rx="3" ry="3" style="stroke:#038048;stroke-width:1;"/><text fill="#000000" font-family="sans-serif" font-size="14" lengthAdjust="spacing" textLength="150.4932" x="44.21" y="294.222">initiateInvestigation()</text></g><!--class Citizen--><g class="entity" data-entity="Citizen" data-source-line="14" data-uid="ent0005" id="entity_Citizen"><rect fill="#F1F1F1" height="80.5938" rx="2.5" ry="2.5" style="stroke:#181818;stroke-width:0.5;" width="185.3594" x="235.78" y="220.93"/><ellipse cx="300.2702" cy="236.93" fill="#ADD1B2" rx="11" ry="11" style="stroke:#181818;stroke-width:1;"/><path d="M303.239,242.5706 Q302.6609,242.8675 302.0202,243.0081 Q301.3796,243.1644 300.6765,243.1644 Q298.1765,243.1644 296.8484,241.5237 Q295.5359,239.8675 295.5359,236.7425 Q295.5359,233.6175 296.8484,231.9612 Q298.1765,230.305 300.6765,230.305 Q301.3796,230.305 302.0202,230.4612 Q302.6765,230.6175 303.239,230.9144 L303.239,233.6331 Q302.614,233.055 302.0202,232.7894 Q301.4265,232.5081 300.8015,232.5081 Q299.4577,232.5081 298.7702,233.5862 Q298.0827,234.6487 298.0827,236.7425 Q298.0827,238.8362 298.7702,239.9144 Q299.4577,240.9769 300.8015,240.9769 Q301.4265,240.9769 302.0202,240.7112 Q302.614,240.43 303.239,239.8519 L303.239,242.5706 Z " fill="#000000"/><text fill="#000000" font-family="sans-serif" font-size="14" lengthAdjust="spacing" textLength="47.8789" x="320.7702" y="241.7767">Citizen</text><line style="stroke:#181818;stroke-width:0.5;" x1="236.78" x2="420.1394" y1="252.93" y2="252.93"/><line style="stroke:#181818;stroke-width:0.5;" x1="236.78" x2="420.1394" y1="260.93" y2="260.93"/><ellipse cx="246.78" cy="274.5784" fill="#84BE84" rx="3" ry="3" style="stroke:#038048;stroke-width:1;"/><text fill="#000000" font-family="sans-serif" font-size="14" lengthAdjust="spacing" textLength="130.5801" x="255.78" y="277.9251">submitComplaint()</text><ellipse cx="246.78" cy="290.8753" fill="#84BE84" rx="3" ry="3" style="stroke:#038048;stroke-width:1;"/><text fill="#000000" font-family="sans-serif" font-size="14" lengthAdjust="spacing" textLength="159.3594" x="255.78" y="294.222">viewComplaintStatus()</text></g><!--class Complaint--><g class="entity" data-entity="Complaint" data-source-line="19" data-uid="ent0007" id="entity_Complaint"><rect fill="#F1F1F1" height="129.4844" rx="2.5" ry="2.5" style="stroke:#181818;stroke-width:0.5;" width="161.3652" x="455.77" y="196.48"/><ellipse cx="496.7707" cy="212.48" fill="#ADD1B2" rx="11" ry="11" style="stroke:#181818;stroke-width:1;"/><path d="M499.7394,218.1206 Q499.1613,218.4175 498.5207,218.5581 Q497.8801,218.7144 497.1769,218.7144 Q494.6769,218.7144 493.3488,217.0737 Q492.0363,215.4175 492.0363,212.2925 Q492.0363,209.1675 493.3488,207.5112 Q494.6769,205.855 497.1769,205.855 Q497.8801,205.855 498.5207,206.0112 Q499.1769,206.1675 499.7394,206.4644 L499.7394,209.1831 Q499.1144,208.605 498.5207,208.3394 Q497.9269,208.0581 497.3019,208.0581 Q495.9582,208.0581 495.2707,209.1362 Q494.5832,210.1987 494.5832,212.2925 Q494.5832,214.3862 495.2707,215.4644 Q495.9582,216.5269 497.3019,216.5269 Q497.9269,216.5269 498.5207,216.2612 Q499.1144,215.98 499.7394,215.4019 L499.7394,218.1206 Z " fill="#000000"/><text fill="#000000" font-family="sans-serif" font-size="14" lengthAdjust="spacing" textLength="71.5859" x="516.5486" y="217.3267">Complaint</text><line style="stroke:#181818;stroke-width:0.5;" x1="456.77" x2="616.1352" y1="228.48" y2="228.48"/><ellipse cx="466.77" cy="242.1284" fill="none" rx="3" ry="3" style="stroke:#038048;stroke-width:1;"/><text fill="#000000" font-family="sans-serif" font-size="14" lengthAdjust="spacing" textLength="135.3652" x="475.77" y="245.4751">complaintID: String</text><ellipse cx="466.77" cy="258.4253" fill="none" rx="3" ry="3" style="stroke:#038048;stroke-width:1;"/><text fill="#000000" font-family="sans-serif" font-size="14" lengthAdjust="spacing" textLength="128.7891" x="475.77" y="261.772">description: String</text><ellipse cx="466.77" cy="274.7222" fill="none" rx="3" ry="3" style="stroke:#038048;stroke-width:1;"/><text fill="#000000" font-family="sans-serif" font-size="14" lengthAdjust="spacing" textLength="93.9668" x="475.77" y="278.0689">status: String</text><line style="stroke:#181818;stroke-width:0.5;" x1="456.77" x2="616.1352" y1="285.3706" y2="285.3706"/><ellipse cx="466.77" cy="299.0191" fill="#84BE84" rx="3" ry="3" style="stroke:#038048;stroke-width:1;"/><text fill="#000000" font-family="sans-serif" font-size="14" lengthAdjust="spacing" textLength="65.2217" x="475.77" y="302.3657">register()</text><ellipse cx="466.77" cy="315.3159" fill="#84BE84" rx="3" ry="3" style="stroke:#038048;stroke-width:1;"/><text fill="#000000" font-family="sans-serif" font-size="14" lengthAdjust="spacing" textLength="104.8633" x="475.77" y="318.6626">updateStatus()</text></g><!--class Investigation--><g class="entity" data-entity="Investigation" data-source-line="27" data-uid="ent0008" id="entity_Investigation"><rect fill="#F1F1F1" height="129.4844" rx="2.5" ry="2.5" style="stroke:#181818;stroke-width:0.5;" width="183.8623" x="20.52" y="385.97"/><ellipse cx="62.9726" cy="401.97" fill="#ADD1B2" rx="11" ry="11" style="stroke:#181818;stroke-width:1;"/><path d="M65.9414,407.6106 Q65.3633,407.9075 64.7226,408.0481 Q64.082,408.2044 63.3789,408.2044 Q60.8789,408.2044 59.5508,406.5637 Q58.2383,404.9075 58.2383,401.7825 Q58.2383,398.6575 59.5508,397.0012 Q60.8789,395.345 63.3789,395.345 Q64.082,395.345 64.7226,395.5012 Q65.3789,395.6575 65.9414,395.9544 L65.9414,398.6731 Q65.3164,398.095 64.7226,397.8294 Q64.1289,397.5481 63.5039,397.5481 Q62.1601,397.5481 61.4726,398.6262 Q60.7851,399.6887 60.7851,401.7825 Q60.7851,403.8762 61.4726,404.9544 Q62.1601,406.0169 63.5039,406.0169 Q64.1289,406.0169 64.7226,405.7512 Q65.3164,405.47 65.9414,404.8919 L65.9414,407.6106 Z " fill="#000000"/><text fill="#000000" font-family="sans-serif" font-size="14" lengthAdjust="spacing" textLength="90.8564" x="83.0732" y="406.8167">Investigation</text><line style="stroke:#181818;stroke-width:0.5;" x1="21.52" x2="203.3823" y1="417.97" y2="417.97"/><ellipse cx="31.52" cy="431.6184" fill="none" rx="3" ry="3" style="stroke:#038048;stroke-width:1;"/><text fill="#000000" font-family="sans-serif" font-size="14" lengthAdjust="spacing" textLength="156.4746" x="40.52" y="434.9651">investigationID: String</text><ellipse cx="31.52" cy="447.9153" fill="none" rx="3" ry="3" style="stroke:#038048;stroke-width:1;"/><text fill="#000000" font-family="sans-serif" font-size="14" lengthAdjust="spacing" textLength="108.6982" x="40.52" y="451.262">startDate: Date</text><ellipse cx="31.52" cy="464.2122" fill="none" rx="3" ry="3" style="stroke:#038048;stroke-width:1;"/><text fill="#000000" font-family="sans-serif" font-size="14" lengthAdjust="spacing" textLength="102.4639" x="40.52" y="467.5589">endDate: Date</text><line style="stroke:#181818;stroke-width:0.5;" x1="21.52" x2="203.3823" y1="474.8606" y2="474.8606"/><ellipse cx="31.52" cy="488.5091" fill="#84BE84" rx="3" ry="3" style="stroke:#038048;stroke-width:1;"/><text fill="#000000" font-family="sans-serif" font-size="14" lengthAdjust="spacing" textLength="157.8623" x="40.52" y="491.8557">conductInvestigation()</text><ellipse cx="31.52" cy="504.8059" fill="#84BE84" rx="3" ry="3" style="stroke:#038048;stroke-width:1;"/><text fill="#000000" font-family="sans-serif" font-size="14" lengthAdjust="spacing" textLength="121.3857" x="40.52" y="508.1526">generateReport()</text></g><!--class Prosecution--><g class="entity" data-entity="Prosecution" data-source-line="35" data-uid="ent0009" id="entity_Prosecution"><rect fill="#F1F1F1" height="96.8906" rx="2.5" ry="2.5" style="stroke:#181818;stroke-width:0.5;" width="196.6113" x="14.15" y="575.45"/><ellipse cx="67.1764" cy="591.45" fill="#ADD1B2" rx="11" ry="11" style="stroke:#181818;stroke-width:1;"/><path d="M70.1451,597.0906 Q69.567,597.3875 68.9264,597.5281 Q68.2857,597.6844 67.5826,597.6844 Q65.0826,597.6844 63.7545,596.0437 Q62.442,594.3875 62.442,591.2625 Q62.442,588.1375 63.7545,586.4812 Q65.0826,584.825 67.5826,584.825 Q68.2857,584.825 68.9264,584.9812 Q69.5826,585.1375 70.1451,585.4344 L70.1451,588.1531 Q69.5201,587.575 68.9264,587.3094 Q68.3326,587.0281 67.7076,587.0281 Q66.3639,587.0281 65.6764,588.1062 Q64.9889,589.1687 64.9889,591.2625 Q64.9889,593.3562 65.6764,594.4344 Q66.3639,595.4969 67.7076,595.4969 Q68.3326,595.4969 68.9264,595.2312 Q69.5201,594.95 70.1451,594.3719 L70.1451,597.0906 Z " fill="#000000"/><text fill="#000000" font-family="sans-serif" font-size="14" lengthAdjust="spacing" textLength="82.0586" x="87.6764" y="596.2967">Prosecution</text><line style="stroke:#181818;stroke-width:0.5;" x1="15.15" x2="209.7613" y1="607.45" y2="607.45"/><ellipse cx="25.15" cy="621.0984" fill="none" rx="3" ry="3" style="stroke:#038048;stroke-width:1;"/><text fill="#000000" font-family="sans-serif" font-size="14" lengthAdjust="spacing" textLength="148.3604" x="34.15" y="624.4451">prosecutionID: String</text><ellipse cx="25.15" cy="637.3953" fill="none" rx="3" ry="3" style="stroke:#038048;stroke-width:1;"/><text fill="#000000" font-family="sans-serif" font-size="14" lengthAdjust="spacing" textLength="112.4717" x="34.15" y="640.742">courtDate: Date</text><line style="stroke:#181818;stroke-width:0.5;" x1="15.15" x2="209.7613" y1="648.0437" y2="648.0437"/><ellipse cx="25.15" cy="661.6922" fill="#84BE84" rx="3" ry="3" style="stroke:#038048;stroke-width:1;"/><text fill="#000000" font-family="sans-serif" font-size="14" lengthAdjust="spacing" textLength="170.6113" x="34.15" y="665.0389">recordCourtInteraction()</text></g><!--class Search--><g class="entity" data-entity="Search" data-source-line="41" data-uid="ent0010" id="entity_Search"><rect fill="#F1F1F1" height="96.8906" rx="2.5" ry="2.5" style="stroke:#181818;stroke-width:0.5;" width="210.9121" x="7" y="732.34"/><ellipse cx="84.0034" cy="748.34" fill="#ADD1B2" rx="11" ry="11" style="stroke:#181818;stroke-width:1;"/><path d="M86.9722,753.9806 Q86.394,754.2775 85.7534,754.4181 Q85.1128,754.5744 84.4097,754.5744 Q81.9097,754.5744 80.5815,752.9338 Q79.269,751.2775 79.269,748.1525 Q79.269,745.0275 80.5815,743.3713 Q81.9097,741.715 84.4097,741.715 Q85.1128,741.715 85.7534,741.8713 Q86.4097,742.0275 86.9722,742.3244 L86.9722,745.0431 Q86.3472,744.465 85.7534,744.1994 Q85.1597,743.9181 84.5347,743.9181 Q83.1909,743.9181 82.5034,744.9963 Q81.8159,746.0588 81.8159,748.1525 Q81.8159,750.2463 82.5034,751.3244 Q83.1909,752.3869 84.5347,752.3869 Q85.1597,752.3869 85.7534,752.1213 Q86.3472,751.84 86.9722,751.2619 L86.9722,753.9806 Z " fill="#000000"/><text fill="#000000" font-family="sans-serif" font-size="14" lengthAdjust="spacing" textLength="48.4053" x="104.5034" y="753.1867">Search</text><line style="stroke:#181818;stroke-width:0.5;" x1="8" x2="216.9121" y1="764.34" y2="764.34"/><ellipse cx="18" cy="777.9884" fill="none" rx="3" ry="3" style="stroke:#038048;stroke-width:1;"/><text fill="#000000" font-family="sans-serif" font-size="14" lengthAdjust="spacing" textLength="112.6699" x="27" y="781.3351">searchID: String</text><line style="stroke:#181818;stroke-width:0.5;" x1="8" x2="216.9121" y1="788.6369" y2="788.6369"/><ellipse cx="18" cy="802.2853" fill="#84BE84" rx="3" ry="3" style="stroke:#038048;stroke-width:1;"/><text fill="#000000" font-family="sans-serif" font-size="14" lengthAdjust="spacing" textLength="152.5781" x="27" y="805.632">executeBasicSearch()</text><ellipse cx="18" cy="818.5822" fill="#84BE84" rx="3" ry="3" style="stroke:#038048;stroke-width:1;"/><text fill="#000000" font-family="sans-serif" font-size="14" lengthAdjust="spacing" textLength="184.9121" x="27" y="821.9289">executeAdvancedSearch()</text></g><!--class AuditTrail--><g class="entity" data-entity="AuditTrail" data-source-line="47" data-uid="ent0011" id="entity_AuditTrail"><rect fill="#F1F1F1" height="113.1875" rx="2.5" ry="2.5" style="stroke:#181818;stroke-width:0.5;" width="144.1455" x="40.38" y="889.23"/><ellipse cx="75.5237" cy="905.23" fill="#ADD1B2" rx="11" ry="11" style="stroke:#181818;stroke-width:1;"/><path d="M78.4924,910.8706 Q77.9143,911.1675 77.2737,911.3081 Q76.633,911.4644 75.9299,911.4644 Q73.4299,911.4644 72.1018,909.8237 Q70.7893,908.1675 70.7893,905.0425 Q70.7893,901.9175 72.1018,900.2612 Q73.4299,898.605 75.9299,898.605 Q76.633,898.605 77.2737,898.7612 Q77.9299,898.9175 78.4924,899.2144 L78.4924,901.9331 Q77.8674,901.355 77.2737,901.0894 Q76.6799,900.8081 76.0549,900.8081 Q74.7112,900.8081 74.0237,901.8862 Q73.3362,902.9487 73.3362,905.0425 Q73.3362,907.1362 74.0237,908.2144 Q74.7112,909.2769 76.0549,909.2769 Q76.6799,909.2769 77.2737,909.0112 Q77.8674,908.73 78.4924,908.1519 L78.4924,910.8706 Z " fill="#000000"/><text fill="#000000" font-family="sans-serif" font-size="14" lengthAdjust="spacing" textLength="67.3818" x="94" y="910.0767">AuditTrail</text><line style="stroke:#181818;stroke-width:0.5;" x1="41.38" x2="183.5255" y1="921.23" y2="921.23"/><ellipse cx="51.38" cy="934.8784" fill="none" rx="3" ry="3" style="stroke:#038048;stroke-width:1;"/><text fill="#000000" font-family="sans-serif" font-size="14" lengthAdjust="spacing" textLength="87.1992" x="60.38" y="938.2251">logID: String</text><ellipse cx="51.38" cy="951.1753" fill="none" rx="3" ry="3" style="stroke:#038048;stroke-width:1;"/><text fill="#000000" font-family="sans-serif" font-size="14" lengthAdjust="spacing" textLength="94.042" x="60.38" y="954.522">action: String</text><ellipse cx="51.38" cy="967.4722" fill="none" rx="3" ry="3" style="stroke:#038048;stroke-width:1;"/><text fill="#000000" font-family="sans-serif" font-size="14" lengthAdjust="spacing" textLength="118.1455" x="60.38" y="970.8189">timestamp: Date</text><line style="stroke:#181818;stroke-width:0.5;" x1="41.38" x2="183.5255" y1="978.1206" y2="978.1206"/><ellipse cx="51.38" cy="991.7691" fill="#84BE84" rx="3" ry="3" style="stroke:#038048;stroke-width:1;"/><text fill="#000000" font-family="sans-serif" font-size="14" lengthAdjust="spacing" textLength="76.3574" x="60.38" y="995.1157">logAction()</text></g><!--reverse link User to PolicePersonnel--><g class="link" data-entity-1="User" data-entity-2="PolicePersonnel" data-source-line="10" data-uid="lnk4" id="link_User_PolicePersonnel"><path d="M253.2559,138.0083 C218.5859,168.0983 189.64,193.23 158,220.69 " fill="none" id="User-backto-PolicePersonnel" style="stroke:#181818;stroke-width:1;"/><polygon fill="none" points="266.85,126.21,249.3231,133.4769,257.1886,142.5397,266.85,126.21" style="stroke:#181818;stroke-width:1;"/></g><!--reverse link User to Citizen--><g class="link" data-entity-1="User" data-entity-2="Citizen" data-source-line="15" data-uid="lnk6" id="link_User_Citizen"><path d="M328.46,154.74 C328.46,182.53 328.46,196.21 328.46,220.53 " fill="none" id="User-backto-Citizen" style="stroke:#181818;stroke-width:1;"/><polygon fill="none" points="328.46,136.74,322.46,154.74,334.46,154.74,328.46,136.74" style="stroke:#181818;stroke-width:1;"/></g><!--link User to Complaint--><g class="link" data-entity-1="User" data-entity-2="Complaint" data-source-line="54" data-uid="lnk12" id="link_User_Complaint"><path codeLine="54" d="M390.02,128.23 C413.74,149.61 441.01,174.19 465.54,196.31 " fill="none" id="User-Complaint" style="stroke:#181818;stroke-width:1;"/><text fill="#000000" font-family="sans-serif" font-size="13" lengthAdjust="spacing" textLength="8.271" x="397.6164" y="130.9688">1</text><text fill="#000000" font-family="sans-serif" font-size="13" lengthAdjust="spacing" textLength="23.0356" x="433.5281" y="185.4641">0..*</text></g><!--link PolicePersonnel to Investigation--><g class="link" data-entity-1="PolicePersonnel" data-entity-2="Investigation" data-source-line="55" data-uid="lnk13" id="link_PolicePersonnel_Investigation"><path codeLine="55" d="M112.46,301.99 C112.46,326.28 112.46,357.91 112.46,385.66 " fill="none" id="PolicePersonnel-Investigation" style="stroke:#181818;stroke-width:1;"/><text fill="#000000" font-family="sans-serif" font-size="13" lengthAdjust="spacing" textLength="8.271" x="103.8688" y="321.4574">1</text><text fill="#000000" font-family="sans-serif" font-size="13" lengthAdjust="spacing" textLength="23.0356" x="88.2051" y="374.7988">0..*</text></g><!--link Investigation to Prosecution--><g class="link" data-entity-1="Investigation" data-entity-2="Prosecution" data-source-line="56" data-uid="lnk14" id="link_Investigation_Prosecution"><path codeLine="56" d="M112.46,515.94 C112.46,535.58 112.46,556.82 112.46,575.16 " fill="none" id="Investigation-Prosecution" style="stroke:#181818;stroke-width:1;"/><text fill="#000000" font-family="sans-serif" font-size="13" lengthAdjust="spacing" textLength="8.271" x="104.0624" y="535.5138">1</text><text fill="#000000" font-family="sans-serif" font-size="13" lengthAdjust="spacing" textLength="23.0356" x="87.8459" y="564.3281">0..*</text></g><!--link Prosecution to Search--><g class="link" data-entity-1="Prosecution" data-entity-2="Search" data-source-line="57" data-uid="lnk15" id="link_Prosecution_Search"><path codeLine="57" d="M112.46,672.63 C112.46,691.48 112.46,713.09 112.46,731.94 " fill="none" id="Prosecution-Search" style="stroke:#181818;stroke-width:1;"/><text fill="#000000" font-family="sans-serif" font-size="13" lengthAdjust="spacing" textLength="8.271" x="103.9413" y="692.2624">1</text><text fill="#000000" font-family="sans-serif" font-size="13" lengthAdjust="spacing" textLength="23.0356" x="87.9176" y="721.4444">0..*</text></g><!--link Search to AuditTrail--><g class="link" data-entity-1="Search" data-entity-2="AuditTrail" data-source-line="58" data-uid="lnk16" id="link_Search_AuditTrail"><path codeLine="58" d="M112.46,829.38 C112.46,847.99 112.46,869.47 112.46,888.82 " fill="none" id="Search-AuditTrail" style="stroke:#181818;stroke-width:1;"/><text fill="#000000" font-family="sans-serif" font-size="13" lengthAdjust="spacing" textLength="8.271" x="103.9171" y="849.3445">1</text><text fill="#000000" font-family="sans-serif" font-size="13" lengthAdjust="spacing" textLength="23.0356" x="88.0615" y="878.0336">0..*</text></g><!--SRC=[RLAxRiCm3Dpz5KAcFf2WNREboP8jQDeFK2N29M1J1aMbGOl-UsKxSYob7WphZZuUZpADzbwzUs3rKwduF8RulT-jrL4OgHunqYta2BkcG1fN8ztTJmSN99v-gyeCBGwkGGC7OE-8e55m5Y2RjsQeqGlmrhLTev4aoI6Xe1ROqmcyOAq57StLjv7_1lfNrOUF5kL6yuJmDO57qH9yffYe96CIK8PZmHl6hhUK4tuGBNAxZ9XSXCx6kMxRPvCc2pW7Inkn6yikYgrL_nx164O96KSs62cZ7BWQ23XMlaBdE5yVEmycpDrqLwZqObouzS9W7DjjJ-qfHg1DkSKZQ3QVqzw6KoaDvxudl6YFPgnFvY_Cnfuq6R0JESblWaLvOurDQX6lQQa_kienmJPcfTjkFaxyTpEROBXnY-U5MYxLuccrUbXShr1LNlwyBbj5bMy-hvnjePfl9AyQ9wykQURSDOC_]--></g></svg>