<svg xmlns="http://www.w3.org/2000/svg" xmlns:xlink="http://www.w3.org/1999/xlink" contentStyleType="text/css" data-diagram-type="STATE" height="607px" preserveAspectRatio="none" style="width:258px;height:607px;background:#FFFFFF;" version="1.1" viewBox="0 0 258 607" width="258px" zoomAndPan="magnify"><defs/><g><ellipse cx="87.12" cy="16" fill="#222222" rx="10" ry="10" style="stroke:#222222;stroke-width:1;"/><g id="Registered"><rect fill="#F1F1F1" height="50" rx="12.5" ry="12.5" style="stroke:#181818;stroke-width:0.5;" width="95.7695" x="39.23" y="87"/><line style="stroke:#181818;stroke-width:0.5;" x1="39.23" x2="134.9995" y1="113.2969" y2="113.2969"/><text fill="#000000" font-family="sans-serif" font-size="14" lengthAdjust="spacing" textLength="75.7695" x="49.23" y="104.9951">Registered</text></g><g id="Under_Investigation"><rect fill="#F1F1F1" height="50" rx="12.5" ry="12.5" style="stroke:#181818;stroke-width:0.5;" width="160.2324" x="7" y="214"/><line style="stroke:#181818;stroke-width:0.5;" x1="7" x2="167.2324" y1="240.2969" y2="240.2969"/><text fill="#000000" font-family="sans-serif" font-size="14" lengthAdjust="spacing" textLength="140.2324" x="17" y="231.9951">Under_Investigation</text></g><g id="Prosecution"><rect fill="#F1F1F1" height="50" rx="12.5" ry="12.5" style="stroke:#181818;stroke-width:0.5;" width="102.0586" x="36.09" y="341"/><line style="stroke:#181818;stroke-width:0.5;" x1="36.09" x2="138.1486" y1="367.2969" y2="367.2969"/><text fill="#000000" font-family="sans-serif" font-size="14" lengthAdjust="spacing" textLength="82.0586" x="46.09" y="358.9951">Prosecution</text></g><g id="Closed"><rect fill="#F1F1F1" height="50" rx="12.5" ry="12.5" style="stroke:#181818;stroke-width:0.5;" width="67.0244" x="53.6" y="468"/><line style="stroke:#181818;stroke-width:0.5;" x1="53.6" x2="120.6244" y1="494.2969" y2="494.2969"/><text fill="#000000" font-family="sans-serif" font-size="14" lengthAdjust="spacing" textLength="47.0244" x="63.6" y="485.9951">Closed</text></g><ellipse cx="87.12" cy="590" fill="none" rx="11" ry="11" style="stroke:#222222;stroke-width:1;"/><ellipse cx="87.12" cy="590" fill="#222222" rx="6" ry="6" style="stroke:#222222;stroke-width:1;"/><!--link *start* to Registered--><g class="link" data-entity-1="*start*" data-entity-2="Registered" data-source-line="1" data-uid="lnk4" id="link_*start*_Registered"><path d="M87.12,26.36 C87.12,40.29 87.12,60.95 87.12,80.65 " fill="none" id="*start*-to-Registered" style="stroke:#181818;stroke-width:1;"/><polygon fill="#181818" points="87.12,86.65,91.12,77.65,87.12,81.65,83.12,77.65,87.12,86.65" style="stroke:#181818;stroke-width:1;"/></g><!--link Registered to Under_Investigation--><g class="link" data-entity-1="Registered" data-entity-2="Under_Investigation" data-source-line="2" data-uid="lnk6" id="link_Registered_Under_Investigation"><path d="M87.12,137.4 C87.12,159.42 87.12,185.66 87.12,207.66 " fill="none" id="Registered-to-Under_Investigation" style="stroke:#181818;stroke-width:1;"/><polygon fill="#181818" points="87.12,213.66,91.12,204.66,87.12,208.66,83.12,204.66,87.12,213.66" style="stroke:#181818;stroke-width:1;"/><text fill="#000000" font-family="sans-serif" font-size="13" lengthAdjust="spacing" textLength="145.9136" x="88.12" y="180.0669">"Initiate Investigation"</text></g><!--link Under_Investigation to Prosecution--><g class="link" data-entity-1="Under_Investigation" data-entity-2="Prosecution" data-source-line="3" data-uid="lnk8" id="link_Under_Investigation_Prosecution"><path d="M87.12,264.4 C87.12,286.42 87.12,312.66 87.12,334.66 " fill="none" id="Under_Investigation-to-Prosecution" style="stroke:#181818;stroke-width:1;"/><polygon fill="#181818" points="87.12,340.66,91.12,331.66,87.12,335.66,83.12,331.66,87.12,340.66" style="stroke:#181818;stroke-width:1;"/><text fill="#000000" font-family="sans-serif" font-size="13" lengthAdjust="spacing" textLength="162.0049" x="88.12" y="307.0669">"Proceed to Prosecution"</text></g><!--link Prosecution to Closed--><g class="link" data-entity-1="Prosecution" data-entity-2="Closed" data-source-line="4" data-uid="lnk10" id="link_Prosecution_Closed"><path d="M87.12,391.4 C87.12,413.42 87.12,439.66 87.12,461.66 " fill="none" id="Prosecution-to-Closed" style="stroke:#181818;stroke-width:1;"/><polygon fill="#181818" points="87.12,467.66,91.12,458.66,87.12,462.66,83.12,458.66,87.12,467.66" style="stroke:#181818;stroke-width:1;"/><text fill="#000000" font-family="sans-serif" font-size="13" lengthAdjust="spacing" textLength="91.5713" x="88.12" y="434.0669">"Case Closed"</text></g><!--link Closed to *end*--><g class="link" data-entity-1="Closed" data-entity-2="*end*" data-source-line="5" data-uid="lnk12" id="link_Closed_*end*"><path d="M87.12,518.46 C87.12,538.04 87.12,558.49 87.12,572.8 " fill="none" id="Closed-to-*end*" style="stroke:#181818;stroke-width:1;"/><polygon fill="#181818" points="87.12,578.8,91.12,569.8,87.12,573.8,83.12,569.8,87.12,578.8" style="stroke:#181818;stroke-width:1;"/></g><!--SRC=[YzQALT3LjLC8IatFB2v9BKfDuK8mmJAXUIcfHV6UUMMfnIMPwOabcVbv2bOAIfvvcIMPYIMf2YWoIbpOb8EC2IZABqvDBeLf1tAJKu4sbEGZooXn8Ii3QNFE0V9JG3gS4ujJeLmbBgWmI4MqLYm0]--></g></svg>