<svg xmlns="http://www.w3.org/2000/svg" xmlns:xlink="http://www.w3.org/1999/xlink" contentStyleType="text/css" data-diagram-type="DESCRIPTION" height="550px" preserveAspectRatio="none" style="width:229px;height:550px;background:#FFFFFF;" version="1.1" viewBox="0 0 229 550" width="229px" zoomAndPan="magnify"><defs/><g><!--cluster CCTNS System--><g class="cluster" data-entity="CCTNS System" data-source-line="1" data-uid="ent0002" id="cluster_CCTNS System"><polygon fill="none" points="16,16,26,6,212,6,212,523.48,202,533.48,16,533.48,16,16" style="stroke:#181818;stroke-width:1;"/><line style="stroke:#181818;stroke-width:1;" x1="202" x2="212" y1="16" y2="6"/><line style="stroke:#181818;stroke-width:1;" x1="16" x2="202" y1="16" y2="16"/><line style="stroke:#181818;stroke-width:1;" x1="202" x2="202" y1="16" y2="533.48"/><text fill="#000000" font-family="sans-serif" font-size="14" font-weight="bold" lengthAdjust="spacing" textLength="115.0898" x="52.4551" y="31.9951">CCTNS System</text></g><!--entity Web Application--><g class="entity" data-entity="Web Application" data-source-line="2" data-uid="ent0003" id="entity_Web Application"><rect fill="#F1F1F1" height="46.2969" rx="2.5" ry="2.5" style="stroke:#181818;stroke-width:0.5;" width="154.0166" x="36.99" y="46"/><rect fill="#F1F1F1" height="10" style="stroke:#181818;stroke-width:0.5;" width="15" x="171.0066" y="51"/><rect fill="#F1F1F1" height="2" style="stroke:#181818;stroke-width:0.5;" width="4" x="169.0066" y="53"/><rect fill="#F1F1F1" height="2" style="stroke:#181818;stroke-width:0.5;" width="4" x="169.0066" y="57"/><text fill="#000000" font-family="sans-serif" font-size="14" lengthAdjust="spacing" textLength="114.0166" x="51.99" y="78.9951">Web Application</text></g><!--entity API Gateway--><g class="entity" data-entity="API Gateway" data-source-line="2" data-uid="ent0004" id="entity_API Gateway"><rect fill="#F1F1F1" height="46.2969" rx="2.5" ry="2.5" style="stroke:#181818;stroke-width:0.5;" width="128.4434" x="49.78" y="152.29"/><rect fill="#F1F1F1" height="10" style="stroke:#181818;stroke-width:0.5;" width="15" x="158.2234" y="157.29"/><rect fill="#F1F1F1" height="2" style="stroke:#181818;stroke-width:0.5;" width="4" x="156.2234" y="159.29"/><rect fill="#F1F1F1" height="2" style="stroke:#181818;stroke-width:0.5;" width="4" x="156.2234" y="163.29"/><text fill="#000000" font-family="sans-serif" font-size="14" lengthAdjust="spacing" textLength="88.4434" x="64.78" y="185.2851">API Gateway</text></g><!--entity Backend Services--><g class="entity" data-entity="Backend Services" data-source-line="3" data-uid="ent0006" id="entity_Backend Services"><rect fill="#F1F1F1" height="46.2969" rx="2.5" ry="2.5" style="stroke:#181818;stroke-width:0.5;" width="163.8467" x="32.08" y="258.59"/><rect fill="#F1F1F1" height="10" style="stroke:#181818;stroke-width:0.5;" width="15" x="175.9267" y="263.59"/><rect fill="#F1F1F1" height="2" style="stroke:#181818;stroke-width:0.5;" width="4" x="173.9267" y="265.59"/><rect fill="#F1F1F1" height="2" style="stroke:#181818;stroke-width:0.5;" width="4" x="173.9267" y="269.59"/><text fill="#000000" font-family="sans-serif" font-size="14" lengthAdjust="spacing" textLength="123.8467" x="47.08" y="291.5851">Backend Services</text></g><!--entity Database--><g class="entity" data-entity="Database" data-source-line="4" data-uid="ent0008" id="entity_Database"><rect fill="#F1F1F1" height="46.2969" rx="2.5" ry="2.5" style="stroke:#181818;stroke-width:0.5;" width="106.8008" x="60.6" y="364.89"/><rect fill="#F1F1F1" height="10" style="stroke:#181818;stroke-width:0.5;" width="15" x="147.4008" y="369.89"/><rect fill="#F1F1F1" height="2" style="stroke:#181818;stroke-width:0.5;" width="4" x="145.4008" y="371.89"/><rect fill="#F1F1F1" height="2" style="stroke:#181818;stroke-width:0.5;" width="4" x="145.4008" y="375.89"/><text fill="#000000" font-family="sans-serif" font-size="14" lengthAdjust="spacing" textLength="66.8008" x="75.6" y="397.8851">Database</text></g><!--entity Audit Trail--><g class="entity" data-entity="Audit Trail" data-source-line="5" data-uid="ent0010" id="entity_Audit Trail"><rect fill="#F1F1F1" height="46.2969" rx="2.5" ry="2.5" style="stroke:#181818;stroke-width:0.5;" width="111.832" x="58.08" y="471.18"/><rect fill="#F1F1F1" height="10" style="stroke:#181818;stroke-width:0.5;" width="15" x="149.912" y="476.18"/><rect fill="#F1F1F1" height="2" style="stroke:#181818;stroke-width:0.5;" width="4" x="147.912" y="478.18"/><rect fill="#F1F1F1" height="2" style="stroke:#181818;stroke-width:0.5;" width="4" x="147.912" y="482.18"/><text fill="#000000" font-family="sans-serif" font-size="14" lengthAdjust="spacing" textLength="71.832" x="73.08" y="504.1751">Audit Trail</text></g><!--link Web Application to API Gateway--><g class="link" data-entity-1="Web Application" data-entity-2="API Gateway" data-source-line="2" data-uid="lnk5" id="link_Web Application_API Gateway"><path d="M114,92.77 C114,110.27 114,128.37 114,145.85 " fill="none" id="Web Application-to-API Gateway" style="stroke:#181818;stroke-width:1;"/><polygon fill="#181818" points="114,151.85,118,142.85,114,146.85,110,142.85,114,151.85" style="stroke:#181818;stroke-width:1;"/></g><!--link API Gateway to Backend Services--><g class="link" data-entity-1="API Gateway" data-entity-2="Backend Services" data-source-line="3" data-uid="lnk7" id="link_API Gateway_Backend Services"><path d="M114,199.07 C114,216.57 114,234.67 114,252.15 " fill="none" id="API Gateway-to-Backend Services" style="stroke:#181818;stroke-width:1;"/><polygon fill="#181818" points="114,258.15,118,249.15,114,253.15,110,249.15,114,258.15" style="stroke:#181818;stroke-width:1;"/></g><!--link Backend Services to Database--><g class="link" data-entity-1="Backend Services" data-entity-2="Database" data-source-line="4" data-uid="lnk9" id="link_Backend Services_Database"><path d="M114,305.37 C114,322.86 114,340.97 114,358.45 " fill="none" id="Backend Services-to-Database" style="stroke:#181818;stroke-width:1;"/><polygon fill="#181818" points="114,364.45,118,355.45,114,359.45,110,355.45,114,364.45" style="stroke:#181818;stroke-width:1;"/></g><!--link Database to Audit Trail--><g class="link" data-entity-1="Database" data-entity-2="Audit Trail" data-source-line="5" data-uid="lnk11" id="link_Database_Audit Trail"><path d="M114,411.67 C114,429.16 114,447.26 114,464.74 " fill="none" id="Database-to-Audit Trail" style="stroke:#181818;stroke-width:1;"/><polygon fill="#181818" points="114,470.74,118,461.74,114,465.74,110,461.74,114,470.74" style="stroke:#181818;stroke-width:1;"/></g><!--SRC=[oyjFILLGSdOEyGjM2AuiBadDLLAevb80WkZmr2G5nuA2dCpan9BC_BnO1LrTEuLenm1F1VV4ajJonCfOY3fa4OWQfyJaxDIy58NWrAAopEJKOgX23668QfV4aiIanE9Kg2eu5sfVQKfcYK98KM9cJYnNBG00]--></g></svg>