<svg xmlns="http://www.w3.org/2000/svg" xmlns:xlink="http://www.w3.org/1999/xlink" contentStyleType="text/css" data-diagram-type="SEQUENCE" height="531px" preserveAspectRatio="none" style="width:591px;height:531px;background:#FFFFFF;" version="1.1" viewBox="0 0 591 531" width="591px" zoomAndPan="magnify"><defs/><g><g><title>User</title><rect fill="#000000" fill-opacity="0.00000" height="369.5938" width="8" x="19.9551" y="81.2969"/><line style="stroke:#181818;stroke-width:0.5;stroke-dasharray:5.0,5.0;" x1="23" x2="23" y1="81.2969" y2="450.8906"/></g><g><title>User Interface</title><rect fill="#000000" fill-opacity="0.00000" height="369.5938" width="8" x="184.9175" y="81.2969"/><line style="stroke:#181818;stroke-width:0.5;stroke-dasharray:5.0,5.0;" x1="188.3979" x2="188.3979" y1="81.2969" y2="450.8906"/></g><g><title>Backend Services</title><rect fill="#000000" fill-opacity="0.00000" height="369.5938" width="8" x="376.3623" y="81.2969"/><line style="stroke:#181818;stroke-width:0.5;stroke-dasharray:5.0,5.0;" x1="379.439" x2="379.439" y1="81.2969" y2="450.8906"/></g><g><title>Database</title><rect fill="#000000" fill-opacity="0.00000" height="369.5938" width="8" x="540.6772" y="81.2969"/><line style="stroke:#181818;stroke-width:0.5;stroke-dasharray:5.0,5.0;" x1="544.2769" x2="544.2769" y1="81.2969" y2="450.8906"/></g><g class="participant participant-head" data-participant="User"><text fill="#000000" font-family="sans-serif" font-size="14" lengthAdjust="spacing" textLength="31.9102" x="5" y="77.9951">User</text><ellipse cx="23.9551" cy="13.5" fill="#E2E2F0" rx="8" ry="8" style="stroke:#181818;stroke-width:0.5;"/><path d="M23.9551,21.5 L23.9551,48.5 M10.9551,29.5 L36.9551,29.5 M23.9551,48.5 L10.9551,63.5 M23.9551,48.5 L36.9551,63.5 " fill="none" style="stroke:#181818;stroke-width:0.5;"/></g><g class="participant participant-tail" data-participant="User"><text fill="#000000" font-family="sans-serif" font-size="14" lengthAdjust="spacing" textLength="31.9102" x="5" y="462.8857">User</text><ellipse cx="23.9551" cy="474.6875" fill="#E2E2F0" rx="8" ry="8" style="stroke:#181818;stroke-width:0.5;"/><path d="M23.9551,482.6875 L23.9551,509.6875 M10.9551,490.6875 L36.9551,490.6875 M23.9551,509.6875 L10.9551,524.6875 M23.9551,509.6875 L36.9551,524.6875 " fill="none" style="stroke:#181818;stroke-width:0.5;"/></g><g class="participant participant-head" data-participant="UI"><rect fill="#E2E2F0" height="30.2969" rx="2.5" ry="2.5" style="stroke:#181818;stroke-width:0.5;" width="113.0391" x="132.3979" y="50"/><text fill="#000000" font-family="sans-serif" font-size="14" lengthAdjust="spacing" textLength="99.0391" x="139.3979" y="69.9951">User Interface</text></g><g class="participant participant-tail" data-participant="UI"><rect fill="#E2E2F0" height="30.2969" rx="2.5" ry="2.5" style="stroke:#181818;stroke-width:0.5;" width="113.0391" x="132.3979" y="449.8906"/><text fill="#000000" font-family="sans-serif" font-size="14" lengthAdjust="spacing" textLength="99.0391" x="139.3979" y="469.8857">User Interface</text></g><g class="participant participant-head" data-participant="BS"><rect fill="#E2E2F0" height="30.2969" rx="2.5" ry="2.5" style="stroke:#181818;stroke-width:0.5;" width="137.8467" x="311.439" y="50"/><text fill="#000000" font-family="sans-serif" font-size="14" lengthAdjust="spacing" textLength="123.8467" x="318.439" y="69.9951">Backend Services</text></g><g class="participant participant-tail" data-participant="BS"><rect fill="#E2E2F0" height="30.2969" rx="2.5" ry="2.5" style="stroke:#181818;stroke-width:0.5;" width="137.8467" x="311.439" y="449.8906"/><text fill="#000000" font-family="sans-serif" font-size="14" lengthAdjust="spacing" textLength="123.8467" x="318.439" y="469.8857">Backend Services</text></g><g class="participant participant-head" data-participant="DB"><rect fill="#E2E2F0" height="30.2969" rx="2.5" ry="2.5" style="stroke:#181818;stroke-width:0.5;" width="80.8008" x="504.2769" y="50"/><text fill="#000000" font-family="sans-serif" font-size="14" lengthAdjust="spacing" textLength="66.8008" x="511.2769" y="69.9951">Database</text></g><g class="participant participant-tail" data-participant="DB"><rect fill="#E2E2F0" height="30.2969" rx="2.5" ry="2.5" style="stroke:#181818;stroke-width:0.5;" width="80.8008" x="504.2769" y="449.8906"/><text fill="#000000" font-family="sans-serif" font-size="14" lengthAdjust="spacing" textLength="66.8008" x="511.2769" y="469.8857">Database</text></g><g class="message" data-participant-1="User" data-participant-2="UI"><polygon fill="#181818" points="176.9175,108.4297,186.9175,112.4297,176.9175,116.4297,180.9175,112.4297" style="stroke:#181818;stroke-width:1;"/><line style="stroke:#181818;stroke-width:1;" x1="23.9551" x2="182.9175" y1="112.4297" y2="112.4297"/><text fill="#000000" font-family="sans-serif" font-size="13" lengthAdjust="spacing" textLength="35.2993" x="30.9551" y="107.3638">Login</text></g><g class="message" data-participant-1="UI" data-participant-2="BS"><polygon fill="#181818" points="368.3623,137.5625,378.3623,141.5625,368.3623,145.5625,372.3623,141.5625" style="stroke:#181818;stroke-width:1;"/><line style="stroke:#181818;stroke-width:1;" x1="188.9175" x2="374.3623" y1="141.5625" y2="141.5625"/><text fill="#000000" font-family="sans-serif" font-size="13" lengthAdjust="spacing" textLength="83.624" x="195.9175" y="136.4966">Authenticate</text></g><g class="message" data-participant-1="BS" data-participant-2="DB"><polygon fill="#181818" points="532.6772,166.6953,542.6772,170.6953,532.6772,174.6953,536.6772,170.6953" style="stroke:#181818;stroke-width:1;"/><line style="stroke:#181818;stroke-width:1;" x1="380.3623" x2="538.6772" y1="170.6953" y2="170.6953"/><text fill="#000000" font-family="sans-serif" font-size="13" lengthAdjust="spacing" textLength="116.2192" x="387.3623" y="165.6294">Verify Credentials</text></g><g class="message" data-participant-1="DB" data-participant-2="BS"><polygon fill="#181818" points="391.3623,195.8281,381.3623,199.8281,391.3623,203.8281,387.3623,199.8281" style="stroke:#181818;stroke-width:1;"/><line style="stroke:#181818;stroke-width:1;stroke-dasharray:2.0,2.0;" x1="385.3623" x2="543.6772" y1="199.8281" y2="199.8281"/><text fill="#000000" font-family="sans-serif" font-size="13" lengthAdjust="spacing" textLength="140.3149" x="397.3623" y="194.7622">Authentication Result</text></g><g class="message" data-participant-1="BS" data-participant-2="UI"><polygon fill="#181818" points="199.9175,224.9609,189.9175,228.9609,199.9175,232.9609,195.9175,228.9609" style="stroke:#181818;stroke-width:1;"/><line style="stroke:#181818;stroke-width:1;stroke-dasharray:2.0,2.0;" x1="193.9175" x2="379.3623" y1="228.9609" y2="228.9609"/><text fill="#000000" font-family="sans-serif" font-size="13" lengthAdjust="spacing" textLength="140.9878" x="205.9175" y="223.895">Authentication Status</text></g><g class="message" data-participant-1="UI" data-participant-2="User"><polygon fill="#181818" points="34.9551,254.0938,24.9551,258.0938,34.9551,262.0938,30.9551,258.0938" style="stroke:#181818;stroke-width:1;"/><line style="stroke:#181818;stroke-width:1;stroke-dasharray:2.0,2.0;" x1="28.9551" x2="187.9175" y1="258.0938" y2="258.0938"/><text fill="#000000" font-family="sans-serif" font-size="13" lengthAdjust="spacing" textLength="101.8354" x="40.9551" y="253.0278">Access Granted</text></g><g class="message" data-participant-1="User" data-participant-2="UI"><polygon fill="#181818" points="176.9175,283.2266,186.9175,287.2266,176.9175,291.2266,180.9175,287.2266" style="stroke:#181818;stroke-width:1;"/><line style="stroke:#181818;stroke-width:1;" x1="23.9551" x2="182.9175" y1="287.2266" y2="287.2266"/><text fill="#000000" font-family="sans-serif" font-size="13" lengthAdjust="spacing" textLength="124.7124" x="30.9551" y="282.1606">Register Complaint</text></g><g class="message" data-participant-1="UI" data-participant-2="BS"><polygon fill="#181818" points="368.3623,312.3594,378.3623,316.3594,368.3623,320.3594,372.3623,316.3594" style="stroke:#181818;stroke-width:1;"/><line style="stroke:#181818;stroke-width:1;" x1="188.9175" x2="374.3623" y1="316.3594" y2="316.3594"/><text fill="#000000" font-family="sans-serif" font-size="13" lengthAdjust="spacing" textLength="116.7207" x="195.9175" y="311.2935">Submit Complaint</text></g><g class="message" data-participant-1="BS" data-participant-2="DB"><polygon fill="#181818" points="532.6772,341.4922,542.6772,345.4922,532.6772,349.4922,536.6772,345.4922" style="stroke:#181818;stroke-width:1;"/><line style="stroke:#181818;stroke-width:1;" x1="380.3623" x2="538.6772" y1="345.4922" y2="345.4922"/><text fill="#000000" font-family="sans-serif" font-size="13" lengthAdjust="spacing" textLength="105.2505" x="387.3623" y="340.4263">Store Complaint</text></g><g class="message" data-participant-1="DB" data-participant-2="BS"><polygon fill="#181818" points="391.3623,370.625,381.3623,374.625,391.3623,378.625,387.3623,374.625" style="stroke:#181818;stroke-width:1;"/><line style="stroke:#181818;stroke-width:1;stroke-dasharray:2.0,2.0;" x1="385.3623" x2="543.6772" y1="374.625" y2="374.625"/><text fill="#000000" font-family="sans-serif" font-size="13" lengthAdjust="spacing" textLength="84.335" x="397.3623" y="369.5591">Confirmation</text></g><g class="message" data-participant-1="BS" data-participant-2="UI"><polygon fill="#181818" points="199.9175,399.7578,189.9175,403.7578,199.9175,407.7578,195.9175,403.7578" style="stroke:#181818;stroke-width:1;"/><line style="stroke:#181818;stroke-width:1;stroke-dasharray:2.0,2.0;" x1="193.9175" x2="379.3623" y1="403.7578" y2="403.7578"/><text fill="#000000" font-family="sans-serif" font-size="13" lengthAdjust="spacing" textLength="167.4448" x="205.9175" y="398.6919">Registration Confirmation</text></g><g class="message" data-participant-1="UI" data-participant-2="User"><polygon fill="#181818" points="34.9551,428.8906,24.9551,432.8906,34.9551,436.8906,30.9551,432.8906" style="stroke:#181818;stroke-width:1;"/><line style="stroke:#181818;stroke-width:1;stroke-dasharray:2.0,2.0;" x1="28.9551" x2="187.9175" y1="432.8906" y2="432.8906"/><text fill="#000000" font-family="sans-serif" font-size="13" lengthAdjust="spacing" textLength="140.9624" x="40.9551" y="427.8247">Complaint Registered</text></g><!--SRC=[PP31QiCm38RlVWhHUryWXy6Sm0ZiL9FTLKVfn18dsCfWRp_RAQsz7ILz-lKXjB9w609vjQ4NjhoX4pYb3lHEo4zewGGOOEXhHAFz8ZU28V_DbaA6jAcX3WMl68w4JYkLWyylCQs1z_N6JWrzghLfu7MNJt9n6OMKDgdTwGO-oFFq0wsdCKrn3ghJSFw_nAk32uLzbhnzl_87C8AoXtmr0L4d8ZRw1tZpqPd6Ml92Dmxn3z2kopOZEocCpNvTM8hHqzh4nr8nAPJRrKtib-nJcXwd_E5PGPNj8_FXHkCl]--></g></svg>