<svg xmlns="http://www.w3.org/2000/svg" xmlns:xlink="http://www.w3.org/1999/xlink" contentStyleType="text/css" data-diagram-type="CLASS" height="105px" preserveAspectRatio="none" style="width:711px;height:105px;background:#FFFFFF;" version="1.1" viewBox="0 0 711 105" width="711px" zoomAndPan="magnify"><defs/><g><g class="entity" data-entity="User" data-source-line="1" data-uid="ent0002" id="entity_User"><rect fill="#F1F1F1" height="36.2969" rx="2.5" ry="2.5" style="stroke:#181818;stroke-width:0.5;" width="45.9102" x="7" y="31.4159"/><text fill="#000000" font-family="sans-serif" font-size="14" lengthAdjust="spacing" textLength="31.9102" x="14" y="46.411">User</text><line style="stroke:#181818;stroke-width:0.5;" x1="8" x2="51.9102" y1="51.7128" y2="51.7128"/></g><g class="entity" data-entity="UI" data-source-line="2" data-uid="ent0003" id="entity_UI"><rect fill="#F1F1F1" height="36.2969" rx="2.5" ry="2.5" style="stroke:#181818;stroke-width:0.5;" width="28.376" x="229.77" y="31.4159"/><text fill="#000000" font-family="sans-serif" font-size="14" lengthAdjust="spacing" textLength="14.376" x="236.77" y="46.411">UI</text><line style="stroke:#181818;stroke-width:0.5;" x1="230.77" x2="257.146" y1="51.7128" y2="51.7128"/></g><g class="entity" data-entity="BS" data-source-line="3" data-uid="ent0004" id="entity_BS"><rect fill="#F1F1F1" height="36.2969" rx="2.5" ry="2.5" style="stroke:#181818;stroke-width:0.5;" width="32.4912" x="461.71" y="31.4159"/><text fill="#000000" font-family="sans-serif" font-size="14" lengthAdjust="spacing" textLength="18.4912" x="468.71" y="46.411">BS</text><line style="stroke:#181818;stroke-width:0.5;" x1="462.71" x2="493.2012" y1="51.7128" y2="51.7128"/></g><g class="entity" data-entity="DB" data-source-line="4" data-uid="ent0005" id="entity_DB"><rect fill="#F1F1F1" height="36.2969" rx="2.5" ry="2.5" style="stroke:#181818;stroke-width:0.5;" width="34.3848" x="670.76" y="31.4159"/><text fill="#000000" font-family="sans-serif" font-size="14" lengthAdjust="spacing" textLength="20.3848" x="677.76" y="46.411">DB</text><line style="stroke:#181818;stroke-width:0.5;" x1="671.76" x2="704.1448" y1="51.7128" y2="51.7128"/></g><!--link User to UI--><g class="link" data-entity-1="User" data-entity-2="UI" data-source-line="6" data-uid="lnk6" id="link_User_UI"><path codeLine="6" d="M44.89,68.1159 C53.55,77.3659 65.31,87.6059 78.34,92.5659 C91.42,97.5359 191.52,98.1859 204.34,92.5659 C215.87,87.5059 221.9308,82.074 228.8208,72.844 " fill="none" id="User-to-UI" style="stroke:#181818;stroke-width:1;"/><polygon fill="#181818" points="232.41,68.0359,223.8209,72.8553,229.419,72.0427,230.2317,77.6409,232.41,68.0359" style="stroke:#181818;stroke-width:1;"/><text fill="#000000" font-family="sans-serif" font-size="13" lengthAdjust="spacing" textLength="35.2993" x="123.84" y="88.6328">Login</text></g><!--link UI to User--><g class="link" data-entity-1="UI" data-entity-2="User" data-source-line="11" data-uid="lnk11" id="link_UI_User"><path codeLine="11" d="M229.36,37.9259 C224.27,34.5459 218.33,31.2959 212.34,29.5659 C197.18,25.1659 85.7,25.9659 70.34,29.5659 C64.55,30.9159 64.0592,30.6506 58.6092,33.2406 " fill="none" id="UI-to-User" style="stroke:#181818;stroke-width:1;"/><polygon fill="#181818" points="53.19,35.8159,63.0357,35.5657,57.706,33.6698,59.6019,28.3401,53.19,35.8159" style="stroke:#181818;stroke-width:1;"/><text fill="#000000" font-family="sans-serif" font-size="13" lengthAdjust="spacing" textLength="101.8354" x="90.84" y="19.6328">Access Granted</text></g><!--link User to UI--><g class="link" data-entity-1="User" data-entity-2="UI" data-source-line="13" data-uid="lnk12" id="link_User_UI"><path codeLine="13" d="M53,61.2459 C60.84,64.6259 69.78,67.8659 78.34,69.5659 C105.8,75.0159 177.1,76.0459 204.34,69.5659 C213.18,67.4559 217.0828,66.0266 224.3328,61.8766 " fill="none" id="User-to-UI-1" style="stroke:#181818;stroke-width:1;"/><polygon fill="#181818" points="229.54,58.8959,219.742,59.8955,225.2006,61.3798,223.7163,66.8385,229.54,58.8959" style="stroke:#181818;stroke-width:1;"/><text fill="#000000" font-family="sans-serif" font-size="13" lengthAdjust="spacing" textLength="124.7124" x="79.34" y="65.6328">Register Complaint</text></g><!--link UI to User--><g class="link" data-entity-1="UI" data-entity-2="User" data-source-line="18" data-uid="lnk17" id="link_UI_User"><path codeLine="18" d="M229.29,49.5659 C192.78,49.5659 103.57,49.5659 59.26,49.5659 " fill="none" id="UI-to-User-1" style="stroke:#181818;stroke-width:1;"/><polygon fill="#181818" points="53.26,49.5659,62.26,53.5659,58.26,49.5659,62.26,45.5659,53.26,49.5659" style="stroke:#181818;stroke-width:1;"/><text fill="#000000" font-family="sans-serif" font-size="13" lengthAdjust="spacing" textLength="140.9624" x="71.34" y="42.6328">Complaint Registered</text></g><!--link UI to BS--><g class="link" data-entity-1="UI" data-entity-2="BS" data-source-line="7" data-uid="lnk7" id="link_UI_BS"><path codeLine="7" d="M257.58,68.0959 C265.55,77.3259 276.49,87.5759 288.93,92.5659 C303.57,98.4359 416.22,98.2759 430.93,92.5659 C443.71,87.5959 451.119,81.8001 459.509,72.5501 " fill="none" id="UI-to-BS" style="stroke:#181818;stroke-width:1;"/><polygon fill="#181818" points="463.54,68.1059,454.5307,72.0849,460.1808,71.8094,460.4563,77.4596,463.54,68.1059" style="stroke:#181818;stroke-width:1;"/><text fill="#000000" font-family="sans-serif" font-size="13" lengthAdjust="spacing" textLength="83.624" x="318.43" y="88.6328">Authenticate</text></g><!--link BS to UI--><g class="link" data-entity-1="BS" data-entity-2="UI" data-source-line="10" data-uid="lnk10" id="link_BS_UI"><path codeLine="10" d="M461.51,58.4859 C452.71,62.7559 441.53,67.3959 430.93,69.5659 C400.01,75.8659 319.79,76.1159 288.93,69.5659 C278.23,67.2859 272.3087,65.0436 263.7487,60.6136 " fill="none" id="BS-to-UI" style="stroke:#181818;stroke-width:1;"/><polygon fill="#181818" points="258.42,57.8559,264.5746,65.545,262.8606,60.154,268.2515,58.44,258.42,57.8559" style="stroke:#181818;stroke-width:1;"/><text fill="#000000" font-family="sans-serif" font-size="13" lengthAdjust="spacing" textLength="140.9878" x="289.93" y="65.6328">Authentication Status</text></g><!--link UI to BS--><g class="link" data-entity-1="UI" data-entity-2="BS" data-source-line="14" data-uid="lnk13" id="link_UI_BS"><path codeLine="14" d="M258.48,37.9259 C263.54,34.5459 269.46,31.2959 275.43,29.5659 C293.46,24.3159 426.32,24.5759 444.43,29.5659 C450.31,31.1859 451.0788,31.0096 456.2388,34.1596 " fill="none" id="UI-to-BS-1" style="stroke:#181818;stroke-width:1;"/><polygon fill="#181818" points="461.36,37.2859,455.7625,29.1824,457.0924,34.6807,451.5941,36.0106,461.36,37.2859" style="stroke:#181818;stroke-width:1;"/><text fill="#000000" font-family="sans-serif" font-size="13" lengthAdjust="spacing" textLength="116.7207" x="301.93" y="19.6328">Submit Complaint</text></g><!--link BS to UI--><g class="link" data-entity-1="BS" data-entity-2="UI" data-source-line="17" data-uid="lnk16" id="link_BS_UI"><path codeLine="17" d="M461.47,49.5659 C417.87,49.5659 306.02,49.5659 264.59,49.5659 " fill="none" id="BS-to-UI-1" style="stroke:#181818;stroke-width:1;"/><polygon fill="#181818" points="258.59,49.5659,267.59,53.5659,263.59,49.5659,267.59,45.5659,258.59,49.5659" style="stroke:#181818;stroke-width:1;"/><text fill="#000000" font-family="sans-serif" font-size="13" lengthAdjust="spacing" textLength="167.4448" x="276.43" y="42.6328">Registration Confirmation</text></g><!--link BS to DB--><g class="link" data-entity-1="BS" data-entity-2="DB" data-source-line="8" data-uid="lnk8" id="link_BS_DB"><path codeLine="8" d="M494.69,58.9059 C503.06,63.0559 513.51,67.4659 523.48,69.5659 C549.14,74.9459 615.8,74.8559 641.48,69.5659 C651.46,67.5059 656.5369,65.8149 665.0069,61.7249 " fill="none" id="BS-to-DB" style="stroke:#181818;stroke-width:1;"/><polygon fill="#181818" points="670.41,59.1159,660.5661,59.4274,665.9075,61.2901,664.0448,66.6315,670.41,59.1159" style="stroke:#181818;stroke-width:1;"/><text fill="#000000" font-family="sans-serif" font-size="13" lengthAdjust="spacing" textLength="116.2192" x="524.48" y="65.6328">Verify Credentials</text></g><!--link DB to BS--><g class="link" data-entity-1="DB" data-entity-2="BS" data-source-line="9" data-uid="lnk9" id="link_DB_BS"><path codeLine="9" d="M670.38,49.5659 C630.44,49.5659 539.3,49.5659 500.43,49.5659 " fill="none" id="DB-to-BS" style="stroke:#181818;stroke-width:1;"/><polygon fill="#181818" points="494.43,49.5659,503.43,53.5659,499.43,49.5659,503.43,45.5659,494.43,49.5659" style="stroke:#181818;stroke-width:1;"/><text fill="#000000" font-family="sans-serif" font-size="13" lengthAdjust="spacing" textLength="140.3149" x="512.48" y="42.6328">Authentication Result</text></g><!--link BS to DB--><g class="link" data-entity-1="BS" data-entity-2="DB" data-source-line="15" data-uid="lnk14" id="link_BS_DB"><path codeLine="15" d="M494.55,37.2859 C499.71,34.1359 505.6,31.1859 511.48,29.5659 C526.69,25.3659 638.25,25.4659 653.48,29.5659 C659.36,31.1459 660.0913,30.9759 665.3213,34.0359 " fill="none" id="BS-to-DB-1" style="stroke:#181818;stroke-width:1;"/><polygon fill="#181818" points="670.5,37.0659,664.7519,29.0684,666.1844,34.5409,660.7119,35.9734,670.5,37.0659" style="stroke:#181818;stroke-width:1;"/><text fill="#000000" font-family="sans-serif" font-size="13" lengthAdjust="spacing" textLength="105.2505" x="529.98" y="19.6328">Store Complaint</text></g><!--link DB to BS--><g class="link" data-entity-1="DB" data-entity-2="BS" data-source-line="16" data-uid="lnk15" id="link_DB_BS"><path codeLine="16" d="M673.75,68.1059 C665.47,77.3459 654.17,87.5859 641.48,92.5659 C629.27,97.3459 535.67,97.4059 523.48,92.5659 C510.95,87.5759 503.8324,81.8502 495.7424,72.6102 " fill="none" id="DB-to-BS-1" style="stroke:#181818;stroke-width:1;"/><polygon fill="#181818" points="491.79,68.0959,494.7091,77.5022,495.0837,71.8578,500.7281,72.2324,491.79,68.0959" style="stroke:#181818;stroke-width:1;"/><text fill="#000000" font-family="sans-serif" font-size="13" lengthAdjust="spacing" textLength="84.335" x="540.48" y="88.6328">Confirmation</text></g><!--SRC=[POvD3e8m48NtFSLSm0kmCB6G619NDBWlPS0QQ4qxNNXxANyMtRsPzsRUPvidAeBQesDsrUMckDXKmHcB6JYT9p-3c-srONKPPouok0Hwe26j927Z8guBdi4TdUxUa3jieoi7pmeEf_yZRGrKwCD0y_NQyXCG92dukJK69fmfeXHw3rSd3M5xXAomrvwcERVZQv3QK48iGZDgIgmljI3hC74IvDoQJhjnvab9bogtS1v21zhzvyw6xGS0]--></g></svg>