<svg xmlns="http://www.w3.org/2000/svg" xmlns:xlink="http://www.w3.org/1999/xlink" contentStyleType="text/css" data-diagram-type="ACTIVITY" height="416px" preserveAspectRatio="none" style="width:298px;height:416px;background:#FFFFFF;" version="1.1" viewBox="0 0 298 416" width="298px" zoomAndPan="magnify"><defs/><g><ellipse cx="164.3208" cy="20" fill="#222222" rx="10" ry="10" style="stroke:#222222;stroke-width:1;"/><rect fill="#F1F1F1" height="33.9688" rx="12.5" ry="12.5" style="stroke:#181818;stroke-width:0.5;" width="83.75" x="122.4458" y="50"/><text fill="#000000" font-family="sans-serif" font-size="12" lengthAdjust="spacing" textLength="63.75" x="132.4458" y="71.1387">User Login</text><polygon fill="#F1F1F1" points="122.531,103.9688,206.1106,103.9688,218.1106,115.9688,206.1106,127.9688,122.531,127.9688,110.531,115.9688,122.531,103.9688" style="stroke:#181818;stroke-width:0.5;"/><text fill="#000000" font-family="sans-serif" font-size="11" lengthAdjust="spacing" textLength="83.5796" x="122.531" y="119.7769">Authenticated?</text><text fill="#000000" font-family="sans-serif" font-size="11" lengthAdjust="spacing" textLength="19.0083" x="91.5227" y="113.3745">yes</text><text fill="#000000" font-family="sans-serif" font-size="11" lengthAdjust="spacing" textLength="13.7017" x="218.1106" y="113.3745">no</text><rect fill="#F1F1F1" height="33.9688" rx="12.5" ry="12.5" style="stroke:#181818;stroke-width:0.5;" width="135.1191" x="22.6924" y="137.9688"/><text fill="#000000" font-family="sans-serif" font-size="12" lengthAdjust="spacing" textLength="115.1191" x="32.6924" y="159.1074">Register Complaint</text><rect fill="#F1F1F1" height="33.9688" rx="12.5" ry="12.5" style="stroke:#181818;stroke-width:0.5;" width="143.6504" x="18.4268" y="191.9375"/><text fill="#000000" font-family="sans-serif" font-size="12" lengthAdjust="spacing" textLength="123.6504" x="28.4268" y="213.0762">Initiate Investigation</text><rect fill="#F1F1F1" height="33.9688" rx="12.5" ry="12.5" style="stroke:#181818;stroke-width:0.5;" width="158.5039" x="11" y="245.9063"/><text fill="#000000" font-family="sans-serif" font-size="12" lengthAdjust="spacing" textLength="138.5039" x="21" y="267.0449">Proceed to Prosecution</text><rect fill="#F1F1F1" height="33.9688" rx="12.5" ry="12.5" style="stroke:#181818;stroke-width:0.5;" width="85.8711" x="47.3164" y="299.875"/><text fill="#000000" font-family="sans-serif" font-size="12" lengthAdjust="spacing" textLength="65.8711" x="57.3164" y="321.0137">Close Case</text><rect fill="#F1F1F1" height="33.9688" rx="12.5" ry="12.5" style="stroke:#181818;stroke-width:0.5;" width="97.7715" x="189.5039" y="137.9688"/><text fill="#000000" font-family="sans-serif" font-size="12" lengthAdjust="spacing" textLength="77.7715" x="199.5039" y="159.1074">Display Error</text><polygon fill="#F1F1F1" points="164.3208,339.8438,176.3208,351.8438,164.3208,363.8438,152.3208,351.8438,164.3208,339.8438" style="stroke:#181818;stroke-width:0.5;"/><ellipse cx="164.3208" cy="394.8438" fill="none" rx="11" ry="11" style="stroke:#222222;stroke-width:1;"/><ellipse cx="164.3208" cy="394.8438" fill="#222222" rx="6" ry="6" style="stroke:#222222;stroke-width:1;"/><line style="stroke:#181818;stroke-width:1;" x1="164.3208" x2="164.3208" y1="30" y2="50"/><polygon fill="#181818" points="160.3208,40,164.3208,50,168.3208,40,164.3208,44" style="stroke:#181818;stroke-width:1;"/><line style="stroke:#181818;stroke-width:1;" x1="90.252" x2="90.252" y1="171.9375" y2="191.9375"/><polygon fill="#181818" points="86.252,181.9375,90.252,191.9375,94.252,181.9375,90.252,185.9375" style="stroke:#181818;stroke-width:1;"/><line style="stroke:#181818;stroke-width:1;" x1="90.252" x2="90.252" y1="225.9063" y2="245.9063"/><polygon fill="#181818" points="86.252,235.9063,90.252,245.9063,94.252,235.9063,90.252,239.9063" style="stroke:#181818;stroke-width:1;"/><line style="stroke:#181818;stroke-width:1;" x1="90.252" x2="90.252" y1="279.875" y2="299.875"/><polygon fill="#181818" points="86.252,289.875,90.252,299.875,94.252,289.875,90.252,293.875" style="stroke:#181818;stroke-width:1;"/><line style="stroke:#181818;stroke-width:1;" x1="110.531" x2="90.252" y1="115.9688" y2="115.9688"/><line style="stroke:#181818;stroke-width:1;" x1="90.252" x2="90.252" y1="115.9688" y2="137.9688"/><polygon fill="#181818" points="86.252,127.9688,90.252,137.9688,94.252,127.9688,90.252,131.9688" style="stroke:#181818;stroke-width:1;"/><line style="stroke:#181818;stroke-width:1;" x1="218.1106" x2="238.3896" y1="115.9688" y2="115.9688"/><line style="stroke:#181818;stroke-width:1;" x1="238.3896" x2="238.3896" y1="115.9688" y2="137.9688"/><polygon fill="#181818" points="234.3896,127.9688,238.3896,137.9688,242.3896,127.9688,238.3896,131.9688" style="stroke:#181818;stroke-width:1;"/><line style="stroke:#181818;stroke-width:1;" x1="90.252" x2="90.252" y1="333.8438" y2="351.8438"/><line style="stroke:#181818;stroke-width:1;" x1="90.252" x2="152.3208" y1="351.8438" y2="351.8438"/><polygon fill="#181818" points="142.3208,347.8438,152.3208,351.8438,142.3208,355.8438,146.3208,351.8438" style="stroke:#181818;stroke-width:1;"/><line style="stroke:#181818;stroke-width:1;" x1="238.3896" x2="238.3896" y1="171.9375" y2="351.8438"/><line style="stroke:#181818;stroke-width:1;" x1="238.3896" x2="176.3208" y1="351.8438" y2="351.8438"/><polygon fill="#181818" points="186.3208,347.8438,176.3208,351.8438,186.3208,355.8438,182.3208,351.8438" style="stroke:#181818;stroke-width:1;"/><line style="stroke:#181818;stroke-width:1;" x1="164.3208" x2="164.3208" y1="83.9688" y2="103.9688"/><polygon fill="#181818" points="160.3208,93.9688,164.3208,103.9688,168.3208,93.9688,164.3208,97.9688" style="stroke:#181818;stroke-width:1;"/><line style="stroke:#181818;stroke-width:1;" x1="164.3208" x2="164.3208" y1="363.8438" y2="383.8438"/><polygon fill="#181818" points="160.3208,373.8438,164.3208,383.8438,168.3208,373.8438,164.3208,377.8438" style="stroke:#181818;stroke-width:1;"/><!--SRC=[JOt12i9034Jl-nKvjh_GFOXK3mKF8lG3bcvQ0sjIDgdGlpTY3yvfPXx3gALgeHiLAzna8Ow1PcZEcpsHZQPac4yjV1CqEseRmDKzS24rt_JoMaiYjlW30vEHZs3WDwhHaeo43tYlCY5cC06tYjFs1_lY3VH9CGOiRXkMu-r2wYSxN6kLwfGppK5DrWy0]--></g></svg>