<svg xmlns="http://www.w3.org/2000/svg" xmlns:xlink="http://www.w3.org/1999/xlink" contentStyleType="text/css" data-diagram-type="DESCRIPTION" height="469px" preserveAspectRatio="none" style="width:1006px;height:469px;background:#FFFFFF;" version="1.1" viewBox="0 0 1006 469" width="1006px" zoomAndPan="magnify"><defs/><g><!--entity User--><g class="entity" data-entity="User" data-source-line="1" data-uid="ent0002" id="entity_User"><ellipse cx="21.9551" cy="14" fill="#F1F1F1" rx="8" ry="8" style="stroke:#181818;stroke-width:0.5;"/><path d="M21.9551,22 L21.9551,49 M8.9551,30 L34.9551,30 M21.9551,49 L8.9551,64 M21.9551,49 L34.9551,64 " fill="none" style="stroke:#181818;stroke-width:0.5;"/><text fill="#000000" font-family="sans-serif" font-size="14" lengthAdjust="spacing" textLength="31.9102" x="6" y="78.4951">User</text></g><!--entity PolicePersonnel--><g class="entity" data-entity="PolicePersonnel" data-source-line="2" data-uid="ent0003" id="entity_PolicePersonnel"><ellipse cx="238.9588" cy="14" fill="#F1F1F1" rx="8" ry="8" style="stroke:#181818;stroke-width:0.5;"/><path d="M238.9588,22 L238.9588,49 M225.9588,30 L251.9588,30 M238.9588,49 L225.9588,64 M238.9588,49 L251.9588,64 " fill="none" style="stroke:#181818;stroke-width:0.5;"/><text fill="#000000" font-family="sans-serif" font-size="14" lengthAdjust="spacing" textLength="110.0176" x="183.95" y="78.4951">PolicePersonnel</text></g><!--entity Citizen--><g class="entity" data-entity="Citizen" data-source-line="3" data-uid="ent0004" id="entity_Citizen"><ellipse cx="561.9595" cy="14" fill="#F1F1F1" rx="8" ry="8" style="stroke:#181818;stroke-width:0.5;"/><path d="M561.9595,22 L561.9595,49 M548.9595,30 L574.9595,30 M561.9595,49 L548.9595,64 M561.9595,49 L574.9595,64 " fill="none" style="stroke:#181818;stroke-width:0.5;"/><text fill="#000000" font-family="sans-serif" font-size="14" lengthAdjust="spacing" textLength="47.8789" x="538.02" y="78.4951">Citizen</text></g><g class="entity" data-entity="Login" data-source-line="5" data-uid="ent0005" id="entity_Login"><ellipse cx="110.9641" cy="43.6457" fill="#F1F1F1" rx="38.4641" ry="14.5557" style="stroke:#181818;stroke-width:0.5;"/><text fill="#000000" font-family="sans-serif" font-size="14" lengthAdjust="spacing" textLength="38.0146" x="90.09" y="47.1006">Login</text></g><g class="entity" data-entity="Register Complaint" data-source-line="6" data-uid="ent0007" id="entity_Register Complaint"><ellipse cx="415.9633" cy="43.6467" fill="#F1F1F1" rx="86.7333" ry="19.7467" style="stroke:#181818;stroke-width:0.5;"/><text fill="#000000" font-family="sans-serif" font-size="14" lengthAdjust="spacing" textLength="134.3057" x="348.8105" y="46.4933">Register Complaint</text></g><g class="entity" data-entity="Submit Complaint" data-source-line="7" data-uid="ent0009" id="entity_Submit Complaint"><ellipse cx="703.9596" cy="43.6519" fill="#F1F1F1" rx="83.0096" ry="19.0019" style="stroke:#181818;stroke-width:0.5;"/><text fill="#000000" font-family="sans-serif" font-size="14" lengthAdjust="spacing" textLength="125.6992" x="640.5201" y="46.698">Submit Complaint</text></g><g class="entity" data-entity="Complaint Process" data-source-line="8" data-uid="ent0011" id="entity_Complaint Process"><ellipse cx="906.9584" cy="43.6457" fill="#F1F1F1" rx="84.7284" ry="19.3457" style="stroke:#181818;stroke-width:0.5;"/><text fill="#000000" font-family="sans-serif" font-size="14" lengthAdjust="spacing" textLength="129.6982" x="842.0851" y="46.5007">Complaint Process</text></g><g class="entity" data-entity="Investigation Process" data-source-line="8" data-uid="ent0012" id="entity_Investigation Process"><ellipse cx="906.959" cy="162.8418" fill="#F1F1F1" rx="93.209" ry="21.0418" style="stroke:#181818;stroke-width:0.5;"/><text fill="#000000" font-family="sans-serif" font-size="14" lengthAdjust="spacing" textLength="148.9688" x="832.4746" y="165.6885">Investigation Process</text></g><g class="entity" data-entity="Prosecution Process" data-source-line="9" data-uid="ent0014" id="entity_Prosecution Process"><ellipse cx="906.9571" cy="264.1414" fill="#F1F1F1" rx="89.3071" ry="20.2614" style="stroke:#181818;stroke-width:0.5;"/><text fill="#000000" font-family="sans-serif" font-size="14" lengthAdjust="spacing" textLength="140.1709" x="836.8717" y="266.9881">Prosecution Process</text></g><g class="entity" data-entity="Search" data-source-line="10" data-uid="ent0016" id="entity_Search"><ellipse cx="906.9561" cy="359.0613" fill="#F1F1F1" rx="46.1861" ry="14.6513" style="stroke:#181818;stroke-width:0.5;"/><text fill="#000000" font-family="sans-serif" font-size="14" lengthAdjust="spacing" textLength="48.4053" x="879.7534" y="362.8088">Search</text></g><g class="entity" data-entity="Audit Trail" data-source-line="11" data-uid="ent0018" id="entity_Audit Trail"><ellipse cx="906.9601" cy="448.636" fill="#F1F1F1" rx="62.6801" ry="14.936" style="stroke:#181818;stroke-width:0.5;"/><text fill="#000000" font-family="sans-serif" font-size="14" lengthAdjust="spacing" textLength="71.832" x="868.044" y="452.3836">Audit Trail</text></g><!--link User to Login--><g class="link" data-entity-1="User" data-entity-2="Login" data-source-line="5" data-uid="lnk6" id="link_User_Login"><path d="M38.29,43.65 C49.55,43.65 54.81,43.65 66.07,43.65 " fill="none" id="User-to-Login" style="stroke:#181818;stroke-width:1;"/><polygon fill="#181818" points="72.07,43.65,63.07,39.65,67.07,43.65,63.07,47.65,72.07,43.65" style="stroke:#181818;stroke-width:1;"/></g><!--link PolicePersonnel to Register Complaint--><g class="link" data-entity-1="PolicePersonnel" data-entity-2="Register Complaint" data-source-line="6" data-uid="lnk8" id="link_PolicePersonnel_Register Complaint"><path d="M294.27,43.65 C305.83,43.65 311.4,43.65 322.97,43.65 " fill="none" id="PolicePersonnel-to-Register Complaint" style="stroke:#181818;stroke-width:1;"/><polygon fill="#181818" points="328.97,43.65,319.97,39.65,323.97,43.65,319.97,47.65,328.97,43.65" style="stroke:#181818;stroke-width:1;"/></g><!--link Citizen to Submit Complaint--><g class="link" data-entity-1="Citizen" data-entity-2="Submit Complaint" data-source-line="7" data-uid="lnk10" id="link_Citizen_Submit Complaint"><path d="M586.36,43.65 C597.85,43.65 603.33,43.65 614.81,43.65 " fill="none" id="Citizen-to-Submit Complaint" style="stroke:#181818;stroke-width:1;"/><polygon fill="#181818" points="620.81,43.65,611.81,39.65,615.81,43.65,611.81,47.65,620.81,43.65" style="stroke:#181818;stroke-width:1;"/></g><!--link Complaint Process to Investigation Process--><g class="link" data-entity-1="Complaint Process" data-entity-2="Investigation Process" data-source-line="8" data-uid="lnk13" id="link_Complaint Process_Investigation Process"><path d="M906.96,63.48 C906.96,84.83 906.96,113.52 906.96,135.48 " fill="none" id="Complaint Process-to-Investigation Process" style="stroke:#181818;stroke-width:1;"/><polygon fill="#181818" points="906.96,141.48,910.96,132.48,906.96,136.48,902.96,132.48,906.96,141.48" style="stroke:#181818;stroke-width:1;"/></g><!--link Investigation Process to Prosecution Process--><g class="link" data-entity-1="Investigation Process" data-entity-2="Prosecution Process" data-source-line="9" data-uid="lnk15" id="link_Investigation Process_Prosecution Process"><path d="M906.96,183.94 C906.96,201.28 906.96,220.18 906.96,237.42 " fill="none" id="Investigation Process-to-Prosecution Process" style="stroke:#181818;stroke-width:1;"/><polygon fill="#181818" points="906.96,243.42,910.96,234.42,906.96,238.42,902.96,234.42,906.96,243.42" style="stroke:#181818;stroke-width:1;"/></g><!--link Prosecution Process to Search--><g class="link" data-entity-1="Prosecution Process" data-entity-2="Search" data-source-line="10" data-uid="lnk17" id="link_Prosecution Process_Search"><path d="M906.96,284.85 C906.96,302.64 906.96,322.37 906.96,338.12 " fill="none" id="Prosecution Process-to-Search" style="stroke:#181818;stroke-width:1;"/><polygon fill="#181818" points="906.96,344.12,910.96,335.12,906.96,339.12,902.96,335.12,906.96,344.12" style="stroke:#181818;stroke-width:1;"/></g><!--link Search to Audit Trail--><g class="link" data-entity-1="Search" data-entity-2="Audit Trail" data-source-line="11" data-uid="lnk19" id="link_Search_Audit Trail"><path d="M906.96,374.13 C906.96,390.38 906.96,410.96 906.96,427.32 " fill="none" id="Search-to-Audit Trail" style="stroke:#181818;stroke-width:1;"/><polygon fill="#181818" points="906.96,433.32,910.96,424.32,906.96,428.32,902.96,424.32,906.96,433.32" style="stroke:#181818;stroke-width:1;"/></g><!--SRC=[TOuz3i8m34Rtd29ZC_GAIAWJ4aD5uG0XMCLIQgFOwS3fINzKeGgspzzxjko3Sh8tWMJy75kE6A2594m4SMqRL7m36JEPjZxOwimzaZCxVKONw56qU0qFh-YHr9drmCoxV1zGlscrPTic3Y3YR3sf9nf157kloBGnywTVTiea4F9kurUx-1tu59v5MSFI7lEZ_7XD7gFx0000]--></g></svg>