<svg xmlns="http://www.w3.org/2000/svg" xmlns:xlink="http://www.w3.org/1999/xlink" contentStyleType="text/css" data-diagram-type="DESCRIPTION" height="444px" preserveAspectRatio="none" style="width:1321px;height:444px;background:#FFFFFF;" version="1.1" viewBox="0 0 1321 444" width="1321px" zoomAndPan="magnify"><defs/><g><!--cluster User Interface--><g class="cluster" data-entity="User Interface" data-source-line="1" data-uid="ent0002" id="cluster_User Interface"><path d="M747.5,6 L861.0742,6 A3.75,3.75 0 0 1 863.5742,8.5 L870.5742,28.2969 L1077.5,28.2969 A2.5,2.5 0 0 1 1080,30.7969 L1080,207.1 A2.5,2.5 0 0 1 1077.5,209.6 L747.5,209.6 A2.5,2.5 0 0 1 745,207.1 L745,8.5 A2.5,2.5 0 0 1 747.5,6 " fill="none" style="stroke:#000000;stroke-width:1.5;"/><line style="stroke:#000000;stroke-width:1.5;" x1="745" x2="870.5742" y1="28.2969" y2="28.2969"/><text fill="#000000" font-family="sans-serif" font-size="14" font-weight="bold" lengthAdjust="spacing" textLength="112.5742" x="749" y="20.9951">User Interface</text></g><!--cluster Backend Services--><g class="cluster" data-entity="Backend Services" data-source-line="7" data-uid="ent0006" id="cluster_Backend Services"><path d="M8.5,233.6 L148.1191,233.6 A3.75,3.75 0 0 1 150.6191,236.1 L157.6191,255.8969 L1311.5,255.8969 A2.5,2.5 0 0 1 1314,258.3969 L1314,434.69 A2.5,2.5 0 0 1 1311.5,437.19 L8.5,437.19 A2.5,2.5 0 0 1 6,434.69 L6,236.1 A2.5,2.5 0 0 1 8.5,233.6 " fill="none" style="stroke:#000000;stroke-width:1.5;"/><line style="stroke:#000000;stroke-width:1.5;" x1="6" x2="157.6191" y1="255.8969" y2="255.8969"/><text fill="#000000" font-family="sans-serif" font-size="14" font-weight="bold" lengthAdjust="spacing" textLength="138.6191" x="10" y="248.5951">Backend Services</text></g><!--entity Main Menu--><g class="entity" data-entity="Main Menu" data-source-line="2" data-uid="ent0003" id="entity_Main Menu"><rect fill="#F1F1F1" height="46.2969" rx="2.5" ry="2.5" style="stroke:#181818;stroke-width:0.5;" width="116.3096" x="760.85" y="41"/><rect fill="#F1F1F1" height="10" style="stroke:#181818;stroke-width:0.5;" width="15" x="857.1596" y="46"/><rect fill="#F1F1F1" height="2" style="stroke:#181818;stroke-width:0.5;" width="4" x="855.1596" y="48"/><rect fill="#F1F1F1" height="2" style="stroke:#181818;stroke-width:0.5;" width="4" x="855.1596" y="52"/><text fill="#000000" font-family="sans-serif" font-size="14" lengthAdjust="spacing" textLength="76.3096" x="775.85" y="73.9951">Main Menu</text></g><!--entity Game Interface--><g class="entity" data-entity="Game Interface" data-source-line="3" data-uid="ent0004" id="entity_Game Interface"><rect fill="#F1F1F1" height="46.2969" rx="2.5" ry="2.5" style="stroke:#181818;stroke-width:0.5;" width="148.8076" x="760.6" y="147.3"/><rect fill="#F1F1F1" height="10" style="stroke:#181818;stroke-width:0.5;" width="15" x="889.4076" y="152.3"/><rect fill="#F1F1F1" height="2" style="stroke:#181818;stroke-width:0.5;" width="4" x="887.4076" y="154.3"/><rect fill="#F1F1F1" height="2" style="stroke:#181818;stroke-width:0.5;" width="4" x="887.4076" y="158.3"/><text fill="#000000" font-family="sans-serif" font-size="14" lengthAdjust="spacing" textLength="108.8076" x="775.6" y="180.2951">Game Interface</text></g><!--entity Admin Interface--><g class="entity" data-entity="Admin Interface" data-source-line="4" data-uid="ent0005" id="entity_Admin Interface"><rect fill="#F1F1F1" height="46.2969" rx="2.5" ry="2.5" style="stroke:#181818;stroke-width:0.5;" width="151.9932" x="912" y="41"/><rect fill="#F1F1F1" height="10" style="stroke:#181818;stroke-width:0.5;" width="15" x="1043.9932" y="46"/><rect fill="#F1F1F1" height="2" style="stroke:#181818;stroke-width:0.5;" width="4" x="1041.9932" y="48"/><rect fill="#F1F1F1" height="2" style="stroke:#181818;stroke-width:0.5;" width="4" x="1041.9932" y="52"/><text fill="#000000" font-family="sans-serif" font-size="14" lengthAdjust="spacing" textLength="111.9932" x="927" y="73.9951">Admin Interface</text></g><!--entity Web Server--><g class="entity" data-entity="Web Server" data-source-line="8" data-uid="ent0007" id="entity_Web Server"><rect fill="#F1F1F1" height="46.2969" rx="2.5" ry="2.5" style="stroke:#181818;stroke-width:0.5;" width="121.7031" x="22.15" y="268.6"/><rect fill="#F1F1F1" height="10" style="stroke:#181818;stroke-width:0.5;" width="15" x="123.8531" y="273.6"/><rect fill="#F1F1F1" height="2" style="stroke:#181818;stroke-width:0.5;" width="4" x="121.8531" y="275.6"/><rect fill="#F1F1F1" height="2" style="stroke:#181818;stroke-width:0.5;" width="4" x="121.8531" y="279.6"/><text fill="#000000" font-family="sans-serif" font-size="14" lengthAdjust="spacing" textLength="81.7031" x="37.15" y="301.5951">Web Server</text></g><!--entity Data Processing Engine--><g class="entity" data-entity="Data Processing Engine" data-source-line="9" data-uid="ent0008" id="entity_Data Processing Engine"><rect fill="#F1F1F1" height="46.2969" rx="2.5" ry="2.5" style="stroke:#181818;stroke-width:0.5;" width="205.6211" x="179.19" y="268.6"/><rect fill="#F1F1F1" height="10" style="stroke:#181818;stroke-width:0.5;" width="15" x="364.8111" y="273.6"/><rect fill="#F1F1F1" height="2" style="stroke:#181818;stroke-width:0.5;" width="4" x="362.8111" y="275.6"/><rect fill="#F1F1F1" height="2" style="stroke:#181818;stroke-width:0.5;" width="4" x="362.8111" y="279.6"/><text fill="#000000" font-family="sans-serif" font-size="14" lengthAdjust="spacing" textLength="165.6211" x="194.19" y="301.5951">Data Processing Engine</text></g><!--entity Feedback Module--><g class="entity" data-entity="Feedback Module" data-source-line="10" data-uid="ent0009" id="entity_Feedback Module"><rect fill="#F1F1F1" height="46.2969" rx="2.5" ry="2.5" style="stroke:#181818;stroke-width:0.5;" width="162.7939" x="850.6" y="268.6"/><rect fill="#F1F1F1" height="10" style="stroke:#181818;stroke-width:0.5;" width="15" x="993.3939" y="273.6"/><rect fill="#F1F1F1" height="2" style="stroke:#181818;stroke-width:0.5;" width="4" x="991.3939" y="275.6"/><rect fill="#F1F1F1" height="2" style="stroke:#181818;stroke-width:0.5;" width="4" x="991.3939" y="279.6"/><text fill="#000000" font-family="sans-serif" font-size="14" lengthAdjust="spacing" textLength="122.7939" x="865.6" y="301.5951">Feedback Module</text></g><!--entity Storyline Engine--><g class="entity" data-entity="Storyline Engine" data-source-line="11" data-uid="ent0010" id="entity_Storyline Engine"><rect fill="#F1F1F1" height="46.2969" rx="2.5" ry="2.5" style="stroke:#181818;stroke-width:0.5;" width="154.6797" x="660.66" y="268.6"/><rect fill="#F1F1F1" height="10" style="stroke:#181818;stroke-width:0.5;" width="15" x="795.3397" y="273.6"/><rect fill="#F1F1F1" height="2" style="stroke:#181818;stroke-width:0.5;" width="4" x="793.3397" y="275.6"/><rect fill="#F1F1F1" height="2" style="stroke:#181818;stroke-width:0.5;" width="4" x="793.3397" y="279.6"/><text fill="#000000" font-family="sans-serif" font-size="14" lengthAdjust="spacing" textLength="114.6797" x="675.66" y="301.5951">Storyline Engine</text></g><!--entity Content Management System--><g class="entity" data-entity="Content Management System" data-source-line="12" data-uid="ent0011" id="entity_Content Management System"><rect fill="#F1F1F1" height="46.2969" rx="2.5" ry="2.5" style="stroke:#181818;stroke-width:0.5;" width="249.0088" x="1048.5" y="268.6"/><rect fill="#F1F1F1" height="10" style="stroke:#181818;stroke-width:0.5;" width="15" x="1277.5088" y="273.6"/><rect fill="#F1F1F1" height="2" style="stroke:#181818;stroke-width:0.5;" width="4" x="1275.5088" y="275.6"/><rect fill="#F1F1F1" height="2" style="stroke:#181818;stroke-width:0.5;" width="4" x="1275.5088" y="279.6"/><text fill="#000000" font-family="sans-serif" font-size="14" lengthAdjust="spacing" textLength="209.0088" x="1063.5" y="301.5951">Content Management System</text></g><!--entity Input Validation Module--><g class="entity" data-entity="Input Validation Module" data-source-line="13" data-uid="ent0012" id="entity_Input Validation Module"><rect fill="#F1F1F1" height="46.2969" rx="2.5" ry="2.5" style="stroke:#181818;stroke-width:0.5;" width="206.2773" x="419.86" y="268.6"/><rect fill="#F1F1F1" height="10" style="stroke:#181818;stroke-width:0.5;" width="15" x="606.1373" y="273.6"/><rect fill="#F1F1F1" height="2" style="stroke:#181818;stroke-width:0.5;" width="4" x="604.1373" y="275.6"/><rect fill="#F1F1F1" height="2" style="stroke:#181818;stroke-width:0.5;" width="4" x="604.1373" y="279.6"/><text fill="#000000" font-family="sans-serif" font-size="14" lengthAdjust="spacing" textLength="166.2773" x="434.86" y="301.5951">Input Validation Module</text></g><!--entity Security Module--><g class="entity" data-entity="Security Module" data-source-line="14" data-uid="ent0013" id="entity_Security Module"><rect fill="#F1F1F1" height="46.2969" rx="2.5" ry="2.5" style="stroke:#181818;stroke-width:0.5;" width="152.8477" x="21.58" y="374.89"/><rect fill="#F1F1F1" height="10" style="stroke:#181818;stroke-width:0.5;" width="15" x="154.4277" y="379.89"/><rect fill="#F1F1F1" height="2" style="stroke:#181818;stroke-width:0.5;" width="4" x="152.4277" y="381.89"/><rect fill="#F1F1F1" height="2" style="stroke:#181818;stroke-width:0.5;" width="4" x="152.4277" y="385.89"/><text fill="#000000" font-family="sans-serif" font-size="14" lengthAdjust="spacing" textLength="112.8477" x="36.58" y="407.8851">Security Module</text></g><!--entity Authentication System--><g class="entity" data-entity="Authentication System" data-source-line="15" data-uid="ent0014" id="entity_Authentication System"><rect fill="#F1F1F1" height="46.2969" rx="2.5" ry="2.5" style="stroke:#181818;stroke-width:0.5;" width="199.4277" x="209.29" y="374.89"/><rect fill="#F1F1F1" height="10" style="stroke:#181818;stroke-width:0.5;" width="15" x="388.7177" y="379.89"/><rect fill="#F1F1F1" height="2" style="stroke:#181818;stroke-width:0.5;" width="4" x="386.7177" y="381.89"/><rect fill="#F1F1F1" height="2" style="stroke:#181818;stroke-width:0.5;" width="4" x="386.7177" y="385.89"/><text fill="#000000" font-family="sans-serif" font-size="14" lengthAdjust="spacing" textLength="159.4277" x="224.29" y="407.8851">Authentication System</text></g><!--link Main Menu to Game Interface--><g class="link" data-entity-1="Main Menu" data-entity-2="Game Interface" data-source-line="18" data-uid="lnk15" id="link_Main Menu_Game Interface"><path d="M822.47,87.78 C825.16,105.28 827.9374,123.4498 830.6274,140.9298 " fill="none" id="Main Menu-to-Game Interface" style="stroke:#181818;stroke-width:1;"/><polygon fill="#181818" points="831.54,146.86,834.1246,137.3563,830.7795,141.9182,826.2176,138.5731,831.54,146.86" style="stroke:#181818;stroke-width:1;"/></g><!--link Game Interface to Feedback Module--><g class="link" data-entity-1="Game Interface" data-entity-2="Feedback Module" data-source-line="19" data-uid="lnk16" id="link_Game Interface_Feedback Module"><path d="M853.24,193.89 C870.59,215.22 892.7346,242.4548 910.0546,263.7548 " fill="none" id="Game Interface-to-Feedback Module" style="stroke:#181818;stroke-width:1;"/><polygon fill="#181818" points="913.84,268.41,911.2654,258.9036,910.6855,264.5307,905.0585,263.9508,913.84,268.41" style="stroke:#181818;stroke-width:1;"/></g><!--link Game Interface to Storyline Engine--><g class="link" data-entity-1="Game Interface" data-entity-2="Storyline Engine" data-source-line="20" data-uid="lnk17" id="link_Game Interface_Storyline Engine"><path d="M816.76,193.89 C799.41,215.22 777.2654,242.4548 759.9454,263.7548 " fill="none" id="Game Interface-to-Storyline Engine" style="stroke:#181818;stroke-width:1;"/><polygon fill="#181818" points="756.16,268.41,764.9415,263.9508,759.3145,264.5307,758.7346,258.9036,756.16,268.41" style="stroke:#181818;stroke-width:1;"/></g><!--link Admin Interface to Content Management System--><g class="link" data-entity-1="Admin Interface" data-entity-2="Content Management System" data-source-line="21" data-uid="lnk18" id="link_Admin Interface_Content Management System"><path d="M1006.41,87.61 C1041.88,130.85 1115.4555,220.5704 1150.8555,263.7404 " fill="none" id="Admin Interface-to-Content Management System" style="stroke:#181818;stroke-width:1;"/><polygon fill="#181818" points="1154.66,268.38,1152.0463,258.8843,1151.4896,264.5137,1145.8602,263.957,1154.66,268.38" style="stroke:#181818;stroke-width:1;"/></g><!--link Game Interface to Input Validation Module--><g class="link" data-entity-1="Game Interface" data-entity-2="Input Validation Module" data-source-line="22" data-uid="lnk19" id="link_Game Interface_Input Validation Module"><path d="M760.32,188.39 C724.24,197.61 680.7,210.27 643,225.6 C613.9,237.43 587.9509,251.4166 564.6909,265.1066 " fill="none" id="Game Interface-to-Input Validation Module" style="stroke:#181818;stroke-width:1;"/><polygon fill="#181818" points="559.52,268.15,569.3052,267.0322,563.8291,265.6138,565.2474,260.1377,559.52,268.15" style="stroke:#181818;stroke-width:1;"/></g><!--link Web Server to Security Module--><g class="link" data-entity-1="Web Server" data-entity-2="Security Module" data-source-line="23" data-uid="lnk20" id="link_Web Server_Security Module"><path d="M86.25,315.38 C88.77,332.87 91.3872,351.0309 93.8972,368.5109 " fill="none" id="Web Server-to-Security Module" style="stroke:#181818;stroke-width:1;"/><polygon fill="#181818" points="94.75,374.45,97.4302,364.9728,94.0393,369.5008,89.5114,366.1099,94.75,374.45" style="stroke:#181818;stroke-width:1;"/></g><!--link Web Server to Authentication System--><g class="link" data-entity-1="Web Server" data-entity-2="Authentication System" data-source-line="24" data-uid="lnk21" id="link_Web Server_Authentication System"><path d="M132.04,315.38 C169.95,332.87 216.7218,354.4566 254.6118,371.9366 " fill="none" id="Web Server-to-Authentication System" style="stroke:#181818;stroke-width:1;"/><polygon fill="#181818" points="260.06,374.45,253.5634,367.0477,255.5199,372.3555,250.2121,374.312,260.06,374.45" style="stroke:#181818;stroke-width:1;"/></g><!--SRC=[VP51JiCm44NtESMe-ru1gL10NKH2Ye05OZ6rXs2HZ2DdN2b2t9rft0fJ1tRszzEpvtj0yu4jmUfnf00x5WflQ6W5dnN0IusEeIQEhyVTFVRqWypHnlPAPDbNLGrdvRKkY2qq50xEq7YIFjD-ZYZCYYqAmaFm2eoEMxZbrd6otn7PlKgWzZPsAMl4XwbJ8WTllBw01MfalRa_Bfjf5EhdqnqFKU09EsTHdETVEZ8nE9doR1FbNHNE9Ffiqj6oGc2zlYehkGmILSonZ9MZ5Vqcy9znbyr_Df1_nkaHbuMKo78_tm00]--></g></svg>