<svg xmlns="http://www.w3.org/2000/svg" xmlns:xlink="http://www.w3.org/1999/xlink" contentStyleType="text/css" data-diagram-type="DESCRIPTION" height="748px" preserveAspectRatio="none" style="width:239px;height:748px;background:#FFFFFF;" version="1.1" viewBox="0 0 239 748" width="239px" zoomAndPan="magnify"><defs/><g><!--cluster CCTNS Development--><g class="cluster" data-entity="CCTNS Development" data-source-line="1" data-uid="ent0002" id="cluster_CCTNS Development"><path d="M8.5,6 L171.1904,6 A3.75,3.75 0 0 1 173.6904,8.5 L180.6904,28.2969 L229.5,28.2969 A2.5,2.5 0 0 1 232,30.7969 L232,738.58 A2.5,2.5 0 0 1 229.5,741.08 L8.5,741.08 A2.5,2.5 0 0 1 6,738.58 L6,8.5 A2.5,2.5 0 0 1 8.5,6 " fill="none" style="stroke:#000000;stroke-width:1.5;"/><line style="stroke:#000000;stroke-width:1.5;" x1="6" x2="180.6904" y1="28.2969" y2="28.2969"/><text fill="#000000" font-family="sans-serif" font-size="14" font-weight="bold" lengthAdjust="spacing" textLength="161.6904" x="10" y="20.9951">CCTNS Development</text></g><!--entity Frontend Module--><g class="entity" data-entity="Frontend Module" data-source-line="2" data-uid="ent0003" id="entity_Frontend Module"><rect fill="#F1F1F1" height="46.2969" rx="2.5" ry="2.5" style="stroke:#181818;stroke-width:0.5;" width="158.4668" x="39.77" y="41"/><rect fill="#F1F1F1" height="10" style="stroke:#181818;stroke-width:0.5;" width="15" x="178.2368" y="46"/><rect fill="#F1F1F1" height="2" style="stroke:#181818;stroke-width:0.5;" width="4" x="176.2368" y="48"/><rect fill="#F1F1F1" height="2" style="stroke:#181818;stroke-width:0.5;" width="4" x="176.2368" y="52"/><text fill="#000000" font-family="sans-serif" font-size="14" lengthAdjust="spacing" textLength="118.4668" x="54.77" y="73.9951">Frontend Module</text></g><!--entity Backend Module--><g class="entity" data-entity="Backend Module" data-source-line="2" data-uid="ent0004" id="entity_Backend Module"><rect fill="#F1F1F1" height="46.2969" rx="2.5" ry="2.5" style="stroke:#181818;stroke-width:0.5;" width="155.7188" x="41.14" y="147.3"/><rect fill="#F1F1F1" height="10" style="stroke:#181818;stroke-width:0.5;" width="15" x="176.8588" y="152.3"/><rect fill="#F1F1F1" height="2" style="stroke:#181818;stroke-width:0.5;" width="4" x="174.8588" y="154.3"/><rect fill="#F1F1F1" height="2" style="stroke:#181818;stroke-width:0.5;" width="4" x="174.8588" y="158.3"/><text fill="#000000" font-family="sans-serif" font-size="14" lengthAdjust="spacing" textLength="115.7188" x="56.14" y="180.2951">Backend Module</text></g><!--entity Database Layer--><g class="entity" data-entity="Database Layer" data-source-line="3" data-uid="ent0006" id="entity_Database Layer"><rect fill="#F1F1F1" height="46.2969" rx="2.5" ry="2.5" style="stroke:#181818;stroke-width:0.5;" width="150.2842" x="43.86" y="253.6"/><rect fill="#F1F1F1" height="10" style="stroke:#181818;stroke-width:0.5;" width="15" x="174.1442" y="258.6"/><rect fill="#F1F1F1" height="2" style="stroke:#181818;stroke-width:0.5;" width="4" x="172.1442" y="260.6"/><rect fill="#F1F1F1" height="2" style="stroke:#181818;stroke-width:0.5;" width="4" x="172.1442" y="264.6"/><text fill="#000000" font-family="sans-serif" font-size="14" lengthAdjust="spacing" textLength="110.2842" x="58.86" y="286.5951">Database Layer</text></g><!--entity Security Layer--><g class="entity" data-entity="Security Layer" data-source-line="4" data-uid="ent0008" id="entity_Security Layer"><rect fill="#F1F1F1" height="46.2969" rx="2.5" ry="2.5" style="stroke:#181818;stroke-width:0.5;" width="140.9736" x="48.51" y="359.89"/><rect fill="#F1F1F1" height="10" style="stroke:#181818;stroke-width:0.5;" width="15" x="169.4836" y="364.89"/><rect fill="#F1F1F1" height="2" style="stroke:#181818;stroke-width:0.5;" width="4" x="167.4836" y="366.89"/><rect fill="#F1F1F1" height="2" style="stroke:#181818;stroke-width:0.5;" width="4" x="167.4836" y="370.89"/><text fill="#000000" font-family="sans-serif" font-size="14" lengthAdjust="spacing" textLength="100.9736" x="63.51" y="392.8851">Security Layer</text></g><!--entity Network Layer--><g class="entity" data-entity="Network Layer" data-source-line="5" data-uid="ent0010" id="entity_Network Layer"><rect fill="#F1F1F1" height="46.2969" rx="2.5" ry="2.5" style="stroke:#181818;stroke-width:0.5;" width="141.9375" x="48.03" y="466.19"/><rect fill="#F1F1F1" height="10" style="stroke:#181818;stroke-width:0.5;" width="15" x="169.9675" y="471.19"/><rect fill="#F1F1F1" height="2" style="stroke:#181818;stroke-width:0.5;" width="4" x="167.9675" y="473.19"/><rect fill="#F1F1F1" height="2" style="stroke:#181818;stroke-width:0.5;" width="4" x="167.9675" y="477.19"/><text fill="#000000" font-family="sans-serif" font-size="14" lengthAdjust="spacing" textLength="101.9375" x="63.03" y="499.1851">Network Layer</text></g><!--entity Communication Layer--><g class="entity" data-entity="Communication Layer" data-source-line="6" data-uid="ent0012" id="entity_Communication Layer"><rect fill="#F1F1F1" height="46.2969" rx="2.5" ry="2.5" style="stroke:#181818;stroke-width:0.5;" width="193.8291" x="22.09" y="572.49"/><rect fill="#F1F1F1" height="10" style="stroke:#181818;stroke-width:0.5;" width="15" x="195.9191" y="577.49"/><rect fill="#F1F1F1" height="2" style="stroke:#181818;stroke-width:0.5;" width="4" x="193.9191" y="579.49"/><rect fill="#F1F1F1" height="2" style="stroke:#181818;stroke-width:0.5;" width="4" x="193.9191" y="583.49"/><text fill="#000000" font-family="sans-serif" font-size="14" lengthAdjust="spacing" textLength="153.8291" x="37.09" y="605.4851">Communication Layer</text></g><!--entity Mobile Access Layer--><g class="entity" data-entity="Mobile Access Layer" data-source-line="7" data-uid="ent0014" id="entity_Mobile Access Layer"><rect fill="#F1F1F1" height="46.2969" rx="2.5" ry="2.5" style="stroke:#181818;stroke-width:0.5;" width="182.0303" x="27.98" y="678.78"/><rect fill="#F1F1F1" height="10" style="stroke:#181818;stroke-width:0.5;" width="15" x="190.0103" y="683.78"/><rect fill="#F1F1F1" height="2" style="stroke:#181818;stroke-width:0.5;" width="4" x="188.0103" y="685.78"/><rect fill="#F1F1F1" height="2" style="stroke:#181818;stroke-width:0.5;" width="4" x="188.0103" y="689.78"/><text fill="#000000" font-family="sans-serif" font-size="14" lengthAdjust="spacing" textLength="142.0303" x="42.98" y="711.7751">Mobile Access Layer</text></g><!--link Frontend Module to Backend Module--><g class="link" data-entity-1="Frontend Module" data-entity-2="Backend Module" data-source-line="2" data-uid="lnk5" id="link_Frontend Module_Backend Module"><path d="M119,87.78 C119,105.28 119,123.38 119,140.86 " fill="none" id="Frontend Module-to-Backend Module" style="stroke:#181818;stroke-width:1;"/><polygon fill="#181818" points="119,146.86,123,137.86,119,141.86,115,137.86,119,146.86" style="stroke:#181818;stroke-width:1;"/></g><!--link Backend Module to Database Layer--><g class="link" data-entity-1="Backend Module" data-entity-2="Database Layer" data-source-line="3" data-uid="lnk7" id="link_Backend Module_Database Layer"><path d="M119,194.08 C119,211.57 119,229.67 119,247.16 " fill="none" id="Backend Module-to-Database Layer" style="stroke:#181818;stroke-width:1;"/><polygon fill="#181818" points="119,253.16,123,244.16,119,248.16,115,244.16,119,253.16" style="stroke:#181818;stroke-width:1;"/></g><!--link Database Layer to Security Layer--><g class="link" data-entity-1="Database Layer" data-entity-2="Security Layer" data-source-line="4" data-uid="lnk9" id="link_Database Layer_Security Layer"><path d="M119,300.37 C119,317.87 119,335.97 119,353.45 " fill="none" id="Database Layer-to-Security Layer" style="stroke:#181818;stroke-width:1;"/><polygon fill="#181818" points="119,359.45,123,350.45,119,354.45,115,350.45,119,359.45" style="stroke:#181818;stroke-width:1;"/></g><!--link Security Layer to Network Layer--><g class="link" data-entity-1="Security Layer" data-entity-2="Network Layer" data-source-line="5" data-uid="lnk11" id="link_Security Layer_Network Layer"><path d="M119,406.67 C119,424.17 119,442.27 119,459.75 " fill="none" id="Security Layer-to-Network Layer" style="stroke:#181818;stroke-width:1;"/><polygon fill="#181818" points="119,465.75,123,456.75,119,460.75,115,456.75,119,465.75" style="stroke:#181818;stroke-width:1;"/></g><!--link Network Layer to Communication Layer--><g class="link" data-entity-1="Network Layer" data-entity-2="Communication Layer" data-source-line="6" data-uid="lnk13" id="link_Network Layer_Communication Layer"><path d="M119,512.97 C119,530.46 119,548.57 119,566.05 " fill="none" id="Network Layer-to-Communication Layer" style="stroke:#181818;stroke-width:1;"/><polygon fill="#181818" points="119,572.05,123,563.05,119,567.05,115,563.05,119,572.05" style="stroke:#181818;stroke-width:1;"/></g><!--link Communication Layer to Mobile Access Layer--><g class="link" data-entity-1="Communication Layer" data-entity-2="Mobile Access Layer" data-source-line="7" data-uid="lnk15" id="link_Communication Layer_Mobile Access Layer"><path d="M119,619.27 C119,636.76 119,654.86 119,672.34 " fill="none" id="Communication Layer-to-Mobile Access Layer" style="stroke:#181818;stroke-width:1;"/><polygon fill="#181818" points="119,678.34,123,669.34,119,673.34,115,669.34,119,678.34" style="stroke:#181818;stroke-width:1;"/></g><!--SRC=[RSjD2i8m48RXlQSOkkyL14rnPRkfk-9YcWuIccHAVfGYtjr254nmbkyytu9onXj19SIbww6XEsbU3DbGmNC7smqdnpQGdQ3bAMgwGbtlOJXkmv-OQ16JR33WY9xWZ2kvZonYaZt9w5HOCrd493iA3tPp1lEMd61ZebKIWsARwN-Vj6bvL9hW82Lv_zsytW00]--></g></svg>