<svg xmlns="http://www.w3.org/2000/svg" xmlns:xlink="http://www.w3.org/1999/xlink" contentStyleType="text/css" data-diagram-type="DESCRIPTION" height="1385px" preserveAspectRatio="none" style="width:674px;height:1385px;background:#FFFFFF;" version="1.1" viewBox="0 0 674 1385" width="674px" zoomAndPan="magnify"><defs/><g><!--cluster CCTNS System--><g class="cluster" data-entity="CCTNS System" data-source-line="1" data-uid="ent0002" id="cluster_CCTNS System"><path d="M8.5,6 L124.5898,6 A3.75,3.75 0 0 1 127.0898,8.5 L134.0898,28.2969 L664.5,28.2969 A2.5,2.5 0 0 1 667,30.7969 L667,1376.36 A2.5,2.5 0 0 1 664.5,1378.86 L8.5,1378.86 A2.5,2.5 0 0 1 6,1376.36 L6,8.5 A2.5,2.5 0 0 1 8.5,6 " fill="none" style="stroke:#000000;stroke-width:1.5;"/><line style="stroke:#000000;stroke-width:1.5;" x1="6" x2="134.0898" y1="28.2969" y2="28.2969"/><text fill="#000000" font-family="sans-serif" font-size="14" font-weight="bold" lengthAdjust="spacing" textLength="115.0898" x="10" y="20.9951">CCTNS System</text></g><!--entity User Interface--><g class="entity" data-entity="User Interface" data-source-line="2" data-uid="ent0003" id="entity_User Interface"><rect fill="#F1F1F1" height="46.2969" rx="2.5" ry="2.5" style="stroke:#181818;stroke-width:0.5;" width="139.0391" x="266.48" y="41"/><rect fill="#F1F1F1" height="10" style="stroke:#181818;stroke-width:0.5;" width="15" x="385.5191" y="46"/><rect fill="#F1F1F1" height="2" style="stroke:#181818;stroke-width:0.5;" width="4" x="383.5191" y="48"/><rect fill="#F1F1F1" height="2" style="stroke:#181818;stroke-width:0.5;" width="4" x="383.5191" y="52"/><text fill="#000000" font-family="sans-serif" font-size="14" lengthAdjust="spacing" textLength="99.0391" x="281.48" y="73.9951">User Interface</text></g><!--entity Localization Service--><g class="entity" data-entity="Localization Service" data-source-line="2" data-uid="ent0004" id="entity_Localization Service"><rect fill="#F1F1F1" height="46.2969" rx="2.5" ry="2.5" style="stroke:#181818;stroke-width:0.5;" width="179.3574" x="22.32" y="147.3"/><rect fill="#F1F1F1" height="10" style="stroke:#181818;stroke-width:0.5;" width="15" x="181.6774" y="152.3"/><rect fill="#F1F1F1" height="2" style="stroke:#181818;stroke-width:0.5;" width="4" x="179.6774" y="154.3"/><rect fill="#F1F1F1" height="2" style="stroke:#181818;stroke-width:0.5;" width="4" x="179.6774" y="158.3"/><text fill="#000000" font-family="sans-serif" font-size="14" lengthAdjust="spacing" textLength="139.3574" x="37.32" y="180.2951">Localization Service</text></g><!--entity Authentication Service--><g class="entity" data-entity="Authentication Service" data-source-line="3" data-uid="ent0006" id="entity_Authentication Service"><rect fill="#F1F1F1" height="46.2969" rx="2.5" ry="2.5" style="stroke:#181818;stroke-width:0.5;" width="198.9629" x="236.52" y="147.3"/><rect fill="#F1F1F1" height="10" style="stroke:#181818;stroke-width:0.5;" width="15" x="415.4829" y="152.3"/><rect fill="#F1F1F1" height="2" style="stroke:#181818;stroke-width:0.5;" width="4" x="413.4829" y="154.3"/><rect fill="#F1F1F1" height="2" style="stroke:#181818;stroke-width:0.5;" width="4" x="413.4829" y="158.3"/><text fill="#000000" font-family="sans-serif" font-size="14" lengthAdjust="spacing" textLength="158.9629" x="251.52" y="180.2951">Authentication Service</text></g><!--entity Registration Module--><g class="entity" data-entity="Registration Module" data-source-line="4" data-uid="ent0008" id="entity_Registration Module"><rect fill="#F1F1F1" height="46.2969" rx="2.5" ry="2.5" style="stroke:#181818;stroke-width:0.5;" width="180.4102" x="470.79" y="147.3"/><rect fill="#F1F1F1" height="10" style="stroke:#181818;stroke-width:0.5;" width="15" x="631.2002" y="152.3"/><rect fill="#F1F1F1" height="2" style="stroke:#181818;stroke-width:0.5;" width="4" x="629.2002" y="154.3"/><rect fill="#F1F1F1" height="2" style="stroke:#181818;stroke-width:0.5;" width="4" x="629.2002" y="158.3"/><text fill="#000000" font-family="sans-serif" font-size="14" lengthAdjust="spacing" textLength="140.4102" x="485.79" y="180.2951">Registration Module</text></g><!--entity Investigation Module--><g class="entity" data-entity="Investigation Module" data-source-line="5" data-uid="ent0010" id="entity_Investigation Module"><rect fill="#F1F1F1" height="46.2969" rx="2.5" ry="2.5" style="stroke:#181818;stroke-width:0.5;" width="186.2139" x="463.89" y="253.59"/><rect fill="#F1F1F1" height="10" style="stroke:#181818;stroke-width:0.5;" width="15" x="630.1039" y="258.59"/><rect fill="#F1F1F1" height="2" style="stroke:#181818;stroke-width:0.5;" width="4" x="628.1039" y="260.59"/><rect fill="#F1F1F1" height="2" style="stroke:#181818;stroke-width:0.5;" width="4" x="628.1039" y="264.59"/><text fill="#000000" font-family="sans-serif" font-size="14" lengthAdjust="spacing" textLength="146.2139" x="478.89" y="286.5851">Investigation Module</text></g><!--entity Prosecution Module--><g class="entity" data-entity="Prosecution Module" data-source-line="6" data-uid="ent0012" id="entity_Prosecution Module"><rect fill="#F1F1F1" height="46.2969" rx="2.5" ry="2.5" style="stroke:#181818;stroke-width:0.5;" width="177.416" x="461.29" y="359.89"/><rect fill="#F1F1F1" height="10" style="stroke:#181818;stroke-width:0.5;" width="15" x="618.706" y="364.89"/><rect fill="#F1F1F1" height="2" style="stroke:#181818;stroke-width:0.5;" width="4" x="616.706" y="366.89"/><rect fill="#F1F1F1" height="2" style="stroke:#181818;stroke-width:0.5;" width="4" x="616.706" y="370.89"/><text fill="#000000" font-family="sans-serif" font-size="14" lengthAdjust="spacing" textLength="137.416" x="476.29" y="392.8851">Prosecution Module</text></g><!--entity Search Module--><g class="entity" data-entity="Search Module" data-source-line="7" data-uid="ent0014" id="entity_Search Module"><rect fill="#F1F1F1" height="46.2969" rx="2.5" ry="2.5" style="stroke:#181818;stroke-width:0.5;" width="143.7627" x="474.12" y="466.19"/><rect fill="#F1F1F1" height="10" style="stroke:#181818;stroke-width:0.5;" width="15" x="597.8827" y="471.19"/><rect fill="#F1F1F1" height="2" style="stroke:#181818;stroke-width:0.5;" width="4" x="595.8827" y="473.19"/><rect fill="#F1F1F1" height="2" style="stroke:#181818;stroke-width:0.5;" width="4" x="595.8827" y="477.19"/><text fill="#000000" font-family="sans-serif" font-size="14" lengthAdjust="spacing" textLength="103.7627" x="489.12" y="499.1851">Search Module</text></g><!--entity Database--><g class="entity" data-entity="Database" data-source-line="8" data-uid="ent0016" id="entity_Database"><rect fill="#F1F1F1" height="46.2969" rx="2.5" ry="2.5" style="stroke:#181818;stroke-width:0.5;" width="106.8008" x="490.6" y="572.49"/><rect fill="#F1F1F1" height="10" style="stroke:#181818;stroke-width:0.5;" width="15" x="577.4008" y="577.49"/><rect fill="#F1F1F1" height="2" style="stroke:#181818;stroke-width:0.5;" width="4" x="575.4008" y="579.49"/><rect fill="#F1F1F1" height="2" style="stroke:#181818;stroke-width:0.5;" width="4" x="575.4008" y="583.49"/><text fill="#000000" font-family="sans-serif" font-size="14" lengthAdjust="spacing" textLength="66.8008" x="505.6" y="605.4851">Database</text></g><!--entity Audit Trail--><g class="entity" data-entity="Audit Trail" data-source-line="9" data-uid="ent0018" id="entity_Audit Trail"><rect fill="#F1F1F1" height="46.2969" rx="2.5" ry="2.5" style="stroke:#181818;stroke-width:0.5;" width="111.832" x="487.08" y="678.78"/><rect fill="#F1F1F1" height="10" style="stroke:#181818;stroke-width:0.5;" width="15" x="578.912" y="683.78"/><rect fill="#F1F1F1" height="2" style="stroke:#181818;stroke-width:0.5;" width="4" x="576.912" y="685.78"/><rect fill="#F1F1F1" height="2" style="stroke:#181818;stroke-width:0.5;" width="4" x="576.912" y="689.78"/><text fill="#000000" font-family="sans-serif" font-size="14" lengthAdjust="spacing" textLength="71.832" x="502.08" y="711.7751">Audit Trail</text></g><!--entity Security Layer--><g class="entity" data-entity="Security Layer" data-source-line="10" data-uid="ent0020" id="entity_Security Layer"><rect fill="#F1F1F1" height="46.2969" rx="2.5" ry="2.5" style="stroke:#181818;stroke-width:0.5;" width="140.9736" x="472.51" y="785.08"/><rect fill="#F1F1F1" height="10" style="stroke:#181818;stroke-width:0.5;" width="15" x="593.4836" y="790.08"/><rect fill="#F1F1F1" height="2" style="stroke:#181818;stroke-width:0.5;" width="4" x="591.4836" y="792.08"/><rect fill="#F1F1F1" height="2" style="stroke:#181818;stroke-width:0.5;" width="4" x="591.4836" y="796.08"/><text fill="#000000" font-family="sans-serif" font-size="14" lengthAdjust="spacing" textLength="100.9736" x="487.51" y="818.0751">Security Layer</text></g><!--entity Network Infrastructure--><g class="entity" data-entity="Network Infrastructure" data-source-line="11" data-uid="ent0022" id="entity_Network Infrastructure"><rect fill="#F1F1F1" height="46.2969" rx="2.5" ry="2.5" style="stroke:#181818;stroke-width:0.5;" width="199.0107" x="443.49" y="891.38"/><rect fill="#F1F1F1" height="10" style="stroke:#181818;stroke-width:0.5;" width="15" x="622.5007" y="896.38"/><rect fill="#F1F1F1" height="2" style="stroke:#181818;stroke-width:0.5;" width="4" x="620.5007" y="898.38"/><rect fill="#F1F1F1" height="2" style="stroke:#181818;stroke-width:0.5;" width="4" x="620.5007" y="902.38"/><text fill="#000000" font-family="sans-serif" font-size="14" lengthAdjust="spacing" textLength="159.0107" x="458.49" y="924.3751">Network Infrastructure</text></g><!--entity Communication Gateway--><g class="entity" data-entity="Communication Gateway" data-source-line="12" data-uid="ent0024" id="entity_Communication Gateway"><rect fill="#F1F1F1" height="46.2969" rx="2.5" ry="2.5" style="stroke:#181818;stroke-width:0.5;" width="216.6406" x="434.68" y="997.67"/><rect fill="#F1F1F1" height="10" style="stroke:#181818;stroke-width:0.5;" width="15" x="631.3206" y="1002.67"/><rect fill="#F1F1F1" height="2" style="stroke:#181818;stroke-width:0.5;" width="4" x="629.3206" y="1004.67"/><rect fill="#F1F1F1" height="2" style="stroke:#181818;stroke-width:0.5;" width="4" x="629.3206" y="1008.67"/><text fill="#000000" font-family="sans-serif" font-size="14" lengthAdjust="spacing" textLength="176.6406" x="449.68" y="1030.6651">Communication Gateway</text></g><!--entity Remote Access Service--><g class="entity" data-entity="Remote Access Service" data-source-line="13" data-uid="ent0026" id="entity_Remote Access Service"><rect fill="#F1F1F1" height="46.2969" rx="2.5" ry="2.5" style="stroke:#181818;stroke-width:0.5;" width="203.4609" x="441.27" y="1103.97"/><rect fill="#F1F1F1" height="10" style="stroke:#181818;stroke-width:0.5;" width="15" x="624.7309" y="1108.97"/><rect fill="#F1F1F1" height="2" style="stroke:#181818;stroke-width:0.5;" width="4" x="622.7309" y="1110.97"/><rect fill="#F1F1F1" height="2" style="stroke:#181818;stroke-width:0.5;" width="4" x="622.7309" y="1114.97"/><text fill="#000000" font-family="sans-serif" font-size="14" lengthAdjust="spacing" textLength="163.4609" x="456.27" y="1136.9651">Remote Access Service</text></g><!--entity Mobile Interface--><g class="entity" data-entity="Mobile Interface" data-source-line="14" data-uid="ent0028" id="entity_Mobile Interface"><rect fill="#F1F1F1" height="46.2969" rx="2.5" ry="2.5" style="stroke:#181818;stroke-width:0.5;" width="153.0527" x="466.47" y="1210.27"/><rect fill="#F1F1F1" height="10" style="stroke:#181818;stroke-width:0.5;" width="15" x="599.5227" y="1215.27"/><rect fill="#F1F1F1" height="2" style="stroke:#181818;stroke-width:0.5;" width="4" x="597.5227" y="1217.27"/><rect fill="#F1F1F1" height="2" style="stroke:#181818;stroke-width:0.5;" width="4" x="597.5227" y="1221.27"/><text fill="#000000" font-family="sans-serif" font-size="14" lengthAdjust="spacing" textLength="113.0527" x="481.47" y="1243.2651">Mobile Interface</text></g><!--entity API Gateway--><g class="entity" data-entity="API Gateway" data-source-line="15" data-uid="ent0030" id="entity_API Gateway"><rect fill="#F1F1F1" height="46.2969" rx="2.5" ry="2.5" style="stroke:#181818;stroke-width:0.5;" width="128.4434" x="478.78" y="1316.56"/><rect fill="#F1F1F1" height="10" style="stroke:#181818;stroke-width:0.5;" width="15" x="587.2234" y="1321.56"/><rect fill="#F1F1F1" height="2" style="stroke:#181818;stroke-width:0.5;" width="4" x="585.2234" y="1323.56"/><rect fill="#F1F1F1" height="2" style="stroke:#181818;stroke-width:0.5;" width="4" x="585.2234" y="1327.56"/><text fill="#000000" font-family="sans-serif" font-size="14" lengthAdjust="spacing" textLength="88.4434" x="493.78" y="1349.5551">API Gateway</text></g><!--link User Interface to Localization Service--><g class="link" data-entity-1="User Interface" data-entity-2="Localization Service" data-source-line="2" data-uid="lnk5" id="link_User Interface_Localization Service"><path d="M287.4,87.78 C249.82,105.27 203.4995,126.8478 165.9495,144.3278 " fill="none" id="User Interface-to-Localization Service" style="stroke:#181818;stroke-width:1;"/><polygon fill="#181818" points="160.51,146.86,170.3574,146.6881,165.0429,144.7499,166.9811,139.4354,160.51,146.86" style="stroke:#181818;stroke-width:1;"/></g><!--link User Interface to Authentication Service--><g class="link" data-entity-1="User Interface" data-entity-2="Authentication Service" data-source-line="3" data-uid="lnk7" id="link_User Interface_Authentication Service"><path d="M336,87.78 C336,105.27 336,123.38 336,140.86 " fill="none" id="User Interface-to-Authentication Service" style="stroke:#181818;stroke-width:1;"/><polygon fill="#181818" points="336,146.86,340,137.86,336,141.86,332,137.86,336,146.86" style="stroke:#181818;stroke-width:1;"/></g><!--link User Interface to Registration Module--><g class="link" data-entity-1="User Interface" data-entity-2="Registration Module" data-source-line="4" data-uid="lnk9" id="link_User Interface_Registration Module"><path d="M384.82,87.78 C422.56,105.27 469.1164,126.8567 506.8264,144.3367 " fill="none" id="User Interface-to-Registration Module" style="stroke:#181818;stroke-width:1;"/><polygon fill="#181818" points="512.27,146.86,505.7868,139.446,507.7337,144.7572,502.4224,146.7041,512.27,146.86" style="stroke:#181818;stroke-width:1;"/></g><!--link Registration Module to Investigation Module--><g class="link" data-entity-1="Registration Module" data-entity-2="Investigation Module" data-source-line="5" data-uid="lnk11" id="link_Registration Module_Investigation Module"><path d="M560.13,194.08 C559.46,211.57 558.7697,229.6744 558.0997,247.1644 " fill="none" id="Registration Module-to-Investigation Module" style="stroke:#181818;stroke-width:1;"/><polygon fill="#181818" points="557.87,253.16,562.2116,244.3197,558.0614,248.1637,554.2174,244.0135,557.87,253.16" style="stroke:#181818;stroke-width:1;"/></g><!--link Investigation Module to Prosecution Module--><g class="link" data-entity-1="Investigation Module" data-entity-2="Prosecution Module" data-source-line="6" data-uid="lnk13" id="link_Investigation Module_Prosecution Module"><path d="M555.48,300.37 C554.31,317.87 553.0907,335.9834 551.9207,353.4634 " fill="none" id="Investigation Module-to-Prosecution Module" style="stroke:#181818;stroke-width:1;"/><polygon fill="#181818" points="551.52,359.45,556.1121,350.7372,551.8539,354.4612,548.13,350.203,551.52,359.45" style="stroke:#181818;stroke-width:1;"/></g><!--link Prosecution Module to Search Module--><g class="link" data-entity-1="Prosecution Module" data-entity-2="Search Module" data-source-line="7" data-uid="lnk15" id="link_Prosecution Module_Search Module"><path d="M549.13,406.67 C548.46,424.16 547.7698,442.2744 547.0998,459.7544 " fill="none" id="Prosecution Module-to-Search Module" style="stroke:#181818;stroke-width:1;"/><polygon fill="#181818" points="546.87,465.75,551.2118,456.9098,547.0615,460.7537,543.2176,456.6034,546.87,465.75" style="stroke:#181818;stroke-width:1;"/></g><!--link Search Module to Database--><g class="link" data-entity-1="Search Module" data-entity-2="Database" data-source-line="8" data-uid="lnk17" id="link_Search Module_Database"><path d="M545.57,512.97 C545.23,530.46 544.8866,548.5611 544.5466,566.0511 " fill="none" id="Search Module-to-Database" style="stroke:#181818;stroke-width:1;"/><polygon fill="#181818" points="544.43,572.05,548.6042,563.1294,544.5272,567.0509,540.6057,562.974,544.43,572.05" style="stroke:#181818;stroke-width:1;"/></g><!--link Database to Audit Trail--><g class="link" data-entity-1="Database" data-entity-2="Audit Trail" data-source-line="9" data-uid="lnk19" id="link_Database_Audit Trail"><path d="M543.78,619.26 C543.62,636.76 543.4349,654.8603 543.2749,672.3403 " fill="none" id="Database-to-Audit Trail" style="stroke:#181818;stroke-width:1;"/><polygon fill="#181818" points="543.22,678.34,547.3022,669.377,543.2658,673.3402,539.3025,669.3038,543.22,678.34" style="stroke:#181818;stroke-width:1;"/></g><!--link Audit Trail to Security Layer--><g class="link" data-entity-1="Audit Trail" data-entity-2="Security Layer" data-source-line="10" data-uid="lnk21" id="link_Audit Trail_Security Layer"><path d="M543,725.56 C543,743.06 543,761.16 543,778.64 " fill="none" id="Audit Trail-to-Security Layer" style="stroke:#181818;stroke-width:1;"/><polygon fill="#181818" points="543,784.64,547,775.64,543,779.64,539,775.64,543,784.64" style="stroke:#181818;stroke-width:1;"/></g><!--link Security Layer to Network Infrastructure--><g class="link" data-entity-1="Security Layer" data-entity-2="Network Infrastructure" data-source-line="11" data-uid="lnk23" id="link_Security Layer_Network Infrastructure"><path d="M543,831.86 C543,849.35 543,867.45 543,884.94 " fill="none" id="Security Layer-to-Network Infrastructure" style="stroke:#181818;stroke-width:1;"/><polygon fill="#181818" points="543,890.94,547,881.94,543,885.94,539,881.94,543,890.94" style="stroke:#181818;stroke-width:1;"/></g><!--link Network Infrastructure to Communication Gateway--><g class="link" data-entity-1="Network Infrastructure" data-entity-2="Communication Gateway" data-source-line="12" data-uid="lnk25" id="link_Network Infrastructure_Communication Gateway"><path d="M543,938.15 C543,955.65 543,973.75 543,991.23 " fill="none" id="Network Infrastructure-to-Communication Gateway" style="stroke:#181818;stroke-width:1;"/><polygon fill="#181818" points="543,997.23,547,988.23,543,992.23,539,988.23,543,997.23" style="stroke:#181818;stroke-width:1;"/></g><!--link Communication Gateway to Remote Access Service--><g class="link" data-entity-1="Communication Gateway" data-entity-2="Remote Access Service" data-source-line="13" data-uid="lnk27" id="link_Communication Gateway_Remote Access Service"><path d="M543,1044.45 C543,1061.95 543,1080.05 543,1097.53 " fill="none" id="Communication Gateway-to-Remote Access Service" style="stroke:#181818;stroke-width:1;"/><polygon fill="#181818" points="543,1103.53,547,1094.53,543,1098.53,539,1094.53,543,1103.53" style="stroke:#181818;stroke-width:1;"/></g><!--link Remote Access Service to Mobile Interface--><g class="link" data-entity-1="Remote Access Service" data-entity-2="Mobile Interface" data-source-line="14" data-uid="lnk29" id="link_Remote Access Service_Mobile Interface"><path d="M543,1150.75 C543,1168.24 543,1186.35 543,1203.83 " fill="none" id="Remote Access Service-to-Mobile Interface" style="stroke:#181818;stroke-width:1;"/><polygon fill="#181818" points="543,1209.83,547,1200.83,543,1204.83,539,1200.83,543,1209.83" style="stroke:#181818;stroke-width:1;"/></g><!--link Mobile Interface to API Gateway--><g class="link" data-entity-1="Mobile Interface" data-entity-2="API Gateway" data-source-line="15" data-uid="lnk31" id="link_Mobile Interface_API Gateway"><path d="M543,1257.05 C543,1274.54 543,1292.64 543,1310.12 " fill="none" id="Mobile Interface-to-API Gateway" style="stroke:#181818;stroke-width:1;"/><polygon fill="#181818" points="543,1316.12,547,1307.12,543,1311.12,539,1307.12,543,1316.12" style="stroke:#181818;stroke-width:1;"/></g><!--SRC=[ZP51Qy9048Nl_HM3T_z2GL8e0HLfx4bw6DSn3YQxCZkhfAN_lO7DMbEtfRdblVSnotidD4Ui2IP5iLvMK7LUgPt0nmFqt-RLaq1fbMIFXjvWEds4pTmPRFWTbPs5YkJClVL7VXRqG5RP_9juePgzIimlt2uqAPvp8bFQCtdbEWDbhKYjn7aouPx9696e2CKSnk6n5dDFgBX5doBNtzJ9ZXNMWjmCWLibNJ91M3kOOqToFJKIOt99Ud5ox7lS2_Rr1AD1qkLVp4WMhcs3JTCyez85km7CUscXrYd1p1Zo_iUaUIzo2xVbXcu6ZyYTFBIqAh_VzFa5]--></g></svg>