<svg xmlns="http://www.w3.org/2000/svg" xmlns:xlink="http://www.w3.org/1999/xlink" contentStyleType="text/css" data-diagram-type="DESCRIPTION" height="656px" preserveAspectRatio="none" style="width:265px;height:656px;background:#FFFFFF;" version="1.1" viewBox="0 0 265 656" width="265px" zoomAndPan="magnify"><defs/><g><!--cluster Data Center--><g class="cluster" data-entity="Data Center" data-source-line="1" data-uid="ent0002" id="cluster_Data Center"><polygon fill="none" points="16,16,26,6,248,6,248,629.78,238,639.78,16,639.78,16,16" style="stroke:#181818;stroke-width:1;"/><line style="stroke:#181818;stroke-width:1;" x1="238" x2="248" y1="16" y2="6"/><line style="stroke:#181818;stroke-width:1;" x1="16" x2="238" y1="16" y2="16"/><line style="stroke:#181818;stroke-width:1;" x1="238" x2="238" y1="16" y2="639.78"/><text fill="#000000" font-family="sans-serif" font-size="14" font-weight="bold" lengthAdjust="spacing" textLength="94.9102" x="80.5449" y="31.9951">Data Center</text></g><!--entity Application Server--><g class="entity" data-entity="Application Server" data-source-line="2" data-uid="ent0003" id="entity_Application Server"><rect fill="#F1F1F1" height="46.2969" rx="2.5" ry="2.5" style="stroke:#181818;stroke-width:0.5;" width="168.584" x="47.71" y="46"/><rect fill="#F1F1F1" height="10" style="stroke:#181818;stroke-width:0.5;" width="15" x="196.294" y="51"/><rect fill="#F1F1F1" height="2" style="stroke:#181818;stroke-width:0.5;" width="4" x="194.294" y="53"/><rect fill="#F1F1F1" height="2" style="stroke:#181818;stroke-width:0.5;" width="4" x="194.294" y="57"/><text fill="#000000" font-family="sans-serif" font-size="14" lengthAdjust="spacing" textLength="128.584" x="62.71" y="78.9951">Application Server</text></g><!--entity Database Server--><g class="entity" data-entity="Database Server" data-source-line="2" data-uid="ent0004" id="entity_Database Server"><rect fill="#F1F1F1" height="46.2969" rx="2.5" ry="2.5" style="stroke:#181818;stroke-width:0.5;" width="157.1611" x="53.42" y="152.3"/><rect fill="#F1F1F1" height="10" style="stroke:#181818;stroke-width:0.5;" width="15" x="190.5811" y="157.3"/><rect fill="#F1F1F1" height="2" style="stroke:#181818;stroke-width:0.5;" width="4" x="188.5811" y="159.3"/><rect fill="#F1F1F1" height="2" style="stroke:#181818;stroke-width:0.5;" width="4" x="188.5811" y="163.3"/><text fill="#000000" font-family="sans-serif" font-size="14" lengthAdjust="spacing" textLength="117.1611" x="68.42" y="185.2951">Database Server</text></g><!--entity Security Server--><g class="entity" data-entity="Security Server" data-source-line="3" data-uid="ent0006" id="entity_Security Server"><rect fill="#F1F1F1" height="46.2969" rx="2.5" ry="2.5" style="stroke:#181818;stroke-width:0.5;" width="147.8506" x="58.07" y="258.59"/><rect fill="#F1F1F1" height="10" style="stroke:#181818;stroke-width:0.5;" width="15" x="185.9206" y="263.59"/><rect fill="#F1F1F1" height="2" style="stroke:#181818;stroke-width:0.5;" width="4" x="183.9206" y="265.59"/><rect fill="#F1F1F1" height="2" style="stroke:#181818;stroke-width:0.5;" width="4" x="183.9206" y="269.59"/><text fill="#000000" font-family="sans-serif" font-size="14" lengthAdjust="spacing" textLength="107.8506" x="73.07" y="291.5851">Security Server</text></g><!--entity Network Server--><g class="entity" data-entity="Network Server" data-source-line="4" data-uid="ent0008" id="entity_Network Server"><rect fill="#F1F1F1" height="46.2969" rx="2.5" ry="2.5" style="stroke:#181818;stroke-width:0.5;" width="148.8145" x="57.59" y="364.89"/><rect fill="#F1F1F1" height="10" style="stroke:#181818;stroke-width:0.5;" width="15" x="186.4045" y="369.89"/><rect fill="#F1F1F1" height="2" style="stroke:#181818;stroke-width:0.5;" width="4" x="184.4045" y="371.89"/><rect fill="#F1F1F1" height="2" style="stroke:#181818;stroke-width:0.5;" width="4" x="184.4045" y="375.89"/><text fill="#000000" font-family="sans-serif" font-size="14" lengthAdjust="spacing" textLength="108.8145" x="72.59" y="397.8851">Network Server</text></g><!--entity Communication Server--><g class="entity" data-entity="Communication Server" data-source-line="5" data-uid="ent0010" id="entity_Communication Server"><rect fill="#F1F1F1" height="46.2969" rx="2.5" ry="2.5" style="stroke:#181818;stroke-width:0.5;" width="200.7061" x="31.65" y="471.19"/><rect fill="#F1F1F1" height="10" style="stroke:#181818;stroke-width:0.5;" width="15" x="212.3561" y="476.19"/><rect fill="#F1F1F1" height="2" style="stroke:#181818;stroke-width:0.5;" width="4" x="210.3561" y="478.19"/><rect fill="#F1F1F1" height="2" style="stroke:#181818;stroke-width:0.5;" width="4" x="210.3561" y="482.19"/><text fill="#000000" font-family="sans-serif" font-size="14" lengthAdjust="spacing" textLength="160.7061" x="46.65" y="504.1851">Communication Server</text></g><!--entity Mobile Server--><g class="entity" data-entity="Mobile Server" data-source-line="6" data-uid="ent0012" id="entity_Mobile Server"><rect fill="#F1F1F1" height="46.2969" rx="2.5" ry="2.5" style="stroke:#181818;stroke-width:0.5;" width="136.2842" x="63.86" y="577.48"/><rect fill="#F1F1F1" height="10" style="stroke:#181818;stroke-width:0.5;" width="15" x="180.1442" y="582.48"/><rect fill="#F1F1F1" height="2" style="stroke:#181818;stroke-width:0.5;" width="4" x="178.1442" y="584.48"/><rect fill="#F1F1F1" height="2" style="stroke:#181818;stroke-width:0.5;" width="4" x="178.1442" y="588.48"/><text fill="#000000" font-family="sans-serif" font-size="14" lengthAdjust="spacing" textLength="96.2842" x="78.86" y="610.4751">Mobile Server</text></g><!--link Application Server to Database Server--><g class="link" data-entity-1="Application Server" data-entity-2="Database Server" data-source-line="2" data-uid="lnk5" id="link_Application Server_Database Server"><path d="M132,92.78 C132,110.27 132,128.37 132,145.86 " fill="none" id="Application Server-to-Database Server" style="stroke:#181818;stroke-width:1;"/><polygon fill="#181818" points="132,151.86,136,142.86,132,146.86,128,142.86,132,151.86" style="stroke:#181818;stroke-width:1;"/></g><!--link Database Server to Security Server--><g class="link" data-entity-1="Database Server" data-entity-2="Security Server" data-source-line="3" data-uid="lnk7" id="link_Database Server_Security Server"><path d="M132,199.07 C132,216.57 132,234.67 132,252.15 " fill="none" id="Database Server-to-Security Server" style="stroke:#181818;stroke-width:1;"/><polygon fill="#181818" points="132,258.15,136,249.15,132,253.15,128,249.15,132,258.15" style="stroke:#181818;stroke-width:1;"/></g><!--link Security Server to Network Server--><g class="link" data-entity-1="Security Server" data-entity-2="Network Server" data-source-line="4" data-uid="lnk9" id="link_Security Server_Network Server"><path d="M132,305.37 C132,322.87 132,340.97 132,358.45 " fill="none" id="Security Server-to-Network Server" style="stroke:#181818;stroke-width:1;"/><polygon fill="#181818" points="132,364.45,136,355.45,132,359.45,128,355.45,132,364.45" style="stroke:#181818;stroke-width:1;"/></g><!--link Network Server to Communication Server--><g class="link" data-entity-1="Network Server" data-entity-2="Communication Server" data-source-line="5" data-uid="lnk11" id="link_Network Server_Communication Server"><path d="M132,411.67 C132,429.16 132,447.27 132,464.75 " fill="none" id="Network Server-to-Communication Server" style="stroke:#181818;stroke-width:1;"/><polygon fill="#181818" points="132,470.75,136,461.75,132,465.75,128,461.75,132,470.75" style="stroke:#181818;stroke-width:1;"/></g><!--link Communication Server to Mobile Server--><g class="link" data-entity-1="Communication Server" data-entity-2="Mobile Server" data-source-line="6" data-uid="lnk13" id="link_Communication Server_Mobile Server"><path d="M132,517.97 C132,535.46 132,553.56 132,571.04 " fill="none" id="Communication Server-to-Mobile Server" style="stroke:#181818;stroke-width:1;"/><polygon fill="#181818" points="132,577.04,136,568.04,132,572.04,128,568.04,132,577.04" style="stroke:#181818;stroke-width:1;"/></g><!--SRC=[oyjFILLGSaaiILHmJiqhIIrIKgZcKW22QCU2WfpCvCIIpFmyXU3KehBKebW5NLqxXMYGugJ4ubIOA4GvkYX4RN1gScbHPaabgbfqKOXQlzIIyloYR5IbQ88GbSxvkRcbUMYEWwZ7AWNHvPkVb9c3S7Kj0000]--></g></svg>