<svg xmlns="http://www.w3.org/2000/svg" xmlns:xlink="http://www.w3.org/1999/xlink" contentStyleType="text/css" data-diagram-type="DESCRIPTION" height="755px" preserveAspectRatio="none" style="width:561px;height:755px;background:#FFFFFF;" version="1.1" viewBox="0 0 561 755" width="561px" zoomAndPan="magnify"><defs/><g><!--entity User--><g class="entity" data-entity="User" data-source-line="1" data-uid="ent0002" id="entity_User"><ellipse cx="44.4651" cy="14" fill="#F1F1F1" rx="8" ry="8" style="stroke:#181818;stroke-width:0.5;"/><path d="M44.4651,22 L44.4651,49 M31.4651,30 L57.4651,30 M44.4651,49 L31.4651,64 M44.4651,49 L57.4651,64 " fill="none" style="stroke:#181818;stroke-width:0.5;"/><text fill="#000000" font-family="sans-serif" font-size="14" lengthAdjust="spacing" textLength="31.9102" x="28.51" y="78.4951">User</text></g><!--entity PolicePersonnel--><g class="entity" data-entity="PolicePersonnel" data-source-line="2" data-uid="ent0003" id="entity_PolicePersonnel"><ellipse cx="169.4688" cy="14" fill="#F1F1F1" rx="8" ry="8" style="stroke:#181818;stroke-width:0.5;"/><path d="M169.4688,22 L169.4688,49 M156.4688,30 L182.4688,30 M169.4688,49 L156.4688,64 M169.4688,49 L182.4688,64 " fill="none" style="stroke:#181818;stroke-width:0.5;"/><text fill="#000000" font-family="sans-serif" font-size="14" lengthAdjust="spacing" textLength="110.0176" x="114.46" y="78.4951">PolicePersonnel</text></g><!--entity Citizen--><g class="entity" data-entity="Citizen" data-source-line="3" data-uid="ent0004" id="entity_Citizen"><ellipse cx="283.4595" cy="14" fill="#F1F1F1" rx="8" ry="8" style="stroke:#181818;stroke-width:0.5;"/><path d="M283.4595,22 L283.4595,49 M270.4595,30 L296.4595,30 M283.4595,49 L270.4595,64 M283.4595,49 L296.4595,64 " fill="none" style="stroke:#181818;stroke-width:0.5;"/><text fill="#000000" font-family="sans-serif" font-size="14" lengthAdjust="spacing" textLength="47.8789" x="259.52" y="78.4951">Citizen</text></g><g class="entity" data-entity="Login" data-source-line="5" data-uid="ent0005" id="entity_Login"><ellipse cx="44.4641" cy="179.8257" fill="#F1F1F1" rx="38.4641" ry="14.5557" style="stroke:#181818;stroke-width:0.5;"/><text fill="#000000" font-family="sans-serif" font-size="14" lengthAdjust="spacing" textLength="38.0146" x="23.59" y="183.2806">Login</text></g><g class="entity" data-entity="Register Complaint" data-source-line="6" data-uid="ent0007" id="entity_Register Complaint"><ellipse cx="226.4633" cy="179.8267" fill="#F1F1F1" rx="86.7333" ry="19.7467" style="stroke:#181818;stroke-width:0.5;"/><text fill="#000000" font-family="sans-serif" font-size="14" lengthAdjust="spacing" textLength="134.3057" x="159.3105" y="182.6733">Register Complaint</text></g><g class="entity" data-entity="Complaint Process" data-source-line="8" data-uid="ent0010" id="entity_Complaint Process"><ellipse cx="462.4584" cy="43.6357" fill="#F1F1F1" rx="84.7284" ry="19.3457" style="stroke:#181818;stroke-width:0.5;"/><text fill="#000000" font-family="sans-serif" font-size="14" lengthAdjust="spacing" textLength="129.6982" x="397.5851" y="46.4907">Complaint Process</text></g><g class="entity" data-entity="Investigation Process" data-source-line="8" data-uid="ent0011" id="entity_Investigation Process"><ellipse cx="462.459" cy="179.8318" fill="#F1F1F1" rx="93.209" ry="21.0418" style="stroke:#181818;stroke-width:0.5;"/><text fill="#000000" font-family="sans-serif" font-size="14" lengthAdjust="spacing" textLength="148.9688" x="387.9746" y="182.6785">Investigation Process</text></g><g class="entity" data-entity="Prosecution Process" data-source-line="9" data-uid="ent0013" id="entity_Prosecution Process"><ellipse cx="462.4571" cy="298.1414" fill="#F1F1F1" rx="89.3071" ry="20.2614" style="stroke:#181818;stroke-width:0.5;"/><text fill="#000000" font-family="sans-serif" font-size="14" lengthAdjust="spacing" textLength="140.1709" x="392.3717" y="300.9881">Prosecution Process</text></g><g class="entity" data-entity="Search" data-source-line="10" data-uid="ent0015" id="entity_Search"><ellipse cx="462.4561" cy="410.0513" fill="#F1F1F1" rx="46.1861" ry="14.6513" style="stroke:#181818;stroke-width:0.5;"/><text fill="#000000" font-family="sans-serif" font-size="14" lengthAdjust="spacing" textLength="48.4053" x="435.2534" y="413.7988">Search</text></g><g class="entity" data-entity="Audit Trail" data-source-line="11" data-uid="ent0017" id="entity_Audit Trail"><ellipse cx="462.4601" cy="516.636" fill="#F1F1F1" rx="62.6801" ry="14.936" style="stroke:#181818;stroke-width:0.5;"/><text fill="#000000" font-family="sans-serif" font-size="14" lengthAdjust="spacing" textLength="71.832" x="423.544" y="520.3836">Audit Trail</text></g><g class="entity" data-entity="Security Check" data-source-line="12" data-uid="ent0019" id="entity_Security Check"><ellipse cx="462.4592" cy="625.9018" fill="#F1F1F1" rx="74.6092" ry="17.3218" style="stroke:#181818;stroke-width:0.5;"/><text fill="#000000" font-family="sans-serif" font-size="14" lengthAdjust="spacing" textLength="105.0068" x="406.9558" y="629.6494">Security Check</text></g><g class="entity" data-entity="Response" data-source-line="13" data-uid="ent0021" id="entity_Response"><ellipse cx="462.4638" cy="734.9865" fill="#F1F1F1" rx="60.7138" ry="14.7765" style="stroke:#181818;stroke-width:0.5;"/><text fill="#000000" font-family="sans-serif" font-size="14" lengthAdjust="spacing" textLength="67.8672" x="425.5303" y="738.7341">Response</text></g><!--link User to Login--><g class="link" data-entity-1="User" data-entity-2="Login" data-source-line="5" data-uid="lnk6" id="link_User_Login"><path d="M42.08,81.92 C41.43,96.54 41,113.45 41.46,128.79 C41.83,140.97 42.2659,148.815 42.9759,158.835 " fill="none" id="User-to-Login" style="stroke:#181818;stroke-width:1;"/><polygon fill="#181818" points="43.4,164.82,46.7539,155.5598,43.0466,159.8325,38.7739,156.1252,43.4,164.82" style="stroke:#181818;stroke-width:1;"/><text fill="#000000" font-family="sans-serif" font-size="13" lengthAdjust="spacing" textLength="83.624" x="42.46" y="124.8569">Authenticate</text></g><!--link PolicePersonnel to Register Complaint--><g class="link" data-entity-1="PolicePersonnel" data-entity-2="Register Complaint" data-source-line="6" data-uid="lnk8" id="link_PolicePersonnel_Register Complaint"><path d="M176.88,82.02 C180.55,96.96 185.68,114.07 192.46,128.79 C197.56,139.86 201.4732,146.3306 208.1132,155.3906 " fill="none" id="PolicePersonnel-to-Register Complaint" style="stroke:#181818;stroke-width:1;"/><polygon fill="#181818" points="211.66,160.23,209.5661,150.6063,208.7043,156.1971,203.1135,155.3354,211.66,160.23" style="stroke:#181818;stroke-width:1;"/><text fill="#000000" font-family="sans-serif" font-size="13" lengthAdjust="spacing" textLength="46.1157" x="193.46" y="124.8569">Submit</text></g><!--link Citizen to Register Complaint--><g class="link" data-entity-1="Citizen" data-entity-2="Register Complaint" data-source-line="7" data-uid="lnk9" id="link_Citizen_Register Complaint"><path d="M267.59,82.02 C256.85,107.3 245.455,134.1172 236.895,154.2772 " fill="none" id="Citizen-to-Register Complaint" style="stroke:#181818;stroke-width:1;"/><polygon fill="#181818" points="234.55,159.8,241.7493,153.0792,236.5042,155.1977,234.3856,149.9525,234.55,159.8" style="stroke:#181818;stroke-width:1;"/><text fill="#000000" font-family="sans-serif" font-size="13" lengthAdjust="spacing" textLength="46.1157" x="254.46" y="124.8569">Submit</text></g><!--link Complaint Process to Investigation Process--><g class="link" data-entity-1="Complaint Process" data-entity-2="Investigation Process" data-source-line="8" data-uid="lnk12" id="link_Complaint Process_Investigation Process"><path d="M462.46,63.3 C462.46,88.36 462.46,126.73 462.46,152.58 " fill="none" id="Complaint Process-to-Investigation Process" style="stroke:#181818;stroke-width:1;"/><polygon fill="#181818" points="462.46,158.58,466.46,149.58,462.46,153.58,458.46,149.58,462.46,158.58" style="stroke:#181818;stroke-width:1;"/><text fill="#000000" font-family="sans-serif" font-size="13" lengthAdjust="spacing" textLength="45.4556" x="463.46" y="124.8569">Initiate</text></g><!--link Investigation Process to Prosecution Process--><g class="link" data-entity-1="Investigation Process" data-entity-2="Prosecution Process" data-source-line="9" data-uid="lnk14" id="link_Investigation Process_Prosecution Process"><path d="M462.46,201.36 C462.46,222.88 462.46,250.45 462.46,271.59 " fill="none" id="Investigation Process-to-Prosecution Process" style="stroke:#181818;stroke-width:1;"/><polygon fill="#181818" points="462.46,277.59,466.46,268.59,462.46,272.59,458.46,268.59,462.46,277.59" style="stroke:#181818;stroke-width:1;"/><text fill="#000000" font-family="sans-serif" font-size="13" lengthAdjust="spacing" textLength="52.5332" x="463.46" y="243.9469">Proceed</text></g><!--link Prosecution Process to Search--><g class="link" data-entity-1="Prosecution Process" data-entity-2="Search" data-source-line="10" data-uid="lnk16" id="link_Prosecution Process_Search"><path d="M462.46,318.79 C462.46,340.77 462.46,369.82 462.46,389.14 " fill="none" id="Prosecution Process-to-Search" style="stroke:#181818;stroke-width:1;"/><polygon fill="#181818" points="462.46,395.14,466.46,386.14,462.46,390.14,458.46,386.14,462.46,395.14" style="stroke:#181818;stroke-width:1;"/><text fill="#000000" font-family="sans-serif" font-size="13" lengthAdjust="spacing" textLength="39.5078" x="463.46" y="361.4669">Query</text></g><!--link Search to Audit Trail--><g class="link" data-entity-1="Search" data-entity-2="Audit Trail" data-source-line="11" data-uid="lnk18" id="link_Search_Audit Trail"><path d="M462.46,425.16 C462.46,445.12 462.46,475.4 462.46,495.42 " fill="none" id="Search-to-Audit Trail" style="stroke:#181818;stroke-width:1;"/><polygon fill="#181818" points="462.46,501.42,466.46,492.42,462.46,496.42,458.46,492.42,462.46,501.42" style="stroke:#181818;stroke-width:1;"/><text fill="#000000" font-family="sans-serif" font-size="13" lengthAdjust="spacing" textLength="23.4482" x="463.46" y="467.7669">Log</text></g><!--link Audit Trail to Security Check--><g class="link" data-entity-1="Audit Trail" data-entity-2="Security Check" data-source-line="12" data-uid="lnk20" id="link_Audit Trail_Security Check"><path d="M462.46,531.66 C462.46,551.42 462.46,581.39 462.46,602.41 " fill="none" id="Audit Trail-to-Security Check" style="stroke:#181818;stroke-width:1;"/><polygon fill="#181818" points="462.46,608.41,466.46,599.41,462.46,603.41,458.46,599.41,462.46,608.41" style="stroke:#181818;stroke-width:1;"/><text fill="#000000" font-family="sans-serif" font-size="13" lengthAdjust="spacing" textLength="38.1177" x="463.46" y="574.6369">Verify</text></g><!--link Security Check to Response--><g class="link" data-entity-1="Security Check" data-entity-2="Response" data-source-line="13" data-uid="lnk22" id="link_Security Check_Response"><path d="M462.46,643.63 C462.46,664.57 462.46,694.08 462.46,713.77 " fill="none" id="Security Check-to-Response" style="stroke:#181818;stroke-width:1;"/><polygon fill="#181818" points="462.46,719.77,466.46,710.77,462.46,714.77,458.46,710.77,462.46,719.77" style="stroke:#181818;stroke-width:1;"/><text fill="#000000" font-family="sans-serif" font-size="13" lengthAdjust="spacing" textLength="62.2007" x="463.46" y="686.2869">Authorize</text></g><!--SRC=[ZP7BJWCn34Nt-OfeLksYFy02gPfL9HO3XUv3QcOifdPbEqZjrnCyGr5vIEoIwtEk8YTbOubF2XAI7piUCKC7eam4uvosQ7W62k63ZAlLRLpSSO-qZ3UnMHSRW0npCcZ2ju89Ve0UrQhQyk4u9YHpSrkU3sXDcEl_nIukSUo4CwWk9sz3Rw26VJ9a-ffLTKErtn_t5-G5zQQGom_Tpx2lzg-4krj8aWV7xml8gSAVaS_NPOyM7oNXw53TNaMkqhad5q4xnNQ0_Ehe3WHVfiBhsRmjFJ8fN7w2fQwoUGS0]--></g></svg>