<svg xmlns="http://www.w3.org/2000/svg" xmlns:xlink="http://www.w3.org/1999/xlink" contentStyleType="text/css" data-diagram-type="DESCRIPTION" height="162px" preserveAspectRatio="none" style="width:1408px;height:162px;background:#FFFFFF;" version="1.1" viewBox="0 0 1408 162" width="1408px" zoomAndPan="magnify"><defs/><g><!--entity User--><g class="entity" data-entity="User" data-source-line="1" data-uid="ent0002" id="entity_User"><ellipse cx="21.9551" cy="89.89" fill="#F1F1F1" rx="8" ry="8" style="stroke:#181818;stroke-width:0.5;"/><path d="M21.9551,97.89 L21.9551,124.89 M8.9551,105.89 L34.9551,105.89 M21.9551,124.89 L8.9551,139.89 M21.9551,124.89 L34.9551,139.89 " fill="none" style="stroke:#181818;stroke-width:0.5;"/><text fill="#000000" font-family="sans-serif" font-size="14" lengthAdjust="spacing" textLength="31.9102" x="6" y="154.3851">User</text></g><!--entity PolicePersonnel--><g class="entity" data-entity="PolicePersonnel" data-source-line="2" data-uid="ent0003" id="entity_PolicePersonnel"><ellipse cx="1263.9588" cy="89.89" fill="#F1F1F1" rx="8" ry="8" style="stroke:#181818;stroke-width:0.5;"/><path d="M1263.9588,97.89 L1263.9588,124.89 M1250.9588,105.89 L1276.9588,105.89 M1263.9588,124.89 L1250.9588,139.89 M1263.9588,124.89 L1276.9588,139.89 " fill="none" style="stroke:#181818;stroke-width:0.5;"/><text fill="#000000" font-family="sans-serif" font-size="14" lengthAdjust="spacing" textLength="110.0176" x="1208.95" y="154.3851">PolicePersonnel</text></g><!--entity Citizen--><g class="entity" data-entity="Citizen" data-source-line="3" data-uid="ent0004" id="entity_Citizen"><ellipse cx="1377.9595" cy="89.89" fill="#F1F1F1" rx="8" ry="8" style="stroke:#181818;stroke-width:0.5;"/><path d="M1377.9595,97.89 L1377.9595,124.89 M1364.9595,105.89 L1390.9595,105.89 M1377.9595,124.89 L1364.9595,139.89 M1377.9595,124.89 L1390.9595,139.89 " fill="none" style="stroke:#181818;stroke-width:0.5;"/><text fill="#000000" font-family="sans-serif" font-size="14" lengthAdjust="spacing" textLength="47.8789" x="1354.02" y="154.3851">Citizen</text></g><g class="entity" data-entity="Login" data-source-line="5" data-uid="ent0005" id="entity_Login"><ellipse cx="864.9641" cy="119.5357" fill="#F1F1F1" rx="38.4641" ry="14.5557" style="stroke:#181818;stroke-width:0.5;"/><text fill="#000000" font-family="sans-serif" font-size="14" lengthAdjust="spacing" textLength="38.0146" x="844.09" y="122.9906">Login</text></g><g class="entity" data-entity="Authentication Service" data-source-line="6" data-uid="ent0007" id="entity_Authentication Service"><ellipse cx="1075.9643" cy="119.5389" fill="#F1F1F1" rx="97.6943" ry="21.9389" style="stroke:#181818;stroke-width:0.5;"/><text fill="#000000" font-family="sans-serif" font-size="14" lengthAdjust="spacing" textLength="158.9629" x="996.4828" y="122.3855">Authentication Service</text></g><g class="entity" data-entity="Register Complaint" data-source-line="8" data-uid="ent0010" id="entity_Register Complaint"><ellipse cx="255.9633" cy="119.5367" fill="#F1F1F1" rx="86.7333" ry="19.7467" style="stroke:#181818;stroke-width:0.5;"/><text fill="#000000" font-family="sans-serif" font-size="14" lengthAdjust="spacing" textLength="134.3057" x="188.8105" y="122.3833">Register Complaint</text></g><g class="entity" data-entity="Database" data-source-line="9" data-uid="ent0012" id="entity_Database"><ellipse cx="507.9576" cy="119.5412" fill="#F1F1F1" rx="59.9176" ry="14.7712" style="stroke:#181818;stroke-width:0.5;"/><text fill="#000000" font-family="sans-serif" font-size="14" lengthAdjust="spacing" textLength="66.8008" x="471.5572" y="123.2888">Database</text></g><g class="entity" data-entity="Audit Trail" data-source-line="10" data-uid="ent0014" id="entity_Audit Trail"><ellipse cx="728.9601" cy="119.536" fill="#F1F1F1" rx="62.6801" ry="14.936" style="stroke:#181818;stroke-width:0.5;"/><text fill="#000000" font-family="sans-serif" font-size="14" lengthAdjust="spacing" textLength="71.832" x="690.044" y="123.2836">Audit Trail</text></g><!--link User to Login--><g class="link" data-entity-1="User" data-entity-2="Login" data-source-line="5" data-uid="lnk6" id="link_User_Login"><path d="M38.1,113.58 C62.42,104.88 110.05,88.93 151.96,81.39 C365.07,43.08 421.55,54.78 637.96,47.17 C688.59,45.39 703.13,33.64 751.96,47.17 C791.24,58.06 825.1007,83.9334 845.4607,101.7134 " fill="none" id="User-to-Login" style="stroke:#181818;stroke-width:1;"/><polygon fill="#181818" points="849.98,105.66,845.8321,96.7272,846.2139,102.3711,840.57,102.7529,849.98,105.66" style="stroke:#181818;stroke-width:1;"/><text fill="#000000" font-family="sans-serif" font-size="13" lengthAdjust="spacing" textLength="112.9946" x="638.96" y="47.4569">Enter Credentials</text></g><!--link Login to Authentication Service--><g class="link" data-entity-1="Login" data-entity-2="Authentication Service" data-source-line="6" data-uid="lnk8" id="link_Login_Authentication Service"><path d="M903.66,119.54 C924.59,119.54 945.5,119.54 971.79,119.54 " fill="none" id="Login-to-Authentication Service" style="stroke:#181818;stroke-width:1;"/><polygon fill="#181818" points="977.79,119.54,968.79,115.54,972.79,119.54,968.79,123.54,977.79,119.54" style="stroke:#181818;stroke-width:1;"/><text fill="#000000" font-family="sans-serif" font-size="13" lengthAdjust="spacing" textLength="38.1177" x="921.84" y="112.6069">Verify</text></g><!--link Authentication Service to User--><g class="link" data-entity-1="Authentication Service" data-entity-2="User" data-source-line="7" data-uid="lnk9" id="link_Authentication Service_User"><path d="M1015.36,101.93 C986.94,94.37 952.46,86.19 920.96,81.39 C667.92,42.89 329.7,35.73 254.46,47.17 C170.66,59.91 81.04,94.7861 43.72,110.3061 " fill="none" id="Authentication Service-to-User" style="stroke:#181818;stroke-width:1;"/><polygon fill="#181818" points="38.18,112.61,48.026,112.8475,42.7967,110.6901,44.9541,105.4608,38.18,112.61" style="stroke:#181818;stroke-width:1;"/><text fill="#000000" font-family="sans-serif" font-size="13" lengthAdjust="spacing" textLength="101.8354" x="255.46" y="47.4569">Access Granted</text></g><!--link User to Register Complaint--><g class="link" data-entity-1="User" data-entity-2="Register Complaint" data-source-line="8" data-uid="lnk11" id="link_User_Register Complaint"><path d="M38.41,119.54 C65.35,119.54 114.71,119.54 162.83,119.54 " fill="none" id="User-to-Register Complaint" style="stroke:#181818;stroke-width:1;"/><polygon fill="#181818" points="168.83,119.54,159.83,115.54,163.83,119.54,159.83,123.54,168.83,119.54" style="stroke:#181818;stroke-width:1;"/><text fill="#000000" font-family="sans-serif" font-size="13" lengthAdjust="spacing" textLength="95.3164" x="56.07" y="112.6069">Submit Details</text></g><!--link Register Complaint to Database--><g class="link" data-entity-1="Register Complaint" data-entity-2="Database" data-source-line="9" data-uid="lnk13" id="link_Register Complaint_Database"><path d="M343.03,119.54 C377.6,119.54 410.51,119.54 441.85,119.54 " fill="none" id="Register Complaint-to-Database" style="stroke:#181818;stroke-width:1;"/><polygon fill="#181818" points="447.85,119.54,438.85,115.54,442.85,119.54,438.85,123.54,447.85,119.54" style="stroke:#181818;stroke-width:1;"/><text fill="#000000" font-family="sans-serif" font-size="13" lengthAdjust="spacing" textLength="69.8179" x="360.86" y="112.6069">Store Data</text></g><!--link Database to Audit Trail--><g class="link" data-entity-1="Database" data-entity-2="Audit Trail" data-source-line="10" data-uid="lnk15" id="link_Database_Audit Trail"><path d="M568.34,119.54 C598.63,119.54 629.29,119.54 659.94,119.54 " fill="none" id="Database-to-Audit Trail" style="stroke:#181818;stroke-width:1;"/><polygon fill="#181818" points="665.94,119.54,656.94,115.54,660.94,119.54,656.94,123.54,665.94,119.54" style="stroke:#181818;stroke-width:1;"/><text fill="#000000" font-family="sans-serif" font-size="13" lengthAdjust="spacing" textLength="62.1689" x="586.07" y="112.6069">Log Entry</text></g><!--link Audit Trail to User--><g class="link" data-entity-1="Audit Trail" data-entity-2="User" data-source-line="11" data-uid="lnk16" id="link_Audit Trail_User"><path d="M704.48,105.46 C672.17,87.75 612.93,58.32 557.96,47.17 C355.04,6 109.6676,87.3864 43.9476,111.3264 " fill="none" id="Audit Trail-to-User" style="stroke:#181818;stroke-width:1;"/><polygon fill="#181818" points="38.31,113.38,48.1355,114.058,43.008,111.6686,45.3973,106.5412,38.31,113.38" style="stroke:#181818;stroke-width:1;"/><text fill="#000000" font-family="sans-serif" font-size="13" lengthAdjust="spacing" textLength="84.335" x="472.96" y="47.4569">Confirmation</text></g><!--SRC=[TO-nZi9034JxV8MLYYlu0OgJK40q58WSrvkD0Kk95taT9Exhpxkv4nJGMPutzWm6Ymg7H5fX6NUnvq0xqXH5gF_RDcpyGr9LcOJv9yosySpo0GkersA-QvGw4cFiKrtzgnbSZdR9Ga3ZAD2Itln1SNwJykdk-3l6_UMXiyiGA2NOAFgxhdu4sTEPKqaGXskFB5Pkj-DnO8CL6NA9z8hB_XKQ7Z5DYLelIv1NxdWeKu_ExtsfdokeLmIlhbF-9-qfT1Fbn3gKLlKl]--></g></svg>