<svg xmlns="http://www.w3.org/2000/svg" xmlns:xlink="http://www.w3.org/1999/xlink" contentStyleType="text/css" data-diagram-type="DESCRIPTION" height="110px" preserveAspectRatio="none" style="width:4499px;height:110px;background:#FFFFFF;" version="1.1" viewBox="0 0 4499 110" width="4499px" zoomAndPan="magnify"><defs/><g><!--cluster Data Acquisition Module--><g class="cluster" data-entity="Data Acquisition Module" data-source-line="1" data-uid="ent0002" id="cluster_Data Acquisition Module"><rect fill="none" height="97.3" rx="2.5" ry="2.5" style="stroke:#181818;stroke-width:1;" width="436" x="7" y="7"/><rect fill="none" height="10" style="stroke:#181818;stroke-width:1;" width="15" x="423" y="12"/><rect fill="none" height="2" style="stroke:#181818;stroke-width:1;" width="4" x="421" y="14"/><rect fill="none" height="2" style="stroke:#181818;stroke-width:1;" width="4" x="421" y="18"/><text fill="#000000" font-family="sans-serif" font-size="14" font-weight="bold" lengthAdjust="spacing" textLength="192.917" x="128.5415" y="32.9951">Data Acquisition Module</text></g><!--cluster Processing Engine--><g class="cluster" data-entity="Processing Engine" data-source-line="6" data-uid="ent0005" id="cluster_Processing Engine"><rect fill="none" height="97.3" rx="2.5" ry="2.5" style="stroke:#181818;stroke-width:1;" width="401" x="467" y="7"/><rect fill="none" height="10" style="stroke:#181818;stroke-width:1;" width="15" x="848" y="12"/><rect fill="none" height="2" style="stroke:#181818;stroke-width:1;" width="4" x="846" y="14"/><rect fill="none" height="2" style="stroke:#181818;stroke-width:1;" width="4" x="846" y="18"/><text fill="#000000" font-family="sans-serif" font-size="14" font-weight="bold" lengthAdjust="spacing" textLength="144.7168" x="595.1416" y="32.9951">Processing Engine</text></g><!--cluster Data Processing Module--><g class="cluster" data-entity="Data Processing Module" data-source-line="11" data-uid="ent0008" id="cluster_Data Processing Module"><rect fill="none" height="97.3" rx="2.5" ry="2.5" style="stroke:#181818;stroke-width:1;" width="357" x="892" y="7"/><rect fill="none" height="10" style="stroke:#181818;stroke-width:1;" width="15" x="1229" y="12"/><rect fill="none" height="2" style="stroke:#181818;stroke-width:1;" width="4" x="1227" y="14"/><rect fill="none" height="2" style="stroke:#181818;stroke-width:1;" width="4" x="1227" y="18"/><text fill="#000000" font-family="sans-serif" font-size="14" font-weight="bold" lengthAdjust="spacing" textLength="190.8184" x="975.0908" y="32.9951">Data Processing Module</text></g><!--cluster Storage System--><g class="cluster" data-entity="Storage System" data-source-line="16" data-uid="ent0011" id="cluster_Storage System"><rect fill="none" height="97.3" rx="2.5" ry="2.5" style="stroke:#181818;stroke-width:1;" width="331" x="1273" y="7"/><rect fill="none" height="10" style="stroke:#181818;stroke-width:1;" width="15" x="1584" y="12"/><rect fill="none" height="2" style="stroke:#181818;stroke-width:1;" width="4" x="1582" y="14"/><rect fill="none" height="2" style="stroke:#181818;stroke-width:1;" width="4" x="1582" y="18"/><text fill="#000000" font-family="sans-serif" font-size="14" font-weight="bold" lengthAdjust="spacing" textLength="125.4531" x="1375.7734" y="32.9951">Storage System</text></g><!--cluster Web Server--><g class="cluster" data-entity="Web Server" data-source-line="21" data-uid="ent0014" id="cluster_Web Server"><rect fill="none" height="97.3" rx="2.5" ry="2.5" style="stroke:#181818;stroke-width:1;" width="369" x="1628" y="7"/><rect fill="none" height="10" style="stroke:#181818;stroke-width:1;" width="15" x="1977" y="12"/><rect fill="none" height="2" style="stroke:#181818;stroke-width:1;" width="4" x="1975" y="14"/><rect fill="none" height="2" style="stroke:#181818;stroke-width:1;" width="4" x="1975" y="18"/><text fill="#000000" font-family="sans-serif" font-size="14" font-weight="bold" lengthAdjust="spacing" textLength="91.8408" x="1766.5796" y="32.9951">Web Server</text></g><!--cluster Authentication Service--><g class="cluster" data-entity="Authentication Service" data-source-line="26" data-uid="ent0017" id="cluster_Authentication Service"><rect fill="none" height="97.3" rx="2.5" ry="2.5" style="stroke:#181818;stroke-width:1;" width="390" x="2021" y="7"/><rect fill="none" height="10" style="stroke:#181818;stroke-width:1;" width="15" x="2391" y="12"/><rect fill="none" height="2" style="stroke:#181818;stroke-width:1;" width="4" x="2389" y="14"/><rect fill="none" height="2" style="stroke:#181818;stroke-width:1;" width="4" x="2389" y="18"/><text fill="#000000" font-family="sans-serif" font-size="14" font-weight="bold" lengthAdjust="spacing" textLength="180.3115" x="2125.8442" y="32.9951">Authentication Service</text></g><!--cluster Error Handling Module--><g class="cluster" data-entity="Error Handling Module" data-source-line="31" data-uid="ent0020" id="cluster_Error Handling Module"><rect fill="none" height="97.3" rx="2.5" ry="2.5" style="stroke:#181818;stroke-width:1;" width="359" x="2435" y="7"/><rect fill="none" height="10" style="stroke:#181818;stroke-width:1;" width="15" x="2774" y="12"/><rect fill="none" height="2" style="stroke:#181818;stroke-width:1;" width="4" x="2772" y="14"/><rect fill="none" height="2" style="stroke:#181818;stroke-width:1;" width="4" x="2772" y="18"/><text fill="#000000" font-family="sans-serif" font-size="14" font-weight="bold" lengthAdjust="spacing" textLength="178.2129" x="2525.3936" y="32.9951">Error Handling Module</text></g><!--cluster Data Distribution Network--><g class="cluster" data-entity="Data Distribution Network" data-source-line="36" data-uid="ent0023" id="cluster_Data Distribution Network"><rect fill="none" height="97.3" rx="2.5" ry="2.5" style="stroke:#181818;stroke-width:1;" width="399" x="2818" y="7"/><rect fill="none" height="10" style="stroke:#181818;stroke-width:1;" width="15" x="3197" y="12"/><rect fill="none" height="2" style="stroke:#181818;stroke-width:1;" width="4" x="3195" y="14"/><rect fill="none" height="2" style="stroke:#181818;stroke-width:1;" width="4" x="3195" y="18"/><text fill="#000000" font-family="sans-serif" font-size="14" font-weight="bold" lengthAdjust="spacing" textLength="207.8398" x="2913.5801" y="32.9951">Data Distribution Network</text></g><!--cluster Software Integration Layer--><g class="cluster" data-entity="Software Integration Layer" data-source-line="41" data-uid="ent0026" id="cluster_Software Integration Layer"><rect fill="none" height="97.3" rx="2.5" ry="2.5" style="stroke:#181818;stroke-width:1;" width="422" x="3241" y="7"/><rect fill="none" height="10" style="stroke:#181818;stroke-width:1;" width="15" x="3643" y="12"/><rect fill="none" height="2" style="stroke:#181818;stroke-width:1;" width="4" x="3641" y="14"/><rect fill="none" height="2" style="stroke:#181818;stroke-width:1;" width="4" x="3641" y="18"/><text fill="#000000" font-family="sans-serif" font-size="14" font-weight="bold" lengthAdjust="spacing" textLength="213.7188" x="3345.1406" y="32.9951">Software Integration Layer</text></g><!--cluster Data Calibration Module--><g class="cluster" data-entity="Data Calibration Module" data-source-line="46" data-uid="ent0029" id="cluster_Data Calibration Module"><rect fill="none" height="97.3" rx="2.5" ry="2.5" style="stroke:#181818;stroke-width:1;" width="429" x="3687" y="7"/><rect fill="none" height="10" style="stroke:#181818;stroke-width:1;" width="15" x="4096" y="12"/><rect fill="none" height="2" style="stroke:#181818;stroke-width:1;" width="4" x="4094" y="14"/><rect fill="none" height="2" style="stroke:#181818;stroke-width:1;" width="4" x="4094" y="18"/><text fill="#000000" font-family="sans-serif" font-size="14" font-weight="bold" lengthAdjust="spacing" textLength="191.5566" x="3805.7217" y="32.9951">Data Calibration Module</text></g><!--cluster Compliance Verification System--><g class="cluster" data-entity="Compliance Verification System" data-source-line="51" data-uid="ent0032" id="cluster_Compliance Verification System"><rect fill="none" height="97.3" rx="2.5" ry="2.5" style="stroke:#181818;stroke-width:1;" width="353" x="4140" y="7"/><rect fill="none" height="10" style="stroke:#181818;stroke-width:1;" width="15" x="4473" y="12"/><rect fill="none" height="2" style="stroke:#181818;stroke-width:1;" width="4" x="4471" y="14"/><rect fill="none" height="2" style="stroke:#181818;stroke-width:1;" width="4" x="4471" y="18"/><text fill="#000000" font-family="sans-serif" font-size="14" font-weight="bold" lengthAdjust="spacing" textLength="251.1182" x="4190.9409" y="32.9951">Compliance Verification System</text></g><!--entity Telemetry Acquisition--><g class="entity" data-entity="Telemetry Acquisition" data-source-line="2" data-uid="ent0003" id="entity_Telemetry Acquisition"><rect fill="#F1F1F1" height="46.2969" rx="2.5" ry="2.5" style="stroke:#181818;stroke-width:0.5;" width="192.8242" x="22.59" y="42"/><rect fill="#F1F1F1" height="10" style="stroke:#181818;stroke-width:0.5;" width="15" x="195.4142" y="47"/><rect fill="#F1F1F1" height="2" style="stroke:#181818;stroke-width:0.5;" width="4" x="193.4142" y="49"/><rect fill="#F1F1F1" height="2" style="stroke:#181818;stroke-width:0.5;" width="4" x="193.4142" y="53"/><text fill="#000000" font-family="sans-serif" font-size="14" lengthAdjust="spacing" textLength="152.8242" x="37.59" y="74.9951">Telemetry Acquisition</text></g><!--entity Data Preprocessing--><g class="entity" data-entity="Data Preprocessing" data-source-line="3" data-uid="ent0004" id="entity_Data Preprocessing"><rect fill="#F1F1F1" height="46.2969" rx="2.5" ry="2.5" style="stroke:#181818;stroke-width:0.5;" width="176.4453" x="250.78" y="42"/><rect fill="#F1F1F1" height="10" style="stroke:#181818;stroke-width:0.5;" width="15" x="407.2253" y="47"/><rect fill="#F1F1F1" height="2" style="stroke:#181818;stroke-width:0.5;" width="4" x="405.2253" y="49"/><rect fill="#F1F1F1" height="2" style="stroke:#181818;stroke-width:0.5;" width="4" x="405.2253" y="53"/><text fill="#000000" font-family="sans-serif" font-size="14" lengthAdjust="spacing" textLength="136.4453" x="265.78" y="74.9951">Data Preprocessing</text></g><!--entity Data Transformation--><g class="entity" data-entity="Data Transformation" data-source-line="7" data-uid="ent0006" id="entity_Data Transformation"><rect fill="#F1F1F1" height="46.2969" rx="2.5" ry="2.5" style="stroke:#181818;stroke-width:0.5;" width="185.2158" x="483.39" y="42"/><rect fill="#F1F1F1" height="10" style="stroke:#181818;stroke-width:0.5;" width="15" x="648.6058" y="47"/><rect fill="#F1F1F1" height="2" style="stroke:#181818;stroke-width:0.5;" width="4" x="646.6058" y="49"/><rect fill="#F1F1F1" height="2" style="stroke:#181818;stroke-width:0.5;" width="4" x="646.6058" y="53"/><text fill="#000000" font-family="sans-serif" font-size="14" lengthAdjust="spacing" textLength="145.2158" x="498.39" y="74.9951">Data Transformation</text></g><!--entity Data Validation--><g class="entity" data-entity="Data Validation" data-source-line="8" data-uid="ent0007" id="entity_Data Validation"><rect fill="#F1F1F1" height="46.2969" rx="2.5" ry="2.5" style="stroke:#181818;stroke-width:0.5;" width="148.0967" x="703.95" y="42"/><rect fill="#F1F1F1" height="10" style="stroke:#181818;stroke-width:0.5;" width="15" x="832.0467" y="47"/><rect fill="#F1F1F1" height="2" style="stroke:#181818;stroke-width:0.5;" width="4" x="830.0467" y="49"/><rect fill="#F1F1F1" height="2" style="stroke:#181818;stroke-width:0.5;" width="4" x="830.0467" y="53"/><text fill="#000000" font-family="sans-serif" font-size="14" lengthAdjust="spacing" textLength="108.0967" x="718.95" y="74.9951">Data Validation</text></g><!--entity IDFS Generation--><g class="entity" data-entity="IDFS Generation" data-source-line="12" data-uid="ent0009" id="entity_IDFS Generation"><rect fill="#F1F1F1" height="46.2969" rx="2.5" ry="2.5" style="stroke:#181818;stroke-width:0.5;" width="154.3994" x="907.8" y="42"/><rect fill="#F1F1F1" height="10" style="stroke:#181818;stroke-width:0.5;" width="15" x="1042.1994" y="47"/><rect fill="#F1F1F1" height="2" style="stroke:#181818;stroke-width:0.5;" width="4" x="1040.1994" y="49"/><rect fill="#F1F1F1" height="2" style="stroke:#181818;stroke-width:0.5;" width="4" x="1040.1994" y="53"/><text fill="#000000" font-family="sans-serif" font-size="14" lengthAdjust="spacing" textLength="114.3994" x="922.8" y="74.9951">IDFS Generation</text></g><!--entity Data Analysis--><g class="entity" data-entity="Data Analysis" data-source-line="13" data-uid="ent0010" id="entity_Data Analysis"><rect fill="#F1F1F1" height="46.2969" rx="2.5" ry="2.5" style="stroke:#181818;stroke-width:0.5;" width="135.5596" x="1097.22" y="42"/><rect fill="#F1F1F1" height="10" style="stroke:#181818;stroke-width:0.5;" width="15" x="1212.7796" y="47"/><rect fill="#F1F1F1" height="2" style="stroke:#181818;stroke-width:0.5;" width="4" x="1210.7796" y="49"/><rect fill="#F1F1F1" height="2" style="stroke:#181818;stroke-width:0.5;" width="4" x="1210.7796" y="53"/><text fill="#000000" font-family="sans-serif" font-size="14" lengthAdjust="spacing" textLength="95.5596" x="1112.22" y="74.9951">Data Analysis</text></g><!--entity Local Archive--><g class="entity" data-entity="Local Archive" data-source-line="17" data-uid="ent0012" id="entity_Local Archive"><rect fill="#F1F1F1" height="46.2969" rx="2.5" ry="2.5" style="stroke:#181818;stroke-width:0.5;" width="133.6729" x="1289.16" y="42"/><rect fill="#F1F1F1" height="10" style="stroke:#181818;stroke-width:0.5;" width="15" x="1402.8329" y="47"/><rect fill="#F1F1F1" height="2" style="stroke:#181818;stroke-width:0.5;" width="4" x="1400.8329" y="49"/><rect fill="#F1F1F1" height="2" style="stroke:#181818;stroke-width:0.5;" width="4" x="1400.8329" y="53"/><text fill="#000000" font-family="sans-serif" font-size="14" lengthAdjust="spacing" textLength="93.6729" x="1304.16" y="74.9951">Local Archive</text></g><!--entity Data Backup--><g class="entity" data-entity="Data Backup" data-source-line="18" data-uid="ent0013" id="entity_Data Backup"><rect fill="#F1F1F1" height="46.2969" rx="2.5" ry="2.5" style="stroke:#181818;stroke-width:0.5;" width="129.626" x="1458.19" y="42"/><rect fill="#F1F1F1" height="10" style="stroke:#181818;stroke-width:0.5;" width="15" x="1567.816" y="47"/><rect fill="#F1F1F1" height="2" style="stroke:#181818;stroke-width:0.5;" width="4" x="1565.816" y="49"/><rect fill="#F1F1F1" height="2" style="stroke:#181818;stroke-width:0.5;" width="4" x="1565.816" y="53"/><text fill="#000000" font-family="sans-serif" font-size="14" lengthAdjust="spacing" textLength="89.626" x="1473.19" y="74.9951">Data Backup</text></g><!--entity Public Display--><g class="entity" data-entity="Public Display" data-source-line="22" data-uid="ent0015" id="entity_Public Display"><rect fill="#F1F1F1" height="46.2969" rx="2.5" ry="2.5" style="stroke:#181818;stroke-width:0.5;" width="137.7334" x="1644.13" y="42"/><rect fill="#F1F1F1" height="10" style="stroke:#181818;stroke-width:0.5;" width="15" x="1761.8634" y="47"/><rect fill="#F1F1F1" height="2" style="stroke:#181818;stroke-width:0.5;" width="4" x="1759.8634" y="49"/><rect fill="#F1F1F1" height="2" style="stroke:#181818;stroke-width:0.5;" width="4" x="1759.8634" y="53"/><text fill="#000000" font-family="sans-serif" font-size="14" lengthAdjust="spacing" textLength="97.7334" x="1659.13" y="74.9951">Public Display</text></g><!--entity Restricted Access--><g class="entity" data-entity="Restricted Access" data-source-line="23" data-uid="ent0016" id="entity_Restricted Access"><rect fill="#F1F1F1" height="46.2969" rx="2.5" ry="2.5" style="stroke:#181818;stroke-width:0.5;" width="164.0791" x="1816.96" y="42"/><rect fill="#F1F1F1" height="10" style="stroke:#181818;stroke-width:0.5;" width="15" x="1961.0391" y="47"/><rect fill="#F1F1F1" height="2" style="stroke:#181818;stroke-width:0.5;" width="4" x="1959.0391" y="49"/><rect fill="#F1F1F1" height="2" style="stroke:#181818;stroke-width:0.5;" width="4" x="1959.0391" y="53"/><text fill="#000000" font-family="sans-serif" font-size="14" lengthAdjust="spacing" textLength="124.0791" x="1831.96" y="74.9951">Restricted Access</text></g><!--entity User Authentication--><g class="entity" data-entity="User Authentication" data-source-line="27" data-uid="ent0018" id="entity_User Authentication"><rect fill="#F1F1F1" height="46.2969" rx="2.5" ry="2.5" style="stroke:#181818;stroke-width:0.5;" width="179.1318" x="2037.43" y="42"/><rect fill="#F1F1F1" height="10" style="stroke:#181818;stroke-width:0.5;" width="15" x="2196.5618" y="47"/><rect fill="#F1F1F1" height="2" style="stroke:#181818;stroke-width:0.5;" width="4" x="2194.5618" y="49"/><rect fill="#F1F1F1" height="2" style="stroke:#181818;stroke-width:0.5;" width="4" x="2194.5618" y="53"/><text fill="#000000" font-family="sans-serif" font-size="14" lengthAdjust="spacing" textLength="139.1318" x="2052.43" y="74.9951">User Authentication</text></g><!--entity Access Control--><g class="entity" data-entity="Access Control" data-source-line="28" data-uid="ent0019" id="entity_Access Control"><rect fill="#F1F1F1" height="46.2969" rx="2.5" ry="2.5" style="stroke:#181818;stroke-width:0.5;" width="143.5371" x="2251.23" y="42"/><rect fill="#F1F1F1" height="10" style="stroke:#181818;stroke-width:0.5;" width="15" x="2374.7671" y="47"/><rect fill="#F1F1F1" height="2" style="stroke:#181818;stroke-width:0.5;" width="4" x="2372.7671" y="49"/><rect fill="#F1F1F1" height="2" style="stroke:#181818;stroke-width:0.5;" width="4" x="2372.7671" y="53"/><text fill="#000000" font-family="sans-serif" font-size="14" lengthAdjust="spacing" textLength="103.5371" x="2266.23" y="74.9951">Access Control</text></g><!--entity Error Detection--><g class="entity" data-entity="Error Detection" data-source-line="32" data-uid="ent0021" id="entity_Error Detection"><rect fill="#F1F1F1" height="46.2969" rx="2.5" ry="2.5" style="stroke:#181818;stroke-width:0.5;" width="147.1396" x="2451.43" y="42"/><rect fill="#F1F1F1" height="10" style="stroke:#181818;stroke-width:0.5;" width="15" x="2578.5696" y="47"/><rect fill="#F1F1F1" height="2" style="stroke:#181818;stroke-width:0.5;" width="4" x="2576.5696" y="49"/><rect fill="#F1F1F1" height="2" style="stroke:#181818;stroke-width:0.5;" width="4" x="2576.5696" y="53"/><text fill="#000000" font-family="sans-serif" font-size="14" lengthAdjust="spacing" textLength="107.1396" x="2466.43" y="74.9951">Error Detection</text></g><!--entity Error Recovery--><g class="entity" data-entity="Error Recovery" data-source-line="33" data-uid="ent0022" id="entity_Error Recovery"><rect fill="#F1F1F1" height="46.2969" rx="2.5" ry="2.5" style="stroke:#181818;stroke-width:0.5;" width="144.6719" x="2633.66" y="42"/><rect fill="#F1F1F1" height="10" style="stroke:#181818;stroke-width:0.5;" width="15" x="2758.3319" y="47"/><rect fill="#F1F1F1" height="2" style="stroke:#181818;stroke-width:0.5;" width="4" x="2756.3319" y="49"/><rect fill="#F1F1F1" height="2" style="stroke:#181818;stroke-width:0.5;" width="4" x="2756.3319" y="53"/><text fill="#000000" font-family="sans-serif" font-size="14" lengthAdjust="spacing" textLength="104.6719" x="2648.66" y="74.9951">Error Recovery</text></g><!--entity Data Delivery--><g class="entity" data-entity="Data Delivery" data-source-line="37" data-uid="ent0024" id="entity_Data Delivery"><rect fill="#F1F1F1" height="46.2969" rx="2.5" ry="2.5" style="stroke:#181818;stroke-width:0.5;" width="135.9902" x="2834" y="42"/><rect fill="#F1F1F1" height="10" style="stroke:#181818;stroke-width:0.5;" width="15" x="2949.9902" y="47"/><rect fill="#F1F1F1" height="2" style="stroke:#181818;stroke-width:0.5;" width="4" x="2947.9902" y="49"/><rect fill="#F1F1F1" height="2" style="stroke:#181818;stroke-width:0.5;" width="4" x="2947.9902" y="53"/><text fill="#000000" font-family="sans-serif" font-size="14" lengthAdjust="spacing" textLength="95.9902" x="2849" y="74.9951">Data Delivery</text></g><!--entity Network Management--><g class="entity" data-entity="Network Management" data-source-line="38" data-uid="ent0025" id="entity_Network Management"><rect fill="#F1F1F1" height="46.2969" rx="2.5" ry="2.5" style="stroke:#181818;stroke-width:0.5;" width="195.1279" x="3005.44" y="42"/><rect fill="#F1F1F1" height="10" style="stroke:#181818;stroke-width:0.5;" width="15" x="3180.5679" y="47"/><rect fill="#F1F1F1" height="2" style="stroke:#181818;stroke-width:0.5;" width="4" x="3178.5679" y="49"/><rect fill="#F1F1F1" height="2" style="stroke:#181818;stroke-width:0.5;" width="4" x="3178.5679" y="53"/><text fill="#000000" font-family="sans-serif" font-size="14" lengthAdjust="spacing" textLength="155.1279" x="3020.44" y="74.9951">Network Management</text></g><!--entity Repository Integration--><g class="entity" data-entity="Repository Integration" data-source-line="42" data-uid="ent0027" id="entity_Repository Integration"><rect fill="#F1F1F1" height="46.2969" rx="2.5" ry="2.5" style="stroke:#181818;stroke-width:0.5;" width="196.666" x="3256.67" y="42"/><rect fill="#F1F1F1" height="10" style="stroke:#181818;stroke-width:0.5;" width="15" x="3433.336" y="47"/><rect fill="#F1F1F1" height="2" style="stroke:#181818;stroke-width:0.5;" width="4" x="3431.336" y="49"/><rect fill="#F1F1F1" height="2" style="stroke:#181818;stroke-width:0.5;" width="4" x="3431.336" y="53"/><text fill="#000000" font-family="sans-serif" font-size="14" lengthAdjust="spacing" textLength="156.666" x="3271.67" y="74.9951">Repository Integration</text></g><!--entity API Management--><g class="entity" data-entity="API Management" data-source-line="43" data-uid="ent0028" id="entity_API Management"><rect fill="#F1F1F1" height="46.2969" rx="2.5" ry="2.5" style="stroke:#181818;stroke-width:0.5;" width="158.8223" x="3488.59" y="42"/><rect fill="#F1F1F1" height="10" style="stroke:#181818;stroke-width:0.5;" width="15" x="3627.4123" y="47"/><rect fill="#F1F1F1" height="2" style="stroke:#181818;stroke-width:0.5;" width="4" x="3625.4123" y="49"/><rect fill="#F1F1F1" height="2" style="stroke:#181818;stroke-width:0.5;" width="4" x="3625.4123" y="53"/><text fill="#000000" font-family="sans-serif" font-size="14" lengthAdjust="spacing" textLength="118.8223" x="3503.59" y="74.9951">API Management</text></g><!--entity Calibration Algorithms--><g class="entity" data-entity="Calibration Algorithms" data-source-line="47" data-uid="ent0030" id="entity_Calibration Algorithms"><rect fill="#F1F1F1" height="46.2969" rx="2.5" ry="2.5" style="stroke:#181818;stroke-width:0.5;" width="196.4814" x="3702.76" y="42"/><rect fill="#F1F1F1" height="10" style="stroke:#181818;stroke-width:0.5;" width="15" x="3879.2414" y="47"/><rect fill="#F1F1F1" height="2" style="stroke:#181818;stroke-width:0.5;" width="4" x="3877.2414" y="49"/><rect fill="#F1F1F1" height="2" style="stroke:#181818;stroke-width:0.5;" width="4" x="3877.2414" y="53"/><text fill="#000000" font-family="sans-serif" font-size="14" lengthAdjust="spacing" textLength="156.4814" x="3717.76" y="74.9951">Calibration Algorithms</text></g><!--entity Validation Checks--><g class="entity" data-entity="Validation Checks" data-source-line="48" data-uid="ent0031" id="entity_Validation Checks"><rect fill="#F1F1F1" height="46.2969" rx="2.5" ry="2.5" style="stroke:#181818;stroke-width:0.5;" width="165.0293" x="3934.49" y="42"/><rect fill="#F1F1F1" height="10" style="stroke:#181818;stroke-width:0.5;" width="15" x="4079.5193" y="47"/><rect fill="#F1F1F1" height="2" style="stroke:#181818;stroke-width:0.5;" width="4" x="4077.5193" y="49"/><rect fill="#F1F1F1" height="2" style="stroke:#181818;stroke-width:0.5;" width="4" x="4077.5193" y="53"/><text fill="#000000" font-family="sans-serif" font-size="14" lengthAdjust="spacing" textLength="125.0293" x="3949.49" y="74.9951">Validation Checks</text></g><!--entity Compliance Checks--><g class="entity" data-entity="Compliance Checks" data-source-line="52" data-uid="ent0033" id="entity_Compliance Checks"><rect fill="#F1F1F1" height="46.2969" rx="2.5" ry="2.5" style="stroke:#181818;stroke-width:0.5;" width="177.2178" x="4156.39" y="42"/><rect fill="#F1F1F1" height="10" style="stroke:#181818;stroke-width:0.5;" width="15" x="4313.6078" y="47"/><rect fill="#F1F1F1" height="2" style="stroke:#181818;stroke-width:0.5;" width="4" x="4311.6078" y="49"/><rect fill="#F1F1F1" height="2" style="stroke:#181818;stroke-width:0.5;" width="4" x="4311.6078" y="53"/><text fill="#000000" font-family="sans-serif" font-size="14" lengthAdjust="spacing" textLength="137.2178" x="4171.39" y="74.9951">Compliance Checks</text></g><!--entity Reporting--><g class="entity" data-entity="Reporting" data-source-line="53" data-uid="ent0034" id="entity_Reporting"><rect fill="#F1F1F1" height="46.2969" rx="2.5" ry="2.5" style="stroke:#181818;stroke-width:0.5;" width="108.6875" x="4368.66" y="42"/><rect fill="#F1F1F1" height="10" style="stroke:#181818;stroke-width:0.5;" width="15" x="4457.3475" y="47"/><rect fill="#F1F1F1" height="2" style="stroke:#181818;stroke-width:0.5;" width="4" x="4455.3475" y="49"/><rect fill="#F1F1F1" height="2" style="stroke:#181818;stroke-width:0.5;" width="4" x="4455.3475" y="53"/><text fill="#000000" font-family="sans-serif" font-size="14" lengthAdjust="spacing" textLength="68.6875" x="4383.66" y="74.9951">Reporting</text></g><!--SRC=[VPF1Ri8m38RlVGgBD-aesv1WGi3OOU8GWYaMQTmvAQYQzkxBsbBQWjPJ5DjV_FzsDMSvMxGUHedo2cBzLP0ZJsnXpll2u0Y-8mZVvneDPkYbx2PjwrXLkn3CXJKwHpRTHZzHf6_qHHk1YKt9thXLxLgKTGUMJ0sf6sLetzpsaSsZBNVGxpHvNi4BMfGxPcoLAHsv8N7bMLIAi2gTnwmbpLWh0x7e8vsnotbI-bJaGye7xc25SaPf2OjYPqX3GYutgcmGItHUI7lS1qV_H0n1SU6FuK2w4b0nITy4lZiKwESqv1e7OxPUs0on4n4MU5LsRnxOLaSJzAWxnFfsYPg3hFBX98Au86TNLBs-eR-mdFf3Jj1GNLxTDJamLpQOdWNItJpuu2zA4ARMOrhF4MQgx3Yxn9p3Ad9OoqxIrOV5z1zwrTCuhDUk8G-Sw8PYaxAGFsQkGT_M4iP7rAUxuOt3qP2o6c63GeTsYltTwgHTEQqkyVMFz0i0]--></g></svg>