<svg xmlns="http://www.w3.org/2000/svg" xmlns:xlink="http://www.w3.org/1999/xlink" contentStyleType="text/css" data-diagram-type="CLASS" height="179px" preserveAspectRatio="none" style="width:2620px;height:179px;background:#FFFFFF;" version="1.1" viewBox="0 0 2620 179" width="2620px" zoomAndPan="magnify"><defs/><g><!--cluster APAF System--><g class="cluster" data-entity="APAF System" data-source-line="1" data-uid="ent0002" id="cluster_APAF System"><path d="M8.5,6 L114.1855,6 A3.75,3.75 0 0 1 116.6855,8.5 L123.6855,28.2969 L2610.5,28.2969 A2.5,2.5 0 0 1 2613,30.7969 L2613,169.5 A2.5,2.5 0 0 1 2610.5,172 L8.5,172 A2.5,2.5 0 0 1 6,169.5 L6,8.5 A2.5,2.5 0 0 1 8.5,6 " fill="none" style="stroke:#000000;stroke-width:1.5;"/><line style="stroke:#000000;stroke-width:1.5;" x1="6" x2="123.6855" y1="28.2969" y2="28.2969"/><text fill="#000000" font-family="sans-serif" font-size="14" font-weight="bold" lengthAdjust="spacing" textLength="104.6855" x="10" y="20.9951">APAF System</text></g><!--cluster Data Acquisition--><g class="cluster" data-entity="Data Acquisition" data-source-line="2" data-uid="ent0003" id="cluster_Data Acquisition"><path d="M32.5,49 L163.7109,49 A3.75,3.75 0 0 1 166.2109,51.5 L173.2109,71.2969 L253.5,71.2969 A2.5,2.5 0 0 1 256,73.7969 L256,145.5 A2.5,2.5 0 0 1 253.5,148 L32.5,148 A2.5,2.5 0 0 1 30,145.5 L30,51.5 A2.5,2.5 0 0 1 32.5,49 " fill="none" style="stroke:#000000;stroke-width:1.5;"/><line style="stroke:#000000;stroke-width:1.5;" x1="30" x2="173.2109" y1="71.2969" y2="71.2969"/><text fill="#000000" font-family="sans-serif" font-size="14" font-weight="bold" lengthAdjust="spacing" textLength="130.2109" x="34" y="63.9951">Data Acquisition</text></g><!--cluster Processing--><g class="cluster" data-entity="Processing" data-source-line="5" data-uid="ent0005" id="cluster_Processing"><path d="M282.5,49 L369.5303,49 A3.75,3.75 0 0 1 372.0303,51.5 L379.0303,71.2969 L691.5,71.2969 A2.5,2.5 0 0 1 694,73.7969 L694,145.5 A2.5,2.5 0 0 1 691.5,148 L282.5,148 A2.5,2.5 0 0 1 280,145.5 L280,51.5 A2.5,2.5 0 0 1 282.5,49 " fill="none" style="stroke:#000000;stroke-width:1.5;"/><line style="stroke:#000000;stroke-width:1.5;" x1="280" x2="379.0303" y1="71.2969" y2="71.2969"/><text fill="#000000" font-family="sans-serif" font-size="14" font-weight="bold" lengthAdjust="spacing" textLength="86.0303" x="284" y="63.9951">Processing</text></g><!--cluster Storage--><g class="cluster" data-entity="Storage" data-source-line="9" data-uid="ent0008" id="cluster_Storage"><path d="M720.5,49 L783.7617,49 A3.75,3.75 0 0 1 786.2617,51.5 L793.2617,71.2969 L885.5,71.2969 A2.5,2.5 0 0 1 888,73.7969 L888,145.5 A2.5,2.5 0 0 1 885.5,148 L720.5,148 A2.5,2.5 0 0 1 718,145.5 L718,51.5 A2.5,2.5 0 0 1 720.5,49 " fill="none" style="stroke:#000000;stroke-width:1.5;"/><line style="stroke:#000000;stroke-width:1.5;" x1="718" x2="793.2617" y1="71.2969" y2="71.2969"/><text fill="#000000" font-family="sans-serif" font-size="14" font-weight="bold" lengthAdjust="spacing" textLength="62.2617" x="722" y="63.9951">Storage</text></g><!--cluster Web--><g class="cluster" data-entity="Web" data-source-line="12" data-uid="ent0010" id="cluster_Web"><path d="M914.5,49 L950.459,49 A3.75,3.75 0 0 1 952.959,51.5 L959.959,71.2969 L1272.5,71.2969 A2.5,2.5 0 0 1 1275,73.7969 L1275,145.5 A2.5,2.5 0 0 1 1272.5,148 L914.5,148 A2.5,2.5 0 0 1 912,145.5 L912,51.5 A2.5,2.5 0 0 1 914.5,49 " fill="none" style="stroke:#000000;stroke-width:1.5;"/><line style="stroke:#000000;stroke-width:1.5;" x1="912" x2="959.959" y1="71.2969" y2="71.2969"/><text fill="#000000" font-family="sans-serif" font-size="14" font-weight="bold" lengthAdjust="spacing" textLength="34.959" x="916" y="63.9951">Web</text></g><!--cluster Error Handling--><g class="cluster" data-entity="Error Handling" data-source-line="16" data-uid="ent0013" id="cluster_Error Handling"><path d="M1301.5,49 L1418.0068,49 A3.75,3.75 0 0 1 1420.5068,51.5 L1427.5068,71.2969 L1508.5,71.2969 A2.5,2.5 0 0 1 1511,73.7969 L1511,145.5 A2.5,2.5 0 0 1 1508.5,148 L1301.5,148 A2.5,2.5 0 0 1 1299,145.5 L1299,51.5 A2.5,2.5 0 0 1 1301.5,49 " fill="none" style="stroke:#000000;stroke-width:1.5;"/><line style="stroke:#000000;stroke-width:1.5;" x1="1299" x2="1427.5068" y1="71.2969" y2="71.2969"/><text fill="#000000" font-family="sans-serif" font-size="14" font-weight="bold" lengthAdjust="spacing" textLength="115.5068" x="1303" y="63.9951">Error Handling</text></g><!--cluster Distribution--><g class="cluster" data-entity="Distribution" data-source-line="19" data-uid="ent0015" id="cluster_Distribution"><path d="M1537.5,49 L1632.7129,49 A3.75,3.75 0 0 1 1635.2129,51.5 L1642.2129,71.2969 L1770.5,71.2969 A2.5,2.5 0 0 1 1773,73.7969 L1773,145.5 A2.5,2.5 0 0 1 1770.5,148 L1537.5,148 A2.5,2.5 0 0 1 1535,145.5 L1535,51.5 A2.5,2.5 0 0 1 1537.5,49 " fill="none" style="stroke:#000000;stroke-width:1.5;"/><line style="stroke:#000000;stroke-width:1.5;" x1="1535" x2="1642.2129" y1="71.2969" y2="71.2969"/><text fill="#000000" font-family="sans-serif" font-size="14" font-weight="bold" lengthAdjust="spacing" textLength="94.2129" x="1539" y="63.9951">Distribution</text></g><!--cluster Integration--><g class="cluster" data-entity="Integration" data-source-line="22" data-uid="ent0017" id="cluster_Integration"><path d="M1799.5,49 L1889.3125,49 A3.75,3.75 0 0 1 1891.8125,51.5 L1898.8125,71.2969 L2036.5,71.2969 A2.5,2.5 0 0 1 2039,73.7969 L2039,145.5 A2.5,2.5 0 0 1 2036.5,148 L1799.5,148 A2.5,2.5 0 0 1 1797,145.5 L1797,51.5 A2.5,2.5 0 0 1 1799.5,49 " fill="none" style="stroke:#000000;stroke-width:1.5;"/><line style="stroke:#000000;stroke-width:1.5;" x1="1797" x2="1898.8125" y1="71.2969" y2="71.2969"/><text fill="#000000" font-family="sans-serif" font-size="14" font-weight="bold" lengthAdjust="spacing" textLength="88.8125" x="1801" y="63.9951">Integration</text></g><!--cluster Calibration--><g class="cluster" data-entity="Calibration" data-source-line="25" data-uid="ent0019" id="cluster_Calibration"><path d="M2065.5,49 L2153.2686,49 A3.75,3.75 0 0 1 2155.7686,51.5 L2162.7686,71.2969 L2284.5,71.2969 A2.5,2.5 0 0 1 2287,73.7969 L2287,145.5 A2.5,2.5 0 0 1 2284.5,148 L2065.5,148 A2.5,2.5 0 0 1 2063,145.5 L2063,51.5 A2.5,2.5 0 0 1 2065.5,49 " fill="none" style="stroke:#000000;stroke-width:1.5;"/><line style="stroke:#000000;stroke-width:1.5;" x1="2063" x2="2162.7686" y1="71.2969" y2="71.2969"/><text fill="#000000" font-family="sans-serif" font-size="14" font-weight="bold" lengthAdjust="spacing" textLength="86.7686" x="2067" y="63.9951">Calibration</text></g><!--cluster Compliance--><g class="cluster" data-entity="Compliance" data-source-line="28" data-uid="ent0021" id="cluster_Compliance"><path d="M2313.5,49 L2405.8076,49 A3.75,3.75 0 0 1 2408.3076,51.5 L2415.3076,71.2969 L2586.5,71.2969 A2.5,2.5 0 0 1 2589,73.7969 L2589,145.5 A2.5,2.5 0 0 1 2586.5,148 L2313.5,148 A2.5,2.5 0 0 1 2311,145.5 L2311,51.5 A2.5,2.5 0 0 1 2313.5,49 " fill="none" style="stroke:#000000;stroke-width:1.5;"/><line style="stroke:#000000;stroke-width:1.5;" x1="2311" x2="2415.3076" y1="71.2969" y2="71.2969"/><text fill="#000000" font-family="sans-serif" font-size="14" font-weight="bold" lengthAdjust="spacing" textLength="91.3076" x="2315" y="63.9951">Compliance</text></g><!--class DataAcquisitionModule--><g class="entity" data-entity="DataAcquisitionModule" data-source-line="3" data-uid="ent0004" id="entity_DataAcquisitionModule"><rect fill="#F1F1F1" height="48" rx="2.5" ry="2.5" style="stroke:#181818;stroke-width:0.5;" width="193.2598" x="46.37" y="84"/><ellipse cx="61.37" cy="100" fill="#ADD1B2" rx="11" ry="11" style="stroke:#181818;stroke-width:1;"/><path d="M64.3388,105.6406 Q63.7606,105.9375 63.12,106.0781 Q62.4794,106.2344 61.7763,106.2344 Q59.2763,106.2344 57.9481,104.5938 Q56.6356,102.9375 56.6356,99.8125 Q56.6356,96.6875 57.9481,95.0313 Q59.2763,93.375 61.7763,93.375 Q62.4794,93.375 63.12,93.5313 Q63.7763,93.6875 64.3388,93.9844 L64.3388,96.7031 Q63.7138,96.125 63.12,95.8594 Q62.5263,95.5781 61.9013,95.5781 Q60.5575,95.5781 59.87,96.6563 Q59.1825,97.7188 59.1825,99.8125 Q59.1825,101.9063 59.87,102.9844 Q60.5575,104.0469 61.9013,104.0469 Q62.5263,104.0469 63.12,103.7813 Q63.7138,103.5 64.3388,102.9219 L64.3388,105.6406 Z " fill="#000000"/><text fill="#000000" font-family="sans-serif" font-size="14" lengthAdjust="spacing" textLength="161.2598" x="75.37" y="104.8467">DataAcquisitionModule</text><line style="stroke:#181818;stroke-width:0.5;" x1="47.37" x2="238.6298" y1="116" y2="116"/><line style="stroke:#181818;stroke-width:0.5;" x1="47.37" x2="238.6298" y1="124" y2="124"/></g><!--class ProcessingEngine--><g class="entity" data-entity="ProcessingEngine" data-source-line="6" data-uid="ent0006" id="entity_ProcessingEngine"><rect fill="#F1F1F1" height="48" rx="2.5" ry="2.5" style="stroke:#181818;stroke-width:0.5;" width="155.293" x="296.35" y="84"/><ellipse cx="311.35" cy="100" fill="#ADD1B2" rx="11" ry="11" style="stroke:#181818;stroke-width:1;"/><path d="M314.3188,105.6406 Q313.7406,105.9375 313.1,106.0781 Q312.4594,106.2344 311.7563,106.2344 Q309.2563,106.2344 307.9281,104.5938 Q306.6156,102.9375 306.6156,99.8125 Q306.6156,96.6875 307.9281,95.0313 Q309.2563,93.375 311.7563,93.375 Q312.4594,93.375 313.1,93.5313 Q313.7563,93.6875 314.3188,93.9844 L314.3188,96.7031 Q313.6938,96.125 313.1,95.8594 Q312.5063,95.5781 311.8813,95.5781 Q310.5375,95.5781 309.85,96.6563 Q309.1625,97.7188 309.1625,99.8125 Q309.1625,101.9063 309.85,102.9844 Q310.5375,104.0469 311.8813,104.0469 Q312.5063,104.0469 313.1,103.7813 Q313.6938,103.5 314.3188,102.9219 L314.3188,105.6406 Z " fill="#000000"/><text fill="#000000" font-family="sans-serif" font-size="14" lengthAdjust="spacing" textLength="123.293" x="325.35" y="104.8467">ProcessingEngine</text><line style="stroke:#181818;stroke-width:0.5;" x1="297.35" x2="450.643" y1="116" y2="116"/><line style="stroke:#181818;stroke-width:0.5;" x1="297.35" x2="450.643" y1="124" y2="124"/></g><!--class DataProcessingModule--><g class="entity" data-entity="DataProcessingModule" data-source-line="7" data-uid="ent0007" id="entity_DataProcessingModule"><rect fill="#F1F1F1" height="48" rx="2.5" ry="2.5" style="stroke:#181818;stroke-width:0.5;" width="191.6465" x="486.18" y="84"/><ellipse cx="501.18" cy="100" fill="#ADD1B2" rx="11" ry="11" style="stroke:#181818;stroke-width:1;"/><path d="M504.1488,105.6406 Q503.5706,105.9375 502.93,106.0781 Q502.2894,106.2344 501.5863,106.2344 Q499.0863,106.2344 497.7581,104.5938 Q496.4456,102.9375 496.4456,99.8125 Q496.4456,96.6875 497.7581,95.0313 Q499.0863,93.375 501.5863,93.375 Q502.2894,93.375 502.93,93.5313 Q503.5863,93.6875 504.1488,93.9844 L504.1488,96.7031 Q503.5238,96.125 502.93,95.8594 Q502.3363,95.5781 501.7113,95.5781 Q500.3675,95.5781 499.68,96.6563 Q498.9925,97.7188 498.9925,99.8125 Q498.9925,101.9063 499.68,102.9844 Q500.3675,104.0469 501.7113,104.0469 Q502.3363,104.0469 502.93,103.7813 Q503.5238,103.5 504.1488,102.9219 L504.1488,105.6406 Z " fill="#000000"/><text fill="#000000" font-family="sans-serif" font-size="14" lengthAdjust="spacing" textLength="159.6465" x="515.18" y="104.8467">DataProcessingModule</text><line style="stroke:#181818;stroke-width:0.5;" x1="487.18" x2="676.8265" y1="116" y2="116"/><line style="stroke:#181818;stroke-width:0.5;" x1="487.18" x2="676.8265" y1="124" y2="124"/></g><!--class StorageSystem--><g class="entity" data-entity="StorageSystem" data-source-line="10" data-uid="ent0009" id="entity_StorageSystem"><rect fill="#F1F1F1" height="48" rx="2.5" ry="2.5" style="stroke:#181818;stroke-width:0.5;" width="138.9824" x="733.51" y="84"/><ellipse cx="748.51" cy="100" fill="#ADD1B2" rx="11" ry="11" style="stroke:#181818;stroke-width:1;"/><path d="M751.4788,105.6406 Q750.9006,105.9375 750.26,106.0781 Q749.6194,106.2344 748.9163,106.2344 Q746.4163,106.2344 745.0881,104.5938 Q743.7756,102.9375 743.7756,99.8125 Q743.7756,96.6875 745.0881,95.0313 Q746.4163,93.375 748.9163,93.375 Q749.6194,93.375 750.26,93.5313 Q750.9163,93.6875 751.4788,93.9844 L751.4788,96.7031 Q750.8538,96.125 750.26,95.8594 Q749.6663,95.5781 749.0413,95.5781 Q747.6975,95.5781 747.01,96.6563 Q746.3225,97.7188 746.3225,99.8125 Q746.3225,101.9063 747.01,102.9844 Q747.6975,104.0469 749.0413,104.0469 Q749.6663,104.0469 750.26,103.7813 Q750.8538,103.5 751.4788,102.9219 L751.4788,105.6406 Z " fill="#000000"/><text fill="#000000" font-family="sans-serif" font-size="14" lengthAdjust="spacing" textLength="106.9824" x="762.51" y="104.8467">StorageSystem</text><line style="stroke:#181818;stroke-width:0.5;" x1="734.51" x2="871.4924" y1="116" y2="116"/><line style="stroke:#181818;stroke-width:0.5;" x1="734.51" x2="871.4924" y1="124" y2="124"/></g><!--class WebServer--><g class="entity" data-entity="WebServer" data-source-line="13" data-uid="ent0011" id="entity_WebServer"><rect fill="#F1F1F1" height="48" rx="2.5" ry="2.5" style="stroke:#181818;stroke-width:0.5;" width="109.2529" x="928.37" y="84"/><ellipse cx="943.37" cy="100" fill="#ADD1B2" rx="11" ry="11" style="stroke:#181818;stroke-width:1;"/><path d="M946.3388,105.6406 Q945.7606,105.9375 945.12,106.0781 Q944.4794,106.2344 943.7763,106.2344 Q941.2763,106.2344 939.9481,104.5938 Q938.6356,102.9375 938.6356,99.8125 Q938.6356,96.6875 939.9481,95.0313 Q941.2763,93.375 943.7763,93.375 Q944.4794,93.375 945.12,93.5313 Q945.7763,93.6875 946.3388,93.9844 L946.3388,96.7031 Q945.7138,96.125 945.12,95.8594 Q944.5263,95.5781 943.9013,95.5781 Q942.5575,95.5781 941.87,96.6563 Q941.1825,97.7188 941.1825,99.8125 Q941.1825,101.9063 941.87,102.9844 Q942.5575,104.0469 943.9013,104.0469 Q944.5263,104.0469 945.12,103.7813 Q945.7138,103.5 946.3388,102.9219 L946.3388,105.6406 Z " fill="#000000"/><text fill="#000000" font-family="sans-serif" font-size="14" lengthAdjust="spacing" textLength="77.2529" x="957.37" y="104.8467">WebServer</text><line style="stroke:#181818;stroke-width:0.5;" x1="929.37" x2="1036.6229" y1="116" y2="116"/><line style="stroke:#181818;stroke-width:0.5;" x1="929.37" x2="1036.6229" y1="124" y2="124"/></g><!--class AuthenticationService--><g class="entity" data-entity="AuthenticationService" data-source-line="14" data-uid="ent0012" id="entity_AuthenticationService"><rect fill="#F1F1F1" height="48" rx="2.5" ry="2.5" style="stroke:#181818;stroke-width:0.5;" width="186.5127" x="1072.74" y="84"/><ellipse cx="1087.74" cy="100" fill="#ADD1B2" rx="11" ry="11" style="stroke:#181818;stroke-width:1;"/><path d="M1090.7088,105.6406 Q1090.1306,105.9375 1089.49,106.0781 Q1088.8494,106.2344 1088.1463,106.2344 Q1085.6463,106.2344 1084.3181,104.5938 Q1083.0056,102.9375 1083.0056,99.8125 Q1083.0056,96.6875 1084.3181,95.0313 Q1085.6463,93.375 1088.1463,93.375 Q1088.8494,93.375 1089.49,93.5313 Q1090.1463,93.6875 1090.7088,93.9844 L1090.7088,96.7031 Q1090.0838,96.125 1089.49,95.8594 Q1088.8963,95.5781 1088.2713,95.5781 Q1086.9275,95.5781 1086.24,96.6563 Q1085.5525,97.7188 1085.5525,99.8125 Q1085.5525,101.9063 1086.24,102.9844 Q1086.9275,104.0469 1088.2713,104.0469 Q1088.8963,104.0469 1089.49,103.7813 Q1090.0838,103.5 1090.7088,102.9219 L1090.7088,105.6406 Z " fill="#000000"/><text fill="#000000" font-family="sans-serif" font-size="14" lengthAdjust="spacing" textLength="154.5127" x="1101.74" y="104.8467">AuthenticationService</text><line style="stroke:#181818;stroke-width:0.5;" x1="1073.74" x2="1258.2527" y1="116" y2="116"/><line style="stroke:#181818;stroke-width:0.5;" x1="1073.74" x2="1258.2527" y1="124" y2="124"/></g><!--class ErrorHandlingModule--><g class="entity" data-entity="ErrorHandlingModule" data-source-line="17" data-uid="ent0014" id="entity_ErrorHandlingModule"><rect fill="#F1F1F1" height="48" rx="2.5" ry="2.5" style="stroke:#181818;stroke-width:0.5;" width="179.9912" x="1315" y="84"/><ellipse cx="1330" cy="100" fill="#ADD1B2" rx="11" ry="11" style="stroke:#181818;stroke-width:1;"/><path d="M1332.9688,105.6406 Q1332.3906,105.9375 1331.75,106.0781 Q1331.1094,106.2344 1330.4063,106.2344 Q1327.9063,106.2344 1326.5781,104.5938 Q1325.2656,102.9375 1325.2656,99.8125 Q1325.2656,96.6875 1326.5781,95.0313 Q1327.9063,93.375 1330.4063,93.375 Q1331.1094,93.375 1331.75,93.5313 Q1332.4063,93.6875 1332.9688,93.9844 L1332.9688,96.7031 Q1332.3438,96.125 1331.75,95.8594 Q1331.1563,95.5781 1330.5313,95.5781 Q1329.1875,95.5781 1328.5,96.6563 Q1327.8125,97.7188 1327.8125,99.8125 Q1327.8125,101.9063 1328.5,102.9844 Q1329.1875,104.0469 1330.5313,104.0469 Q1331.1563,104.0469 1331.75,103.7813 Q1332.3438,103.5 1332.9688,102.9219 L1332.9688,105.6406 Z " fill="#000000"/><text fill="#000000" font-family="sans-serif" font-size="14" lengthAdjust="spacing" textLength="147.9912" x="1344" y="104.8467">ErrorHandlingModule</text><line style="stroke:#181818;stroke-width:0.5;" x1="1316" x2="1493.9912" y1="116" y2="116"/><line style="stroke:#181818;stroke-width:0.5;" x1="1316" x2="1493.9912" y1="124" y2="124"/></g><!--class DataDistributionNetwork--><g class="entity" data-entity="DataDistributionNetwork" data-source-line="20" data-uid="ent0016" id="entity_DataDistributionNetwork"><rect fill="#F1F1F1" height="48" rx="2.5" ry="2.5" style="stroke:#181818;stroke-width:0.5;" width="205.5576" x="1551.22" y="84"/><ellipse cx="1566.22" cy="100" fill="#ADD1B2" rx="11" ry="11" style="stroke:#181818;stroke-width:1;"/><path d="M1569.1888,105.6406 Q1568.6106,105.9375 1567.97,106.0781 Q1567.3294,106.2344 1566.6263,106.2344 Q1564.1263,106.2344 1562.7981,104.5938 Q1561.4856,102.9375 1561.4856,99.8125 Q1561.4856,96.6875 1562.7981,95.0313 Q1564.1263,93.375 1566.6263,93.375 Q1567.3294,93.375 1567.97,93.5313 Q1568.6263,93.6875 1569.1888,93.9844 L1569.1888,96.7031 Q1568.5638,96.125 1567.97,95.8594 Q1567.3763,95.5781 1566.7513,95.5781 Q1565.4075,95.5781 1564.72,96.6563 Q1564.0325,97.7188 1564.0325,99.8125 Q1564.0325,101.9063 1564.72,102.9844 Q1565.4075,104.0469 1566.7513,104.0469 Q1567.3763,104.0469 1567.97,103.7813 Q1568.5638,103.5 1569.1888,102.9219 L1569.1888,105.6406 Z " fill="#000000"/><text fill="#000000" font-family="sans-serif" font-size="14" lengthAdjust="spacing" textLength="173.5576" x="1580.22" y="104.8467">DataDistributionNetwork</text><line style="stroke:#181818;stroke-width:0.5;" x1="1552.22" x2="1755.7776" y1="116" y2="116"/><line style="stroke:#181818;stroke-width:0.5;" x1="1552.22" x2="1755.7776" y1="124" y2="124"/></g><!--class SoftwareIntegrationLayer--><g class="entity" data-entity="SoftwareIntegrationLayer" data-source-line="23" data-uid="ent0018" id="entity_SoftwareIntegrationLayer"><rect fill="#F1F1F1" height="48" rx="2.5" ry="2.5" style="stroke:#181818;stroke-width:0.5;" width="210.4453" x="1812.78" y="84"/><ellipse cx="1827.78" cy="100" fill="#ADD1B2" rx="11" ry="11" style="stroke:#181818;stroke-width:1;"/><path d="M1830.7488,105.6406 Q1830.1706,105.9375 1829.53,106.0781 Q1828.8894,106.2344 1828.1863,106.2344 Q1825.6863,106.2344 1824.3581,104.5938 Q1823.0456,102.9375 1823.0456,99.8125 Q1823.0456,96.6875 1824.3581,95.0313 Q1825.6863,93.375 1828.1863,93.375 Q1828.8894,93.375 1829.53,93.5313 Q1830.1863,93.6875 1830.7488,93.9844 L1830.7488,96.7031 Q1830.1238,96.125 1829.53,95.8594 Q1828.9363,95.5781 1828.3113,95.5781 Q1826.9675,95.5781 1826.28,96.6563 Q1825.5925,97.7188 1825.5925,99.8125 Q1825.5925,101.9063 1826.28,102.9844 Q1826.9675,104.0469 1828.3113,104.0469 Q1828.9363,104.0469 1829.53,103.7813 Q1830.1238,103.5 1830.7488,102.9219 L1830.7488,105.6406 Z " fill="#000000"/><text fill="#000000" font-family="sans-serif" font-size="14" lengthAdjust="spacing" textLength="178.4453" x="1841.78" y="104.8467">SoftwareIntegrationLayer</text><line style="stroke:#181818;stroke-width:0.5;" x1="1813.78" x2="2022.2253" y1="116" y2="116"/><line style="stroke:#181818;stroke-width:0.5;" x1="1813.78" x2="2022.2253" y1="124" y2="124"/></g><!--class DataCalibrationModule--><g class="entity" data-entity="DataCalibrationModule" data-source-line="26" data-uid="ent0020" id="entity_DataCalibrationModule"><rect fill="#F1F1F1" height="48" rx="2.5" ry="2.5" style="stroke:#181818;stroke-width:0.5;" width="192.5078" x="2078.75" y="84"/><ellipse cx="2093.75" cy="100" fill="#ADD1B2" rx="11" ry="11" style="stroke:#181818;stroke-width:1;"/><path d="M2096.7188,105.6406 Q2096.1406,105.9375 2095.5,106.0781 Q2094.8594,106.2344 2094.1563,106.2344 Q2091.6563,106.2344 2090.3281,104.5938 Q2089.0156,102.9375 2089.0156,99.8125 Q2089.0156,96.6875 2090.3281,95.0313 Q2091.6563,93.375 2094.1563,93.375 Q2094.8594,93.375 2095.5,93.5313 Q2096.1563,93.6875 2096.7188,93.9844 L2096.7188,96.7031 Q2096.0938,96.125 2095.5,95.8594 Q2094.9063,95.5781 2094.2813,95.5781 Q2092.9375,95.5781 2092.25,96.6563 Q2091.5625,97.7188 2091.5625,99.8125 Q2091.5625,101.9063 2092.25,102.9844 Q2092.9375,104.0469 2094.2813,104.0469 Q2094.9063,104.0469 2095.5,103.7813 Q2096.0938,103.5 2096.7188,102.9219 L2096.7188,105.6406 Z " fill="#000000"/><text fill="#000000" font-family="sans-serif" font-size="14" lengthAdjust="spacing" textLength="160.5078" x="2107.75" y="104.8467">DataCalibrationModule</text><line style="stroke:#181818;stroke-width:0.5;" x1="2079.75" x2="2270.2578" y1="116" y2="116"/><line style="stroke:#181818;stroke-width:0.5;" x1="2079.75" x2="2270.2578" y1="124" y2="124"/></g><!--class ComplianceVerificationSystem--><g class="entity" data-entity="ComplianceVerificationSystem" data-source-line="29" data-uid="ent0022" id="entity_ComplianceVerificationSystem"><rect fill="#F1F1F1" height="48" rx="2.5" ry="2.5" style="stroke:#181818;stroke-width:0.5;" width="246.3613" x="2326.82" y="84"/><ellipse cx="2341.82" cy="100" fill="#ADD1B2" rx="11" ry="11" style="stroke:#181818;stroke-width:1;"/><path d="M2344.7888,105.6406 Q2344.2106,105.9375 2343.57,106.0781 Q2342.9294,106.2344 2342.2263,106.2344 Q2339.7263,106.2344 2338.3981,104.5938 Q2337.0856,102.9375 2337.0856,99.8125 Q2337.0856,96.6875 2338.3981,95.0313 Q2339.7263,93.375 2342.2263,93.375 Q2342.9294,93.375 2343.57,93.5313 Q2344.2263,93.6875 2344.7888,93.9844 L2344.7888,96.7031 Q2344.1638,96.125 2343.57,95.8594 Q2342.9763,95.5781 2342.3513,95.5781 Q2341.0075,95.5781 2340.32,96.6563 Q2339.6325,97.7188 2339.6325,99.8125 Q2339.6325,101.9063 2340.32,102.9844 Q2341.0075,104.0469 2342.3513,104.0469 Q2342.9763,104.0469 2343.57,103.7813 Q2344.1638,103.5 2344.7888,102.9219 L2344.7888,105.6406 Z " fill="#000000"/><text fill="#000000" font-family="sans-serif" font-size="14" lengthAdjust="spacing" textLength="214.3613" x="2355.82" y="104.8467">ComplianceVerificationSystem</text><line style="stroke:#181818;stroke-width:0.5;" x1="2327.82" x2="2572.1813" y1="116" y2="116"/><line style="stroke:#181818;stroke-width:0.5;" x1="2327.82" x2="2572.1813" y1="124" y2="124"/></g><!--SRC=[TP7TRi8m38NlznGHRrBn8oPj4r8bk7Q3wIn2KXoN2Y7UdOPHDQD9hYAVpySvSGFw23MgMR4fLggyUi7JJDq-L7-QGLk0W2hqkILFGiuEG3ZQWFSg417mxVQjmITp_s-rOQVHUxBrr6JKbhOcYuaP8v8VKOhZ_ZBrVmb_8LETEwocNNsnHBuWlzMBLdxH2ca8YGD2ElcU9RDZjGQxDydOJtsGyx4Mv8MfQlCBY8aVbCxnCMNqQGLhXhHFwGxI0MC4VS7r5VxDQ0w6gfnHU504v7FDtQan15OdDZPgMsGw37yTB_3-0000]--></g></svg>