<svg xmlns="http://www.w3.org/2000/svg" xmlns:xlink="http://www.w3.org/1999/xlink" contentStyleType="text/css" data-diagram-type="CLASS" height="732px" preserveAspectRatio="none" style="width:1244px;height:732px;background:#FFFFFF;" version="1.1" viewBox="0 0 1244 732" width="1244px" zoomAndPan="magnify"><defs/><g><!--class DataAcquisitionModule--><g class="entity" data-entity="DataAcquisitionModule" data-source-line="1" data-uid="ent0002" id="entity_DataAcquisitionModule"><rect fill="#F1F1F1" height="64.2969" rx="2.5" ry="2.5" style="stroke:#181818;stroke-width:0.5;" width="194.0957" x="21.46" y="15.15"/><ellipse cx="36.8362" cy="31.15" fill="#ADD1B2" rx="11" ry="11" style="stroke:#181818;stroke-width:1;"/><path d="M39.8049,36.7906 Q39.2268,37.0875 38.5862,37.2281 Q37.9455,37.3844 37.2424,37.3844 Q34.7424,37.3844 33.4143,35.7437 Q32.1018,34.0875 32.1018,30.9625 Q32.1018,27.8375 33.4143,26.1812 Q34.7424,24.525 37.2424,24.525 Q37.9455,24.525 38.5862,24.6812 Q39.2424,24.8375 39.8049,25.1344 L39.8049,27.8531 Q39.1799,27.275 38.5862,27.0094 Q37.9924,26.7281 37.3674,26.7281 Q36.0237,26.7281 35.3362,27.8062 Q34.6487,28.8687 34.6487,30.9625 Q34.6487,33.0562 35.3362,34.1344 Q36.0237,35.1969 37.3674,35.1969 Q37.9924,35.1969 38.5862,34.9312 Q39.1799,34.65 39.8049,34.0719 L39.8049,36.7906 Z " fill="#000000"/><text fill="#000000" font-family="sans-serif" font-size="14" lengthAdjust="spacing" textLength="161.2598" x="50.9198" y="35.9967">DataAcquisitionModule</text><line style="stroke:#181818;stroke-width:0.5;" x1="22.46" x2="214.5557" y1="47.15" y2="47.15"/><line style="stroke:#181818;stroke-width:0.5;" x1="22.46" x2="214.5557" y1="55.15" y2="55.15"/><ellipse cx="32.46" cy="68.7984" fill="#84BE84" rx="3" ry="3" style="stroke:#038048;stroke-width:1;"/><text fill="#000000" font-family="sans-serif" font-size="14" lengthAdjust="spacing" textLength="168.0957" x="41.46" y="72.1451">acquireTelemetryData()</text></g><!--class ProcessingEngine--><g class="entity" data-entity="ProcessingEngine" data-source-line="5" data-uid="ent0003" id="entity_ProcessingEngine"><rect fill="#F1F1F1" height="64.2969" rx="2.5" ry="2.5" style="stroke:#181818;stroke-width:0.5;" width="159.8818" x="38.57" y="147.6"/><ellipse cx="55.635" cy="163.6" fill="#ADD1B2" rx="11" ry="11" style="stroke:#181818;stroke-width:1;"/><path d="M58.6037,169.2406 Q58.0256,169.5375 57.385,169.6781 Q56.7444,169.8344 56.0412,169.8344 Q53.5412,169.8344 52.2131,168.1938 Q50.9006,166.5375 50.9006,163.4125 Q50.9006,160.2875 52.2131,158.6313 Q53.5412,156.975 56.0412,156.975 Q56.7444,156.975 57.385,157.1313 Q58.0412,157.2875 58.6037,157.5844 L58.6037,160.3031 Q57.9787,159.725 57.385,159.4594 Q56.7912,159.1781 56.1662,159.1781 Q54.8225,159.1781 54.135,160.2563 Q53.4475,161.3188 53.4475,163.4125 Q53.4475,165.5063 54.135,166.5844 Q54.8225,167.6469 56.1662,167.6469 Q56.7912,167.6469 57.385,167.3813 Q57.9787,167.1 58.6037,166.5219 L58.6037,169.2406 Z " fill="#000000"/><text fill="#000000" font-family="sans-serif" font-size="14" lengthAdjust="spacing" textLength="123.293" x="70.0939" y="168.4467">ProcessingEngine</text><line style="stroke:#181818;stroke-width:0.5;" x1="39.57" x2="197.4518" y1="179.6" y2="179.6"/><line style="stroke:#181818;stroke-width:0.5;" x1="39.57" x2="197.4518" y1="187.6" y2="187.6"/><ellipse cx="49.57" cy="201.2484" fill="#84BE84" rx="3" ry="3" style="stroke:#038048;stroke-width:1;"/><text fill="#000000" font-family="sans-serif" font-size="14" lengthAdjust="spacing" textLength="133.8818" x="58.57" y="204.5951">processDataDaily()</text></g><!--class DataProcessingModule--><g class="entity" data-entity="DataProcessingModule" data-source-line="9" data-uid="ent0004" id="entity_DataProcessingModule"><rect fill="#F1F1F1" height="80.5938" rx="2.5" ry="2.5" style="stroke:#181818;stroke-width:0.5;" width="191.6465" x="22.69" y="271.9"/><ellipse cx="37.69" cy="287.9" fill="#ADD1B2" rx="11" ry="11" style="stroke:#181818;stroke-width:1;"/><path d="M40.6588,293.5406 Q40.0806,293.8375 39.44,293.9781 Q38.7994,294.1344 38.0963,294.1344 Q35.5963,294.1344 34.2681,292.4938 Q32.9556,290.8375 32.9556,287.7125 Q32.9556,284.5875 34.2681,282.9313 Q35.5963,281.275 38.0963,281.275 Q38.7994,281.275 39.44,281.4313 Q40.0963,281.5875 40.6588,281.8844 L40.6588,284.6031 Q40.0338,284.025 39.44,283.7594 Q38.8463,283.4781 38.2213,283.4781 Q36.8775,283.4781 36.19,284.5563 Q35.5025,285.6188 35.5025,287.7125 Q35.5025,289.8063 36.19,290.8844 Q36.8775,291.9469 38.2213,291.9469 Q38.8463,291.9469 39.44,291.6813 Q40.0338,291.4 40.6588,290.8219 L40.6588,293.5406 Z " fill="#000000"/><text fill="#000000" font-family="sans-serif" font-size="14" lengthAdjust="spacing" textLength="159.6465" x="51.69" y="292.7467">DataProcessingModule</text><line style="stroke:#181818;stroke-width:0.5;" x1="23.69" x2="213.3365" y1="303.9" y2="303.9"/><line style="stroke:#181818;stroke-width:0.5;" x1="23.69" x2="213.3365" y1="311.9" y2="311.9"/><ellipse cx="33.69" cy="325.5484" fill="#84BE84" rx="3" ry="3" style="stroke:#038048;stroke-width:1;"/><text fill="#000000" font-family="sans-serif" font-size="14" lengthAdjust="spacing" textLength="152.7285" x="42.69" y="328.8951">processScienceData()</text><ellipse cx="33.69" cy="341.8453" fill="#84BE84" rx="3" ry="3" style="stroke:#038048;stroke-width:1;"/><text fill="#000000" font-family="sans-serif" font-size="14" lengthAdjust="spacing" textLength="106.1963" x="42.69" y="345.192">generateIDFS()</text></g><!--class StorageSystem--><g class="entity" data-entity="StorageSystem" data-source-line="14" data-uid="ent0005" id="entity_StorageSystem"><rect fill="#F1F1F1" height="64.2969" rx="2.5" ry="2.5" style="stroke:#181818;stroke-width:0.5;" width="138.9824" x="49.02" y="412.49"/><ellipse cx="64.02" cy="428.49" fill="#ADD1B2" rx="11" ry="11" style="stroke:#181818;stroke-width:1;"/><path d="M66.9888,434.1306 Q66.4106,434.4275 65.77,434.5681 Q65.1294,434.7244 64.4263,434.7244 Q61.9263,434.7244 60.5981,433.0838 Q59.2856,431.4275 59.2856,428.3025 Q59.2856,425.1775 60.5981,423.5213 Q61.9263,421.865 64.4263,421.865 Q65.1294,421.865 65.77,422.0213 Q66.4263,422.1775 66.9888,422.4744 L66.9888,425.1931 Q66.3638,424.615 65.77,424.3494 Q65.1763,424.0681 64.5513,424.0681 Q63.2075,424.0681 62.52,425.1463 Q61.8325,426.2088 61.8325,428.3025 Q61.8325,430.3963 62.52,431.4744 Q63.2075,432.5369 64.5513,432.5369 Q65.1763,432.5369 65.77,432.2713 Q66.3638,431.99 66.9888,431.4119 L66.9888,434.1306 Z " fill="#000000"/><text fill="#000000" font-family="sans-serif" font-size="14" lengthAdjust="spacing" textLength="106.9824" x="78.02" y="433.3367">StorageSystem</text><line style="stroke:#181818;stroke-width:0.5;" x1="50.02" x2="187.0024" y1="444.49" y2="444.49"/><line style="stroke:#181818;stroke-width:0.5;" x1="50.02" x2="187.0024" y1="452.49" y2="452.49"/><ellipse cx="60.02" cy="466.1384" fill="#84BE84" rx="3" ry="3" style="stroke:#038048;stroke-width:1;"/><text fill="#000000" font-family="sans-serif" font-size="14" lengthAdjust="spacing" textLength="80.0693" x="69.02" y="469.4851">storeData()</text></g><!--class WebServer--><g class="entity" data-entity="WebServer" data-source-line="18" data-uid="ent0006" id="entity_WebServer"><rect fill="#F1F1F1" height="64.2969" rx="2.5" ry="2.5" style="stroke:#181818;stroke-width:0.5;" width="223.0254" x="7" y="536.79"/><ellipse cx="75.6362" cy="552.79" fill="#ADD1B2" rx="11" ry="11" style="stroke:#181818;stroke-width:1;"/><path d="M78.605,558.4306 Q78.0269,558.7275 77.3862,558.8681 Q76.7456,559.0244 76.0425,559.0244 Q73.5425,559.0244 72.2144,557.3838 Q70.9019,555.7275 70.9019,552.6025 Q70.9019,549.4775 72.2144,547.8213 Q73.5425,546.165 76.0425,546.165 Q76.7456,546.165 77.3862,546.3213 Q78.0425,546.4775 78.605,546.7744 L78.605,549.4931 Q77.98,548.915 77.3862,548.6494 Q76.7925,548.3681 76.1675,548.3681 Q74.8237,548.3681 74.1362,549.4463 Q73.4487,550.5088 73.4487,552.6025 Q73.4487,554.6963 74.1362,555.7744 Q74.8237,556.8369 76.1675,556.8369 Q76.7925,556.8369 77.3862,556.5713 Q77.98,556.29 78.605,555.7119 L78.605,558.4306 Z " fill="#000000"/><text fill="#000000" font-family="sans-serif" font-size="14" lengthAdjust="spacing" textLength="77.2529" x="96.1362" y="557.6367">WebServer</text><line style="stroke:#181818;stroke-width:0.5;" x1="8" x2="229.0254" y1="568.79" y2="568.79"/><line style="stroke:#181818;stroke-width:0.5;" x1="8" x2="229.0254" y1="576.79" y2="576.79"/><ellipse cx="18" cy="590.4384" fill="#84BE84" rx="3" ry="3" style="stroke:#038048;stroke-width:1;"/><text fill="#000000" font-family="sans-serif" font-size="14" lengthAdjust="spacing" textLength="197.0254" x="27" y="593.7851">provideWebBasedDisplays()</text></g><!--class AuthenticationService--><g class="entity" data-entity="AuthenticationService" data-source-line="22" data-uid="ent0007" id="entity_AuthenticationService"><rect fill="#F1F1F1" height="64.2969" rx="2.5" ry="2.5" style="stroke:#181818;stroke-width:0.5;" width="186.5127" x="25.26" y="661.08"/><ellipse cx="40.26" cy="677.08" fill="#ADD1B2" rx="11" ry="11" style="stroke:#181818;stroke-width:1;"/><path d="M43.2288,682.7206 Q42.6506,683.0175 42.01,683.1581 Q41.3694,683.3144 40.6663,683.3144 Q38.1663,683.3144 36.8381,681.6738 Q35.5256,680.0175 35.5256,676.8925 Q35.5256,673.7675 36.8381,672.1113 Q38.1663,670.455 40.6663,670.455 Q41.3694,670.455 42.01,670.6113 Q42.6663,670.7675 43.2288,671.0644 L43.2288,673.7831 Q42.6038,673.205 42.01,672.9394 Q41.4163,672.6581 40.7913,672.6581 Q39.4475,672.6581 38.76,673.7363 Q38.0725,674.7988 38.0725,676.8925 Q38.0725,678.9863 38.76,680.0644 Q39.4475,681.1269 40.7913,681.1269 Q41.4163,681.1269 42.01,680.8613 Q42.6038,680.58 43.2288,680.0019 L43.2288,682.7206 Z " fill="#000000"/><text fill="#000000" font-family="sans-serif" font-size="14" lengthAdjust="spacing" textLength="154.5127" x="54.26" y="681.9267">AuthenticationService</text><line style="stroke:#181818;stroke-width:0.5;" x1="26.26" x2="210.7727" y1="693.08" y2="693.08"/><line style="stroke:#181818;stroke-width:0.5;" x1="26.26" x2="210.7727" y1="701.08" y2="701.08"/><ellipse cx="36.26" cy="714.7284" fill="#84BE84" rx="3" ry="3" style="stroke:#038048;stroke-width:1;"/><text fill="#000000" font-family="sans-serif" font-size="14" lengthAdjust="spacing" textLength="131.8926" x="45.26" y="718.0751">authenticateUser()</text></g><!--class ErrorHandlingModule--><g class="entity" data-entity="ErrorHandlingModule" data-source-line="26" data-uid="ent0008" id="entity_ErrorHandlingModule"><rect fill="#F1F1F1" height="80.5938" rx="2.5" ry="2.5" style="stroke:#181818;stroke-width:0.5;" width="179.9912" x="250.52" y="7"/><ellipse cx="265.52" cy="23" fill="#ADD1B2" rx="11" ry="11" style="stroke:#181818;stroke-width:1;"/><path d="M268.4888,28.6406 Q267.9106,28.9375 267.27,29.0781 Q266.6294,29.2344 265.9263,29.2344 Q263.4263,29.2344 262.0981,27.5938 Q260.7856,25.9375 260.7856,22.8125 Q260.7856,19.6875 262.0981,18.0313 Q263.4263,16.375 265.9263,16.375 Q266.6294,16.375 267.27,16.5313 Q267.9263,16.6875 268.4888,16.9844 L268.4888,19.7031 Q267.8638,19.125 267.27,18.8594 Q266.6763,18.5781 266.0513,18.5781 Q264.7075,18.5781 264.02,19.6563 Q263.3325,20.7188 263.3325,22.8125 Q263.3325,24.9063 264.02,25.9844 Q264.7075,27.0469 266.0513,27.0469 Q266.6763,27.0469 267.27,26.7813 Q267.8638,26.5 268.4888,25.9219 L268.4888,28.6406 Z " fill="#000000"/><text fill="#000000" font-family="sans-serif" font-size="14" lengthAdjust="spacing" textLength="147.9912" x="279.52" y="27.8467">ErrorHandlingModule</text><line style="stroke:#181818;stroke-width:0.5;" x1="251.52" x2="429.5112" y1="39" y2="39"/><line style="stroke:#181818;stroke-width:0.5;" x1="251.52" x2="429.5112" y1="47" y2="47"/><ellipse cx="261.52" cy="60.6484" fill="#84BE84" rx="3" ry="3" style="stroke:#038048;stroke-width:1;"/><text fill="#000000" font-family="sans-serif" font-size="14" lengthAdjust="spacing" textLength="90.3916" x="270.52" y="63.9951">detectError()</text><ellipse cx="261.52" cy="76.9453" fill="#84BE84" rx="3" ry="3" style="stroke:#038048;stroke-width:1;"/><text fill="#000000" font-family="sans-serif" font-size="14" lengthAdjust="spacing" textLength="98.8887" x="270.52" y="80.292">recoverError()</text></g><!--class DataDistributionNetwork--><g class="entity" data-entity="DataDistributionNetwork" data-source-line="31" data-uid="ent0009" id="entity_DataDistributionNetwork"><rect fill="#F1F1F1" height="64.2969" rx="2.5" ry="2.5" style="stroke:#181818;stroke-width:0.5;" width="205.5576" x="465.73" y="15.15"/><ellipse cx="480.73" cy="31.15" fill="#ADD1B2" rx="11" ry="11" style="stroke:#181818;stroke-width:1;"/><path d="M483.6988,36.7906 Q483.1206,37.0875 482.48,37.2281 Q481.8394,37.3844 481.1363,37.3844 Q478.6363,37.3844 477.3081,35.7437 Q475.9956,34.0875 475.9956,30.9625 Q475.9956,27.8375 477.3081,26.1812 Q478.6363,24.525 481.1363,24.525 Q481.8394,24.525 482.48,24.6812 Q483.1363,24.8375 483.6988,25.1344 L483.6988,27.8531 Q483.0738,27.275 482.48,27.0094 Q481.8863,26.7281 481.2613,26.7281 Q479.9175,26.7281 479.23,27.8062 Q478.5425,28.8687 478.5425,30.9625 Q478.5425,33.0562 479.23,34.1344 Q479.9175,35.1969 481.2613,35.1969 Q481.8863,35.1969 482.48,34.9312 Q483.0738,34.65 483.6988,34.0719 L483.6988,36.7906 Z " fill="#000000"/><text fill="#000000" font-family="sans-serif" font-size="14" lengthAdjust="spacing" textLength="173.5576" x="494.73" y="35.9967">DataDistributionNetwork</text><line style="stroke:#181818;stroke-width:0.5;" x1="466.73" x2="670.2876" y1="47.15" y2="47.15"/><line style="stroke:#181818;stroke-width:0.5;" x1="466.73" x2="670.2876" y1="55.15" y2="55.15"/><ellipse cx="476.73" cy="68.7984" fill="#84BE84" rx="3" ry="3" style="stroke:#038048;stroke-width:1;"/><text fill="#000000" font-family="sans-serif" font-size="14" lengthAdjust="spacing" textLength="111.4189" x="485.73" y="72.1451">distributeData()</text></g><!--class SoftwareIntegrationLayer--><g class="entity" data-entity="SoftwareIntegrationLayer" data-source-line="35" data-uid="ent0010" id="entity_SoftwareIntegrationLayer"><rect fill="#F1F1F1" height="64.2969" rx="2.5" ry="2.5" style="stroke:#181818;stroke-width:0.5;" width="210.4453" x="730.29" y="15.15"/><ellipse cx="745.29" cy="31.15" fill="#ADD1B2" rx="11" ry="11" style="stroke:#181818;stroke-width:1;"/><path d="M748.2588,36.7906 Q747.6806,37.0875 747.04,37.2281 Q746.3994,37.3844 745.6963,37.3844 Q743.1963,37.3844 741.8681,35.7437 Q740.5556,34.0875 740.5556,30.9625 Q740.5556,27.8375 741.8681,26.1812 Q743.1963,24.525 745.6963,24.525 Q746.3994,24.525 747.04,24.6812 Q747.6963,24.8375 748.2588,25.1344 L748.2588,27.8531 Q747.6338,27.275 747.04,27.0094 Q746.4463,26.7281 745.8213,26.7281 Q744.4775,26.7281 743.79,27.8062 Q743.1025,28.8687 743.1025,30.9625 Q743.1025,33.0562 743.79,34.1344 Q744.4775,35.1969 745.8213,35.1969 Q746.4463,35.1969 747.04,34.9312 Q747.6338,34.65 748.2588,34.0719 L748.2588,36.7906 Z " fill="#000000"/><text fill="#000000" font-family="sans-serif" font-size="14" lengthAdjust="spacing" textLength="178.4453" x="759.29" y="35.9967">SoftwareIntegrationLayer</text><line style="stroke:#181818;stroke-width:0.5;" x1="731.29" x2="939.7353" y1="47.15" y2="47.15"/><line style="stroke:#181818;stroke-width:0.5;" x1="731.29" x2="939.7353" y1="55.15" y2="55.15"/><ellipse cx="741.29" cy="68.7984" fill="#84BE84" rx="3" ry="3" style="stroke:#038048;stroke-width:1;"/><text fill="#000000" font-family="sans-serif" font-size="14" lengthAdjust="spacing" textLength="182.2803" x="750.29" y="72.1451">integrateWithRepository()</text></g><!--class DataCalibrationModule--><g class="entity" data-entity="DataCalibrationModule" data-source-line="39" data-uid="ent0011" id="entity_DataCalibrationModule"><rect fill="#F1F1F1" height="64.2969" rx="2.5" ry="2.5" style="stroke:#181818;stroke-width:0.5;" width="192.5078" x="1018.26" y="15.15"/><ellipse cx="1033.26" cy="31.15" fill="#ADD1B2" rx="11" ry="11" style="stroke:#181818;stroke-width:1;"/><path d="M1036.2288,36.7906 Q1035.6506,37.0875 1035.01,37.2281 Q1034.3694,37.3844 1033.6663,37.3844 Q1031.1663,37.3844 1029.8381,35.7437 Q1028.5256,34.0875 1028.5256,30.9625 Q1028.5256,27.8375 1029.8381,26.1812 Q1031.1663,24.525 1033.6663,24.525 Q1034.3694,24.525 1035.01,24.6812 Q1035.6663,24.8375 1036.2288,25.1344 L1036.2288,27.8531 Q1035.6038,27.275 1035.01,27.0094 Q1034.4163,26.7281 1033.7913,26.7281 Q1032.4475,26.7281 1031.76,27.8062 Q1031.0725,28.8687 1031.0725,30.9625 Q1031.0725,33.0562 1031.76,34.1344 Q1032.4475,35.1969 1033.7913,35.1969 Q1034.4163,35.1969 1035.01,34.9312 Q1035.6038,34.65 1036.2288,34.0719 L1036.2288,36.7906 Z " fill="#000000"/><text fill="#000000" font-family="sans-serif" font-size="14" lengthAdjust="spacing" textLength="160.5078" x="1047.26" y="35.9967">DataCalibrationModule</text><line style="stroke:#181818;stroke-width:0.5;" x1="1019.26" x2="1209.7678" y1="47.15" y2="47.15"/><line style="stroke:#181818;stroke-width:0.5;" x1="1019.26" x2="1209.7678" y1="55.15" y2="55.15"/><ellipse cx="1029.26" cy="68.7984" fill="#84BE84" rx="3" ry="3" style="stroke:#038048;stroke-width:1;"/><text fill="#000000" font-family="sans-serif" font-size="14" lengthAdjust="spacing" textLength="105.7314" x="1038.26" y="72.1451">calibrateData()</text></g><!--class ComplianceVerificationSystem--><g class="entity" data-entity="ComplianceVerificationSystem" data-source-line="43" data-uid="ent0012" id="entity_ComplianceVerificationSystem"><rect fill="#F1F1F1" height="64.2969" rx="2.5" ry="2.5" style="stroke:#181818;stroke-width:0.5;" width="246.3613" x="991.33" y="147.6"/><ellipse cx="1006.33" cy="163.6" fill="#ADD1B2" rx="11" ry="11" style="stroke:#181818;stroke-width:1;"/><path d="M1009.2988,169.2406 Q1008.7206,169.5375 1008.08,169.6781 Q1007.4394,169.8344 1006.7363,169.8344 Q1004.2363,169.8344 1002.9081,168.1938 Q1001.5956,166.5375 1001.5956,163.4125 Q1001.5956,160.2875 1002.9081,158.6313 Q1004.2363,156.975 1006.7363,156.975 Q1007.4394,156.975 1008.08,157.1313 Q1008.7363,157.2875 1009.2988,157.5844 L1009.2988,160.3031 Q1008.6738,159.725 1008.08,159.4594 Q1007.4863,159.1781 1006.8613,159.1781 Q1005.5175,159.1781 1004.83,160.2563 Q1004.1425,161.3188 1004.1425,163.4125 Q1004.1425,165.5063 1004.83,166.5844 Q1005.5175,167.6469 1006.8613,167.6469 Q1007.4863,167.6469 1008.08,167.3813 Q1008.6738,167.1 1009.2988,166.5219 L1009.2988,169.2406 Z " fill="#000000"/><text fill="#000000" font-family="sans-serif" font-size="14" lengthAdjust="spacing" textLength="214.3613" x="1020.33" y="168.4467">ComplianceVerificationSystem</text><line style="stroke:#181818;stroke-width:0.5;" x1="992.33" x2="1236.6913" y1="179.6" y2="179.6"/><line style="stroke:#181818;stroke-width:0.5;" x1="992.33" x2="1236.6913" y1="187.6" y2="187.6"/><ellipse cx="1002.33" cy="201.2484" fill="#84BE84" rx="3" ry="3" style="stroke:#038048;stroke-width:1;"/><text fill="#000000" font-family="sans-serif" font-size="14" lengthAdjust="spacing" textLength="133.0889" x="1011.33" y="204.5951">verifyCompliance()</text></g><!--class LoggingSystem--><g class="entity" data-entity="LoggingSystem" data-source-line="47" data-uid="ent0013" id="entity_LoggingSystem"><rect fill="#F1F1F1" height="64.2969" rx="2.5" ry="2.5" style="stroke:#181818;stroke-width:0.5;" width="139.9941" x="270.52" y="147.6"/><ellipse cx="285.52" cy="163.6" fill="#ADD1B2" rx="11" ry="11" style="stroke:#181818;stroke-width:1;"/><path d="M288.4888,169.2406 Q287.9106,169.5375 287.27,169.6781 Q286.6294,169.8344 285.9263,169.8344 Q283.4263,169.8344 282.0981,168.1938 Q280.7856,166.5375 280.7856,163.4125 Q280.7856,160.2875 282.0981,158.6313 Q283.4263,156.975 285.9263,156.975 Q286.6294,156.975 287.27,157.1313 Q287.9263,157.2875 288.4888,157.5844 L288.4888,160.3031 Q287.8638,159.725 287.27,159.4594 Q286.6763,159.1781 286.0513,159.1781 Q284.7075,159.1781 284.02,160.2563 Q283.3325,161.3188 283.3325,163.4125 Q283.3325,165.5063 284.02,166.5844 Q284.7075,167.6469 286.0513,167.6469 Q286.6763,167.6469 287.27,167.3813 Q287.8638,167.1 288.4888,166.5219 L288.4888,169.2406 Z " fill="#000000"/><text fill="#000000" font-family="sans-serif" font-size="14" lengthAdjust="spacing" textLength="107.9941" x="299.52" y="168.4467">LoggingSystem</text><line style="stroke:#181818;stroke-width:0.5;" x1="271.52" x2="409.5141" y1="179.6" y2="179.6"/><line style="stroke:#181818;stroke-width:0.5;" x1="271.52" x2="409.5141" y1="187.6" y2="187.6"/><ellipse cx="281.52" cy="201.2484" fill="#84BE84" rx="3" ry="3" style="stroke:#038048;stroke-width:1;"/><text fill="#000000" font-family="sans-serif" font-size="14" lengthAdjust="spacing" textLength="74.2383" x="290.52" y="204.5951">logErrors()</text></g><!--class CoInvestigatorAccessPortal--><g class="entity" data-entity="CoInvestigatorAccessPortal" data-source-line="51" data-uid="ent0014" id="entity_CoInvestigatorAccessPortal"><rect fill="#F1F1F1" height="64.2969" rx="2.5" ry="2.5" style="stroke:#181818;stroke-width:0.5;" width="223.085" x="456.97" y="147.6"/><ellipse cx="471.97" cy="163.6" fill="#ADD1B2" rx="11" ry="11" style="stroke:#181818;stroke-width:1;"/><path d="M474.9388,169.2406 Q474.3606,169.5375 473.72,169.6781 Q473.0794,169.8344 472.3763,169.8344 Q469.8763,169.8344 468.5481,168.1938 Q467.2356,166.5375 467.2356,163.4125 Q467.2356,160.2875 468.5481,158.6313 Q469.8763,156.975 472.3763,156.975 Q473.0794,156.975 473.72,157.1313 Q474.3763,157.2875 474.9388,157.5844 L474.9388,160.3031 Q474.3138,159.725 473.72,159.4594 Q473.1263,159.1781 472.5013,159.1781 Q471.1575,159.1781 470.47,160.2563 Q469.7825,161.3188 469.7825,163.4125 Q469.7825,165.5063 470.47,166.5844 Q471.1575,167.6469 472.5013,167.6469 Q473.1263,167.6469 473.72,167.3813 Q474.3138,167.1 474.9388,166.5219 L474.9388,169.2406 Z " fill="#000000"/><text fill="#000000" font-family="sans-serif" font-size="14" lengthAdjust="spacing" textLength="191.085" x="485.97" y="168.4467">CoInvestigatorAccessPortal</text><line style="stroke:#181818;stroke-width:0.5;" x1="457.97" x2="679.055" y1="179.6" y2="179.6"/><line style="stroke:#181818;stroke-width:0.5;" x1="457.97" x2="679.055" y1="187.6" y2="187.6"/><ellipse cx="467.97" cy="201.2484" fill="#84BE84" rx="3" ry="3" style="stroke:#038048;stroke-width:1;"/><text fill="#000000" font-family="sans-serif" font-size="14" lengthAdjust="spacing" textLength="111.9795" x="476.97" y="204.5951">provideAccess()</text></g><!--class NASADataRepositoryInterface--><g class="entity" data-entity="NASADataRepositoryInterface" data-source-line="55" data-uid="ent0015" id="entity_NASADataRepositoryInterface"><rect fill="#F1F1F1" height="64.2969" rx="2.5" ry="2.5" style="stroke:#181818;stroke-width:0.5;" width="241.6924" x="714.67" y="147.6"/><ellipse cx="729.67" cy="163.6" fill="#ADD1B2" rx="11" ry="11" style="stroke:#181818;stroke-width:1;"/><path d="M732.6388,169.2406 Q732.0606,169.5375 731.42,169.6781 Q730.7794,169.8344 730.0763,169.8344 Q727.5763,169.8344 726.2481,168.1938 Q724.9356,166.5375 724.9356,163.4125 Q724.9356,160.2875 726.2481,158.6313 Q727.5763,156.975 730.0763,156.975 Q730.7794,156.975 731.42,157.1313 Q732.0763,157.2875 732.6388,157.5844 L732.6388,160.3031 Q732.0138,159.725 731.42,159.4594 Q730.8263,159.1781 730.2013,159.1781 Q728.8575,159.1781 728.17,160.2563 Q727.4825,161.3188 727.4825,163.4125 Q727.4825,165.5063 728.17,166.5844 Q728.8575,167.6469 730.2013,167.6469 Q730.8263,167.6469 731.42,167.3813 Q732.0138,167.1 732.6388,166.5219 L732.6388,169.2406 Z " fill="#000000"/><text fill="#000000" font-family="sans-serif" font-size="14" lengthAdjust="spacing" textLength="209.6924" x="743.67" y="168.4467">NASADataRepositoryInterface</text><line style="stroke:#181818;stroke-width:0.5;" x1="715.67" x2="955.3624" y1="179.6" y2="179.6"/><line style="stroke:#181818;stroke-width:0.5;" x1="715.67" x2="955.3624" y1="187.6" y2="187.6"/><ellipse cx="725.67" cy="201.2484" fill="#84BE84" rx="3" ry="3" style="stroke:#038048;stroke-width:1;"/><text fill="#000000" font-family="sans-serif" font-size="14" lengthAdjust="spacing" textLength="158.9219" x="734.67" y="204.5951">connectToRepository()</text></g><!--link DataAcquisitionModule to ProcessingEngine--><g class="link" data-entity-1="DataAcquisitionModule" data-entity-2="ProcessingEngine" data-source-line="59" data-uid="lnk16" id="link_DataAcquisitionModule_ProcessingEngine"><path codeLine="59" d="M118.51,79.88 C118.51,100.39 118.51,121.01 118.51,141.46 " fill="none" id="DataAcquisitionModule-to-ProcessingEngine" style="stroke:#181818;stroke-width:1;"/><polygon fill="#181818" points="118.51,147.46,122.51,138.46,118.51,142.46,114.51,138.46,118.51,147.46" style="stroke:#181818;stroke-width:1;"/></g><!--link ProcessingEngine to DataProcessingModule--><g class="link" data-entity-1="ProcessingEngine" data-entity-2="DataProcessingModule" data-source-line="60" data-uid="lnk17" id="link_ProcessingEngine_DataProcessingModule"><path codeLine="60" d="M118.51,212.32 C118.51,230.12 118.51,246.52 118.51,265.49 " fill="none" id="ProcessingEngine-to-DataProcessingModule" style="stroke:#181818;stroke-width:1;"/><polygon fill="#181818" points="118.51,271.49,122.51,262.49,118.51,266.49,114.51,262.49,118.51,271.49" style="stroke:#181818;stroke-width:1;"/></g><!--link DataProcessingModule to StorageSystem--><g class="link" data-entity-1="DataProcessingModule" data-entity-2="StorageSystem" data-source-line="61" data-uid="lnk18" id="link_DataProcessingModule_StorageSystem"><path codeLine="61" d="M118.51,352.68 C118.51,371.73 118.51,388.26 118.51,406.14 " fill="none" id="DataProcessingModule-to-StorageSystem" style="stroke:#181818;stroke-width:1;"/><polygon fill="#181818" points="118.51,412.14,122.51,403.14,118.51,407.14,114.51,403.14,118.51,412.14" style="stroke:#181818;stroke-width:1;"/></g><!--link StorageSystem to WebServer--><g class="link" data-entity-1="StorageSystem" data-entity-2="WebServer" data-source-line="62" data-uid="lnk19" id="link_StorageSystem_WebServer"><path codeLine="62" d="M118.51,477.13 C118.51,495.39 118.51,512.31 118.51,530.55 " fill="none" id="StorageSystem-to-WebServer" style="stroke:#181818;stroke-width:1;"/><polygon fill="#181818" points="118.51,536.55,122.51,527.55,118.51,531.55,114.51,527.55,118.51,536.55" style="stroke:#181818;stroke-width:1;"/></g><!--link WebServer to AuthenticationService--><g class="link" data-entity-1="WebServer" data-entity-2="AuthenticationService" data-source-line="63" data-uid="lnk20" id="link_WebServer_AuthenticationService"><path codeLine="63" d="M118.51,601.43 C118.51,619.69 118.51,636.6 118.51,654.84 " fill="none" id="WebServer-to-AuthenticationService" style="stroke:#181818;stroke-width:1;"/><polygon fill="#181818" points="118.51,660.84,122.51,651.84,118.51,655.84,114.51,651.84,118.51,660.84" style="stroke:#181818;stroke-width:1;"/></g><!--link ErrorHandlingModule to LoggingSystem--><g class="link" data-entity-1="ErrorHandlingModule" data-entity-2="LoggingSystem" data-source-line="64" data-uid="lnk21" id="link_ErrorHandlingModule_LoggingSystem"><path codeLine="64" d="M340.51,87.79 C340.51,106.84 340.51,123.37 340.51,141.25 " fill="none" id="ErrorHandlingModule-to-LoggingSystem" style="stroke:#181818;stroke-width:1;"/><polygon fill="#181818" points="340.51,147.25,344.51,138.25,340.51,142.25,336.51,138.25,340.51,147.25" style="stroke:#181818;stroke-width:1;"/></g><!--link DataDistributionNetwork to CoInvestigatorAccessPortal--><g class="link" data-entity-1="DataDistributionNetwork" data-entity-2="CoInvestigatorAccessPortal" data-source-line="65" data-uid="lnk22" id="link_DataDistributionNetwork_CoInvestigatorAccessPortal"><path codeLine="65" d="M568.51,79.88 C568.51,100.39 568.51,121.01 568.51,141.46 " fill="none" id="DataDistributionNetwork-to-CoInvestigatorAccessPortal" style="stroke:#181818;stroke-width:1;"/><polygon fill="#181818" points="568.51,147.46,572.51,138.46,568.51,142.46,564.51,138.46,568.51,147.46" style="stroke:#181818;stroke-width:1;"/></g><!--link SoftwareIntegrationLayer to NASADataRepositoryInterface--><g class="link" data-entity-1="SoftwareIntegrationLayer" data-entity-2="NASADataRepositoryInterface" data-source-line="66" data-uid="lnk23" id="link_SoftwareIntegrationLayer_NASADataRepositoryInterface"><path codeLine="66" d="M835.51,79.88 C835.51,100.39 835.51,121.01 835.51,141.46 " fill="none" id="SoftwareIntegrationLayer-to-NASADataRepositoryInterface" style="stroke:#181818;stroke-width:1;"/><polygon fill="#181818" points="835.51,147.46,839.51,138.46,835.51,142.46,831.51,138.46,835.51,147.46" style="stroke:#181818;stroke-width:1;"/></g><!--link DataCalibrationModule to ComplianceVerificationSystem--><g class="link" data-entity-1="DataCalibrationModule" data-entity-2="ComplianceVerificationSystem" data-source-line="67" data-uid="lnk24" id="link_DataCalibrationModule_ComplianceVerificationSystem"><path codeLine="67" d="M1114.51,79.88 C1114.51,100.39 1114.51,121.01 1114.51,141.46 " fill="none" id="DataCalibrationModule-to-ComplianceVerificationSystem" style="stroke:#181818;stroke-width:1;"/><polygon fill="#181818" points="1114.51,147.46,1118.51,138.46,1114.51,142.46,1110.51,138.46,1114.51,147.46" style="stroke:#181818;stroke-width:1;"/></g><!--SRC=[VLF1Rjim3BthAt9SCVGN1hXDXmNeYcBkrZCZCoenHSee9eKnxDydEd5inKvr9DyJoST7wo6bnH84AljdJuc4OlWUcxt7nL-poEypQ8Bn1JrkKRXLyASRyyyOsv6VELfCYO9x28x2cRSxnXM-1FBjcAF1WLVME_5gInWidgfr6OS16GHNow_r-BTQ8eF3kas2s_wRb8DusUihhcla0_Aes84QpF4xIDWiAUqyj6dCgVRoXa78WcgZTBA3E4CIVoRaCV61EV8t28sVpDYWe9KEq0_7Q6Dkh8yLKkMsX6czrmQUKDuZ_px_rAScizPn8-_0k0g2Zhlc7w4THgTJ75z9tdxWBkRbHvwiwHuyhO_qSWPxIamAtyVjpXFavVr2faqlNB6TWsRQ0JdcFqQNVUHAWe-kaoQLbLRXW4d8GMwzikgRvyW2_cA_nzIO-bJLbJO-3AuwyGQ6tTeOGjxIIxmKP_vSRc-_J6x1J8v3KNFkDxCdeUZ2tQRqkkRFdZQ3kpK-wripPqf55wARQwPJv7NHpLNBAUy3nSsyqOxLhflfFm00]--></g></svg>