<svg xmlns="http://www.w3.org/2000/svg" xmlns:xlink="http://www.w3.org/1999/xlink" contentStyleType="text/css" data-diagram-type="STATE" height="535px" preserveAspectRatio="none" style="width:960px;height:535px;background:#FFFFFF;" version="1.1" viewBox="0 0 960 535" width="960px" zoomAndPan="magnify"><defs/><g><!--cluster DA--><g class="cluster" data-entity="DA" data-source-line="1" data-uid="ent0002" id="cluster_DA"><path d="M19.5,62.5659 L383.5,62.5659 A12.5,12.5 0 0 1 396,75.0659 L396,83.8628 L7,83.8628 L7,75.0659 A12.5,12.5 0 0 1 19.5,62.5659 " fill="#F1F1F1" style="stroke:#F1F1F1;stroke-width:1;"/><rect fill="none" height="467" rx="12.5" ry="12.5" style="stroke:#181818;stroke-width:0.5;" width="389" x="7" y="62.5659"/><line style="stroke:#181818;stroke-width:0.5;" x1="7" x2="396" y1="83.8628" y2="83.8628"/><text fill="#000000" font-family="sans-serif" font-size="14" lengthAdjust="spacing" textLength="114.8027" x="144.0986" y="79.561">Data Acquisition</text></g><!--cluster PE--><g class="cluster" data-entity="PE" data-source-line="7" data-uid="ent0003" id="cluster_PE"><path d="M448.5,47.5659 L641.5,47.5659 A12.5,12.5 0 0 1 654,60.0659 L654,68.8628 L436,68.8628 L436,60.0659 A12.5,12.5 0 0 1 448.5,47.5659 " fill="#F1F1F1" style="stroke:#F1F1F1;stroke-width:1;"/><rect fill="none" height="136" rx="12.5" ry="12.5" style="stroke:#181818;stroke-width:0.5;" width="218" x="436" y="47.5659"/><line style="stroke:#181818;stroke-width:0.5;" x1="436" x2="654" y1="68.8628" y2="68.8628"/><text fill="#000000" font-family="sans-serif" font-size="14" lengthAdjust="spacing" textLength="127.7432" x="481.1284" y="64.561">Processing Engine</text></g><!--cluster DP--><g class="cluster" data-entity="DP" data-source-line="13" data-uid="ent0004" id="cluster_DP"><path d="M469.5,248.5659 L696.5,248.5659 A12.5,12.5 0 0 1 709,261.0659 L709,269.8628 L457,269.8628 L457,261.0659 A12.5,12.5 0 0 1 469.5,248.5659 " fill="#F1F1F1" style="stroke:#F1F1F1;stroke-width:1;"/><rect fill="none" height="136" rx="12.5" ry="12.5" style="stroke:#181818;stroke-width:0.5;" width="252" x="457" y="248.5659"/><line style="stroke:#181818;stroke-width:0.5;" x1="457" x2="709" y1="269.8628" y2="269.8628"/><text fill="#000000" font-family="sans-serif" font-size="14" lengthAdjust="spacing" textLength="113.1895" x="526.4053" y="265.561">Data Processing</text></g><ellipse cx="147" cy="134.5659" fill="#222222" rx="10" ry="10" style="stroke:#222222;stroke-width:1;"/><g id="DA.Idle"><rect fill="#F1F1F1" height="50" rx="12.5" ry="12.5" style="stroke:#181818;stroke-width:0.5;" width="50" x="122" y="310.5659"/><line style="stroke:#181818;stroke-width:0.5;" x1="122" x2="172" y1="336.8628" y2="336.8628"/><text fill="#000000" font-family="sans-serif" font-size="14" lengthAdjust="spacing" textLength="25.5186" x="134.2407" y="328.561">Idle</text></g><g id="DA.Acquiring"><rect fill="#F1F1F1" height="50" rx="12.5" ry="12.5" style="stroke:#181818;stroke-width:0.5;" width="86.3291" x="102.84" y="455.5659"/><line style="stroke:#181818;stroke-width:0.5;" x1="102.84" x2="189.1691" y1="481.8628" y2="481.8628"/><text fill="#000000" font-family="sans-serif" font-size="14" lengthAdjust="spacing" textLength="66.3291" x="112.84" y="473.561">Acquiring</text></g><ellipse cx="470" cy="134.5659" fill="#222222" rx="10" ry="10" style="stroke:#222222;stroke-width:1;"/><g id="PE.Processing"><rect fill="#F1F1F1" height="50" rx="12.5" ry="12.5" style="stroke:#181818;stroke-width:0.5;" width="95.3115" x="515.34" y="109.5659"/><line style="stroke:#181818;stroke-width:0.5;" x1="515.34" x2="610.6515" y1="135.8628" y2="135.8628"/><text fill="#000000" font-family="sans-serif" font-size="14" lengthAdjust="spacing" textLength="75.3115" x="525.34" y="127.561">Processing</text></g><ellipse cx="491" cy="335.5659" fill="#222222" rx="10" ry="10" style="stroke:#222222;stroke-width:1;"/><g id="DP.GeneratingIDFS"><rect fill="#F1F1F1" height="50" rx="12.5" ry="12.5" style="stroke:#181818;stroke-width:0.5;" width="130.2705" x="535.86" y="310.5659"/><line style="stroke:#181818;stroke-width:0.5;" x1="535.86" x2="666.1305" y1="336.8628" y2="336.8628"/><text fill="#000000" font-family="sans-serif" font-size="14" lengthAdjust="spacing" textLength="110.2705" x="545.86" y="328.561">GeneratingIDFS</text></g><!--link *start*DA to Idle--><g class="link" data-entity-1="*start*DA" data-entity-2="Idle" data-source-line="2" data-uid="lnk4" id="link_*start*DA_Idle"><path d="M147,144.8959 C147,174.3259 147,259.8659 147,304.1159 " fill="none" id="*start*DA-to-Idle" style="stroke:#181818;stroke-width:1;"/><polygon fill="#181818" points="147,310.1159,151,301.1159,147,305.1159,143,301.1159,147,310.1159" style="stroke:#181818;stroke-width:1;"/></g><!--link Idle to Acquiring--><g class="link" data-entity-1="Idle" data-entity-2="Acquiring" data-source-line="3" data-uid="lnk6" id="link_Idle_Acquiring"><path d="M121.51,350.1559 C101.45,362.4359 74.96,382.5659 63,408.5659 C52.07,432.3359 71.6389,448.5028 96.9789,460.7628 " fill="none" id="Idle-to-Acquiring" style="stroke:#181818;stroke-width:1;"/><polygon fill="#181818" points="102.38,463.3759,96.0205,455.8555,97.8791,461.1983,92.5363,463.0569,102.38,463.3759" style="stroke:#181818;stroke-width:1;"/><text fill="#000000" font-family="sans-serif" font-size="13" lengthAdjust="spacing" textLength="111.8521" x="64" y="421.6328">startAcquisition()</text></g><!--link Acquiring to Idle--><g class="link" data-entity-1="Acquiring" data-entity-2="Idle" data-source-line="4" data-uid="lnk7" id="link_Acquiring_Idle"><path d="M165.43,455.1659 C171.3,446.3559 176.99,435.9959 180,425.5659 C186.44,403.2459 178.9207,383.6182 168.0407,365.9082 " fill="none" id="Acquiring-to-Idle" style="stroke:#181818;stroke-width:1;"/><polygon fill="#181818" points="164.9,360.7959,166.2029,370.5582,167.5173,365.0562,173.0193,366.3706,164.9,360.7959" style="stroke:#181818;stroke-width:1;"/><text fill="#000000" font-family="sans-serif" font-size="13" lengthAdjust="spacing" textLength="143.2983" x="182" y="421.6328">acquisitionComplete()</text></g><!--link *start*PE to Idle--><g class="link" data-entity-1="*start*PE" data-entity-2="Idle" data-source-line="8" data-uid="lnk9" id="link_*start*PE_Idle"><path d="M464.97,143.3059 C455.21,157.5359 432.17,187.5059 404,199.5659 C383.04,208.5359 217.68,194.4959 199,207.5659 C165.43,231.0659 154.3296,274.375 150.1196,304.165 " fill="none" id="*start*PE-to-Idle" style="stroke:#181818;stroke-width:1;"/><polygon fill="#181818" points="149.28,310.1059,154.5,301.7542,149.9797,305.1551,146.5787,300.6347,149.28,310.1059" style="stroke:#181818;stroke-width:1;"/></g><!--link Idle to Processing--><g class="link" data-entity-1="Idle" data-entity-2="Processing" data-source-line="9" data-uid="lnk11" id="link_Idle_Processing"><path d="M172.36,323.7759 C225.48,301.7859 352.78,252.1959 465,232.5659 C477.16,230.4359 678.43,233.4459 687,224.5659 C692.25,219.1259 692.04,213.1959 687,207.5659 C676.26,195.5659 629.13,207.2759 615,199.5659 C598.54,190.5859 588.5513,179.0851 579.5513,165.0651 " fill="none" id="Idle-to-Processing" style="stroke:#181818;stroke-width:1;"/><polygon fill="#181818" points="576.31,160.0159,577.8058,169.7505,579.0111,164.2236,584.538,165.4288,576.31,160.0159" style="stroke:#181818;stroke-width:1;"/><text fill="#000000" font-family="sans-serif" font-size="13" lengthAdjust="spacing" textLength="110.354" x="691" y="220.6328">startProcessing()</text></g><!--link Processing to Idle--><g class="link" data-entity-1="Processing" data-entity-2="Idle" data-source-line="10" data-uid="lnk12" id="link_Processing_Idle"><path d="M552.68,159.8359 C542.71,180.2959 525.64,208.6859 502,224.5659 C488.03,233.9459 481.25,228.2159 465,232.5659 C354.67,262.1159 231.4866,304.5852 177.9666,323.5152 " fill="none" id="Processing-to-Idle" style="stroke:#181818;stroke-width:1;"/><polygon fill="#181818" points="172.31,325.5159,182.1287,326.2859,177.0238,323.8486,179.4611,318.7438,172.31,325.5159" style="stroke:#181818;stroke-width:1;"/><text fill="#000000" font-family="sans-serif" font-size="13" lengthAdjust="spacing" textLength="143.1396" x="520" y="220.6328">processingComplete()</text></g><!--link *start*DP to Idle--><g class="link" data-entity-1="*start*DP" data-entity-2="Idle" data-source-line="14" data-uid="lnk14" id="link_*start*DP_Idle"><path d="M480.73,335.5659 C377.88,335.5659 281.04,335.5659 178.2,335.5659 " fill="none" id="*start*DP-to-Idle" style="stroke:#181818;stroke-width:1;"/><polygon fill="#181818" points="172.2,335.5659,181.2,339.5659,177.2,335.5659,181.2,331.5659,172.2,335.5659" style="stroke:#181818;stroke-width:1;"/></g><!--link Idle to GeneratingIDFS--><g class="link" data-entity-1="Idle" data-entity-2="GeneratingIDFS" data-source-line="15" data-uid="lnk16" id="link_Idle_GeneratingIDFS"><path d="M172.47,316.7459 C234.32,273.5059 396.39,175.1559 519,233.8159 C551.95,249.5759 573.0561,280.4673 586.2861,305.1573 " fill="none" id="Idle-to-GeneratingIDFS" style="stroke:#181818;stroke-width:1;"/><polygon fill="#181818" points="589.12,310.4459,588.3949,300.6238,586.7584,306.0388,581.3435,304.4023,589.12,310.4459" style="stroke:#181818;stroke-width:1;"/><text fill="#000000" font-family="sans-serif" font-size="13" lengthAdjust="spacing" textLength="142.5176" x="358" y="220.6328">startIDFSGeneration()</text></g><!--link GeneratingIDFS to Idle--><g class="link" data-entity-1="GeneratingIDFS" data-entity-2="Idle" data-source-line="16" data-uid="lnk17" id="link_GeneratingIDFS_Idle"><path d="M589.12,310.4459 C575.89,285.7559 551.95,249.5759 519,233.8159 C396.39,175.1559 239.2374,270.0681 177.3874,313.3081 " fill="none" id="GeneratingIDFS-to-Idle" style="stroke:#181818;stroke-width:1;"/><polygon fill="#181818" points="172.47,316.7459,182.1381,314.8675,176.5679,313.8811,177.5543,308.3109,172.47,316.7459" style="stroke:#181818;stroke-width:1;"/><text fill="#000000" font-family="sans-serif" font-size="13" lengthAdjust="spacing" textLength="143.4951" x="207.5" y="220.6328">generationComplete()</text></g><!--link DA to PE--><g class="link" data-entity-1="DA" data-entity-2="PE" data-source-line="19" data-uid="lnk18" id="link_DA_PE"><path d="M396.1264,102.5635 C396.1782,102.4076 396.2302,102.2514 396.2826,102.0949 C396.7012,100.8427 397.1382,99.5717 397.5943,98.285 C398.5065,95.7116 399.4948,93.0756 400.5638,90.4034 C409.115,69.0259 422.825,45.3309 444,32.8159 C479.01,12.1259 595.72,6.8359 627,32.8159 C631.1475,36.2609 634.5839,40.2958 637.4189,44.7349 C637.7733,45.2898 638.1183,45.851 638.4541,46.4182 C638.622,46.7018 635.8161,41.7743 635.9794,42.0608 " fill="none" id="DA-to-PE" style="stroke:#181818;stroke-width:1;"/><polygon fill="#181818" points="638.9509,47.2733,637.9686,37.4736,636.4747,42.9296,631.0187,41.4356,638.9509,47.2733" style="stroke:#181818;stroke-width:1;"/><text fill="#000000" font-family="sans-serif" font-size="13" lengthAdjust="spacing" textLength="97.1636" x="468.5" y="19.6328">dataAcquired()</text></g><!--link PE to DP--><g class="link" data-entity-1="PE" data-entity-2="DP" data-source-line="20" data-uid="lnk19" id="link_PE_DP"><path d="M654.3277,135.6175 C654.6068,135.6237 654.8923,135.6304 655.1841,135.6377 C655.7676,135.6523 656.376,135.6691 657.0086,135.6884 C658.2737,135.7271 659.6352,135.7757 661.0865,135.8369 C663.9891,135.9591 667.2508,136.131 670.8181,136.3717 C685.0875,137.3344 704.2475,139.3965 724.88,143.7747 C766.145,152.5309 813.3,170.5509 839,207.5659 C862.395,241.2659 829.33,272.5584 789.715,295.6497 C769.9075,307.1953 748.4625,316.6906 731.6187,323.4114 C723.1969,326.7718 715.9253,329.4385 710.5839,331.3211 C710.2501,331.4388 709.9238,331.5534 709.6052,331.6649 C709.4459,331.7207 714.9537,329.7993 714.7983,329.8535 " fill="none" id="PE-to-DP" style="stroke:#181818;stroke-width:1;"/><polygon fill="#181818" points="709.1332,331.8299,718.9485,332.6421,713.8541,330.1829,716.3133,325.0885,709.1332,331.8299" style="stroke:#181818;stroke-width:1;"/><text fill="#000000" font-family="sans-serif" font-size="13" lengthAdjust="spacing" textLength="105.5044" x="847" y="220.6328">dataProcessed()</text></g><!--SRC=[XP6z2i8m4CVtFiNHIOM-W8DGR9Lk1KTn2ErH0ZMjoJc9x-ubQPieGZCT_u_moyMG88Iq42GWRnvFQIJ9GQKW31Gvl1BWSztT8CiEKBKzEi4EJd4LBLK7Up0aD4LtRBOk6oBp5PmL8NOSxcEFX1n_9udnFBKU6ZJ6jahLIOKEg2vNWQBYH1IK2IYAH4JZelu5SWiAJR-VUXNdZ0gr86vKnUao8zbvTfOz_KGZj6w9VgFn_xWdbvnfcSzl6bjsMRCM4tfh8hVU1m00]--></g></svg>