<svg xmlns="http://www.w3.org/2000/svg" xmlns:xlink="http://www.w3.org/1999/xlink" contentStyleType="text/css" data-diagram-type="ACTIVITY" height="661px" preserveAspectRatio="none" style="width:266px;height:661px;background:#FFFFFF;" version="1.1" viewBox="0 0 266 661" width="266px" zoomAndPan="magnify"><defs/><g><ellipse cx="120.5889" cy="20" fill="#222222" rx="10" ry="10" style="stroke:#222222;stroke-width:1;"/><rect fill="#F1F1F1" height="33.9688" rx="12.5" ry="12.5" style="stroke:#181818;stroke-width:0.5;" width="163.2031" x="38.9873" y="50"/><text fill="#000000" font-family="sans-serif" font-size="12" lengthAdjust="spacing" textLength="143.2031" x="48.9873" y="71.1387">Acquire Telemetry Data</text><rect fill="#F1F1F1" height="33.9688" rx="12.5" ry="12.5" style="stroke:#181818;stroke-width:0.5;" width="132.6406" x="54.2686" y="103.9688"/><text fill="#000000" font-family="sans-serif" font-size="12" lengthAdjust="spacing" textLength="112.6406" x="64.2686" y="125.1074">Process Data Daily</text><rect fill="#F1F1F1" height="33.9688" rx="12.5" ry="12.5" style="stroke:#181818;stroke-width:0.5;" width="148.7949" x="46.1914" y="157.9375"/><text fill="#000000" font-family="sans-serif" font-size="12" lengthAdjust="spacing" textLength="128.7949" x="56.1914" y="179.0762">Process Science Data</text><rect fill="#F1F1F1" height="33.9688" rx="12.5" ry="12.5" style="stroke:#181818;stroke-width:0.5;" width="84.4473" x="78.3652" y="211.9063"/><text fill="#000000" font-family="sans-serif" font-size="12" lengthAdjust="spacing" textLength="64.4473" x="88.3652" y="233.0449">Store Data</text><rect fill="#F1F1F1" height="33.9688" rx="12.5" ry="12.5" style="stroke:#181818;stroke-width:0.5;" width="191.0938" x="25.042" y="265.875"/><text fill="#000000" font-family="sans-serif" font-size="12" lengthAdjust="spacing" textLength="171.0938" x="35.042" y="287.0137">Provide Web-Based Displays</text><rect fill="#F1F1F1" height="33.9688" rx="12.5" ry="12.5" style="stroke:#181818;stroke-width:0.5;" width="219.1777" x="11" y="368.2461"/><text fill="#000000" font-family="sans-serif" font-size="12" lengthAdjust="spacing" textLength="199.1777" x="21" y="389.3848">Access Science Analysis Displays</text><polygon fill="#F1F1F1" points="51.2668,319.8438,189.9109,319.8438,201.9109,331.8438,189.9109,343.8438,51.2668,343.8438,39.2668,331.8438,51.2668,319.8438" style="stroke:#181818;stroke-width:0.5;"/><text fill="#000000" font-family="sans-serif" font-size="11" lengthAdjust="spacing" textLength="19.0083" x="124.5889" y="354.0542">yes</text><text fill="#000000" font-family="sans-serif" font-size="11" lengthAdjust="spacing" textLength="138.644" x="51.2668" y="335.6519">Access Science Analysis?</text><text fill="#000000" font-family="sans-serif" font-size="11" lengthAdjust="spacing" textLength="13.7017" x="201.9109" y="329.2495">no</text><polygon fill="#F1F1F1" points="120.5889,422.2148,132.5889,434.2148,120.5889,446.2148,108.5889,434.2148,120.5889,422.2148" style="stroke:#181818;stroke-width:0.5;"/><rect fill="#F1F1F1" height="33.9688" rx="12.5" ry="12.5" style="stroke:#181818;stroke-width:0.5;" width="111.5762" x="64.8008" y="466.2148"/><text fill="#000000" font-family="sans-serif" font-size="12" lengthAdjust="spacing" textLength="91.5762" x="74.8008" y="487.3535">Distribute Data</text><rect fill="#F1F1F1" height="33.9688" rx="12.5" ry="12.5" style="stroke:#181818;stroke-width:0.5;" width="106.8594" x="67.1592" y="520.1836"/><text fill="#000000" font-family="sans-serif" font-size="12" lengthAdjust="spacing" textLength="86.8594" x="77.1592" y="541.3223">Calibrate Data</text><rect fill="#F1F1F1" height="33.9688" rx="12.5" ry="12.5" style="stroke:#181818;stroke-width:0.5;" width="191.0117" x="25.083" y="574.1523"/><text fill="#000000" font-family="sans-serif" font-size="12" lengthAdjust="spacing" textLength="171.0117" x="35.083" y="595.291">Provide PDS-Compliant Data</text><ellipse cx="120.5889" cy="639.1211" fill="none" rx="11" ry="11" style="stroke:#222222;stroke-width:1;"/><ellipse cx="120.5889" cy="639.1211" fill="#222222" rx="6" ry="6" style="stroke:#222222;stroke-width:1;"/><line style="stroke:#181818;stroke-width:1;" x1="120.5889" x2="120.5889" y1="30" y2="50"/><polygon fill="#181818" points="116.5889,40,120.5889,50,124.5889,40,120.5889,44" style="stroke:#181818;stroke-width:1;"/><line style="stroke:#181818;stroke-width:1;" x1="120.5889" x2="120.5889" y1="83.9688" y2="103.9688"/><polygon fill="#181818" points="116.5889,93.9688,120.5889,103.9688,124.5889,93.9688,120.5889,97.9688" style="stroke:#181818;stroke-width:1;"/><line style="stroke:#181818;stroke-width:1;" x1="120.5889" x2="120.5889" y1="137.9375" y2="157.9375"/><polygon fill="#181818" points="116.5889,147.9375,120.5889,157.9375,124.5889,147.9375,120.5889,151.9375" style="stroke:#181818;stroke-width:1;"/><line style="stroke:#181818;stroke-width:1;" x1="120.5889" x2="120.5889" y1="191.9063" y2="211.9063"/><polygon fill="#181818" points="116.5889,201.9063,120.5889,211.9063,124.5889,201.9063,120.5889,205.9063" style="stroke:#181818;stroke-width:1;"/><line style="stroke:#181818;stroke-width:1;" x1="120.5889" x2="120.5889" y1="245.875" y2="265.875"/><polygon fill="#181818" points="116.5889,255.875,120.5889,265.875,124.5889,255.875,120.5889,259.875" style="stroke:#181818;stroke-width:1;"/><line style="stroke:#181818;stroke-width:1;" x1="120.5889" x2="120.5889" y1="343.8438" y2="368.2461"/><polygon fill="#181818" points="116.5889,358.2461,120.5889,368.2461,124.5889,358.2461,120.5889,362.2461" style="stroke:#181818;stroke-width:1;"/><line style="stroke:#181818;stroke-width:1;" x1="201.9109" x2="240.1777" y1="331.8438" y2="331.8438"/><polygon fill="#181818" points="236.1777,375.2305,240.1777,385.2305,244.1777,375.2305,240.1777,379.2305" style="stroke:#181818;stroke-width:1;"/><line style="stroke:#181818;stroke-width:1;" x1="240.1777" x2="240.1777" y1="331.8438" y2="434.2148"/><line style="stroke:#181818;stroke-width:1;" x1="240.1777" x2="132.5889" y1="434.2148" y2="434.2148"/><polygon fill="#181818" points="142.5889,430.2148,132.5889,434.2148,142.5889,438.2148,138.5889,434.2148" style="stroke:#181818;stroke-width:1;"/><line style="stroke:#181818;stroke-width:1;" x1="120.5889" x2="120.5889" y1="402.2148" y2="422.2148"/><polygon fill="#181818" points="116.5889,412.2148,120.5889,422.2148,124.5889,412.2148,120.5889,416.2148" style="stroke:#181818;stroke-width:1;"/><line style="stroke:#181818;stroke-width:1;" x1="120.5889" x2="120.5889" y1="299.8438" y2="319.8438"/><polygon fill="#181818" points="116.5889,309.8438,120.5889,319.8438,124.5889,309.8438,120.5889,313.8438" style="stroke:#181818;stroke-width:1;"/><line style="stroke:#181818;stroke-width:1;" x1="120.5889" x2="120.5889" y1="446.2148" y2="466.2148"/><polygon fill="#181818" points="116.5889,456.2148,120.5889,466.2148,124.5889,456.2148,120.5889,460.2148" style="stroke:#181818;stroke-width:1;"/><line style="stroke:#181818;stroke-width:1;" x1="120.5889" x2="120.5889" y1="500.1836" y2="520.1836"/><polygon fill="#181818" points="116.5889,510.1836,120.5889,520.1836,124.5889,510.1836,120.5889,514.1836" style="stroke:#181818;stroke-width:1;"/><line style="stroke:#181818;stroke-width:1;" x1="120.5889" x2="120.5889" y1="554.1523" y2="574.1523"/><polygon fill="#181818" points="116.5889,564.1523,120.5889,574.1523,124.5889,564.1523,120.5889,568.1523" style="stroke:#181818;stroke-width:1;"/><line style="stroke:#181818;stroke-width:1;" x1="120.5889" x2="120.5889" y1="608.1211" y2="628.1211"/><polygon fill="#181818" points="116.5889,618.1211,120.5889,628.1211,124.5889,618.1211,120.5889,622.1211" style="stroke:#181818;stroke-width:1;"/><!--SRC=[TKvB2eCm4Dtd5BFKXHU8YsBh0GGBNOznf0CniPcnaDjNIbiifRDuCE_74yManZRkjd8YE9EdcJHbQ56nDhPBqP78yzs0VTwHlMCAZjxUNcEYNV3E8y65Xkg8GYEqB8l7BBNX2Oh6VLKq0NqMbaC9UgK0HIOf3Mnd_pXtVUI5e0YnD1H6depT94qyhFgPSqBFGqBzsTUrVNMAy-8PWxv4qRWy0000]--></g></svg>