<svg xmlns="http://www.w3.org/2000/svg" xmlns:xlink="http://www.w3.org/1999/xlink" contentStyleType="text/css" data-diagram-type="DESCRIPTION" height="148px" preserveAspectRatio="none" style="width:3064px;height:148px;background:#FFFFFF;" version="1.1" viewBox="0 0 3064 148" width="3064px" zoomAndPan="magnify"><defs/><g><!--entity ESOC--><g class="entity" data-entity="ESOC" data-source-line="1" data-uid="ent0002" id="entity_ESOC"><ellipse cx="25.2637" cy="75.48" fill="#F1F1F1" rx="8" ry="8" style="stroke:#181818;stroke-width:0.5;"/><path d="M25.2637,83.48 L25.2637,110.48 M12.2637,91.48 L38.2637,91.48 M25.2637,110.48 L12.2637,125.48 M25.2637,110.48 L38.2637,125.48 " fill="none" style="stroke:#181818;stroke-width:0.5;"/><text fill="#000000" font-family="sans-serif" font-size="14" lengthAdjust="spacing" textLength="38.5273" x="6" y="139.9751">ESOC</text></g><!--entity Team--><g class="entity" data-entity="Team" data-source-line="2" data-uid="ent0003" id="entity_Team"><ellipse cx="2243.2609" cy="75.48" fill="#F1F1F1" rx="8" ry="8" style="stroke:#181818;stroke-width:0.5;"/><path d="M2243.2609,83.48 L2243.2609,110.48 M2230.2609,91.48 L2256.2609,91.48 M2243.2609,110.48 L2230.2609,125.48 M2243.2609,110.48 L2256.2609,125.48 " fill="none" style="stroke:#181818;stroke-width:0.5;"/><text fill="#000000" font-family="sans-serif" font-size="14" lengthAdjust="spacing" textLength="39.3818" x="2223.57" y="139.9751">Team</text></g><!--entity CoI--><g class="entity" data-entity="CoI" data-source-line="3" data-uid="ent0004" id="entity_CoI"><ellipse cx="2684.26" cy="75.48" fill="#F1F1F1" rx="8" ry="8" style="stroke:#181818;stroke-width:0.5;"/><path d="M2684.26,83.48 L2684.26,110.48 M2671.26,91.48 L2697.26,91.48 M2684.26,110.48 L2671.26,125.48 M2684.26,110.48 L2697.26,125.48 " fill="none" style="stroke:#181818;stroke-width:0.5;"/><text fill="#000000" font-family="sans-serif" font-size="14" lengthAdjust="spacing" textLength="22.4697" x="2673.0251" y="139.9751">CoI</text></g><!--entity PDS--><g class="entity" data-entity="PDS" data-source-line="4" data-uid="ent0005" id="entity_PDS"><ellipse cx="1731.2647" cy="75.48" fill="#F1F1F1" rx="8" ry="8" style="stroke:#181818;stroke-width:0.5;"/><path d="M1731.2647,83.48 L1731.2647,110.48 M1718.2647,91.48 L1744.2647,91.48 M1731.2647,110.48 L1718.2647,125.48 M1731.2647,110.48 L1744.2647,125.48 " fill="none" style="stroke:#181818;stroke-width:0.5;"/><text fill="#000000" font-family="sans-serif" font-size="14" lengthAdjust="spacing" textLength="28.1094" x="1717.21" y="139.9751">PDS</text></g><!--entity Data Acquisition Module--><g class="entity" data-entity="Data Acquisition Module" data-source-line="6" data-uid="ent0006" id="entity_Data Acquisition Module"><rect fill="#F1F1F1" height="46.2969" rx="2.5" ry="2.5" style="stroke:#181818;stroke-width:0.5;" width="210.1602" x="236.18" y="81.98"/><rect fill="#F1F1F1" height="10" style="stroke:#181818;stroke-width:0.5;" width="15" x="426.3402" y="86.98"/><rect fill="#F1F1F1" height="2" style="stroke:#181818;stroke-width:0.5;" width="4" x="424.3402" y="88.98"/><rect fill="#F1F1F1" height="2" style="stroke:#181818;stroke-width:0.5;" width="4" x="424.3402" y="92.98"/><text fill="#000000" font-family="sans-serif" font-size="14" lengthAdjust="spacing" textLength="170.1602" x="251.18" y="114.9751">Data Acquisition Module</text></g><!--entity Processing Engine--><g class="entity" data-entity="Processing Engine" data-source-line="7" data-uid="ent0008" id="entity_Processing Engine"><rect fill="#F1F1F1" height="46.2969" rx="2.5" ry="2.5" style="stroke:#181818;stroke-width:0.5;" width="167.7432" x="604.39" y="81.98"/><rect fill="#F1F1F1" height="10" style="stroke:#181818;stroke-width:0.5;" width="15" x="752.1332" y="86.98"/><rect fill="#F1F1F1" height="2" style="stroke:#181818;stroke-width:0.5;" width="4" x="750.1332" y="88.98"/><rect fill="#F1F1F1" height="2" style="stroke:#181818;stroke-width:0.5;" width="4" x="750.1332" y="92.98"/><text fill="#000000" font-family="sans-serif" font-size="14" lengthAdjust="spacing" textLength="127.7432" x="619.39" y="114.9751">Processing Engine</text></g><!--entity Data Processing Module--><g class="entity" data-entity="Data Processing Module" data-source-line="8" data-uid="ent0010" id="entity_Data Processing Module"><rect fill="#F1F1F1" height="46.2969" rx="2.5" ry="2.5" style="stroke:#181818;stroke-width:0.5;" width="208.5469" x="947.99" y="81.98"/><rect fill="#F1F1F1" height="10" style="stroke:#181818;stroke-width:0.5;" width="15" x="1136.5369" y="86.98"/><rect fill="#F1F1F1" height="2" style="stroke:#181818;stroke-width:0.5;" width="4" x="1134.5369" y="88.98"/><rect fill="#F1F1F1" height="2" style="stroke:#181818;stroke-width:0.5;" width="4" x="1134.5369" y="92.98"/><text fill="#000000" font-family="sans-serif" font-size="14" lengthAdjust="spacing" textLength="168.5469" x="962.99" y="114.9751">Data Processing Module</text></g><!--entity Storage System--><g class="entity" data-entity="Storage System" data-source-line="9" data-uid="ent0012" id="entity_Storage System"><rect fill="#F1F1F1" height="46.2969" rx="2.5" ry="2.5" style="stroke:#181818;stroke-width:0.5;" width="151.4326" x="2037.55" y="81.98"/><rect fill="#F1F1F1" height="10" style="stroke:#181818;stroke-width:0.5;" width="15" x="2168.9826" y="86.98"/><rect fill="#F1F1F1" height="2" style="stroke:#181818;stroke-width:0.5;" width="4" x="2166.9826" y="88.98"/><rect fill="#F1F1F1" height="2" style="stroke:#181818;stroke-width:0.5;" width="4" x="2166.9826" y="92.98"/><text fill="#000000" font-family="sans-serif" font-size="14" lengthAdjust="spacing" textLength="111.4326" x="2052.55" y="114.9751">Storage System</text></g><!--entity Web Server--><g class="entity" data-entity="Web Server" data-source-line="10" data-uid="ent0014" id="entity_Web Server"><rect fill="#F1F1F1" height="46.2969" rx="2.5" ry="2.5" style="stroke:#181818;stroke-width:0.5;" width="121.7031" x="2514.41" y="81.98"/><rect fill="#F1F1F1" height="10" style="stroke:#181818;stroke-width:0.5;" width="15" x="2616.1131" y="86.98"/><rect fill="#F1F1F1" height="2" style="stroke:#181818;stroke-width:0.5;" width="4" x="2614.1131" y="88.98"/><rect fill="#F1F1F1" height="2" style="stroke:#181818;stroke-width:0.5;" width="4" x="2614.1131" y="92.98"/><text fill="#000000" font-family="sans-serif" font-size="14" lengthAdjust="spacing" textLength="81.7031" x="2529.41" y="114.9751">Web Server</text></g><!--entity Co-Investigator Access Portal--><g class="entity" data-entity="Co-Investigator Access Portal" data-source-line="12" data-uid="ent0017" id="entity_Co-Investigator Access Portal"><rect fill="#F1F1F1" height="46.2969" rx="2.5" ry="2.5" style="stroke:#181818;stroke-width:0.5;" width="245.0371" x="2813.75" y="81.98"/><rect fill="#F1F1F1" height="10" style="stroke:#181818;stroke-width:0.5;" width="15" x="3038.7871" y="86.98"/><rect fill="#F1F1F1" height="2" style="stroke:#181818;stroke-width:0.5;" width="4" x="3036.7871" y="88.98"/><rect fill="#F1F1F1" height="2" style="stroke:#181818;stroke-width:0.5;" width="4" x="3036.7871" y="92.98"/><text fill="#000000" font-family="sans-serif" font-size="14" lengthAdjust="spacing" textLength="205.0371" x="2828.75" y="114.9751">Co-Investigator Access Portal</text></g><!--entity Data Distribution Network--><g class="entity" data-entity="Data Distribution Network" data-source-line="13" data-uid="ent0019" id="entity_Data Distribution Network"><rect fill="#F1F1F1" height="46.2969" rx="2.5" ry="2.5" style="stroke:#181818;stroke-width:0.5;" width="222.458" x="1780.03" y="81.98"/><rect fill="#F1F1F1" height="10" style="stroke:#181818;stroke-width:0.5;" width="15" x="1982.488" y="86.98"/><rect fill="#F1F1F1" height="2" style="stroke:#181818;stroke-width:0.5;" width="4" x="1980.488" y="88.98"/><rect fill="#F1F1F1" height="2" style="stroke:#181818;stroke-width:0.5;" width="4" x="1980.488" y="92.98"/><text fill="#000000" font-family="sans-serif" font-size="14" lengthAdjust="spacing" textLength="182.458" x="1795.03" y="114.9751">Data Distribution Network</text></g><!--entity Data Calibration Module--><g class="entity" data-entity="Data Calibration Module" data-source-line="14" data-uid="ent0021" id="entity_Data Calibration Module"><rect fill="#F1F1F1" height="46.2969" rx="2.5" ry="2.5" style="stroke:#181818;stroke-width:0.5;" width="209.4082" x="1286.56" y="81.98"/><rect fill="#F1F1F1" height="10" style="stroke:#181818;stroke-width:0.5;" width="15" x="1475.9682" y="86.98"/><rect fill="#F1F1F1" height="2" style="stroke:#181818;stroke-width:0.5;" width="4" x="1473.9682" y="88.98"/><rect fill="#F1F1F1" height="2" style="stroke:#181818;stroke-width:0.5;" width="4" x="1473.9682" y="92.98"/><text fill="#000000" font-family="sans-serif" font-size="14" lengthAdjust="spacing" textLength="169.4082" x="1301.56" y="114.9751">Data Calibration Module</text></g><!--link ESOC to Data Acquisition Module--><g class="link" data-entity-1="ESOC" data-entity-2="Data Acquisition Module" data-source-line="6" data-uid="lnk7" id="link_ESOC_Data Acquisition Module"><path d="M44.56,105.13 C81.87,105.13 160.38,105.13 229.7,105.13 " fill="none" id="ESOC-to-Data Acquisition Module" style="stroke:#181818;stroke-width:1;"/><polygon fill="#181818" points="235.7,105.13,226.7,101.13,230.7,105.13,226.7,109.13,235.7,105.13" style="stroke:#181818;stroke-width:1;"/><text fill="#000000" font-family="sans-serif" font-size="13" lengthAdjust="spacing" textLength="155.1367" x="62.86" y="98.1969">Acquire Telemetry Data</text></g><!--link Data Acquisition Module to Processing Engine--><g class="link" data-entity-1="Data Acquisition Module" data-entity-2="Processing Engine" data-source-line="7" data-uid="lnk9" id="link_Data Acquisition Module_Processing Engine"><path d="M446.79,105.13 C497.23,105.13 550.79,105.13 598.13,105.13 " fill="none" id="Data Acquisition Module-to-Processing Engine" style="stroke:#181818;stroke-width:1;"/><polygon fill="#181818" points="604.13,105.13,595.13,101.13,599.13,105.13,595.13,109.13,604.13,105.13" style="stroke:#181818;stroke-width:1;"/><text fill="#000000" font-family="sans-serif" font-size="13" lengthAdjust="spacing" textLength="122.0273" x="464.37" y="98.1969">Process Data Daily</text></g><!--link Processing Engine to Data Processing Module--><g class="link" data-entity-1="Processing Engine" data-entity-2="Data Processing Module" data-source-line="8" data-uid="lnk11" id="link_Processing Engine_Data Processing Module"><path d="M772.23,105.13 C824.4,105.13 885.9,105.13 941.55,105.13 " fill="none" id="Processing Engine-to-Data Processing Module" style="stroke:#181818;stroke-width:1;"/><polygon fill="#181818" points="947.55,105.13,938.55,101.13,942.55,105.13,938.55,109.13,947.55,105.13" style="stroke:#181818;stroke-width:1;"/><text fill="#000000" font-family="sans-serif" font-size="13" lengthAdjust="spacing" textLength="139.5278" x="790.56" y="98.1969">Process Science Data</text></g><!--link Data Processing Module to Storage System--><g class="link" data-entity-1="Data Processing Module" data-entity-2="Storage System" data-source-line="9" data-uid="lnk13" id="link_Data Processing Module_Storage System"><path d="M1157.03,82.71 C1311.28,52.65 1608.51,6 1860.76,32.76 C1932.86,40.41 1951.01,45.53 2020.26,66.98 C2033.43,71.06 2041.7684,74.0087 2054.6884,79.2387 " fill="none" id="Data Processing Module-to-Storage System" style="stroke:#181818;stroke-width:1;"/><polygon fill="#181818" points="2060.25,81.49,2053.4085,74.4053,2055.6153,79.6139,2050.4067,81.8207,2060.25,81.49" style="stroke:#181818;stroke-width:1;"/><text fill="#000000" font-family="sans-serif" font-size="13" lengthAdjust="spacing" textLength="69.8179" x="1790.76" y="33.0469">Store Data</text></g><!--link Storage System to Web Server--><g class="link" data-entity-1="Storage System" data-entity-2="Web Server" data-source-line="10" data-uid="lnk15" id="link_Storage System_Web Server"><path d="M2148.58,81.57 C2176.79,64.25 2218.04,42.15 2257.76,32.76 C2298.2,23.2 2404.53,22.35 2444.76,32.76 C2481.26,42.2 2513.4687,60.9011 2538.7587,78.2111 " fill="none" id="Storage System-to-Web Server" style="stroke:#181818;stroke-width:1;"/><polygon fill="#181818" points="2543.71,81.6,2538.5424,73.2157,2539.5839,78.7759,2534.0238,79.8174,2543.71,81.6" style="stroke:#181818;stroke-width:1;"/><text fill="#000000" font-family="sans-serif" font-size="13" lengthAdjust="spacing" textLength="185.3516" x="2258.76" y="33.0469">Provide Web-Based Displays</text></g><!--link Team to Web Server--><g class="link" data-entity-1="Team" data-entity-2="Web Server" data-source-line="11" data-uid="lnk16" id="link_Team_Web Server"><path d="M2263.04,105.13 C2311.48,105.13 2431.67,105.13 2507.98,105.13 " fill="none" id="Team-to-Web Server" style="stroke:#181818;stroke-width:1;"/><polygon fill="#181818" points="2513.98,105.13,2504.98,101.13,2508.98,105.13,2504.98,109.13,2513.98,105.13" style="stroke:#181818;stroke-width:1;"/><text fill="#000000" font-family="sans-serif" font-size="13" lengthAdjust="spacing" textLength="215.7759" x="2281.18" y="98.1969">Access Science Analysis Displays</text></g><!--link CoI to Co-Investigator Access Portal--><g class="link" data-entity-1="CoI" data-entity-2="Co-Investigator Access Portal" data-source-line="12" data-uid="lnk18" id="link_CoI_Co-Investigator Access Portal"><path d="M2698.17,105.13 C2720.72,105.13 2761.38,105.13 2807.47,105.13 " fill="none" id="CoI-to-Co-Investigator Access Portal" style="stroke:#181818;stroke-width:1;"/><polygon fill="#181818" points="2813.47,105.13,2804.47,101.13,2808.47,105.13,2804.47,109.13,2813.47,105.13" style="stroke:#181818;stroke-width:1;"/><text fill="#000000" font-family="sans-serif" font-size="13" lengthAdjust="spacing" textLength="79.9043" x="2716.25" y="98.1969">Access Data</text></g><!--link Data Processing Module to Data Distribution Network--><g class="link" data-entity-1="Data Processing Module" data-entity-2="Data Distribution Network" data-source-line="13" data-uid="lnk20" id="link_Data Processing Module_Data Distribution Network"><path d="M1122.81,81.56 C1178.74,64.17 1259.29,41.99 1331.76,32.76 C1460.78,16.33 1744.16,63.18 1763.26,66.98 C1782.14,70.74 1796.4769,74.3664 1815.0169,79.8564 " fill="none" id="Data Processing Module-to-Data Distribution Network" style="stroke:#181818;stroke-width:1;"/><polygon fill="#181818" points="1820.77,81.56,1813.2761,75.1693,1815.9758,80.1404,1811.0047,82.84,1820.77,81.56" style="stroke:#181818;stroke-width:1;"/><text fill="#000000" font-family="sans-serif" font-size="13" lengthAdjust="spacing" textLength="99.2075" x="1332.76" y="33.0469">Distribute Data</text></g><!--link Data Processing Module to Data Calibration Module--><g class="link" data-entity-1="Data Processing Module" data-entity-2="Data Calibration Module" data-source-line="14" data-uid="lnk22" id="link_Data Processing Module_Data Calibration Module"><path d="M1156.74,105.13 C1197.89,105.13 1239.06,105.13 1280.26,105.13 " fill="none" id="Data Processing Module-to-Data Calibration Module" style="stroke:#181818;stroke-width:1;"/><polygon fill="#181818" points="1286.26,105.13,1277.26,101.13,1281.26,105.13,1277.26,109.13,1286.26,105.13" style="stroke:#181818;stroke-width:1;"/><text fill="#000000" font-family="sans-serif" font-size="13" lengthAdjust="spacing" textLength="94.0977" x="1174.55" y="98.1969">Calibrate Data</text></g><!--link Data Calibration Module to PDS--><g class="link" data-entity-1="Data Calibration Module" data-entity-2="PDS" data-source-line="15" data-uid="lnk23" id="link_Data Calibration Module_PDS"><path d="M1496.05,105.13 C1576.24,105.13 1673.26,105.13 1710.78,105.13 " fill="none" id="Data Calibration Module-to-PDS" style="stroke:#181818;stroke-width:1;"/><polygon fill="#181818" points="1716.78,105.13,1707.78,101.13,1711.78,105.13,1707.78,109.13,1716.78,105.13" style="stroke:#181818;stroke-width:1;"/><text fill="#000000" font-family="sans-serif" font-size="13" lengthAdjust="spacing" textLength="185.2627" x="1514.09" y="98.1969">Provide PDS-Compliant Data</text></g><!--SRC=[ZPB1RiCW38RlF8LV82-mmwGiwQ67RPMOjCEqWqEio1g15aYclFs09crQPTekoFpu_p0sg89ri9ElbS0SlX7sSrZP_HmTQYb4IeBY4Jvg30YbEWtiER0ry6pRGTCdF9nLHv6YgQVW9aZ9udTBuXsSLUGzcmvsfcEJIREO_N5XFOcjn4izgxDhEGj4AYQZQ5tCHdvYoVXSx0Zav0FrYP6KnNb_cXplr80aDvARRnov9OXgyOIUMgZP7pLENgJERZXATLDYQL1FdltL5yUGRPKjzcOa7xZ3D9JPUB0ke5wH_dxakQViW-DcoEDueV1jtLUYN7JwBwb2pOt3kw-mg3UOhTJ8YVzhrRkuAohR7pMZ2Tdz0m00]--></g></svg>