<svg xmlns="http://www.w3.org/2000/svg" xmlns:xlink="http://www.w3.org/1999/xlink" contentStyleType="text/css" data-diagram-type="DESCRIPTION" height="550px" preserveAspectRatio="none" style="width:223px;height:550px;background:#FFFFFF;" version="1.1" viewBox="0 0 223 550" width="223px" zoomAndPan="magnify"><defs/><g><!--cluster Frontend--><g class="cluster" data-entity="Frontend" data-source-line="1" data-uid="ent0002" id="cluster_Frontend"><path d="M10.5,6 L83.7285,6 A3.75,3.75 0 0 1 86.2285,8.5 L93.2285,28.2969 L211.5,28.2969 A2.5,2.5 0 0 1 214,30.7969 L214,207.09 A2.5,2.5 0 0 1 211.5,209.59 L10.5,209.59 A2.5,2.5 0 0 1 8,207.09 L8,8.5 A2.5,2.5 0 0 1 10.5,6 " fill="none" style="stroke:#000000;stroke-width:1.5;"/><line style="stroke:#000000;stroke-width:1.5;" x1="8" x2="93.2285" y1="28.2969" y2="28.2969"/><text fill="#000000" font-family="sans-serif" font-size="14" font-weight="bold" lengthAdjust="spacing" textLength="72.2285" x="12" y="20.9951">Frontend</text></g><!--cluster Backend--><g class="cluster" data-entity="Backend" data-source-line="6" data-uid="ent0005" id="cluster_Backend"><path d="M8.5,233.59 L76.7109,233.59 A3.75,3.75 0 0 1 79.2109,236.09 L86.2109,255.8869 L213.5,255.8869 A2.5,2.5 0 0 1 216,258.3869 L216,540.98 A2.5,2.5 0 0 1 213.5,543.48 L8.5,543.48 A2.5,2.5 0 0 1 6,540.98 L6,236.09 A2.5,2.5 0 0 1 8.5,233.59 " fill="none" style="stroke:#000000;stroke-width:1.5;"/><line style="stroke:#000000;stroke-width:1.5;" x1="6" x2="86.2109" y1="255.8869" y2="255.8869"/><text fill="#000000" font-family="sans-serif" font-size="14" font-weight="bold" lengthAdjust="spacing" textLength="67.2109" x="10" y="248.5851">Backend</text></g><!--entity HTML/CSS/JS--><g class="entity" data-entity="HTML/CSS/JS" data-source-line="2" data-uid="ent0003" id="entity_HTML/CSS/JS"><rect fill="#F1F1F1" height="46.2969" rx="2.5" ry="2.5" style="stroke:#181818;stroke-width:0.5;" width="128.9561" x="46.52" y="41"/><rect fill="#F1F1F1" height="10" style="stroke:#181818;stroke-width:0.5;" width="15" x="155.4761" y="46"/><rect fill="#F1F1F1" height="2" style="stroke:#181818;stroke-width:0.5;" width="4" x="153.4761" y="48"/><rect fill="#F1F1F1" height="2" style="stroke:#181818;stroke-width:0.5;" width="4" x="153.4761" y="52"/><text fill="#000000" font-family="sans-serif" font-size="14" lengthAdjust="spacing" textLength="88.9561" x="61.52" y="73.9951">HTML/CSS/JS</text></g><!--entity React Components--><g class="entity" data-entity="React Components" data-source-line="3" data-uid="ent0004" id="entity_React Components"><rect fill="#F1F1F1" height="46.2969" rx="2.5" ry="2.5" style="stroke:#181818;stroke-width:0.5;" width="173.1299" x="24.44" y="147.29"/><rect fill="#F1F1F1" height="10" style="stroke:#181818;stroke-width:0.5;" width="15" x="177.5699" y="152.29"/><rect fill="#F1F1F1" height="2" style="stroke:#181818;stroke-width:0.5;" width="4" x="175.5699" y="154.29"/><rect fill="#F1F1F1" height="2" style="stroke:#181818;stroke-width:0.5;" width="4" x="175.5699" y="158.29"/><text fill="#000000" font-family="sans-serif" font-size="14" lengthAdjust="spacing" textLength="133.1299" x="39.44" y="180.2851">React Components</text></g><!--entity Node.js Server--><g class="entity" data-entity="Node.js Server" data-source-line="7" data-uid="ent0006" id="entity_Node.js Server"><rect fill="#F1F1F1" height="46.2969" rx="2.5" ry="2.5" style="stroke:#181818;stroke-width:0.5;" width="142.5322" x="39.73" y="268.59"/><rect fill="#F1F1F1" height="10" style="stroke:#181818;stroke-width:0.5;" width="15" x="162.2622" y="273.59"/><rect fill="#F1F1F1" height="2" style="stroke:#181818;stroke-width:0.5;" width="4" x="160.2622" y="275.59"/><rect fill="#F1F1F1" height="2" style="stroke:#181818;stroke-width:0.5;" width="4" x="160.2622" y="279.59"/><text fill="#000000" font-family="sans-serif" font-size="14" lengthAdjust="spacing" textLength="102.5322" x="54.73" y="301.5851">Node.js Server</text></g><!--entity Express Framework--><g class="entity" data-entity="Express Framework" data-source-line="8" data-uid="ent0007" id="entity_Express Framework"><rect fill="#F1F1F1" height="46.2969" rx="2.5" ry="2.5" style="stroke:#181818;stroke-width:0.5;" width="177.9424" x="22.03" y="374.89"/><rect fill="#F1F1F1" height="10" style="stroke:#181818;stroke-width:0.5;" width="15" x="179.9724" y="379.89"/><rect fill="#F1F1F1" height="2" style="stroke:#181818;stroke-width:0.5;" width="4" x="177.9724" y="381.89"/><rect fill="#F1F1F1" height="2" style="stroke:#181818;stroke-width:0.5;" width="4" x="177.9724" y="385.89"/><text fill="#000000" font-family="sans-serif" font-size="14" lengthAdjust="spacing" textLength="137.9424" x="37.03" y="407.8851">Express Framework</text></g><!--entity Database--><g class="entity" data-entity="Database" data-source-line="9" data-uid="ent0008" id="entity_Database"><rect fill="#F1F1F1" height="46.2969" rx="2.5" ry="2.5" style="stroke:#181818;stroke-width:0.5;" width="106.8008" x="57.6" y="481.18"/><rect fill="#F1F1F1" height="10" style="stroke:#181818;stroke-width:0.5;" width="15" x="144.4008" y="486.18"/><rect fill="#F1F1F1" height="2" style="stroke:#181818;stroke-width:0.5;" width="4" x="142.4008" y="488.18"/><rect fill="#F1F1F1" height="2" style="stroke:#181818;stroke-width:0.5;" width="4" x="142.4008" y="492.18"/><text fill="#000000" font-family="sans-serif" font-size="14" lengthAdjust="spacing" textLength="66.8008" x="72.6" y="514.1751">Database</text></g><!--link HTML/CSS/JS to React Components--><g class="link" data-entity-1="HTML/CSS/JS" data-entity-2="React Components" data-source-line="12" data-uid="lnk9" id="link_HTML/CSS/JS_React Components"><path d="M111,87.77 C111,105.27 111,123.37 111,140.85 " fill="none" id="HTML/CSS/JS-to-React Components" style="stroke:#181818;stroke-width:1;"/><polygon fill="#181818" points="111,146.85,115,137.85,111,141.85,107,137.85,111,146.85" style="stroke:#181818;stroke-width:1;"/></g><!--link React Components to Node.js Server--><g class="link" data-entity-1="React Components" data-entity-2="Node.js Server" data-source-line="13" data-uid="lnk10" id="link_React Components_Node.js Server"><path d="M111,193.88 C111,215.21 111,241.1 111,262.4 " fill="none" id="React Components-to-Node.js Server" style="stroke:#181818;stroke-width:1;"/><polygon fill="#181818" points="111,268.4,115,259.4,111,263.4,107,259.4,111,268.4" style="stroke:#181818;stroke-width:1;"/></g><!--link Node.js Server to Express Framework--><g class="link" data-entity-1="Node.js Server" data-entity-2="Express Framework" data-source-line="14" data-uid="lnk11" id="link_Node.js Server_Express Framework"><path d="M111,315.37 C111,332.86 111,350.97 111,368.45 " fill="none" id="Node.js Server-to-Express Framework" style="stroke:#181818;stroke-width:1;"/><polygon fill="#181818" points="111,374.45,115,365.45,111,369.45,107,365.45,111,374.45" style="stroke:#181818;stroke-width:1;"/></g><!--link Express Framework to Database--><g class="link" data-entity-1="Express Framework" data-entity-2="Database" data-source-line="15" data-uid="lnk12" id="link_Express Framework_Database"><path d="M111,421.67 C111,439.16 111,457.26 111,474.74 " fill="none" id="Express Framework-to-Database" style="stroke:#181818;stroke-width:1;"/><polygon fill="#181818" points="111,480.74,115,471.74,111,475.74,107,471.74,111,480.74" style="stroke:#181818;stroke-width:1;"/></g><!--SRC=[AqXCpavCJrLGSYlApoj9pKjHKgZcKb28zWZnzT5t3WxMzmgE1V63KXEJInISytCBylDIyqgAOxbgkRWAO9gTW0o4Nh_yb5Izh6A5uDIYijGYi7RNYeAYrE9Y1RUYnDpKyloYRB2eIs99Ob9YSIhOC1Gh5NHrxR1PYYa4KObk9Re0H1KMLs0HWwY5kmq0]--></g></svg>