<svg xmlns="http://www.w3.org/2000/svg" xmlns:xlink="http://www.w3.org/1999/xlink" contentStyleType="text/css" data-diagram-type="DESCRIPTION" height="352px" preserveAspectRatio="none" style="width:416px;height:352px;background:#FFFFFF;" version="1.1" viewBox="0 0 416 352" width="416px" zoomAndPan="magnify"><defs/><g><!--cluster Web Server--><g class="cluster" data-entity="Web Server" data-source-line="1" data-uid="ent0002" id="cluster_Web Server"><rect fill="none" height="97.29" rx="2.5" ry="2.5" style="stroke:#181818;stroke-width:1;" width="387" x="23" y="128.3"/><rect fill="none" height="10" style="stroke:#181818;stroke-width:1;" width="15" x="390" y="133.3"/><rect fill="none" height="2" style="stroke:#181818;stroke-width:1;" width="4" x="388" y="135.3"/><rect fill="none" height="2" style="stroke:#181818;stroke-width:1;" width="4" x="388" y="139.3"/><text fill="#000000" font-family="sans-serif" font-size="14" font-weight="bold" lengthAdjust="spacing" textLength="91.8408" x="170.5796" y="154.2951">Web Server</text></g><!--cluster Database--><g class="cluster" data-entity="Database" data-source-line="6" data-uid="ent0005" id="cluster_Database"><rect fill="none" height="97.3" rx="2.5" ry="2.5" style="stroke:#181818;stroke-width:1;" width="170" x="25" y="249.59"/><rect fill="none" height="10" style="stroke:#181818;stroke-width:1;" width="15" x="175" y="254.59"/><rect fill="none" height="2" style="stroke:#181818;stroke-width:1;" width="4" x="173" y="256.59"/><rect fill="none" height="2" style="stroke:#181818;stroke-width:1;" width="4" x="173" y="260.59"/><text fill="#000000" font-family="sans-serif" font-size="14" font-weight="bold" lengthAdjust="spacing" textLength="74.5049" x="72.7476" y="275.5851">Database</text></g><!--cluster Frontend--><g class="cluster" data-entity="Frontend" data-source-line="10" data-uid="ent0007" id="cluster_Frontend"><rect fill="none" height="97.3" rx="2.5" ry="2.5" style="stroke:#181818;stroke-width:1;" width="206" x="7" y="7"/><rect fill="none" height="10" style="stroke:#181818;stroke-width:1;" width="15" x="193" y="12"/><rect fill="none" height="2" style="stroke:#181818;stroke-width:1;" width="4" x="191" y="14"/><rect fill="none" height="2" style="stroke:#181818;stroke-width:1;" width="4" x="191" y="18"/><text fill="#000000" font-family="sans-serif" font-size="14" font-weight="bold" lengthAdjust="spacing" textLength="72.2285" x="73.8857" y="32.9951">Frontend</text></g><!--entity Node.js Server--><g class="entity" data-entity="Node.js Server" data-source-line="2" data-uid="ent0003" id="entity_Node.js Server"><rect fill="#F1F1F1" height="46.2969" rx="2.5" ry="2.5" style="stroke:#181818;stroke-width:0.5;" width="142.5322" x="38.73" y="163.3"/><rect fill="#F1F1F1" height="10" style="stroke:#181818;stroke-width:0.5;" width="15" x="161.2622" y="168.3"/><rect fill="#F1F1F1" height="2" style="stroke:#181818;stroke-width:0.5;" width="4" x="159.2622" y="170.3"/><rect fill="#F1F1F1" height="2" style="stroke:#181818;stroke-width:0.5;" width="4" x="159.2622" y="174.3"/><text fill="#000000" font-family="sans-serif" font-size="14" lengthAdjust="spacing" textLength="102.5322" x="53.73" y="196.2951">Node.js Server</text></g><!--entity Express Framework--><g class="entity" data-entity="Express Framework" data-source-line="3" data-uid="ent0004" id="entity_Express Framework"><rect fill="#F1F1F1" height="46.2969" rx="2.5" ry="2.5" style="stroke:#181818;stroke-width:0.5;" width="177.9424" x="216.03" y="163.3"/><rect fill="#F1F1F1" height="10" style="stroke:#181818;stroke-width:0.5;" width="15" x="373.9724" y="168.3"/><rect fill="#F1F1F1" height="2" style="stroke:#181818;stroke-width:0.5;" width="4" x="371.9724" y="170.3"/><rect fill="#F1F1F1" height="2" style="stroke:#181818;stroke-width:0.5;" width="4" x="371.9724" y="174.3"/><text fill="#000000" font-family="sans-serif" font-size="14" lengthAdjust="spacing" textLength="137.9424" x="231.03" y="196.2951">Express Framework</text></g><!--entity SQL Database--><g class="entity" data-entity="SQL Database" data-source-line="7" data-uid="ent0006" id="entity_SQL Database"><rect fill="#F1F1F1" height="46.2969" rx="2.5" ry="2.5" style="stroke:#181818;stroke-width:0.5;" width="138.957" x="40.52" y="284.59"/><rect fill="#F1F1F1" height="10" style="stroke:#181818;stroke-width:0.5;" width="15" x="159.477" y="289.59"/><rect fill="#F1F1F1" height="2" style="stroke:#181818;stroke-width:0.5;" width="4" x="157.477" y="291.59"/><rect fill="#F1F1F1" height="2" style="stroke:#181818;stroke-width:0.5;" width="4" x="157.477" y="295.59"/><text fill="#000000" font-family="sans-serif" font-size="14" lengthAdjust="spacing" textLength="98.957" x="55.52" y="317.5851">SQL Database</text></g><!--entity React Components--><g class="entity" data-entity="React Components" data-source-line="11" data-uid="ent0008" id="entity_React Components"><rect fill="#F1F1F1" height="46.2969" rx="2.5" ry="2.5" style="stroke:#181818;stroke-width:0.5;" width="173.1299" x="23.44" y="42"/><rect fill="#F1F1F1" height="10" style="stroke:#181818;stroke-width:0.5;" width="15" x="176.5699" y="47"/><rect fill="#F1F1F1" height="2" style="stroke:#181818;stroke-width:0.5;" width="4" x="174.5699" y="49"/><rect fill="#F1F1F1" height="2" style="stroke:#181818;stroke-width:0.5;" width="4" x="174.5699" y="53"/><text fill="#000000" font-family="sans-serif" font-size="14" lengthAdjust="spacing" textLength="133.1299" x="38.44" y="74.9951">React Components</text></g><!--link React Components to Node.js Server--><g class="link" data-entity-1="React Components" data-entity-2="Node.js Server" data-source-line="14" data-uid="lnk9" id="link_React Components_Node.js Server"><path d="M110,88.59 C110,109.92 110,135.81 110,157.11 " fill="none" id="React Components-to-Node.js Server" style="stroke:#181818;stroke-width:1;"/><polygon fill="#181818" points="110,163.11,114,154.11,110,158.11,106,154.11,110,163.11" style="stroke:#181818;stroke-width:1;"/></g><!--link Node.js Server to SQL Database--><g class="link" data-entity-1="Node.js Server" data-entity-2="SQL Database" data-source-line="15" data-uid="lnk10" id="link_Node.js Server_SQL Database"><path d="M110,209.88 C110,231.21 110,257.11 110,278.4 " fill="none" id="Node.js Server-to-SQL Database" style="stroke:#181818;stroke-width:1;"/><polygon fill="#181818" points="110,284.4,114,275.4,110,279.4,106,275.4,110,284.4" style="stroke:#181818;stroke-width:1;"/></g><!--SRC=[IyxFBSZFIyqhKL0AJqrI24ujAaijKbAevb9GYFRBJqdLoog62iQ2X5mh2efIYuiLt8eISrFByukoOxbgkRYI4OQu99Oa9YKMfqAD20xqKO09eIjrAyhFAqdDIu4g3KfDJ2vHS8R95uELOuegwEhQOJeDNG2Y2iLs0000]--></g></svg>