<svg xmlns="http://www.w3.org/2000/svg" xmlns:xlink="http://www.w3.org/1999/xlink" contentStyleType="text/css" data-diagram-type="DESCRIPTION" height="283px" preserveAspectRatio="none" style="width:403px;height:283px;background:#FFFFFF;" version="1.1" viewBox="0 0 403 283" width="403px" zoomAndPan="magnify"><defs/><g><!--entity User--><g class="entity" data-entity="User" data-source-line="1" data-uid="ent0002" id="entity_User"><rect fill="#F1F1F1" height="46.2969" rx="2.5" ry="2.5" style="stroke:#181818;stroke-width:0.5;" width="71.9102" x="100.22" y="7"/><rect fill="#F1F1F1" height="10" style="stroke:#181818;stroke-width:0.5;" width="15" x="152.1302" y="12"/><rect fill="#F1F1F1" height="2" style="stroke:#181818;stroke-width:0.5;" width="4" x="150.1302" y="14"/><rect fill="#F1F1F1" height="2" style="stroke:#181818;stroke-width:0.5;" width="4" x="150.1302" y="18"/><text fill="#000000" font-family="sans-serif" font-size="14" lengthAdjust="spacing" textLength="31.9102" x="115.22" y="39.9951">User</text></g><!--entity Admin--><g class="entity" data-entity="Admin" data-source-line="2" data-uid="ent0003" id="entity_Admin"><rect fill="#F1F1F1" height="46.2969" rx="2.5" ry="2.5" style="stroke:#181818;stroke-width:0.5;" width="84.8643" x="206.74" y="7"/><rect fill="#F1F1F1" height="10" style="stroke:#181818;stroke-width:0.5;" width="15" x="271.6043" y="12"/><rect fill="#F1F1F1" height="2" style="stroke:#181818;stroke-width:0.5;" width="4" x="269.6043" y="14"/><rect fill="#F1F1F1" height="2" style="stroke:#181818;stroke-width:0.5;" width="4" x="269.6043" y="18"/><text fill="#000000" font-family="sans-serif" font-size="14" lengthAdjust="spacing" textLength="44.8643" x="221.74" y="39.9951">Admin</text></g><!--entity GameInterface--><g class="entity" data-entity="GameInterface" data-source-line="3" data-uid="ent0004" id="entity_GameInterface"><ellipse cx="192.17" cy="142.29" fill="#F1F1F1" rx="8" ry="8" style="stroke:#181818;stroke-width:0.5;"/><text fill="#000000" font-family="sans-serif" font-size="14" lengthAdjust="spacing" textLength="104.3574" x="139.9913" y="172.2851">GameInterface</text></g><!--entity FeedbackModule--><g class="entity" data-entity="FeedbackModule" data-source-line="4" data-uid="ent0005" id="entity_FeedbackModule"><rect fill="#F1F1F1" height="46.2969" rx="2.5" ry="2.5" style="stroke:#181818;stroke-width:0.5;" width="158.3438" x="7" y="231.29"/><rect fill="#F1F1F1" height="10" style="stroke:#181818;stroke-width:0.5;" width="15" x="145.3438" y="236.29"/><rect fill="#F1F1F1" height="2" style="stroke:#181818;stroke-width:0.5;" width="4" x="143.3438" y="238.29"/><rect fill="#F1F1F1" height="2" style="stroke:#181818;stroke-width:0.5;" width="4" x="143.3438" y="242.29"/><text fill="#000000" font-family="sans-serif" font-size="14" lengthAdjust="spacing" textLength="118.3438" x="22" y="264.2851">FeedbackModule</text></g><!--entity InputValidationModule--><g class="entity" data-entity="InputValidationModule" data-source-line="5" data-uid="ent0006" id="entity_InputValidationModule"><rect fill="#F1F1F1" height="46.2969" rx="2.5" ry="2.5" style="stroke:#181818;stroke-width:0.5;" width="197.377" x="200.48" y="231.29"/><rect fill="#F1F1F1" height="10" style="stroke:#181818;stroke-width:0.5;" width="15" x="377.857" y="236.29"/><rect fill="#F1F1F1" height="2" style="stroke:#181818;stroke-width:0.5;" width="4" x="375.857" y="238.29"/><rect fill="#F1F1F1" height="2" style="stroke:#181818;stroke-width:0.5;" width="4" x="375.857" y="242.29"/><text fill="#000000" font-family="sans-serif" font-size="14" lengthAdjust="spacing" textLength="157.377" x="215.48" y="264.2851">InputValidationModule</text></g><!--link User to GameInterface--><g class="link" data-entity-1="User" data-entity-2="GameInterface" data-source-line="7" data-uid="lnk7" id="link_User_GameInterface"><path d="M147.64,53.7 C160.25,78.5 177.099,111.6524 185.459,128.0824 " fill="none" id="User-to-GameInterface" style="stroke:#181818;stroke-width:1;"/><polygon fill="#181818" points="188.18,133.43,187.6636,123.5947,185.9125,128.9737,180.5335,127.2227,188.18,133.43" style="stroke:#181818;stroke-width:1;"/></g><!--link Admin to GameInterface--><g class="link" data-entity-1="Admin" data-entity-2="GameInterface" data-source-line="8" data-uid="lnk8" id="link_Admin_GameInterface"><path d="M237.5,53.7 C224.67,78.5 207.497,111.6709 198.997,128.1009 " fill="none" id="Admin-to-GameInterface" style="stroke:#181818;stroke-width:1;"/><polygon fill="#181818" points="196.24,133.43,203.9282,127.2744,198.5375,128.9891,196.8227,123.5984,196.24,133.43" style="stroke:#181818;stroke-width:1;"/></g><!--link GameInterface to FeedbackModule--><g class="link" data-entity-1="GameInterface" data-entity-2="FeedbackModule" data-source-line="9" data-uid="lnk9" id="link_GameInterface_FeedbackModule"><path d="M184.55,151.21 C168.69,167.69 135.8198,201.8461 111.9898,226.6161 " fill="none" id="GameInterface-to-FeedbackModule" style="stroke:#181818;stroke-width:1;"/><polygon fill="#181818" points="107.83,230.94,116.9523,227.2274,111.2965,227.3368,111.1871,221.681,107.83,230.94" style="stroke:#181818;stroke-width:1;"/></g><!--link GameInterface to InputValidationModule--><g class="link" data-entity-1="GameInterface" data-entity-2="InputValidationModule" data-source-line="10" data-uid="lnk10" id="link_GameInterface_InputValidationModule"><path d="M199.87,151.21 C215.87,167.69 249.0695,201.8661 273.1295,226.6361 " fill="none" id="GameInterface-to-InputValidationModule" style="stroke:#181818;stroke-width:1;"/><polygon fill="#181818" points="277.31,230.94,273.9085,221.6972,273.8262,227.3534,268.17,227.2712,277.31,230.94" style="stroke:#181818;stroke-width:1;"/></g><!--SRC=[IyxFBSZFIyqhKGWjJYtYIePp7LDoC_EuClDAKelI4fDJ5TmJSrCzOJmaTMwfgIb9YSdPllaffJd84fvv1QKbOOavcIc99PdvUL1vBf0r2hgwTcW6Wgt38ex20ykZMOYf0Al50000]--></g></svg>