<svg xmlns="http://www.w3.org/2000/svg" xmlns:xlink="http://www.w3.org/1999/xlink" contentStyleType="text/css" data-diagram-type="DESCRIPTION" height="399px" preserveAspectRatio="none" style="width:240px;height:399px;background:#FFFFFF;" version="1.1" viewBox="0 0 240 399" width="240px" zoomAndPan="magnify"><defs/><g><!--cluster User's Computer--><g class="cluster" data-entity="User's Computer" data-source-line="1" data-uid="ent0002" id="cluster_User's Computer"><polygon fill="none" points="16,16,26,6,223,6,223,98.3,213,108.3,16,108.3,16,16" style="stroke:#181818;stroke-width:1;"/><line style="stroke:#181818;stroke-width:1;" x1="213" x2="223" y1="16" y2="6"/><line style="stroke:#181818;stroke-width:1;" x1="16" x2="213" y1="16" y2="16"/><line style="stroke:#181818;stroke-width:1;" x1="213" x2="213" y1="16" y2="108.3"/><text fill="#000000" font-family="sans-serif" font-size="14" font-weight="bold" lengthAdjust="spacing" textLength="131.1543" x="49.9229" y="31.9951">User's Computer</text></g><!--cluster Server--><g class="cluster" data-entity="Server" data-source-line="5" data-uid="ent0004" id="cluster_Server"><polygon fill="none" points="42,167.3,52,157.3,196,157.3,196,372.89,186,382.89,42,382.89,42,167.3" style="stroke:#181818;stroke-width:1;"/><line style="stroke:#181818;stroke-width:1;" x1="186" x2="196" y1="167.3" y2="157.3"/><line style="stroke:#181818;stroke-width:1;" x1="42" x2="186" y1="167.3" y2="167.3"/><line style="stroke:#181818;stroke-width:1;" x1="186" x2="186" y1="167.3" y2="382.89"/><text fill="#000000" font-family="sans-serif" font-size="14" font-weight="bold" lengthAdjust="spacing" textLength="52.0078" x="88.9961" y="183.2951">Server</text></g><!--entity Web Browser--><g class="entity" data-entity="Web Browser" data-source-line="2" data-uid="ent0003" id="entity_Web Browser"><rect fill="#F1F1F1" height="46.2969" rx="2.5" ry="2.5" style="stroke:#181818;stroke-width:0.5;" width="132.832" x="52.58" y="46"/><rect fill="#F1F1F1" height="10" style="stroke:#181818;stroke-width:0.5;" width="15" x="165.412" y="51"/><rect fill="#F1F1F1" height="2" style="stroke:#181818;stroke-width:0.5;" width="4" x="163.412" y="53"/><rect fill="#F1F1F1" height="2" style="stroke:#181818;stroke-width:0.5;" width="4" x="163.412" y="57"/><text fill="#000000" font-family="sans-serif" font-size="14" lengthAdjust="spacing" textLength="92.832" x="67.58" y="78.9951">Web Browser</text></g><!--entity Web Server--><g class="entity" data-entity="Web Server" data-source-line="6" data-uid="ent0005" id="entity_Web Server"><rect fill="#F1F1F1" height="46.2969" rx="2.5" ry="2.5" style="stroke:#181818;stroke-width:0.5;" width="121.7031" x="58.15" y="197.3"/><rect fill="#F1F1F1" height="10" style="stroke:#181818;stroke-width:0.5;" width="15" x="159.8531" y="202.3"/><rect fill="#F1F1F1" height="2" style="stroke:#181818;stroke-width:0.5;" width="4" x="157.8531" y="204.3"/><rect fill="#F1F1F1" height="2" style="stroke:#181818;stroke-width:0.5;" width="4" x="157.8531" y="208.3"/><text fill="#000000" font-family="sans-serif" font-size="14" lengthAdjust="spacing" textLength="81.7031" x="73.15" y="230.2951">Web Server</text></g><!--entity Database--><g class="entity" data-entity="Database" data-source-line="7" data-uid="ent0006" id="entity_Database"><rect fill="#F1F1F1" height="46.2969" rx="2.5" ry="2.5" style="stroke:#181818;stroke-width:0.5;" width="106.8008" x="57.6" y="320.59"/><rect fill="#F1F1F1" height="10" style="stroke:#181818;stroke-width:0.5;" width="15" x="144.4008" y="325.59"/><rect fill="#F1F1F1" height="2" style="stroke:#181818;stroke-width:0.5;" width="4" x="142.4008" y="327.59"/><rect fill="#F1F1F1" height="2" style="stroke:#181818;stroke-width:0.5;" width="4" x="142.4008" y="331.59"/><text fill="#000000" font-family="sans-serif" font-size="14" lengthAdjust="spacing" textLength="66.8008" x="72.6" y="353.5851">Database</text></g><!--link Web Browser to Web Server--><g class="link" data-entity-1="Web Browser" data-entity-2="Web Server" data-source-line="10" data-uid="lnk7" id="link_Web Browser_Web Server"><path d="M119,92.5 C119,120.64 119,162.72 119,190.94 " fill="none" id="Web Browser-to-Web Server" style="stroke:#181818;stroke-width:1;"/><polygon fill="#181818" points="119,196.94,123,187.94,119,191.94,115,187.94,119,196.94" style="stroke:#181818;stroke-width:1;"/><text fill="#000000" font-family="sans-serif" font-size="13" lengthAdjust="spacing" textLength="79.625" x="120" y="137.3669">HTTP/HTTPS</text></g><!--link Web Server to Database--><g class="link" data-entity-1="Web Server" data-entity-2="Database" data-source-line="11" data-uid="lnk8" id="link_Web Server_Database"><path d="M117.51,243.98 C116.08,265.76 114.3038,292.6029 112.8738,314.3429 " fill="none" id="Web Server-to-Database" style="stroke:#181818;stroke-width:1;"/><polygon fill="#181818" points="112.48,320.33,117.0621,311.6119,112.8082,315.3408,109.0793,311.0869,112.48,320.33" style="stroke:#181818;stroke-width:1;"/><text fill="#000000" font-family="sans-serif" font-size="13" lengthAdjust="spacing" textLength="80.0566" x="116" y="286.6569">SQL Queries</text></g><!--SRC=[oyjFILLG2YrEBL8lLd3EpoqeBKajKbAevb9GY0vFJL9mAiel1qh6SjLoSUM1rGQd5fMXA848n8AuBeabYKc9nQbWvIZw5NHrxL2KArWfU8I41EY3Y60k51cmKhXHG8N1WJuAWQMfHPcfnG00]--></g></svg>