<svg xmlns="http://www.w3.org/2000/svg" xmlns:xlink="http://www.w3.org/1999/xlink" contentStyleType="text/css" data-diagram-type="DESCRIPTION" height="322px" preserveAspectRatio="none" style="width:608px;height:322px;background:#FFFFFF;" version="1.1" viewBox="0 0 608 322" width="608px" zoomAndPan="magnify"><defs/><g><!--entity User--><g class="entity" data-entity="User" data-source-line="1" data-uid="ent0002" id="entity_User"><ellipse cx="28.7651" cy="58.92" fill="#F1F1F1" rx="8" ry="8" style="stroke:#181818;stroke-width:0.5;"/><path d="M28.7651,66.92 L28.7651,93.92 M15.7651,74.92 L41.7651,74.92 M28.7651,93.92 L15.7651,108.92 M28.7651,93.92 L41.7651,108.92 " fill="none" style="stroke:#181818;stroke-width:0.5;"/><text fill="#000000" font-family="sans-serif" font-size="14" lengthAdjust="spacing" textLength="31.9102" x="12.81" y="123.4151">User</text></g><!--entity Admin--><g class="entity" data-entity="Admin" data-source-line="2" data-uid="ent0003" id="entity_Admin"><ellipse cx="267.7721" cy="58.92" fill="#F1F1F1" rx="8" ry="8" style="stroke:#181818;stroke-width:0.5;"/><path d="M267.7721,66.92 L267.7721,93.92 M254.7721,74.92 L280.7721,74.92 M267.7721,93.92 L254.7721,108.92 M267.7721,93.92 L280.7721,108.92 " fill="none" style="stroke:#181818;stroke-width:0.5;"/><text fill="#000000" font-family="sans-serif" font-size="14" lengthAdjust="spacing" textLength="44.8643" x="245.34" y="123.4151">Admin</text></g><g class="entity" data-entity="Start Game" data-source-line="4" data-uid="ent0004" id="entity_Start Game"><ellipse cx="144.7734" cy="88.5667" fill="#F1F1F1" rx="65.5334" ry="15.5067" style="stroke:#181818;stroke-width:0.5;"/><text fill="#000000" font-family="sans-serif" font-size="14" lengthAdjust="spacing" textLength="80.3291" x="101.6089" y="92.3142">Start Game</text></g><g class="entity" data-entity="Submit Answer" data-source-line="5" data-uid="ent0006" id="entity_Submit Answer"><ellipse cx="144.7692" cy="204.0938" fill="#F1F1F1" rx="74.8692" ry="17.3738" style="stroke:#181818;stroke-width:0.5;"/><text fill="#000000" font-family="sans-serif" font-size="14" lengthAdjust="spacing" textLength="105.6768" x="88.9308" y="207.8414">Submit Answer</text></g><g class="entity" data-entity="View Feedback" data-source-line="6" data-uid="ent0008" id="entity_View Feedback"><ellipse cx="80.7683" cy="298.8237" fill="#F1F1F1" rx="74.7683" ry="17.3537" style="stroke:#181818;stroke-width:0.5;"/><text fill="#000000" font-family="sans-serif" font-size="14" lengthAdjust="spacing" textLength="105.417" x="25.0598" y="302.5712">View Feedback</text></g><g class="entity" data-entity="Update Questions" data-source-line="8" data-uid="ent0010" id="entity_Update Questions"><ellipse cx="519.769" cy="88.5678" fill="#F1F1F1" rx="82.739" ry="18.9478" style="stroke:#181818;stroke-width:0.5;"/><text fill="#000000" font-family="sans-serif" font-size="14" lengthAdjust="spacing" textLength="125.0635" x="456.5553" y="91.6439">Update Questions</text></g><g class="entity" data-entity="Login" data-source-line="9" data-uid="ent0012" id="entity_Login"><ellipse cx="363.7741" cy="88.5657" fill="#F1F1F1" rx="38.4641" ry="14.5557" style="stroke:#181818;stroke-width:0.5;"/><text fill="#000000" font-family="sans-serif" font-size="14" lengthAdjust="spacing" textLength="38.0146" x="342.9" y="92.0206">Login</text></g><!--link User to Start Game--><g class="link" data-entity-1="User" data-entity-2="Start Game" data-source-line="4" data-uid="lnk5" id="link_User_Start Game"><path d="M45.08,88.57 C56.37,88.57 61.67,88.57 72.96,88.57 " fill="none" id="User-to-Start Game" style="stroke:#181818;stroke-width:1;"/><polygon fill="#181818" points="78.96,88.57,69.96,84.57,73.96,88.57,69.96,92.57,78.96,88.57" style="stroke:#181818;stroke-width:1;"/></g><!--link User to Submit Answer--><g class="link" data-entity-1="User" data-entity-2="Submit Answer" data-source-line="5" data-uid="lnk7" id="link_User_Submit Answer"><path d="M45.2,108.8 C50.38,114.66 56.21,121.05 61.77,126.71 C83.04,148.36 104.4769,167.8349 121.6369,182.9449 " fill="none" id="User-to-Submit Answer" style="stroke:#181818;stroke-width:1;"/><polygon fill="#181818" points="126.14,186.91,122.0288,177.9603,122.3874,183.6057,116.742,183.9644,126.14,186.91" style="stroke:#181818;stroke-width:1;"/></g><!--link User to View Feedback--><g class="link" data-entity-1="User" data-entity-2="View Feedback" data-source-line="6" data-uid="lnk9" id="link_User_View Feedback"><path d="M33.86,127.19 C37.88,153.78 44.24,190.13 52.77,221.46 C58.48,242.44 65.1829,260.2548 71.4229,275.5448 " fill="none" id="User-to-View Feedback" style="stroke:#181818;stroke-width:1;"/><polygon fill="#181818" points="73.69,281.1,73.9928,271.2558,71.8007,276.4707,66.5858,274.2786,73.69,281.1" style="stroke:#181818;stroke-width:1;"/></g><!--link Admin to Update Questions--><g class="link" data-entity-1="Admin" data-entity-2="Update Questions" data-source-line="8" data-uid="lnk11" id="link_Admin_Update Questions"><path d="M290.44,50.4 C299.62,38.53 311.37,26.88 325.27,20.42 C356.3,6 369.22,11.53 402.27,20.42 C438.02,30.04 469.2868,49.9212 491.8568,66.6212 " fill="none" id="Admin-to-Update Questions" style="stroke:#181818;stroke-width:1;"/><polygon fill="#181818" points="496.68,70.19,491.8244,61.6213,492.6606,67.216,487.0659,68.0523,496.68,70.19" style="stroke:#181818;stroke-width:1;"/></g><!--link Admin to Login--><g class="link" data-entity-1="Admin" data-entity-2="Login" data-source-line="9" data-uid="lnk13" id="link_Admin_Login"><path d="M290.64,88.57 C302.07,88.57 307.49,88.57 318.92,88.57 " fill="none" id="Admin-to-Login" style="stroke:#181818;stroke-width:1;"/><polygon fill="#181818" points="324.92,88.57,315.92,84.57,319.92,88.57,315.92,92.57,324.92,88.57" style="stroke:#181818;stroke-width:1;"/></g><!--link Start Game to Submit Answer--><g class="link" data-entity-1="Start Game" data-entity-2="Submit Answer" data-source-line="11" data-uid="lnk14" id="link_Start Game_Submit Answer"><path d="M144.77,104.41 C144.77,125.56 144.77,158.27 144.77,180.4 " fill="none" id="Start Game-to-Submit Answer" style="stroke:#181818;stroke-width:1;"/><polygon fill="#181818" points="144.77,186.4,148.77,177.4,144.77,181.4,140.77,177.4,144.77,186.4" style="stroke:#181818;stroke-width:1;"/></g><!--link Submit Answer to View Feedback--><g class="link" data-entity-1="Submit Answer" data-entity-2="View Feedback" data-source-line="12" data-uid="lnk15" id="link_Submit Answer_View Feedback"><path d="M133.33,221.67 C121.68,238.54 107.1284,259.6221 95.5184,276.4421 " fill="none" id="Submit Answer-to-View Feedback" style="stroke:#181818;stroke-width:1;"/><polygon fill="#181818" points="92.11,281.38,100.5145,276.2454,94.9503,277.2651,93.9306,271.7009,92.11,281.38" style="stroke:#181818;stroke-width:1;"/></g><!--SRC=[IqmkoIzI22rEBU9A13CTKt8pyxYuG28AkdOA6i4bYKKb2kw9kQcQI8AbIRcP9GgEUSNbgKL8uc6PgUKARgcfAKc9oTcQN5nWmy0oeGKfYIMf2e6bgSKbcVbvnPf8SZxvwPbvGDN8TYdeOh47ZGzHWsed0000]--></g></svg>