<svg xmlns="http://www.w3.org/2000/svg" xmlns:xlink="http://www.w3.org/1999/xlink" contentStyleType="text/css" data-diagram-type="CLASS" height="392px" preserveAspectRatio="none" style="width:531px;height:392px;background:#FFFFFF;" version="1.1" viewBox="0 0 531 392" width="531px" zoomAndPan="magnify"><defs/><g><!--class User--><g class="entity" data-entity="User" data-source-line="1" data-uid="ent0002" id="entity_User"><rect fill="#F1F1F1" height="96.8906" rx="2.5" ry="2.5" style="stroke:#181818;stroke-width:0.5;" width="136.5986" x="121.32" y="7"/><ellipse cx="169.4142" cy="23" fill="#ADD1B2" rx="11" ry="11" style="stroke:#181818;stroke-width:1;"/><path d="M172.383,28.6406 Q171.8049,28.9375 171.1642,29.0781 Q170.5236,29.2344 169.8205,29.2344 Q167.3205,29.2344 165.9924,27.5938 Q164.6799,25.9375 164.6799,22.8125 Q164.6799,19.6875 165.9924,18.0313 Q167.3205,16.375 169.8205,16.375 Q170.5236,16.375 171.1642,16.5313 Q171.8205,16.6875 172.383,16.9844 L172.383,19.7031 Q171.758,19.125 171.1642,18.8594 Q170.5705,18.5781 169.9455,18.5781 Q168.6017,18.5781 167.9142,19.6563 Q167.2267,20.7188 167.2267,22.8125 Q167.2267,24.9063 167.9142,25.9844 Q168.6017,27.0469 169.9455,27.0469 Q170.5705,27.0469 171.1642,26.7813 Q171.758,26.5 172.383,25.9219 L172.383,28.6406 Z " fill="#000000"/><text fill="#000000" font-family="sans-serif" font-size="14" lengthAdjust="spacing" textLength="31.9102" x="189.9142" y="27.8467">User</text><line style="stroke:#181818;stroke-width:0.5;" x1="122.32" x2="256.9186" y1="39" y2="39"/><line style="stroke:#181818;stroke-width:0.5;" x1="122.32" x2="256.9186" y1="47" y2="47"/><ellipse cx="132.32" cy="60.6484" fill="#84BE84" rx="3" ry="3" style="stroke:#038048;stroke-width:1;"/><text fill="#000000" font-family="sans-serif" font-size="14" lengthAdjust="spacing" textLength="85.21" x="141.32" y="63.9951">startGame()</text><ellipse cx="132.32" cy="76.9453" fill="#84BE84" rx="3" ry="3" style="stroke:#038048;stroke-width:1;"/><text fill="#000000" font-family="sans-serif" font-size="14" lengthAdjust="spacing" textLength="110.5576" x="141.32" y="80.292">submitAnswer()</text><ellipse cx="132.32" cy="93.2422" fill="#84BE84" rx="3" ry="3" style="stroke:#038048;stroke-width:1;"/><text fill="#000000" font-family="sans-serif" font-size="14" lengthAdjust="spacing" textLength="110.5986" x="141.32" y="96.5889">viewFeedback()</text></g><!--class Admin--><g class="entity" data-entity="Admin" data-source-line="7" data-uid="ent0003" id="entity_Admin"><rect fill="#F1F1F1" height="80.5938" rx="2.5" ry="2.5" style="stroke:#181818;stroke-width:0.5;" width="156.1631" x="330.54" y="15.15"/><ellipse cx="381.9394" cy="31.15" fill="#ADD1B2" rx="11" ry="11" style="stroke:#181818;stroke-width:1;"/><path d="M384.9082,36.7906 Q384.33,37.0875 383.6894,37.2281 Q383.0488,37.3844 382.3457,37.3844 Q379.8457,37.3844 378.5175,35.7437 Q377.205,34.0875 377.205,30.9625 Q377.205,27.8375 378.5175,26.1812 Q379.8457,24.525 382.3457,24.525 Q383.0488,24.525 383.6894,24.6812 Q384.3457,24.8375 384.9082,25.1344 L384.9082,27.8531 Q384.2832,27.275 383.6894,27.0094 Q383.0957,26.7281 382.4707,26.7281 Q381.1269,26.7281 380.4394,27.8062 Q379.7519,28.8687 379.7519,30.9625 Q379.7519,33.0562 380.4394,34.1344 Q381.1269,35.1969 382.4707,35.1969 Q383.0957,35.1969 383.6894,34.9312 Q384.2832,34.65 384.9082,34.0719 L384.9082,36.7906 Z " fill="#000000"/><text fill="#000000" font-family="sans-serif" font-size="14" lengthAdjust="spacing" textLength="44.8643" x="402.4394" y="35.9967">Admin</text><line style="stroke:#181818;stroke-width:0.5;" x1="331.54" x2="485.7031" y1="47.15" y2="47.15"/><line style="stroke:#181818;stroke-width:0.5;" x1="331.54" x2="485.7031" y1="55.15" y2="55.15"/><ellipse cx="341.54" cy="68.7984" fill="#84BE84" rx="3" ry="3" style="stroke:#038048;stroke-width:1;"/><text fill="#000000" font-family="sans-serif" font-size="14" lengthAdjust="spacing" textLength="130.1631" x="350.54" y="72.1451">updateQuestions()</text><ellipse cx="341.54" cy="85.0953" fill="#84BE84" rx="3" ry="3" style="stroke:#038048;stroke-width:1;"/><text fill="#000000" font-family="sans-serif" font-size="14" lengthAdjust="spacing" textLength="45.0283" x="350.54" y="88.442">login()</text></g><!--class GameInterface--><g class="entity" data-entity="GameInterface" data-source-line="12" data-uid="ent0004" id="entity_GameInterface"><rect fill="#F1F1F1" height="96.8906" rx="2.5" ry="2.5" style="stroke:#181818;stroke-width:0.5;" width="136.3574" x="121.44" y="163.89"/><ellipse cx="136.44" cy="179.89" fill="#ADD1B2" rx="11" ry="11" style="stroke:#181818;stroke-width:1;"/><path d="M139.4088,185.5306 Q138.8306,185.8275 138.19,185.9681 Q137.5494,186.1244 136.8463,186.1244 Q134.3463,186.1244 133.0181,184.4838 Q131.7056,182.8275 131.7056,179.7025 Q131.7056,176.5775 133.0181,174.9213 Q134.3463,173.265 136.8463,173.265 Q137.5494,173.265 138.19,173.4213 Q138.8463,173.5775 139.4088,173.8744 L139.4088,176.5931 Q138.7838,176.015 138.19,175.7494 Q137.5963,175.4681 136.9713,175.4681 Q135.6275,175.4681 134.94,176.5463 Q134.2525,177.6088 134.2525,179.7025 Q134.2525,181.7963 134.94,182.8744 Q135.6275,183.9369 136.9713,183.9369 Q137.5963,183.9369 138.19,183.6713 Q138.7838,183.39 139.4088,182.8119 L139.4088,185.5306 Z " fill="#000000"/><text fill="#000000" font-family="sans-serif" font-size="14" lengthAdjust="spacing" textLength="104.3574" x="150.44" y="184.7367">GameInterface</text><line style="stroke:#181818;stroke-width:0.5;" x1="122.44" x2="256.7974" y1="195.89" y2="195.89"/><line style="stroke:#181818;stroke-width:0.5;" x1="122.44" x2="256.7974" y1="203.89" y2="203.89"/><ellipse cx="132.44" cy="217.5384" fill="#84BE84" rx="3" ry="3" style="stroke:#038048;stroke-width:1;"/><text fill="#000000" font-family="sans-serif" font-size="14" lengthAdjust="spacing" textLength="82.5234" x="141.44" y="220.8851">loadGame()</text><ellipse cx="132.44" cy="233.8353" fill="#84BE84" rx="3" ry="3" style="stroke:#038048;stroke-width:1;"/><text fill="#000000" font-family="sans-serif" font-size="14" lengthAdjust="spacing" textLength="103.3867" x="141.44" y="237.182">validateInput()</text><ellipse cx="132.44" cy="250.1322" fill="#84BE84" rx="3" ry="3" style="stroke:#038048;stroke-width:1;"/><text fill="#000000" font-family="sans-serif" font-size="14" lengthAdjust="spacing" textLength="84.1094" x="141.44" y="253.4789">sendScore()</text></g><!--class FeedbackModule--><g class="entity" data-entity="FeedbackModule" data-source-line="18" data-uid="ent0005" id="entity_FeedbackModule"><rect fill="#F1F1F1" height="64.2969" rx="2.5" ry="2.5" style="stroke:#181818;stroke-width:0.5;" width="157.2432" x="7" y="320.78"/><ellipse cx="25.1047" cy="336.78" fill="#ADD1B2" rx="11" ry="11" style="stroke:#181818;stroke-width:1;"/><path d="M28.0735,342.4206 Q27.4954,342.7175 26.8547,342.8581 Q26.2141,343.0144 25.511,343.0144 Q23.011,343.0144 21.6829,341.3738 Q20.3704,339.7175 20.3704,336.5925 Q20.3704,333.4675 21.6829,331.8113 Q23.011,330.155 25.511,330.155 Q26.2141,330.155 26.8547,330.3113 Q27.511,330.4675 28.0735,330.7644 L28.0735,333.4831 Q27.4485,332.905 26.8547,332.6394 Q26.261,332.3581 25.636,332.3581 Q24.2922,332.3581 23.6047,333.4363 Q22.9172,334.4988 22.9172,336.5925 Q22.9172,338.6863 23.6047,339.7644 Q24.2922,340.8269 25.636,340.8269 Q26.261,340.8269 26.8547,340.5613 Q27.4485,340.28 28.0735,339.7019 L28.0735,342.4206 Z " fill="#000000"/><text fill="#000000" font-family="sans-serif" font-size="14" lengthAdjust="spacing" textLength="118.3438" x="39.7947" y="341.6267">FeedbackModule</text><line style="stroke:#181818;stroke-width:0.5;" x1="8" x2="163.2432" y1="352.78" y2="352.78"/><line style="stroke:#181818;stroke-width:0.5;" x1="8" x2="163.2432" y1="360.78" y2="360.78"/><ellipse cx="18" cy="374.4284" fill="#84BE84" rx="3" ry="3" style="stroke:#038048;stroke-width:1;"/><text fill="#000000" font-family="sans-serif" font-size="14" lengthAdjust="spacing" textLength="131.2432" x="27" y="377.7751">provideFeedback()</text></g><!--class InputValidationModule--><g class="entity" data-entity="InputValidationModule" data-source-line="22" data-uid="ent0006" id="entity_InputValidationModule"><rect fill="#F1F1F1" height="64.2969" rx="2.5" ry="2.5" style="stroke:#181818;stroke-width:0.5;" width="189.377" x="198.93" y="320.78"/><ellipse cx="213.93" cy="336.78" fill="#ADD1B2" rx="11" ry="11" style="stroke:#181818;stroke-width:1;"/><path d="M216.8988,342.4206 Q216.3206,342.7175 215.68,342.8581 Q215.0394,343.0144 214.3363,343.0144 Q211.8363,343.0144 210.5081,341.3738 Q209.1956,339.7175 209.1956,336.5925 Q209.1956,333.4675 210.5081,331.8113 Q211.8363,330.155 214.3363,330.155 Q215.0394,330.155 215.68,330.3113 Q216.3363,330.4675 216.8988,330.7644 L216.8988,333.4831 Q216.2738,332.905 215.68,332.6394 Q215.0863,332.3581 214.4613,332.3581 Q213.1175,332.3581 212.43,333.4363 Q211.7425,334.4988 211.7425,336.5925 Q211.7425,338.6863 212.43,339.7644 Q213.1175,340.8269 214.4613,340.8269 Q215.0863,340.8269 215.68,340.5613 Q216.2738,340.28 216.8988,339.7019 L216.8988,342.4206 Z " fill="#000000"/><text fill="#000000" font-family="sans-serif" font-size="14" lengthAdjust="spacing" textLength="157.377" x="227.93" y="341.6267">InputValidationModule</text><line style="stroke:#181818;stroke-width:0.5;" x1="199.93" x2="387.307" y1="352.78" y2="352.78"/><line style="stroke:#181818;stroke-width:0.5;" x1="199.93" x2="387.307" y1="360.78" y2="360.78"/><ellipse cx="209.93" cy="374.4284" fill="#84BE84" rx="3" ry="3" style="stroke:#038048;stroke-width:1;"/><text fill="#000000" font-family="sans-serif" font-size="14" lengthAdjust="spacing" textLength="67.1357" x="218.93" y="377.7751">validate()</text></g><!--class ContentManagementSystem--><g class="entity" data-entity="ContentManagementSystem" data-source-line="26" data-uid="ent0007" id="entity_ContentManagementSystem"><rect fill="#F1F1F1" height="64.2969" rx="2.5" ry="2.5" style="stroke:#181818;stroke-width:0.5;" width="232.1084" x="292.57" y="180.19"/><ellipse cx="307.57" cy="196.19" fill="#ADD1B2" rx="11" ry="11" style="stroke:#181818;stroke-width:1;"/><path d="M310.5388,201.8306 Q309.9606,202.1275 309.32,202.2681 Q308.6794,202.4244 307.9763,202.4244 Q305.4763,202.4244 304.1481,200.7838 Q302.8356,199.1275 302.8356,196.0025 Q302.8356,192.8775 304.1481,191.2213 Q305.4763,189.565 307.9763,189.565 Q308.6794,189.565 309.32,189.7213 Q309.9763,189.8775 310.5388,190.1744 L310.5388,192.8931 Q309.9138,192.315 309.32,192.0494 Q308.7263,191.7681 308.1013,191.7681 Q306.7575,191.7681 306.07,192.8463 Q305.3825,193.9088 305.3825,196.0025 Q305.3825,198.0963 306.07,199.1744 Q306.7575,200.2369 308.1013,200.2369 Q308.7263,200.2369 309.32,199.9713 Q309.9138,199.69 310.5388,199.1119 L310.5388,201.8306 Z " fill="#000000"/><text fill="#000000" font-family="sans-serif" font-size="14" lengthAdjust="spacing" textLength="200.1084" x="321.57" y="201.0367">ContentManagementSystem</text><line style="stroke:#181818;stroke-width:0.5;" x1="293.57" x2="523.6784" y1="212.19" y2="212.19"/><line style="stroke:#181818;stroke-width:0.5;" x1="293.57" x2="523.6784" y1="220.19" y2="220.19"/><ellipse cx="303.57" cy="233.8384" fill="#84BE84" rx="3" ry="3" style="stroke:#038048;stroke-width:1;"/><text fill="#000000" font-family="sans-serif" font-size="14" lengthAdjust="spacing" textLength="114.7959" x="312.57" y="237.1851">modifyContent()</text></g><!--link User to GameInterface--><g class="link" data-entity-1="User" data-entity-2="GameInterface" data-source-line="30" data-uid="lnk8" id="link_User_GameInterface"><path codeLine="30" d="M189.62,104.18 C189.62,123.03 189.62,138.64 189.62,157.49 " fill="none" id="User-to-GameInterface" style="stroke:#181818;stroke-width:1;"/><polygon fill="#181818" points="189.62,163.49,193.62,154.49,189.62,158.49,185.62,154.49,189.62,163.49" style="stroke:#181818;stroke-width:1;"/></g><!--link Admin to ContentManagementSystem--><g class="link" data-entity-1="Admin" data-entity-2="ContentManagementSystem" data-source-line="31" data-uid="lnk9" id="link_Admin_ContentManagementSystem"><path codeLine="31" d="M408.62,95.93 C408.62,121.93 408.62,149.5 408.62,173.72 " fill="none" id="Admin-to-ContentManagementSystem" style="stroke:#181818;stroke-width:1;"/><polygon fill="#181818" points="408.62,179.72,412.62,170.72,408.62,174.72,404.62,170.72,408.62,179.72" style="stroke:#181818;stroke-width:1;"/></g><!--link GameInterface to FeedbackModule--><g class="link" data-entity-1="GameInterface" data-entity-2="FeedbackModule" data-source-line="32" data-uid="lnk10" id="link_GameInterface_FeedbackModule"><path codeLine="32" d="M153.83,261.03 C139.02,280.77 125.8713,298.291 112.6713,315.881 " fill="none" id="GameInterface-to-FeedbackModule" style="stroke:#181818;stroke-width:1;"/><polygon fill="#181818" points="109.07,320.68,117.6713,315.8823,112.0711,316.6808,111.2726,311.0806,109.07,320.68" style="stroke:#181818;stroke-width:1;"/></g><!--link GameInterface to InputValidationModule--><g class="link" data-entity-1="GameInterface" data-entity-2="InputValidationModule" data-source-line="33" data-uid="lnk11" id="link_GameInterface_InputValidationModule"><path codeLine="33" d="M225.41,261.03 C240.22,280.77 253.3687,298.291 266.5687,315.881 " fill="none" id="GameInterface-to-InputValidationModule" style="stroke:#181818;stroke-width:1;"/><polygon fill="#181818" points="270.17,320.68,267.9674,311.0806,267.1689,316.6808,261.5687,315.8823,270.17,320.68" style="stroke:#181818;stroke-width:1;"/></g><!--SRC=[TP312i8m44Jl-OeU5V4NX28e7dgGelSrMIMOR4goQIdYlzis5LkejsIPUJkpqa08sIMWpruYopQ1mVCHBAxMmpVUhEQSGeC-JMgDpG5HtK0-kybR23aWScKr9KQi532U8mRMZaBo6VVGD3NqIqx4wEyWCHcD0_NRNOFHFUX4LUGn3f8gfVCu1NtJ54v5Cv8gxsgjS2deWBicTXTlwlfkdChthij8N0310sttAjl0Q9F1EgNlxIX9hk6Ks-rkta-ay_JpFq0nlqUld1TR42nM-G00]--></g></svg>