<svg xmlns="http://www.w3.org/2000/svg" xmlns:xlink="http://www.w3.org/1999/xlink" contentStyleType="text/css" data-diagram-type="STATE" height="579px" preserveAspectRatio="none" style="width:410px;height:579px;background:#FFFFFF;" version="1.1" viewBox="0 0 410 579" width="410px" zoomAndPan="magnify"><defs/><g><path d="M19.5,7 L384.1045,7 A12.5,12.5 0 0 1 396.6045,19.5 L396.6045,33.2969 L7,33.2969 L7,19.5 A12.5,12.5 0 0 1 19.5,7 " fill="#F1F1F1" style="stroke:#F1F1F1;stroke-width:1;"/><rect fill="none" height="566.2969" rx="12.5" ry="12.5" style="stroke:#181818;stroke-width:0.5;" width="389.6045" x="7" y="7"/><line style="stroke:#181818;stroke-width:0.5;" x1="7" x2="396.6045" y1="33.2969" y2="33.2969"/><text fill="#000000" font-family="sans-serif" font-size="14" lengthAdjust="spacing" textLength="108.8076" x="147.3984" y="24.9951">Game Interface</text><ellipse cx="260.27" cy="54.2969" fill="#222222" rx="10" ry="10" style="stroke:#222222;stroke-width:1;"/><g id="GI.Idle"><rect fill="#F1F1F1" height="50" rx="12.5" ry="12.5" style="stroke:#181818;stroke-width:0.5;" width="50" x="235.27" y="101.2969"/><line style="stroke:#181818;stroke-width:0.5;" x1="235.27" x2="285.27" y1="127.5938" y2="127.5938"/><text fill="#000000" font-family="sans-serif" font-size="14" lengthAdjust="spacing" textLength="25.5186" x="247.5107" y="119.292">Idle</text></g><g id="GI.Loading"><rect fill="#F1F1F1" height="50" rx="12.5" ry="12.5" style="stroke:#181818;stroke-width:0.5;" width="75.4805" x="165.53" y="204.2969"/><line style="stroke:#181818;stroke-width:0.5;" x1="165.53" x2="241.0105" y1="230.5938" y2="230.5938"/><text fill="#000000" font-family="sans-serif" font-size="14" lengthAdjust="spacing" textLength="55.4805" x="175.53" y="222.292">Loading</text></g><g id="GI.Playing"><rect fill="#F1F1F1" height="50" rx="12.5" ry="12.5" style="stroke:#181818;stroke-width:0.5;" width="70.8457" x="144.85" y="307.2969"/><line style="stroke:#181818;stroke-width:0.5;" x1="144.85" x2="215.6957" y1="333.5938" y2="333.5938"/><text fill="#000000" font-family="sans-serif" font-size="14" lengthAdjust="spacing" textLength="50.8457" x="154.85" y="325.292">Playing</text></g><g id="GI.Validating"><rect fill="#F1F1F1" height="50" rx="12.5" ry="12.5" style="stroke:#181818;stroke-width:0.5;" width="90.54" x="19" y="410.2969"/><line style="stroke:#181818;stroke-width:0.5;" x1="19" x2="109.54" y1="436.5938" y2="436.5938"/><text fill="#000000" font-family="sans-serif" font-size="14" lengthAdjust="spacing" textLength="70.54" x="29" y="428.292">Validating</text></g><g id="GI.Feedback"><rect fill="#F1F1F1" height="50" rx="12.5" ry="12.5" style="stroke:#181818;stroke-width:0.5;" width="87.4365" x="136.55" y="513.2969"/><line style="stroke:#181818;stroke-width:0.5;" x1="136.55" x2="223.9865" y1="539.5938" y2="539.5938"/><text fill="#000000" font-family="sans-serif" font-size="14" lengthAdjust="spacing" textLength="67.4365" x="146.55" y="531.292">Feedback</text></g><!--link *start*GI to Idle--><g class="link" data-entity-1="*start*GI" data-entity-2="Idle" data-source-line="2" data-uid="lnk4" id="link_*start*GI_Idle"><path d="M260.27,64.7369 C260.27,73.9969 260.27,82.4869 260.27,94.9769 " fill="none" id="*start*GI-to-Idle" style="stroke:#181818;stroke-width:1;"/><polygon fill="#181818" points="260.27,100.9769,264.27,91.9769,260.27,95.9769,256.27,91.9769,260.27,100.9769" style="stroke:#181818;stroke-width:1;"/></g><!--link Idle to Loading--><g class="link" data-entity-1="Idle" data-entity-2="Loading" data-source-line="3" data-uid="lnk6" id="link_Idle_Loading"><path d="M234.86,147.4969 C228.29,153.8469 221.79,161.3069 217.27,169.2969 C211.31,179.8369 208.9285,186.8992 206.9585,197.9992 " fill="none" id="Idle-to-Loading" style="stroke:#181818;stroke-width:1;"/><polygon fill="#181818" points="205.91,203.9069,211.4212,195.7443,206.7837,198.9838,203.5443,194.3464,205.91,203.9069" style="stroke:#181818;stroke-width:1;"/><text fill="#000000" font-family="sans-serif" font-size="13" lengthAdjust="spacing" textLength="79.1235" x="218.27" y="182.3638">startGame()</text></g><!--link Loading to Playing--><g class="link" data-entity-1="Loading" data-entity-2="Playing" data-source-line="4" data-uid="lnk8" id="link_Loading_Playing"><path d="M197.7,254.7469 C194.09,270.6269 190.7197,285.3861 187.1197,301.2261 " fill="none" id="Loading-to-Playing" style="stroke:#181818;stroke-width:1;"/><polygon fill="#181818" points="185.79,307.0769,191.6851,299.1872,186.8981,302.2012,183.8841,297.4142,185.79,307.0769" style="stroke:#181818;stroke-width:1;"/><text fill="#000000" font-family="sans-serif" font-size="13" lengthAdjust="spacing" textLength="76.6289" x="193.27" y="285.3638">loadGame()</text></g><!--link Playing to Validating--><g class="link" data-entity-1="Playing" data-entity-2="Validating" data-source-line="5" data-uid="lnk10" id="link_Playing_Validating"><path d="M144.61,335.4169 C117.12,339.1369 80.76,349.0869 62.27,375.2969 C55.3,385.1769 54.1995,392.5675 56.0995,404.0375 " fill="none" id="Playing-to-Validating" style="stroke:#181818;stroke-width:1;"/><polygon fill="#181818" points="57.08,409.9569,59.5554,400.4242,56.2629,405.0241,51.663,401.7316,57.08,409.9569" style="stroke:#181818;stroke-width:1;"/><text fill="#000000" font-family="sans-serif" font-size="13" lengthAdjust="spacing" textLength="102.6606" x="63.27" y="388.3638">submitAnswer()</text></g><!--link Validating to Feedback--><g class="link" data-entity-1="Validating" data-entity-2="Feedback" data-source-line="6" data-uid="lnk12" id="link_Validating_Feedback"><path d="M60.2,460.7769 C59.62,472.2869 61.04,485.5769 68.27,495.2969 C84.14,516.6169 106.2742,525.8549 130.3042,531.0249 " fill="none" id="Validating-to-Feedback" style="stroke:#181818;stroke-width:1;"/><polygon fill="#181818" points="136.17,532.2869,128.2127,526.4833,131.2819,531.2352,126.53,534.3044,136.17,532.2869" style="stroke:#181818;stroke-width:1;"/><text fill="#000000" font-family="sans-serif" font-size="13" lengthAdjust="spacing" textLength="96.002" x="69.27" y="491.3638">validateInput()</text></g><!--link Feedback to Playing--><g class="link" data-entity-1="Feedback" data-entity-2="Playing" data-source-line="7" data-uid="lnk13" id="link_Feedback_Playing"><path d="M180.27,512.8069 C180.27,473.4669 180.27,402.6569 180.27,363.4969 " fill="none" id="Feedback-to-Playing" style="stroke:#181818;stroke-width:1;"/><polygon fill="#181818" points="180.27,357.4969,176.27,366.4969,180.27,362.4969,184.27,366.4969,180.27,357.4969" style="stroke:#181818;stroke-width:1;"/><text fill="#000000" font-family="sans-serif" font-size="13" lengthAdjust="spacing" textLength="102.6987" x="181.27" y="439.8638">viewFeedback()</text></g><!--link Feedback to Idle--><g class="link" data-entity-1="Feedback" data-entity-2="Idle" data-source-line="8" data-uid="lnk14" id="link_Feedback_Idle"><path d="M224.22,523.9869 C262.62,509.3269 312.27,481.5969 312.27,436.2969 C312.27,228.2969 312.27,228.2969 312.27,228.2969 C312.27,201.3469 310.82,193.1469 298.27,169.2969 C294.88,162.8569 294.2074,161.1629 289.3674,155.5729 " fill="none" id="Feedback-to-Idle" style="stroke:#181818;stroke-width:1;"/><polygon fill="#181818" points="285.44,151.0369,288.3071,160.4592,288.7129,154.8169,294.3551,155.2226,285.44,151.0369" style="stroke:#181818;stroke-width:1;"/><text fill="#000000" font-family="sans-serif" font-size="13" lengthAdjust="spacing" textLength="73.3345" x="313.27" y="336.8638">endGame()</text></g><!--SRC=[PS-n2i8m40RWtQSuEbMXBz2Xu689E3YvYCErEIMOnf9SMqHyTvFK5CKftFz_N1B7o0HPZHs1C4psWYrbW0vg0SyLm6bpXgAeG4XDVWn7dFTtbCfSeGJ7Q3aioDSUf3oOWyR7RBHF5vBYG8webKJ-R1gQJl7Mk8bib5zjm3iYsM1xytIS6nAc7pZQfVozULGqfUhVnU-KG2QzxlK6]--></g></svg>