<svg xmlns="http://www.w3.org/2000/svg" xmlns:xlink="http://www.w3.org/1999/xlink" contentStyleType="text/css" data-diagram-type="SEQUENCE" height="356px" preserveAspectRatio="none" style="width:388px;height:356px;background:#FFFFFF;" version="1.1" viewBox="0 0 388 356" width="388px" zoomAndPan="magnify"><defs/><g><g><title>User</title><rect fill="#000000" fill-opacity="0.00000" height="194.7969" width="8" x="19.9551" y="81.2969"/><line style="stroke:#181818;stroke-width:0.5;stroke-dasharray:5.0,5.0;" x1="23" x2="23" y1="81.2969" y2="276.0938"/></g><g><title>WebBrowser</title><rect fill="#000000" fill-opacity="0.00000" height="194.7969" width="8" x="127.0459" y="81.2969"/><line style="stroke:#181818;stroke-width:0.5;stroke-dasharray:5.0,5.0;" x1="130.855" x2="130.855" y1="81.2969" y2="276.0938"/></g><g><title>WebServer</title><rect fill="#000000" fill-opacity="0.00000" height="194.7969" width="8" x="233.8633" y="81.2969"/><line style="stroke:#181818;stroke-width:0.5;stroke-dasharray:5.0,5.0;" x1="237.2368" x2="237.2368" y1="81.2969" y2="276.0938"/></g><g><title>Database</title><rect fill="#000000" fill-opacity="0.00000" height="194.7969" width="8" x="337.9199" y="81.2969"/><line style="stroke:#181818;stroke-width:0.5;stroke-dasharray:5.0,5.0;" x1="341.5195" x2="341.5195" y1="81.2969" y2="276.0938"/></g><g class="participant participant-head" data-participant="User"><text fill="#000000" font-family="sans-serif" font-size="14" lengthAdjust="spacing" textLength="31.9102" x="5" y="77.9951">User</text><ellipse cx="23.9551" cy="13.5" fill="#E2E2F0" rx="8" ry="8" style="stroke:#181818;stroke-width:0.5;"/><path d="M23.9551,21.5 L23.9551,48.5 M10.9551,29.5 L36.9551,29.5 M23.9551,48.5 L10.9551,63.5 M23.9551,48.5 L36.9551,63.5 " fill="none" style="stroke:#181818;stroke-width:0.5;"/></g><g class="participant participant-tail" data-participant="User"><text fill="#000000" font-family="sans-serif" font-size="14" lengthAdjust="spacing" textLength="31.9102" x="5" y="288.0889">User</text><ellipse cx="23.9551" cy="299.8906" fill="#E2E2F0" rx="8" ry="8" style="stroke:#181818;stroke-width:0.5;"/><path d="M23.9551,307.8906 L23.9551,334.8906 M10.9551,315.8906 L36.9551,315.8906 M23.9551,334.8906 L10.9551,349.8906 M23.9551,334.8906 L36.9551,349.8906 " fill="none" style="stroke:#181818;stroke-width:0.5;"/></g><g class="participant participant-head" data-participant="WebBrowser"><rect fill="#E2E2F0" height="30.2969" rx="2.5" ry="2.5" style="stroke:#181818;stroke-width:0.5;" width="102.3818" x="79.855" y="50"/><text fill="#000000" font-family="sans-serif" font-size="14" lengthAdjust="spacing" textLength="88.3818" x="86.855" y="69.9951">WebBrowser</text></g><g class="participant participant-tail" data-participant="WebBrowser"><rect fill="#E2E2F0" height="30.2969" rx="2.5" ry="2.5" style="stroke:#181818;stroke-width:0.5;" width="102.3818" x="79.855" y="275.0938"/><text fill="#000000" font-family="sans-serif" font-size="14" lengthAdjust="spacing" textLength="88.3818" x="86.855" y="295.0889">WebBrowser</text></g><g class="participant participant-head" data-participant="WebServer"><rect fill="#E2E2F0" height="30.2969" rx="2.5" ry="2.5" style="stroke:#181818;stroke-width:0.5;" width="91.2529" x="192.2368" y="50"/><text fill="#000000" font-family="sans-serif" font-size="14" lengthAdjust="spacing" textLength="77.2529" x="199.2368" y="69.9951">WebServer</text></g><g class="participant participant-tail" data-participant="WebServer"><rect fill="#E2E2F0" height="30.2969" rx="2.5" ry="2.5" style="stroke:#181818;stroke-width:0.5;" width="91.2529" x="192.2368" y="275.0938"/><text fill="#000000" font-family="sans-serif" font-size="14" lengthAdjust="spacing" textLength="77.2529" x="199.2368" y="295.0889">WebServer</text></g><g class="participant participant-head" data-participant="Database"><rect fill="#E2E2F0" height="30.2969" rx="2.5" ry="2.5" style="stroke:#181818;stroke-width:0.5;" width="80.8008" x="301.5195" y="50"/><text fill="#000000" font-family="sans-serif" font-size="14" lengthAdjust="spacing" textLength="66.8008" x="308.5195" y="69.9951">Database</text></g><g class="participant participant-tail" data-participant="Database"><rect fill="#E2E2F0" height="30.2969" rx="2.5" ry="2.5" style="stroke:#181818;stroke-width:0.5;" width="80.8008" x="301.5195" y="275.0938"/><text fill="#000000" font-family="sans-serif" font-size="14" lengthAdjust="spacing" textLength="66.8008" x="308.5195" y="295.0889">Database</text></g><g class="message" data-participant-1="User" data-participant-2="WebBrowser"><polygon fill="#181818" points="119.0459,108.4297,129.0459,112.4297,119.0459,116.4297,123.0459,112.4297" style="stroke:#181818;stroke-width:1;"/><line style="stroke:#181818;stroke-width:1;" x1="23.9551" x2="125.0459" y1="112.4297" y2="112.4297"/><text fill="#000000" font-family="sans-serif" font-size="13" lengthAdjust="spacing" textLength="53.3901" x="30.9551" y="107.3638">Request</text></g><g class="message" data-participant-1="WebBrowser" data-participant-2="WebServer"><polygon fill="#181818" points="225.8633,137.5625,235.8633,141.5625,225.8633,145.5625,229.8633,141.5625" style="stroke:#181818;stroke-width:1;"/><line style="stroke:#181818;stroke-width:1;" x1="131.0459" x2="231.8633" y1="141.5625" y2="141.5625"/><text fill="#000000" font-family="sans-serif" font-size="13" lengthAdjust="spacing" textLength="79.625" x="138.0459" y="136.4966">HTTP/HTTPS</text></g><g class="message" data-participant-1="WebServer" data-participant-2="Database"><polygon fill="#181818" points="329.9199,166.6953,339.9199,170.6953,329.9199,174.6953,333.9199,170.6953" style="stroke:#181818;stroke-width:1;"/><line style="stroke:#181818;stroke-width:1;" x1="237.8633" x2="335.9199" y1="170.6953" y2="170.6953"/><text fill="#000000" font-family="sans-serif" font-size="13" lengthAdjust="spacing" textLength="80.0566" x="244.8633" y="165.6294">SQL Queries</text></g><g class="message" data-participant-1="Database" data-participant-2="WebServer"><polygon fill="#181818" points="248.8633,195.8281,238.8633,199.8281,248.8633,203.8281,244.8633,199.8281" style="stroke:#181818;stroke-width:1;"/><line style="stroke:#181818;stroke-width:1;" x1="242.8633" x2="340.9199" y1="199.8281" y2="199.8281"/><text fill="#000000" font-family="sans-serif" font-size="13" lengthAdjust="spacing" textLength="31.04" x="254.8633" y="194.7622">Data</text></g><g class="message" data-participant-1="WebServer" data-participant-2="WebBrowser"><polygon fill="#181818" points="142.0459,224.9609,132.0459,228.9609,142.0459,232.9609,138.0459,228.9609" style="stroke:#181818;stroke-width:1;"/><line style="stroke:#181818;stroke-width:1;" x1="136.0459" x2="236.8633" y1="228.9609" y2="228.9609"/><text fill="#000000" font-family="sans-serif" font-size="13" lengthAdjust="spacing" textLength="63.0195" x="148.0459" y="223.895">Response</text></g><g class="message" data-participant-1="WebBrowser" data-participant-2="User"><polygon fill="#181818" points="34.9551,254.0938,24.9551,258.0938,34.9551,262.0938,30.9551,258.0938" style="stroke:#181818;stroke-width:1;"/><line style="stroke:#181818;stroke-width:1;" x1="28.9551" x2="130.0459" y1="258.0938" y2="258.0938"/><text fill="#000000" font-family="sans-serif" font-size="13" lengthAdjust="spacing" textLength="83.0908" x="40.9551" y="253.0278">Display Data</text></g><!--SRC=[ROwz3i8m30PtFuLV0B4pCA0E30oKj69sAm-HK1Fij8Yt9o6YFn5BXilvz54Vd62hBE19Wksjfo7WdRkJkDSVR5YcWbOKg2DbWDJ1tN5rZWUyyNDa3R22MScfQ9oRvhfFZu45H-SNZegfBrYFB9OLPbna4jy6YXtgtH1dReUq-RUowX_q_aO-]--></g></svg>