<svg xmlns="http://www.w3.org/2000/svg" xmlns:xlink="http://www.w3.org/1999/xlink" contentStyleType="text/css" data-diagram-type="DESCRIPTION" height="166px" preserveAspectRatio="none" style="width:1821px;height:166px;background:#FFFFFF;" version="1.1" viewBox="0 0 1821 166" width="1821px" zoomAndPan="magnify"><defs/><g><!--entity User--><g class="entity" data-entity="User" data-source-line="1" data-uid="ent0002" id="entity_User"><ellipse cx="21.9551" cy="93.12" fill="#F1F1F1" rx="8" ry="8" style="stroke:#181818;stroke-width:0.5;"/><path d="M21.9551,101.12 L21.9551,128.12 M8.9551,109.12 L34.9551,109.12 M21.9551,128.12 L8.9551,143.12 M21.9551,128.12 L34.9551,143.12 " fill="none" style="stroke:#181818;stroke-width:0.5;"/><text fill="#000000" font-family="sans-serif" font-size="14" lengthAdjust="spacing" textLength="31.9102" x="6" y="157.6151">User</text></g><!--entity Admin--><g class="entity" data-entity="Admin" data-source-line="2" data-uid="ent0003" id="entity_Admin"><ellipse cx="854.9521" cy="93.12" fill="#F1F1F1" rx="8" ry="8" style="stroke:#181818;stroke-width:0.5;"/><path d="M854.9521,101.12 L854.9521,128.12 M841.9521,109.12 L867.9521,109.12 M854.9521,128.12 L841.9521,143.12 M854.9521,128.12 L867.9521,143.12 " fill="none" style="stroke:#181818;stroke-width:0.5;"/><text fill="#000000" font-family="sans-serif" font-size="14" lengthAdjust="spacing" textLength="44.8643" x="832.52" y="157.6151">Admin</text></g><!--entity Web Server--><g class="entity" data-entity="Web Server" data-source-line="4" data-uid="ent0004" id="entity_Web Server"><rect fill="#F1F1F1" height="46.2969" rx="2.5" ry="2.5" style="stroke:#181818;stroke-width:0.5;" width="121.7031" x="171.1" y="99.62"/><rect fill="#F1F1F1" height="10" style="stroke:#181818;stroke-width:0.5;" width="15" x="272.8031" y="104.62"/><rect fill="#F1F1F1" height="2" style="stroke:#181818;stroke-width:0.5;" width="4" x="270.8031" y="106.62"/><rect fill="#F1F1F1" height="2" style="stroke:#181818;stroke-width:0.5;" width="4" x="270.8031" y="110.62"/><text fill="#000000" font-family="sans-serif" font-size="14" lengthAdjust="spacing" textLength="81.7031" x="186.1" y="132.6151">Web Server</text></g><!--entity Game Interface--><g class="entity" data-entity="Game Interface" data-source-line="5" data-uid="ent0006" id="entity_Game Interface"><rect fill="#F1F1F1" height="46.2969" rx="2.5" ry="2.5" style="stroke:#181818;stroke-width:0.5;" width="148.8076" x="912.55" y="99.62"/><rect fill="#F1F1F1" height="10" style="stroke:#181818;stroke-width:0.5;" width="15" x="1041.3576" y="104.62"/><rect fill="#F1F1F1" height="2" style="stroke:#181818;stroke-width:0.5;" width="4" x="1039.3576" y="106.62"/><rect fill="#F1F1F1" height="2" style="stroke:#181818;stroke-width:0.5;" width="4" x="1039.3576" y="110.62"/><text fill="#000000" font-family="sans-serif" font-size="14" lengthAdjust="spacing" textLength="108.8076" x="927.55" y="132.6151">Game Interface</text></g><!--entity Input Validation Module--><g class="entity" data-entity="Input Validation Module" data-source-line="6" data-uid="ent0008" id="entity_Input Validation Module"><rect fill="#F1F1F1" height="46.2969" rx="2.5" ry="2.5" style="stroke:#181818;stroke-width:0.5;" width="206.2773" x="1608.82" y="99.62"/><rect fill="#F1F1F1" height="10" style="stroke:#181818;stroke-width:0.5;" width="15" x="1795.0973" y="104.62"/><rect fill="#F1F1F1" height="2" style="stroke:#181818;stroke-width:0.5;" width="4" x="1793.0973" y="106.62"/><rect fill="#F1F1F1" height="2" style="stroke:#181818;stroke-width:0.5;" width="4" x="1793.0973" y="110.62"/><text fill="#000000" font-family="sans-serif" font-size="14" lengthAdjust="spacing" textLength="166.2773" x="1623.82" y="132.6151">Input Validation Module</text></g><!--entity Feedback Module--><g class="entity" data-entity="Feedback Module" data-source-line="8" data-uid="ent0011" id="entity_Feedback Module"><rect fill="#F1F1F1" height="46.2969" rx="2.5" ry="2.5" style="stroke:#181818;stroke-width:0.5;" width="162.7939" x="1410.56" y="99.62"/><rect fill="#F1F1F1" height="10" style="stroke:#181818;stroke-width:0.5;" width="15" x="1553.3539" y="104.62"/><rect fill="#F1F1F1" height="2" style="stroke:#181818;stroke-width:0.5;" width="4" x="1551.3539" y="106.62"/><rect fill="#F1F1F1" height="2" style="stroke:#181818;stroke-width:0.5;" width="4" x="1551.3539" y="110.62"/><text fill="#000000" font-family="sans-serif" font-size="14" lengthAdjust="spacing" textLength="122.7939" x="1425.56" y="132.6151">Feedback Module</text></g><!--entity Content Management System--><g class="entity" data-entity="Content Management System" data-source-line="12" data-uid="ent0015" id="entity_Content Management System"><rect fill="#F1F1F1" height="46.2969" rx="2.5" ry="2.5" style="stroke:#181818;stroke-width:0.5;" width="249.0088" x="445.45" y="99.62"/><rect fill="#F1F1F1" height="10" style="stroke:#181818;stroke-width:0.5;" width="15" x="674.4588" y="104.62"/><rect fill="#F1F1F1" height="2" style="stroke:#181818;stroke-width:0.5;" width="4" x="672.4588" y="106.62"/><rect fill="#F1F1F1" height="2" style="stroke:#181818;stroke-width:0.5;" width="4" x="672.4588" y="110.62"/><text fill="#000000" font-family="sans-serif" font-size="14" lengthAdjust="spacing" textLength="209.0088" x="460.45" y="132.6151">Content Management System</text></g><!--link User to Web Server--><g class="link" data-entity-1="User" data-entity-2="Web Server" data-source-line="4" data-uid="lnk5" id="link_User_Web Server"><path d="M38.08,122.77 C66.13,122.77 119.24,122.77 164.87,122.77 " fill="none" id="User-to-Web Server" style="stroke:#181818;stroke-width:1;"/><polygon fill="#181818" points="170.87,122.77,161.87,118.77,165.87,122.77,161.87,126.77,170.87,122.77" style="stroke:#181818;stroke-width:1;"/><text fill="#000000" font-family="sans-serif" font-size="13" lengthAdjust="spacing" textLength="97.3413" x="56.01" y="115.8369">Access System</text></g><!--link Web Server to Game Interface--><g class="link" data-entity-1="Web Server" data-entity-2="Game Interface" data-source-line="5" data-uid="lnk7" id="link_Web Server_Game Interface"><path d="M264.99,99.23 C291.43,81.91 330.2,59.82 367.96,50.4 C424.09,36.39 646.82,25.37 894.96,84.62 C909.42,88.08 919.0097,91.2166 932.7197,96.9166 " fill="none" id="Web Server-to-Game Interface" style="stroke:#181818;stroke-width:1;"/><polygon fill="#181818" points="938.26,99.22,931.4852,92.0714,933.6431,97.3005,928.414,99.4584,938.26,99.22" style="stroke:#181818;stroke-width:1;"/><text fill="#000000" font-family="sans-serif" font-size="13" lengthAdjust="spacing" textLength="74.2485" x="368.96" y="50.6869">Load Game</text></g><!--link Game Interface to Input Validation Module--><g class="link" data-entity-1="Game Interface" data-entity-2="Input Validation Module" data-source-line="6" data-uid="lnk9" id="link_Game Interface_Input Validation Module"><path d="M1002.87,99.3 C1016.04,82.15 1036.43,60.24 1060.46,50.4 C1098.7,34.73 1112.15,48.78 1153.46,50.4 C1348.35,58.01 1399.49,47.45 1590.96,84.62 C1609.23,88.17 1622.8962,91.7305 1640.6762,97.3205 " fill="none" id="Game Interface-to-Input Validation Module" style="stroke:#181818;stroke-width:1;"/><polygon fill="#181818" points="1646.4,99.12,1639.014,92.6048,1641.6302,97.6204,1636.6146,100.2365,1646.4,99.12" style="stroke:#181818;stroke-width:1;"/><text fill="#000000" font-family="sans-serif" font-size="13" lengthAdjust="spacing" textLength="91.1904" x="1061.46" y="50.6869">Validate Input</text></g><!--link Input Validation Module to Game Interface--><g class="link" data-entity-1="Input Validation Module" data-entity-2="Game Interface" data-source-line="7" data-uid="lnk10" id="link_Input Validation Module_Game Interface"><path d="M1646.4,99.12 C1628.62,93.53 1609.23,88.17 1590.96,84.62 C1399.49,47.45 1348.35,58.01 1153.46,50.4 C1112.15,48.78 1098.7,34.73 1060.46,50.4 C1036.43,60.24 1019.6944,77.3913 1006.5244,94.5413 " fill="none" id="Input Validation Module-to-Game Interface" style="stroke:#181818;stroke-width:1;"/><polygon fill="#181818" points="1002.87,99.3,1011.5241,94.5981,1005.9153,95.3344,1005.1791,89.7256,1002.87,99.3" style="stroke:#181818;stroke-width:1;"/><text fill="#000000" font-family="sans-serif" font-size="13" lengthAdjust="spacing" textLength="128.0068" x="1042.96" y="50.6869">Return Valid/Invalid</text></g><!--link Game Interface to Feedback Module--><g class="link" data-entity-1="Game Interface" data-entity-2="Feedback Module" data-source-line="8" data-uid="lnk12" id="link_Game Interface_Feedback Module"><path d="M1061.74,122.77 C1154.96,122.77 1307.71,122.77 1404.1,122.77 " fill="none" id="Game Interface-to-Feedback Module" style="stroke:#181818;stroke-width:1;"/><polygon fill="#181818" points="1410.1,122.77,1401.1,118.77,1405.1,122.77,1401.1,126.77,1410.1,122.77" style="stroke:#181818;stroke-width:1;"/><text fill="#000000" font-family="sans-serif" font-size="13" lengthAdjust="spacing" textLength="73.5693" x="1199.46" y="115.8369">Send Score</text></g><!--link Feedback Module to User--><g class="link" data-entity-1="Feedback Module" data-entity-2="User" data-source-line="9" data-uid="lnk13" id="link_Feedback Module_User"><path d="M1474.03,99.25 C1459.35,82.08 1436.9,60.15 1411.46,50.4 C1362.9,31.78 1346.45,49.62 1294.46,50.4 C787.4,58 654.94,6 153.96,84.62 C111.3,91.32 68.6186,105.569 43.9586,114.539 " fill="none" id="Feedback Module-to-User" style="stroke:#181818;stroke-width:1;"/><polygon fill="#181818" points="38.32,116.59,48.1452,117.2725,43.0188,114.8808,45.4105,109.7544,38.32,116.59" style="stroke:#181818;stroke-width:1;"/><text fill="#000000" font-family="sans-serif" font-size="13" lengthAdjust="spacing" textLength="115.4448" x="1295.46" y="50.6869">Provide Feedback</text></g><!--link Admin to Web Server--><g class="link" data-entity-1="Admin" data-entity-2="Web Server" data-source-line="11" data-uid="lnk14" id="link_Admin_Web Server"><path d="M832.19,99.51 C813.55,82.23 785.5,60.05 755.96,50.4 C670.95,22.64 417.8544,77.6001 298.8244,106.1601 " fill="none" id="Admin-to-Web Server" style="stroke:#181818;stroke-width:1;"/><polygon fill="#181818" points="292.99,107.56,302.6749,109.3497,297.852,106.3934,300.8083,101.5705,292.99,107.56" style="stroke:#181818;stroke-width:1;"/><text fill="#000000" font-family="sans-serif" font-size="13" lengthAdjust="spacing" textLength="152.8579" x="602.96" y="50.6869">Access Admin Interface</text></g><!--link Web Server to Content Management System--><g class="link" data-entity-1="Web Server" data-entity-2="Content Management System" data-source-line="12" data-uid="lnk16" id="link_Web Server_Content Management System"><path d="M293.16,122.77 C335.49,122.77 387.3,122.77 439.15,122.77 " fill="none" id="Web Server-to-Content Management System" style="stroke:#181818;stroke-width:1;"/><polygon fill="#181818" points="445.15,122.77,436.15,118.77,440.15,122.77,436.15,126.77,445.15,122.77" style="stroke:#181818;stroke-width:1;"/><text fill="#000000" font-family="sans-serif" font-size="13" lengthAdjust="spacing" textLength="116.1304" x="311.13" y="115.8369">Update Questions</text></g><!--link Content Management System to Admin--><g class="link" data-entity-1="Content Management System" data-entity-2="Admin" data-source-line="13" data-uid="lnk17" id="link_Content Management System_Admin"><path d="M694.55,122.77 C746.67,122.77 796.04,122.77 826.17,122.77 " fill="none" id="Content Management System-to-Admin" style="stroke:#181818;stroke-width:1;"/><polygon fill="#181818" points="832.17,122.77,823.17,118.77,827.17,122.77,823.17,126.77,832.17,122.77" style="stroke:#181818;stroke-width:1;"/><text fill="#000000" font-family="sans-serif" font-size="13" lengthAdjust="spacing" textLength="102.6797" x="712.49" y="115.8369">Confirm Update</text></g><!--SRC=[VP11ImCn48Nlyolc3uZtFGX5K1OiQ9VgGJnCawa4cqcPP1VyzsQoLPHjFMMOzxsyuP4hIN6RMO7QkF8n281jyEe6NrzuXmFhnFg67QwSuvnn-Co58_mH3RwdoDXBOTsJOpCy9F9eQrY8PkZbE1PyfaFmL48IN2S_7fhpj3HBPU0oUZvumsLKcVdhNYPxpzzmn-ntv3v-PGyi7WUNj9wzaAkdjTFXewOfUCPl1A2rTxctMVx9NnPucwec1TSazCxHnhbh-sHxR7qyZPojW0p_uVMtEQt3Iks3nfF_2m00]--></g></svg>