<svg xmlns="http://www.w3.org/2000/svg" xmlns:xlink="http://www.w3.org/1999/xlink" contentStyleType="text/css" data-diagram-type="ACTIVITY" height="480px" preserveAspectRatio="none" style="width:493px;height:480px;background:#FFFFFF;" version="1.1" viewBox="0 0 493 480" width="493px" zoomAndPan="magnify"><defs/><g><ellipse cx="275.8677" cy="20" fill="#222222" rx="10" ry="10" style="stroke:#222222;stroke-width:1;"/><rect fill="#F1F1F1" height="33.9688" rx="12.5" ry="12.5" style="stroke:#181818;stroke-width:0.5;" width="109.8535" x="220.9409" y="50"/><text fill="#000000" font-family="sans-serif" font-size="12" lengthAdjust="spacing" textLength="89.8535" x="230.9409" y="71.1387">Access System</text><polygon fill="#F1F1F1" points="233.6643,103.9688,318.071,103.9688,330.071,115.9688,318.071,127.9688,233.6643,127.9688,221.6643,115.9688,233.6643,103.9688" style="stroke:#181818;stroke-width:0.5;"/><text fill="#000000" font-family="sans-serif" font-size="11" lengthAdjust="spacing" textLength="84.4067" x="233.6643" y="119.7769">User or Admin?</text><text fill="#000000" font-family="sans-serif" font-size="11" lengthAdjust="spacing" textLength="25.0723" x="196.592" y="113.3745">User</text><text fill="#000000" font-family="sans-serif" font-size="11" lengthAdjust="spacing" textLength="35.2505" x="330.071" y="113.3745">Admin</text><rect fill="#F1F1F1" height="33.9688" rx="12.5" ry="12.5" style="stroke:#181818;stroke-width:0.5;" width="88.5371" x="105.1943" y="137.9688"/><text fill="#000000" font-family="sans-serif" font-size="12" lengthAdjust="spacing" textLength="68.5371" x="115.1943" y="159.1074">Load Game</text><rect fill="#F1F1F1" height="33.9688" rx="12.5" ry="12.5" style="stroke:#181818;stroke-width:0.5;" width="104.1758" x="97.375" y="191.9375"/><text fill="#000000" font-family="sans-serif" font-size="12" lengthAdjust="spacing" textLength="84.1758" x="107.375" y="213.0762">Validate Input</text><polygon fill="#F1F1F1" points="132.8635,245.9063,166.0623,245.9063,178.0623,257.9063,166.0623,269.9063,132.8635,269.9063,120.8635,257.9063,132.8635,245.9063" style="stroke:#181818;stroke-width:0.5;"/><text fill="#000000" font-family="sans-serif" font-size="11" lengthAdjust="spacing" textLength="33.1987" x="132.8635" y="261.7144">Valid?</text><text fill="#000000" font-family="sans-serif" font-size="11" lengthAdjust="spacing" textLength="19.2178" x="101.6458" y="255.312">Yes</text><text fill="#000000" font-family="sans-serif" font-size="11" lengthAdjust="spacing" textLength="14.9585" x="178.0623" y="255.312">No</text><rect fill="#F1F1F1" height="33.9688" rx="12.5" ry="12.5" style="stroke:#181818;stroke-width:0.5;" width="87.9102" x="30.3271" y="279.9063"/><text fill="#000000" font-family="sans-serif" font-size="12" lengthAdjust="spacing" textLength="67.9102" x="40.3271" y="301.0449">Send Score</text><rect fill="#F1F1F1" height="33.9688" rx="12.5" ry="12.5" style="stroke:#181818;stroke-width:0.5;" width="126.5645" x="11" y="333.875"/><text fill="#000000" font-family="sans-serif" font-size="12" lengthAdjust="spacing" textLength="106.5645" x="21" y="355.0137">Provide Feedback</text><rect fill="#F1F1F1" height="33.9688" rx="12.5" ry="12.5" style="stroke:#181818;stroke-width:0.5;" width="134.1582" x="157.5645" y="279.9063"/><text fill="#000000" font-family="sans-serif" font-size="12" lengthAdjust="spacing" textLength="114.1582" x="167.5645" y="301.0449">Request New Input</text><polygon fill="#F1F1F1" points="149.4629,373.8438,161.4629,385.8438,149.4629,397.8438,137.4629,385.8438,149.4629,373.8438" style="stroke:#181818;stroke-width:0.5;"/><rect fill="#F1F1F1" height="33.9688" rx="12.5" ry="12.5" style="stroke:#181818;stroke-width:0.5;" width="161.0996" x="321.7227" y="137.9688"/><text fill="#000000" font-family="sans-serif" font-size="12" lengthAdjust="spacing" textLength="141.0996" x="331.7227" y="159.1074">Access Admin Interface</text><rect fill="#F1F1F1" height="33.9688" rx="12.5" ry="12.5" style="stroke:#181818;stroke-width:0.5;" width="127.1973" x="338.6738" y="191.9375"/><text fill="#000000" font-family="sans-serif" font-size="12" lengthAdjust="spacing" textLength="107.1973" x="348.6738" y="213.0762">Update Questions</text><rect fill="#F1F1F1" height="33.9688" rx="12.5" ry="12.5" style="stroke:#181818;stroke-width:0.5;" width="114.7813" x="344.8818" y="245.9063"/><text fill="#000000" font-family="sans-serif" font-size="12" lengthAdjust="spacing" textLength="94.7813" x="354.8818" y="267.0449">Confirm Update</text><polygon fill="#F1F1F1" points="275.8677,403.8438,287.8677,415.8438,275.8677,427.8438,263.8677,415.8438,275.8677,403.8438" style="stroke:#181818;stroke-width:0.5;"/><ellipse cx="275.8677" cy="458.8438" fill="none" rx="11" ry="11" style="stroke:#222222;stroke-width:1;"/><ellipse cx="275.8677" cy="458.8438" fill="#222222" rx="6" ry="6" style="stroke:#222222;stroke-width:1;"/><line style="stroke:#181818;stroke-width:1;" x1="275.8677" x2="275.8677" y1="30" y2="50"/><polygon fill="#181818" points="271.8677,40,275.8677,50,279.8677,40,275.8677,44" style="stroke:#181818;stroke-width:1;"/><line style="stroke:#181818;stroke-width:1;" x1="149.4629" x2="149.4629" y1="171.9375" y2="191.9375"/><polygon fill="#181818" points="145.4629,181.9375,149.4629,191.9375,153.4629,181.9375,149.4629,185.9375" style="stroke:#181818;stroke-width:1;"/><line style="stroke:#181818;stroke-width:1;" x1="74.2822" x2="74.2822" y1="313.875" y2="333.875"/><polygon fill="#181818" points="70.2822,323.875,74.2822,333.875,78.2822,323.875,74.2822,327.875" style="stroke:#181818;stroke-width:1;"/><line style="stroke:#181818;stroke-width:1;" x1="120.8635" x2="74.2822" y1="257.9063" y2="257.9063"/><line style="stroke:#181818;stroke-width:1;" x1="74.2822" x2="74.2822" y1="257.9063" y2="279.9063"/><polygon fill="#181818" points="70.2822,269.9063,74.2822,279.9063,78.2822,269.9063,74.2822,273.9063" style="stroke:#181818;stroke-width:1;"/><line style="stroke:#181818;stroke-width:1;" x1="178.0623" x2="224.6436" y1="257.9063" y2="257.9063"/><line style="stroke:#181818;stroke-width:1;" x1="224.6436" x2="224.6436" y1="257.9063" y2="279.9063"/><polygon fill="#181818" points="220.6436,269.9063,224.6436,279.9063,228.6436,269.9063,224.6436,273.9063" style="stroke:#181818;stroke-width:1;"/><line style="stroke:#181818;stroke-width:1;" x1="74.2822" x2="74.2822" y1="367.8438" y2="385.8438"/><line style="stroke:#181818;stroke-width:1;" x1="74.2822" x2="137.4629" y1="385.8438" y2="385.8438"/><polygon fill="#181818" points="127.4629,381.8438,137.4629,385.8438,127.4629,389.8438,131.4629,385.8438" style="stroke:#181818;stroke-width:1;"/><line style="stroke:#181818;stroke-width:1;" x1="224.6436" x2="224.6436" y1="313.875" y2="385.8438"/><line style="stroke:#181818;stroke-width:1;" x1="224.6436" x2="161.4629" y1="385.8438" y2="385.8438"/><polygon fill="#181818" points="171.4629,381.8438,161.4629,385.8438,171.4629,389.8438,167.4629,385.8438" style="stroke:#181818;stroke-width:1;"/><line style="stroke:#181818;stroke-width:1;" x1="149.4629" x2="149.4629" y1="225.9063" y2="245.9063"/><polygon fill="#181818" points="145.4629,235.9063,149.4629,245.9063,153.4629,235.9063,149.4629,239.9063" style="stroke:#181818;stroke-width:1;"/><line style="stroke:#181818;stroke-width:1;" x1="402.2725" x2="402.2725" y1="171.9375" y2="191.9375"/><polygon fill="#181818" points="398.2725,181.9375,402.2725,191.9375,406.2725,181.9375,402.2725,185.9375" style="stroke:#181818;stroke-width:1;"/><line style="stroke:#181818;stroke-width:1;" x1="402.2725" x2="402.2725" y1="225.9063" y2="245.9063"/><polygon fill="#181818" points="398.2725,235.9063,402.2725,245.9063,406.2725,235.9063,402.2725,239.9063" style="stroke:#181818;stroke-width:1;"/><line style="stroke:#181818;stroke-width:1;" x1="221.6643" x2="149.4629" y1="115.9688" y2="115.9688"/><line style="stroke:#181818;stroke-width:1;" x1="149.4629" x2="149.4629" y1="115.9688" y2="137.9688"/><polygon fill="#181818" points="145.4629,127.9688,149.4629,137.9688,153.4629,127.9688,149.4629,131.9688" style="stroke:#181818;stroke-width:1;"/><line style="stroke:#181818;stroke-width:1;" x1="330.071" x2="402.2725" y1="115.9688" y2="115.9688"/><line style="stroke:#181818;stroke-width:1;" x1="402.2725" x2="402.2725" y1="115.9688" y2="137.9688"/><polygon fill="#181818" points="398.2725,127.9688,402.2725,137.9688,406.2725,127.9688,402.2725,131.9688" style="stroke:#181818;stroke-width:1;"/><line style="stroke:#181818;stroke-width:1;" x1="149.4629" x2="149.4629" y1="397.8438" y2="415.8438"/><line style="stroke:#181818;stroke-width:1;" x1="149.4629" x2="263.8677" y1="415.8438" y2="415.8438"/><polygon fill="#181818" points="253.8677,411.8438,263.8677,415.8438,253.8677,419.8438,257.8677,415.8438" style="stroke:#181818;stroke-width:1;"/><line style="stroke:#181818;stroke-width:1;" x1="402.2725" x2="402.2725" y1="279.875" y2="415.8438"/><line style="stroke:#181818;stroke-width:1;" x1="402.2725" x2="287.8677" y1="415.8438" y2="415.8438"/><polygon fill="#181818" points="297.8677,411.8438,287.8677,415.8438,297.8677,419.8438,293.8677,415.8438" style="stroke:#181818;stroke-width:1;"/><line style="stroke:#181818;stroke-width:1;" x1="275.8677" x2="275.8677" y1="83.9688" y2="103.9688"/><polygon fill="#181818" points="271.8677,93.9688,275.8677,103.9688,279.8677,93.9688,275.8677,97.9688" style="stroke:#181818;stroke-width:1;"/><line style="stroke:#181818;stroke-width:1;" x1="275.8677" x2="275.8677" y1="427.8438" y2="447.8438"/><polygon fill="#181818" points="271.8677,437.8438,275.8677,447.8438,279.8677,437.8438,275.8677,441.8438" style="stroke:#181818;stroke-width:1;"/><!--SRC=[HO_12i8m44Jl-OezwY_OWuYW229ggU0n9bCCsgHcjuf_RvE87lVjpEmiYuwYPWjZm4prcmLTfLnBauOHAKHQsCxv-PJa2b_eL17Dja5RMkiELPfE-kwi5j36zuCab28o_LdFuEGSrJMyfTg4cCqZsCVmT1Qq0kn5crl2k3DeiWjVpn6F0Ioqm-j_PCnnhIhAt3DN-pwJmQWLn5QRqhFfSyj3YdB1SuRBu5iNEohBIfLKbj1_0000]--></g></svg>