<svg xmlns="http://www.w3.org/2000/svg" xmlns:xlink="http://www.w3.org/1999/xlink" contentStyleType="text/css" data-diagram-type="CLASS" height="103px" preserveAspectRatio="none" style="width:1689px;height:103px;background:#FFFFFF;" version="1.1" viewBox="0 0 1689 103" width="1689px" zoomAndPan="magnify"><defs/><g><g class="entity" data-entity="User" data-source-line="1" data-uid="ent0002" id="entity_User"><rect fill="#F1F1F1" height="36.2969" rx="2.5" ry="2.5" style="stroke:#181818;stroke-width:0.5;" width="45.9102" x="7" y="61.5"/><text fill="#000000" font-family="sans-serif" font-size="14" lengthAdjust="spacing" textLength="31.9102" x="14" y="76.4951">User</text><line style="stroke:#181818;stroke-width:0.5;" x1="8" x2="51.9102" y1="81.7969" y2="81.7969"/></g><g class="entity" data-entity="Admin" data-source-line="2" data-uid="ent0003" id="entity_Admin"><rect fill="#F1F1F1" height="36.2969" rx="2.5" ry="2.5" style="stroke:#181818;stroke-width:0.5;" width="58.8643" x="782.52" y="61.5"/><text fill="#000000" font-family="sans-serif" font-size="14" lengthAdjust="spacing" textLength="44.8643" x="789.52" y="76.4951">Admin</text><line style="stroke:#181818;stroke-width:0.5;" x1="783.52" x2="840.3843" y1="81.7969" y2="81.7969"/></g><g class="entity" data-entity="WebServer" data-source-line="3" data-uid="ent0004" id="entity_WebServer"><rect fill="#F1F1F1" height="36.2969" rx="2.5" ry="2.5" style="stroke:#181818;stroke-width:0.5;" width="91.2529" x="186.33" y="61.5"/><text fill="#000000" font-family="sans-serif" font-size="14" lengthAdjust="spacing" textLength="77.2529" x="193.33" y="76.4951">WebServer</text><line style="stroke:#181818;stroke-width:0.5;" x1="187.33" x2="276.5829" y1="81.7969" y2="81.7969"/></g><g class="entity" data-entity="GameInterface" data-source-line="4" data-uid="ent0005" id="entity_GameInterface"><rect fill="#F1F1F1" height="36.2969" rx="2.5" ry="2.5" style="stroke:#181818;stroke-width:0.5;" width="118.3574" x="876.78" y="61.5"/><text fill="#000000" font-family="sans-serif" font-size="14" lengthAdjust="spacing" textLength="104.3574" x="883.78" y="76.4951">GameInterface</text><line style="stroke:#181818;stroke-width:0.5;" x1="877.78" x2="994.1374" y1="81.7969" y2="81.7969"/></g><g class="entity" data-entity="InputValidationModule" data-source-line="5" data-uid="ent0006" id="entity_InputValidationModule"><rect fill="#F1F1F1" height="36.2969" rx="2.5" ry="2.5" style="stroke:#181818;stroke-width:0.5;" width="171.377" x="1512.27" y="61.5"/><text fill="#000000" font-family="sans-serif" font-size="14" lengthAdjust="spacing" textLength="157.377" x="1519.27" y="76.4951">InputValidationModule</text><line style="stroke:#181818;stroke-width:0.5;" x1="1513.27" x2="1682.647" y1="81.7969" y2="81.7969"/></g><g class="entity" data-entity="FeedbackModule" data-source-line="6" data-uid="ent0007" id="entity_FeedbackModule"><rect fill="#F1F1F1" height="36.2969" rx="2.5" ry="2.5" style="stroke:#181818;stroke-width:0.5;" width="132.3438" x="1344.78" y="61.5"/><text fill="#000000" font-family="sans-serif" font-size="14" lengthAdjust="spacing" textLength="118.3438" x="1351.78" y="76.4951">FeedbackModule</text><line style="stroke:#181818;stroke-width:0.5;" x1="1345.78" x2="1476.1238" y1="81.7969" y2="81.7969"/></g><g class="entity" data-entity="ContentManagementSystem" data-source-line="7" data-uid="ent0008" id="entity_ContentManagementSystem"><rect fill="#F1F1F1" height="36.2969" rx="2.5" ry="2.5" style="stroke:#181818;stroke-width:0.5;" width="214.1084" x="429.9" y="61.5"/><text fill="#000000" font-family="sans-serif" font-size="14" lengthAdjust="spacing" textLength="200.1084" x="436.9" y="76.4951">ContentManagementSystem</text><line style="stroke:#181818;stroke-width:0.5;" x1="430.9" x2="643.0084" y1="81.7969" y2="81.7969"/></g><!--link User to WebServer--><g class="link" data-entity-1="User" data-entity-2="WebServer" data-source-line="9" data-uid="lnk9" id="link_User_WebServer"><path codeLine="9" d="M53.13,79.65 C85.46,79.65 138.79,79.65 180.21,79.65 " fill="none" id="User-to-WebServer" style="stroke:#181818;stroke-width:1;"/><polygon fill="#181818" points="186.21,79.65,177.21,75.65,181.21,79.65,177.21,83.65,186.21,79.65" style="stroke:#181818;stroke-width:1;"/><text fill="#000000" font-family="sans-serif" font-size="13" lengthAdjust="spacing" textLength="97.3413" x="71.12" y="72.7169">Access System</text></g><!--link WebServer to GameInterface--><g class="link" data-entity-1="WebServer" data-entity-2="GameInterface" data-source-line="10" data-uid="lnk10" id="link_WebServer_GameInterface"><path codeLine="10" d="M260.3,61.1 C282.36,47.83 314.28,31.09 344.96,23.94 C395.24,12.22 600.49,20.19 858.96,61.5 C864.65,62.41 864.6731,62.3006 870.5531,63.5106 " fill="none" id="WebServer-to-GameInterface" style="stroke:#181818;stroke-width:1;"/><polygon fill="#181818" points="876.43,64.72,868.4209,58.9881,871.5326,63.7122,866.8085,66.8239,876.43,64.72" style="stroke:#181818;stroke-width:1;"/><text fill="#000000" font-family="sans-serif" font-size="13" lengthAdjust="spacing" textLength="74.2485" x="345.96" y="27.5669">Load Game</text></g><!--link GameInterface to InputValidationModule--><g class="link" data-entity-1="GameInterface" data-entity-2="InputValidationModule" data-source-line="11" data-uid="lnk11" id="link_GameInterface_InputValidationModule"><path codeLine="11" d="M949.2,61.03 C959.76,47.9 975.83,31.39 994.46,23.94 C1032.83,8.59 1046.17,22.05 1087.46,23.94 C1269.14,32.3 1314.69,37.36 1494.96,61.5 C1500.44,62.24 1500.1592,62.1516 1505.8392,63.0216 " fill="none" id="GameInterface-to-InputValidationModule" style="stroke:#181818;stroke-width:1;"/><polygon fill="#181818" points="1511.77,63.93,1503.4794,58.6135,1506.8276,63.173,1502.2681,66.5213,1511.77,63.93" style="stroke:#181818;stroke-width:1;"/><text fill="#000000" font-family="sans-serif" font-size="13" lengthAdjust="spacing" textLength="91.1904" x="995.46" y="27.5669">Validate Input</text></g><!--link InputValidationModule to GameInterface--><g class="link" data-entity-1="InputValidationModule" data-entity-2="GameInterface" data-source-line="12" data-uid="lnk12" id="link_InputValidationModule_GameInterface"><path codeLine="12" d="M1511.77,63.93 C1506.09,63.06 1500.44,62.24 1494.96,61.5 C1314.69,37.36 1269.14,32.3 1087.46,23.94 C1046.17,22.05 1032.83,8.59 994.46,23.94 C975.83,31.39 963.5203,43.2245 952.9603,56.3545 " fill="none" id="InputValidationModule-to-GameInterface" style="stroke:#181818;stroke-width:1;"/><polygon fill="#181818" points="949.2,61.03,957.9575,56.5237,952.3336,57.1338,951.7235,51.5099,949.2,61.03" style="stroke:#181818;stroke-width:1;"/><text fill="#000000" font-family="sans-serif" font-size="13" lengthAdjust="spacing" textLength="128.0068" x="976.96" y="27.5669">Return Valid/Invalid</text></g><!--link GameInterface to FeedbackModule--><g class="link" data-entity-1="GameInterface" data-entity-2="FeedbackModule" data-source-line="13" data-uid="lnk13" id="link_GameInterface_FeedbackModule"><path codeLine="13" d="M995.63,79.65 C1084.71,79.65 1245.88,79.65 1338.66,79.65 " fill="none" id="GameInterface-to-FeedbackModule" style="stroke:#181818;stroke-width:1;"/><polygon fill="#181818" points="1344.66,79.65,1335.66,75.65,1339.66,79.65,1335.66,83.65,1344.66,79.65" style="stroke:#181818;stroke-width:1;"/><text fill="#000000" font-family="sans-serif" font-size="13" lengthAdjust="spacing" textLength="73.5693" x="1133.46" y="72.7169">Send Score</text></g><!--link FeedbackModule to User--><g class="link" data-entity-1="FeedbackModule" data-entity-2="User" data-source-line="14" data-uid="lnk14" id="link_FeedbackModule_User"><path codeLine="14" d="M1395.9,61.25 C1383.83,48.06 1365.63,31.36 1345.46,23.94 C1296.65,6 1280.45,23.02 1228.46,23.94 C757.34,32.29 638.53,22.61 168.96,61.5 C127.97,64.9 86.45,70.8064 58.93,75.0464 " fill="none" id="FeedbackModule-to-User" style="stroke:#181818;stroke-width:1;"/><polygon fill="#181818" points="53,75.96,62.5041,78.5429,57.9417,75.1986,61.286,70.6362,53,75.96" style="stroke:#181818;stroke-width:1;"/><text fill="#000000" font-family="sans-serif" font-size="13" lengthAdjust="spacing" textLength="115.4448" x="1229.46" y="27.5669">Provide Feedback</text></g><!--link Admin to WebServer--><g class="link" data-entity-1="Admin" data-entity-2="WebServer" data-source-line="16" data-uid="lnk15" id="link_Admin_WebServer"><path codeLine="16" d="M788.02,61.13 C769.29,47.88 741.98,31.15 714.96,23.94 C648.82,6.31 629.16,18.21 560.96,23.94 C459.07,32.51 347.146,54.4792 283.826,68.0892 " fill="none" id="Admin-to-WebServer" style="stroke:#181818;stroke-width:1;"/><polygon fill="#181818" points="277.96,69.35,287.5996,71.3694,282.8484,68.2993,285.9185,63.548,277.96,69.35" style="stroke:#181818;stroke-width:1;"/><text fill="#000000" font-family="sans-serif" font-size="13" lengthAdjust="spacing" textLength="152.8579" x="561.96" y="27.5669">Access Admin Interface</text></g><!--link WebServer to ContentManagementSystem--><g class="link" data-entity-1="WebServer" data-entity-2="ContentManagementSystem" data-source-line="17" data-uid="lnk16" id="link_WebServer_ContentManagementSystem"><path codeLine="17" d="M277.95,79.65 C317.97,79.65 371.54,79.65 423.47,79.65 " fill="none" id="WebServer-to-ContentManagementSystem" style="stroke:#181818;stroke-width:1;"/><polygon fill="#181818" points="429.47,79.65,420.47,75.65,424.47,79.65,420.47,83.65,429.47,79.65" style="stroke:#181818;stroke-width:1;"/><text fill="#000000" font-family="sans-serif" font-size="13" lengthAdjust="spacing" textLength="116.1304" x="295.74" y="72.7169">Update Questions</text></g><!--link ContentManagementSystem to Admin--><g class="link" data-entity-1="ContentManagementSystem" data-entity-2="Admin" data-source-line="18" data-uid="lnk17" id="link_ContentManagementSystem_Admin"><path codeLine="18" d="M644.46,79.65 C694.02,79.65 743.05,79.65 776.05,79.65 " fill="none" id="ContentManagementSystem-to-Admin" style="stroke:#181818;stroke-width:1;"/><polygon fill="#181818" points="782.05,79.65,773.05,75.65,777.05,79.65,773.05,83.65,782.05,79.65" style="stroke:#181818;stroke-width:1;"/><text fill="#000000" font-family="sans-serif" font-size="13" lengthAdjust="spacing" textLength="102.6797" x="662.27" y="72.7169">Confirm Update</text></g><!--SRC=[TL5BQiCm4DtFANI1qhqNXL1eC2JGngHToz9BKHj9GP8DlNt6bXEZr5vfz3xpzUqFL1B7Y40-nnjjZRjzlj0s2FtCRgL5xHB2IIhSmDfTklGfpqRBPBpRUzsTx-GRe5kfValqrNCIb_RIoMzOZfg_c629XbR4qyjSMLHYenHY59DaPbXMzCFIdPTw1AbaMBhO9Lic25b0oxA5KWUaBhXiVwvTFxp_gvRZiws1qw9HFe0UE5QFqrVYFVZUQDpDHEDLLlQIkVagnO9M5itkusMS-gD370QDj2RbBBb4DMGxcM0dxnK0]--></g></svg>