<svg xmlns="http://www.w3.org/2000/svg" xmlns:xlink="http://www.w3.org/1999/xlink" contentStyleType="text/css" data-diagram-type="DESCRIPTION" height="143px" preserveAspectRatio="none" style="width:2053px;height:143px;background:#FFFFFF;" version="1.1" viewBox="0 0 2053 143" width="2053px" zoomAndPan="magnify"><defs/><g><!--entity User--><g class="entity" data-entity="User" data-source-line="1" data-uid="ent0002" id="entity_User"><ellipse cx="21.9551" cy="70.97" fill="#F1F1F1" rx="8" ry="8" style="stroke:#181818;stroke-width:0.5;"/><path d="M21.9551,78.97 L21.9551,105.97 M8.9551,86.97 L34.9551,86.97 M21.9551,105.97 L8.9551,120.97 M21.9551,105.97 L34.9551,120.97 " fill="none" style="stroke:#181818;stroke-width:0.5;"/><text fill="#000000" font-family="sans-serif" font-size="14" lengthAdjust="spacing" textLength="31.9102" x="6" y="135.4651">User</text></g><!--entity Admin--><g class="entity" data-entity="Admin" data-source-line="2" data-uid="ent0003" id="entity_Admin"><ellipse cx="1335.9521" cy="70.97" fill="#F1F1F1" rx="8" ry="8" style="stroke:#181818;stroke-width:0.5;"/><path d="M1335.9521,78.97 L1335.9521,105.97 M1322.9521,86.97 L1348.9521,86.97 M1335.9521,105.97 L1322.9521,120.97 M1335.9521,105.97 L1348.9521,120.97 " fill="none" style="stroke:#181818;stroke-width:0.5;"/><text fill="#000000" font-family="sans-serif" font-size="14" lengthAdjust="spacing" textLength="44.8643" x="1313.52" y="135.4651">Admin</text></g><!--entity Main Menu--><g class="entity" data-entity="Main Menu" data-source-line="4" data-uid="ent0004" id="entity_Main Menu"><rect fill="#F1F1F1" height="46.2969" rx="2.5" ry="2.5" style="stroke:#181818;stroke-width:0.5;" width="116.3096" x="148.8" y="77.47"/><rect fill="#F1F1F1" height="10" style="stroke:#181818;stroke-width:0.5;" width="15" x="245.1096" y="82.47"/><rect fill="#F1F1F1" height="2" style="stroke:#181818;stroke-width:0.5;" width="4" x="243.1096" y="84.47"/><rect fill="#F1F1F1" height="2" style="stroke:#181818;stroke-width:0.5;" width="4" x="243.1096" y="88.47"/><text fill="#000000" font-family="sans-serif" font-size="14" lengthAdjust="spacing" textLength="76.3096" x="163.8" y="110.4651">Main Menu</text></g><!--entity Game Interface--><g class="entity" data-entity="Game Interface" data-source-line="5" data-uid="ent0006" id="entity_Game Interface"><rect fill="#F1F1F1" height="46.2969" rx="2.5" ry="2.5" style="stroke:#181818;stroke-width:0.5;" width="148.8076" x="375.55" y="77.47"/><rect fill="#F1F1F1" height="10" style="stroke:#181818;stroke-width:0.5;" width="15" x="504.3576" y="82.47"/><rect fill="#F1F1F1" height="2" style="stroke:#181818;stroke-width:0.5;" width="4" x="502.3576" y="84.47"/><rect fill="#F1F1F1" height="2" style="stroke:#181818;stroke-width:0.5;" width="4" x="502.3576" y="88.47"/><text fill="#000000" font-family="sans-serif" font-size="14" lengthAdjust="spacing" textLength="108.8076" x="390.55" y="110.4651">Game Interface</text></g><!--entity Input Validation Module--><g class="entity" data-entity="Input Validation Module" data-source-line="6" data-uid="ent0008" id="entity_Input Validation Module"><rect fill="#F1F1F1" height="46.2969" rx="2.5" ry="2.5" style="stroke:#181818;stroke-width:0.5;" width="206.2773" x="1071.82" y="77.47"/><rect fill="#F1F1F1" height="10" style="stroke:#181818;stroke-width:0.5;" width="15" x="1258.0973" y="82.47"/><rect fill="#F1F1F1" height="2" style="stroke:#181818;stroke-width:0.5;" width="4" x="1256.0973" y="84.47"/><rect fill="#F1F1F1" height="2" style="stroke:#181818;stroke-width:0.5;" width="4" x="1256.0973" y="88.47"/><text fill="#000000" font-family="sans-serif" font-size="14" lengthAdjust="spacing" textLength="166.2773" x="1086.82" y="110.4651">Input Validation Module</text></g><!--entity Feedback Module--><g class="entity" data-entity="Feedback Module" data-source-line="8" data-uid="ent0011" id="entity_Feedback Module"><rect fill="#F1F1F1" height="46.2969" rx="2.5" ry="2.5" style="stroke:#181818;stroke-width:0.5;" width="162.7939" x="873.56" y="77.47"/><rect fill="#F1F1F1" height="10" style="stroke:#181818;stroke-width:0.5;" width="15" x="1016.3539" y="82.47"/><rect fill="#F1F1F1" height="2" style="stroke:#181818;stroke-width:0.5;" width="4" x="1014.3539" y="84.47"/><rect fill="#F1F1F1" height="2" style="stroke:#181818;stroke-width:0.5;" width="4" x="1014.3539" y="88.47"/><text fill="#000000" font-family="sans-serif" font-size="14" lengthAdjust="spacing" textLength="122.7939" x="888.56" y="110.4651">Feedback Module</text></g><!--entity Admin Interface--><g class="entity" data-entity="Admin Interface" data-source-line="11" data-uid="ent0014" id="entity_Admin Interface"><rect fill="#F1F1F1" height="46.2969" rx="2.5" ry="2.5" style="stroke:#181818;stroke-width:0.5;" width="151.9932" x="1510.96" y="77.47"/><rect fill="#F1F1F1" height="10" style="stroke:#181818;stroke-width:0.5;" width="15" x="1642.9532" y="82.47"/><rect fill="#F1F1F1" height="2" style="stroke:#181818;stroke-width:0.5;" width="4" x="1640.9532" y="84.47"/><rect fill="#F1F1F1" height="2" style="stroke:#181818;stroke-width:0.5;" width="4" x="1640.9532" y="88.47"/><text fill="#000000" font-family="sans-serif" font-size="14" lengthAdjust="spacing" textLength="111.9932" x="1525.96" y="110.4651">Admin Interface</text></g><!--entity Content Management System--><g class="entity" data-entity="Content Management System" data-source-line="12" data-uid="ent0016" id="entity_Content Management System"><rect fill="#F1F1F1" height="46.2969" rx="2.5" ry="2.5" style="stroke:#181818;stroke-width:0.5;" width="249.0088" x="1798.45" y="77.47"/><rect fill="#F1F1F1" height="10" style="stroke:#181818;stroke-width:0.5;" width="15" x="2027.4588" y="82.47"/><rect fill="#F1F1F1" height="2" style="stroke:#181818;stroke-width:0.5;" width="4" x="2025.4588" y="84.47"/><rect fill="#F1F1F1" height="2" style="stroke:#181818;stroke-width:0.5;" width="4" x="2025.4588" y="88.47"/><text fill="#000000" font-family="sans-serif" font-size="14" lengthAdjust="spacing" textLength="209.0088" x="1813.45" y="110.4651">Content Management System</text></g><!--link User to Main Menu--><g class="link" data-entity-1="User" data-entity-2="Main Menu" data-source-line="4" data-uid="lnk5" id="link_User_Main Menu"><path d="M38.37,100.62 C62.87,100.62 104.2,100.62 142.49,100.62 " fill="none" id="User-to-Main Menu" style="stroke:#181818;stroke-width:1;"/><polygon fill="#181818" points="148.49,100.62,139.49,96.62,143.49,100.62,139.49,104.62,148.49,100.62" style="stroke:#181818;stroke-width:1;"/><text fill="#000000" font-family="sans-serif" font-size="13" lengthAdjust="spacing" textLength="74.5913" x="56.36" y="93.6869">Start Game</text></g><!--link Main Menu to Game Interface--><g class="link" data-entity-1="Main Menu" data-entity-2="Game Interface" data-source-line="5" data-uid="lnk7" id="link_Main Menu_Game Interface"><path d="M265.47,100.62 C298.47,100.62 334.04,100.62 369.37,100.62 " fill="none" id="Main Menu-to-Game Interface" style="stroke:#181818;stroke-width:1;"/><polygon fill="#181818" points="375.37,100.62,366.37,96.62,370.37,100.62,366.37,104.62,375.37,100.62" style="stroke:#181818;stroke-width:1;"/><text fill="#000000" font-family="sans-serif" font-size="13" lengthAdjust="spacing" textLength="74.2485" x="283.33" y="93.6869">Load Game</text></g><!--link Game Interface to Input Validation Module--><g class="link" data-entity-1="Game Interface" data-entity-2="Input Validation Module" data-source-line="6" data-uid="lnk9" id="link_Game Interface_Input Validation Module"><path d="M465.87,77.15 C479.04,60 499.43,38.09 523.46,28.25 C561.7,12.58 575.15,26.63 616.46,28.25 C811.35,35.86 862.49,25.3 1053.96,62.47 C1072.23,66.02 1085.8962,69.5805 1103.6762,75.1705 " fill="none" id="Game Interface-to-Input Validation Module" style="stroke:#181818;stroke-width:1;"/><polygon fill="#181818" points="1109.4,76.97,1102.014,70.4548,1104.6302,75.4704,1099.6146,78.0865,1109.4,76.97" style="stroke:#181818;stroke-width:1;"/><text fill="#000000" font-family="sans-serif" font-size="13" lengthAdjust="spacing" textLength="91.1904" x="524.46" y="28.5369">Validate Input</text></g><!--link Input Validation Module to Game Interface--><g class="link" data-entity-1="Input Validation Module" data-entity-2="Game Interface" data-source-line="7" data-uid="lnk10" id="link_Input Validation Module_Game Interface"><path d="M1109.4,76.97 C1091.62,71.38 1072.23,66.02 1053.96,62.47 C862.49,25.3 811.35,35.86 616.46,28.25 C575.15,26.63 561.7,12.58 523.46,28.25 C499.43,38.09 482.6944,55.2413 469.5244,72.3913 " fill="none" id="Input Validation Module-to-Game Interface" style="stroke:#181818;stroke-width:1;"/><polygon fill="#181818" points="465.87,77.15,474.5241,72.4481,468.9153,73.1844,468.1791,67.5756,465.87,77.15" style="stroke:#181818;stroke-width:1;"/><text fill="#000000" font-family="sans-serif" font-size="13" lengthAdjust="spacing" textLength="128.0068" x="505.96" y="28.5369">Return Valid/Invalid</text></g><!--link Game Interface to Feedback Module--><g class="link" data-entity-1="Game Interface" data-entity-2="Feedback Module" data-source-line="8" data-uid="lnk12" id="link_Game Interface_Feedback Module"><path d="M524.74,100.62 C617.96,100.62 770.71,100.62 867.1,100.62 " fill="none" id="Game Interface-to-Feedback Module" style="stroke:#181818;stroke-width:1;"/><polygon fill="#181818" points="873.1,100.62,864.1,96.62,868.1,100.62,864.1,104.62,873.1,100.62" style="stroke:#181818;stroke-width:1;"/><text fill="#000000" font-family="sans-serif" font-size="13" lengthAdjust="spacing" textLength="73.5693" x="662.46" y="93.6869">Send Score</text></g><!--link Feedback Module to User--><g class="link" data-entity-1="Feedback Module" data-entity-2="User" data-source-line="9" data-uid="lnk13" id="link_Feedback Module_User"><path d="M937.03,77.1 C922.35,59.93 899.9,38 874.46,28.25 C825.9,9.63 809.44,26.83 757.46,28.25 C478.7,35.86 404.5,8.27 130.96,62.47 C96.93,69.21 64.6176,81.8897 43.6776,90.9397 " fill="none" id="Feedback Module-to-User" style="stroke:#181818;stroke-width:1;"/><polygon fill="#181818" points="38.17,93.32,48.0183,93.4213,42.7597,91.3364,44.8446,86.0778,38.17,93.32" style="stroke:#181818;stroke-width:1;"/><text fill="#000000" font-family="sans-serif" font-size="13" lengthAdjust="spacing" textLength="115.4448" x="758.46" y="28.5369">Provide Feedback</text></g><!--link Admin to Admin Interface--><g class="link" data-entity-1="Admin" data-entity-2="Admin Interface" data-source-line="11" data-uid="lnk15" id="link_Admin_Admin Interface"><path d="M1358.67,100.62 C1392.64,100.62 1452.27,100.62 1504.47,100.62 " fill="none" id="Admin-to-Admin Interface" style="stroke:#181818;stroke-width:1;"/><polygon fill="#181818" points="1510.47,100.62,1501.47,96.62,1505.47,100.62,1501.47,104.62,1510.47,100.62" style="stroke:#181818;stroke-width:1;"/><text fill="#000000" font-family="sans-serif" font-size="13" lengthAdjust="spacing" textLength="116.1304" x="1376.67" y="93.6869">Update Questions</text></g><!--link Admin Interface to Content Management System--><g class="link" data-entity-1="Admin Interface" data-entity-2="Content Management System" data-source-line="12" data-uid="lnk17" id="link_Admin Interface_Content Management System"><path d="M1663.2,100.62 C1703.08,100.62 1746.92,100.62 1792.25,100.62 " fill="none" id="Admin Interface-to-Content Management System" style="stroke:#181818;stroke-width:1;"/><polygon fill="#181818" points="1798.25,100.62,1789.25,96.62,1793.25,100.62,1789.25,104.62,1798.25,100.62" style="stroke:#181818;stroke-width:1;"/><text fill="#000000" font-family="sans-serif" font-size="13" lengthAdjust="spacing" textLength="99.1377" x="1681.2" y="93.6869">Modify Content</text></g><!--link Content Management System to Admin--><g class="link" data-entity-1="Content Management System" data-entity-2="Admin" data-source-line="13" data-uid="lnk18" id="link_Content Management System_Admin"><path d="M1865.75,77.05 C1788.59,48.27 1646.88,6 1525.96,28.25 C1462.95,39.84 1399.1524,68.7084 1364.2224,86.0784 " fill="none" id="Content Management System-to-Admin" style="stroke:#181818;stroke-width:1;"/><polygon fill="#181818" points="1358.85,88.75,1368.6896,88.3242,1363.327,86.5237,1365.1275,81.161,1358.85,88.75" style="stroke:#181818;stroke-width:1;"/><text fill="#000000" font-family="sans-serif" font-size="13" lengthAdjust="spacing" textLength="102.6797" x="1526.96" y="28.5369">Confirm Update</text></g><!--SRC=[VP3FIWGn3CRlUOgyW7YVWo22Ck20xh1Un4ESPgIuJOTEkh1lRzCPOV_fgMdo-xvyBGqQ4svdJa2rl7V12u1ryEOEtploWXrB_i06UwMa-4I1uNXWd3Mn5UKqqi06FqToAti-D44hKrPyevrtf3uMh-ZohYhNfaaA0t-ZrnTlM7EIXRzjPM_dzGoFpEwJXk-ZtJsBmtw8gSI-61TD_PW6NrBSUyVuYm3KZwkkItKIQJlLzxncdkq1Crn2fdo8vIwA7GbzSR2oFypAmJnA23yUS6NWFxXuBVwDuQDFOKtm0m00]--></g></svg>