<svg xmlns="http://www.w3.org/2000/svg" xmlns:xlink="http://www.w3.org/1999/xlink" contentStyleType="text/css" data-diagram-type="DESCRIPTION" height="177px" preserveAspectRatio="none" style="width:4547px;height:177px;background:#FFFFFF;" version="1.1" viewBox="0 0 4547 177" width="4547px" zoomAndPan="magnify"><defs/><g><!--cluster Development View--><g class="cluster" data-entity="Development View" data-source-line="1" data-uid="ent0002" id="cluster_Development View"><path d="M8.5,6 L157.3545,6 A3.75,3.75 0 0 1 159.8545,8.5 L166.8545,28.2969 L4537.5,28.2969 A2.5,2.5 0 0 1 4540,30.7969 L4540,167.8 A2.5,2.5 0 0 1 4537.5,170.3 L8.5,170.3 A2.5,2.5 0 0 1 6,167.8 L6,8.5 A2.5,2.5 0 0 1 8.5,6 " fill="none" style="stroke:#000000;stroke-width:1.5;"/><line style="stroke:#000000;stroke-width:1.5;" x1="6" x2="166.8545" y1="28.2969" y2="28.2969"/><text fill="#000000" font-family="sans-serif" font-size="14" font-weight="bold" lengthAdjust="spacing" textLength="147.8545" x="10" y="20.9951">Development View</text></g><!--cluster Data Acquisition Module--><g class="cluster" data-entity="Data Acquisition Module" data-source-line="2" data-uid="ent0003" id="cluster_Data Acquisition Module"><rect fill="none" height="97.3" rx="2.5" ry="2.5" style="stroke:#181818;stroke-width:1;" width="436" x="30" y="49"/><rect fill="none" height="10" style="stroke:#181818;stroke-width:1;" width="15" x="446" y="54"/><rect fill="none" height="2" style="stroke:#181818;stroke-width:1;" width="4" x="444" y="56"/><rect fill="none" height="2" style="stroke:#181818;stroke-width:1;" width="4" x="444" y="60"/><text fill="#000000" font-family="sans-serif" font-size="14" font-weight="bold" lengthAdjust="spacing" textLength="192.917" x="151.5415" y="74.9951">Data Acquisition Module</text></g><!--cluster Processing Engine--><g class="cluster" data-entity="Processing Engine" data-source-line="6" data-uid="ent0006" id="cluster_Processing Engine"><rect fill="none" height="97.3" rx="2.5" ry="2.5" style="stroke:#181818;stroke-width:1;" width="401" x="490" y="49"/><rect fill="none" height="10" style="stroke:#181818;stroke-width:1;" width="15" x="871" y="54"/><rect fill="none" height="2" style="stroke:#181818;stroke-width:1;" width="4" x="869" y="56"/><rect fill="none" height="2" style="stroke:#181818;stroke-width:1;" width="4" x="869" y="60"/><text fill="#000000" font-family="sans-serif" font-size="14" font-weight="bold" lengthAdjust="spacing" textLength="144.7168" x="618.1416" y="74.9951">Processing Engine</text></g><!--cluster Data Processing Module--><g class="cluster" data-entity="Data Processing Module" data-source-line="10" data-uid="ent0009" id="cluster_Data Processing Module"><rect fill="none" height="97.3" rx="2.5" ry="2.5" style="stroke:#181818;stroke-width:1;" width="357" x="915" y="49"/><rect fill="none" height="10" style="stroke:#181818;stroke-width:1;" width="15" x="1252" y="54"/><rect fill="none" height="2" style="stroke:#181818;stroke-width:1;" width="4" x="1250" y="56"/><rect fill="none" height="2" style="stroke:#181818;stroke-width:1;" width="4" x="1250" y="60"/><text fill="#000000" font-family="sans-serif" font-size="14" font-weight="bold" lengthAdjust="spacing" textLength="190.8184" x="998.0908" y="74.9951">Data Processing Module</text></g><!--cluster Storage System--><g class="cluster" data-entity="Storage System" data-source-line="14" data-uid="ent0012" id="cluster_Storage System"><rect fill="none" height="97.3" rx="2.5" ry="2.5" style="stroke:#181818;stroke-width:1;" width="331" x="1296" y="49"/><rect fill="none" height="10" style="stroke:#181818;stroke-width:1;" width="15" x="1607" y="54"/><rect fill="none" height="2" style="stroke:#181818;stroke-width:1;" width="4" x="1605" y="56"/><rect fill="none" height="2" style="stroke:#181818;stroke-width:1;" width="4" x="1605" y="60"/><text fill="#000000" font-family="sans-serif" font-size="14" font-weight="bold" lengthAdjust="spacing" textLength="125.4531" x="1398.7734" y="74.9951">Storage System</text></g><!--cluster Web Server--><g class="cluster" data-entity="Web Server" data-source-line="18" data-uid="ent0015" id="cluster_Web Server"><rect fill="none" height="97.3" rx="2.5" ry="2.5" style="stroke:#181818;stroke-width:1;" width="369" x="1651" y="49"/><rect fill="none" height="10" style="stroke:#181818;stroke-width:1;" width="15" x="2000" y="54"/><rect fill="none" height="2" style="stroke:#181818;stroke-width:1;" width="4" x="1998" y="56"/><rect fill="none" height="2" style="stroke:#181818;stroke-width:1;" width="4" x="1998" y="60"/><text fill="#000000" font-family="sans-serif" font-size="14" font-weight="bold" lengthAdjust="spacing" textLength="91.8408" x="1789.5796" y="74.9951">Web Server</text></g><!--cluster Authentication Service--><g class="cluster" data-entity="Authentication Service" data-source-line="22" data-uid="ent0018" id="cluster_Authentication Service"><rect fill="none" height="97.3" rx="2.5" ry="2.5" style="stroke:#181818;stroke-width:1;" width="390" x="2044" y="49"/><rect fill="none" height="10" style="stroke:#181818;stroke-width:1;" width="15" x="2414" y="54"/><rect fill="none" height="2" style="stroke:#181818;stroke-width:1;" width="4" x="2412" y="56"/><rect fill="none" height="2" style="stroke:#181818;stroke-width:1;" width="4" x="2412" y="60"/><text fill="#000000" font-family="sans-serif" font-size="14" font-weight="bold" lengthAdjust="spacing" textLength="180.3115" x="2148.8442" y="74.9951">Authentication Service</text></g><!--cluster Error Handling Module--><g class="cluster" data-entity="Error Handling Module" data-source-line="26" data-uid="ent0021" id="cluster_Error Handling Module"><rect fill="none" height="97.3" rx="2.5" ry="2.5" style="stroke:#181818;stroke-width:1;" width="359" x="2458" y="49"/><rect fill="none" height="10" style="stroke:#181818;stroke-width:1;" width="15" x="2797" y="54"/><rect fill="none" height="2" style="stroke:#181818;stroke-width:1;" width="4" x="2795" y="56"/><rect fill="none" height="2" style="stroke:#181818;stroke-width:1;" width="4" x="2795" y="60"/><text fill="#000000" font-family="sans-serif" font-size="14" font-weight="bold" lengthAdjust="spacing" textLength="178.2129" x="2548.3936" y="74.9951">Error Handling Module</text></g><!--cluster Data Distribution Network--><g class="cluster" data-entity="Data Distribution Network" data-source-line="30" data-uid="ent0024" id="cluster_Data Distribution Network"><rect fill="none" height="97.3" rx="2.5" ry="2.5" style="stroke:#181818;stroke-width:1;" width="399" x="2841" y="49"/><rect fill="none" height="10" style="stroke:#181818;stroke-width:1;" width="15" x="3220" y="54"/><rect fill="none" height="2" style="stroke:#181818;stroke-width:1;" width="4" x="3218" y="56"/><rect fill="none" height="2" style="stroke:#181818;stroke-width:1;" width="4" x="3218" y="60"/><text fill="#000000" font-family="sans-serif" font-size="14" font-weight="bold" lengthAdjust="spacing" textLength="207.8398" x="2936.5801" y="74.9951">Data Distribution Network</text></g><!--cluster Software Integration Layer--><g class="cluster" data-entity="Software Integration Layer" data-source-line="34" data-uid="ent0027" id="cluster_Software Integration Layer"><rect fill="none" height="97.3" rx="2.5" ry="2.5" style="stroke:#181818;stroke-width:1;" width="422" x="3264" y="49"/><rect fill="none" height="10" style="stroke:#181818;stroke-width:1;" width="15" x="3666" y="54"/><rect fill="none" height="2" style="stroke:#181818;stroke-width:1;" width="4" x="3664" y="56"/><rect fill="none" height="2" style="stroke:#181818;stroke-width:1;" width="4" x="3664" y="60"/><text fill="#000000" font-family="sans-serif" font-size="14" font-weight="bold" lengthAdjust="spacing" textLength="213.7188" x="3368.1406" y="74.9951">Software Integration Layer</text></g><!--cluster Data Calibration Module--><g class="cluster" data-entity="Data Calibration Module" data-source-line="38" data-uid="ent0030" id="cluster_Data Calibration Module"><rect fill="none" height="97.3" rx="2.5" ry="2.5" style="stroke:#181818;stroke-width:1;" width="429" x="3710" y="49"/><rect fill="none" height="10" style="stroke:#181818;stroke-width:1;" width="15" x="4119" y="54"/><rect fill="none" height="2" style="stroke:#181818;stroke-width:1;" width="4" x="4117" y="56"/><rect fill="none" height="2" style="stroke:#181818;stroke-width:1;" width="4" x="4117" y="60"/><text fill="#000000" font-family="sans-serif" font-size="14" font-weight="bold" lengthAdjust="spacing" textLength="191.5566" x="3828.7217" y="74.9951">Data Calibration Module</text></g><!--cluster Compliance Verification System--><g class="cluster" data-entity="Compliance Verification System" data-source-line="42" data-uid="ent0033" id="cluster_Compliance Verification System"><rect fill="none" height="97.3" rx="2.5" ry="2.5" style="stroke:#181818;stroke-width:1;" width="353" x="4163" y="49"/><rect fill="none" height="10" style="stroke:#181818;stroke-width:1;" width="15" x="4496" y="54"/><rect fill="none" height="2" style="stroke:#181818;stroke-width:1;" width="4" x="4494" y="56"/><rect fill="none" height="2" style="stroke:#181818;stroke-width:1;" width="4" x="4494" y="60"/><text fill="#000000" font-family="sans-serif" font-size="14" font-weight="bold" lengthAdjust="spacing" textLength="251.1182" x="4213.9409" y="74.9951">Compliance Verification System</text></g><!--entity Telemetry Acquisition--><g class="entity" data-entity="Telemetry Acquisition" data-source-line="3" data-uid="ent0004" id="entity_Telemetry Acquisition"><rect fill="#F1F1F1" height="46.2969" rx="2.5" ry="2.5" style="stroke:#181818;stroke-width:0.5;" width="192.8242" x="45.59" y="84"/><rect fill="#F1F1F1" height="10" style="stroke:#181818;stroke-width:0.5;" width="15" x="218.4142" y="89"/><rect fill="#F1F1F1" height="2" style="stroke:#181818;stroke-width:0.5;" width="4" x="216.4142" y="91"/><rect fill="#F1F1F1" height="2" style="stroke:#181818;stroke-width:0.5;" width="4" x="216.4142" y="95"/><text fill="#000000" font-family="sans-serif" font-size="14" lengthAdjust="spacing" textLength="152.8242" x="60.59" y="116.9951">Telemetry Acquisition</text></g><!--entity Data Preprocessing--><g class="entity" data-entity="Data Preprocessing" data-source-line="4" data-uid="ent0005" id="entity_Data Preprocessing"><rect fill="#F1F1F1" height="46.2969" rx="2.5" ry="2.5" style="stroke:#181818;stroke-width:0.5;" width="176.4453" x="273.78" y="84"/><rect fill="#F1F1F1" height="10" style="stroke:#181818;stroke-width:0.5;" width="15" x="430.2253" y="89"/><rect fill="#F1F1F1" height="2" style="stroke:#181818;stroke-width:0.5;" width="4" x="428.2253" y="91"/><rect fill="#F1F1F1" height="2" style="stroke:#181818;stroke-width:0.5;" width="4" x="428.2253" y="95"/><text fill="#000000" font-family="sans-serif" font-size="14" lengthAdjust="spacing" textLength="136.4453" x="288.78" y="116.9951">Data Preprocessing</text></g><!--entity Data Transformation--><g class="entity" data-entity="Data Transformation" data-source-line="7" data-uid="ent0007" id="entity_Data Transformation"><rect fill="#F1F1F1" height="46.2969" rx="2.5" ry="2.5" style="stroke:#181818;stroke-width:0.5;" width="185.2158" x="506.39" y="84"/><rect fill="#F1F1F1" height="10" style="stroke:#181818;stroke-width:0.5;" width="15" x="671.6058" y="89"/><rect fill="#F1F1F1" height="2" style="stroke:#181818;stroke-width:0.5;" width="4" x="669.6058" y="91"/><rect fill="#F1F1F1" height="2" style="stroke:#181818;stroke-width:0.5;" width="4" x="669.6058" y="95"/><text fill="#000000" font-family="sans-serif" font-size="14" lengthAdjust="spacing" textLength="145.2158" x="521.39" y="116.9951">Data Transformation</text></g><!--entity Data Validation--><g class="entity" data-entity="Data Validation" data-source-line="8" data-uid="ent0008" id="entity_Data Validation"><rect fill="#F1F1F1" height="46.2969" rx="2.5" ry="2.5" style="stroke:#181818;stroke-width:0.5;" width="148.0967" x="726.95" y="84"/><rect fill="#F1F1F1" height="10" style="stroke:#181818;stroke-width:0.5;" width="15" x="855.0467" y="89"/><rect fill="#F1F1F1" height="2" style="stroke:#181818;stroke-width:0.5;" width="4" x="853.0467" y="91"/><rect fill="#F1F1F1" height="2" style="stroke:#181818;stroke-width:0.5;" width="4" x="853.0467" y="95"/><text fill="#000000" font-family="sans-serif" font-size="14" lengthAdjust="spacing" textLength="108.0967" x="741.95" y="116.9951">Data Validation</text></g><!--entity IDFS Generation--><g class="entity" data-entity="IDFS Generation" data-source-line="11" data-uid="ent0010" id="entity_IDFS Generation"><rect fill="#F1F1F1" height="46.2969" rx="2.5" ry="2.5" style="stroke:#181818;stroke-width:0.5;" width="154.3994" x="930.8" y="84"/><rect fill="#F1F1F1" height="10" style="stroke:#181818;stroke-width:0.5;" width="15" x="1065.1994" y="89"/><rect fill="#F1F1F1" height="2" style="stroke:#181818;stroke-width:0.5;" width="4" x="1063.1994" y="91"/><rect fill="#F1F1F1" height="2" style="stroke:#181818;stroke-width:0.5;" width="4" x="1063.1994" y="95"/><text fill="#000000" font-family="sans-serif" font-size="14" lengthAdjust="spacing" textLength="114.3994" x="945.8" y="116.9951">IDFS Generation</text></g><!--entity Data Analysis--><g class="entity" data-entity="Data Analysis" data-source-line="12" data-uid="ent0011" id="entity_Data Analysis"><rect fill="#F1F1F1" height="46.2969" rx="2.5" ry="2.5" style="stroke:#181818;stroke-width:0.5;" width="135.5596" x="1120.22" y="84"/><rect fill="#F1F1F1" height="10" style="stroke:#181818;stroke-width:0.5;" width="15" x="1235.7796" y="89"/><rect fill="#F1F1F1" height="2" style="stroke:#181818;stroke-width:0.5;" width="4" x="1233.7796" y="91"/><rect fill="#F1F1F1" height="2" style="stroke:#181818;stroke-width:0.5;" width="4" x="1233.7796" y="95"/><text fill="#000000" font-family="sans-serif" font-size="14" lengthAdjust="spacing" textLength="95.5596" x="1135.22" y="116.9951">Data Analysis</text></g><!--entity Local Archive--><g class="entity" data-entity="Local Archive" data-source-line="15" data-uid="ent0013" id="entity_Local Archive"><rect fill="#F1F1F1" height="46.2969" rx="2.5" ry="2.5" style="stroke:#181818;stroke-width:0.5;" width="133.6729" x="1312.16" y="84"/><rect fill="#F1F1F1" height="10" style="stroke:#181818;stroke-width:0.5;" width="15" x="1425.8329" y="89"/><rect fill="#F1F1F1" height="2" style="stroke:#181818;stroke-width:0.5;" width="4" x="1423.8329" y="91"/><rect fill="#F1F1F1" height="2" style="stroke:#181818;stroke-width:0.5;" width="4" x="1423.8329" y="95"/><text fill="#000000" font-family="sans-serif" font-size="14" lengthAdjust="spacing" textLength="93.6729" x="1327.16" y="116.9951">Local Archive</text></g><!--entity Data Backup--><g class="entity" data-entity="Data Backup" data-source-line="16" data-uid="ent0014" id="entity_Data Backup"><rect fill="#F1F1F1" height="46.2969" rx="2.5" ry="2.5" style="stroke:#181818;stroke-width:0.5;" width="129.626" x="1481.19" y="84"/><rect fill="#F1F1F1" height="10" style="stroke:#181818;stroke-width:0.5;" width="15" x="1590.816" y="89"/><rect fill="#F1F1F1" height="2" style="stroke:#181818;stroke-width:0.5;" width="4" x="1588.816" y="91"/><rect fill="#F1F1F1" height="2" style="stroke:#181818;stroke-width:0.5;" width="4" x="1588.816" y="95"/><text fill="#000000" font-family="sans-serif" font-size="14" lengthAdjust="spacing" textLength="89.626" x="1496.19" y="116.9951">Data Backup</text></g><!--entity Public Display--><g class="entity" data-entity="Public Display" data-source-line="19" data-uid="ent0016" id="entity_Public Display"><rect fill="#F1F1F1" height="46.2969" rx="2.5" ry="2.5" style="stroke:#181818;stroke-width:0.5;" width="137.7334" x="1667.13" y="84"/><rect fill="#F1F1F1" height="10" style="stroke:#181818;stroke-width:0.5;" width="15" x="1784.8634" y="89"/><rect fill="#F1F1F1" height="2" style="stroke:#181818;stroke-width:0.5;" width="4" x="1782.8634" y="91"/><rect fill="#F1F1F1" height="2" style="stroke:#181818;stroke-width:0.5;" width="4" x="1782.8634" y="95"/><text fill="#000000" font-family="sans-serif" font-size="14" lengthAdjust="spacing" textLength="97.7334" x="1682.13" y="116.9951">Public Display</text></g><!--entity Restricted Access--><g class="entity" data-entity="Restricted Access" data-source-line="20" data-uid="ent0017" id="entity_Restricted Access"><rect fill="#F1F1F1" height="46.2969" rx="2.5" ry="2.5" style="stroke:#181818;stroke-width:0.5;" width="164.0791" x="1839.96" y="84"/><rect fill="#F1F1F1" height="10" style="stroke:#181818;stroke-width:0.5;" width="15" x="1984.0391" y="89"/><rect fill="#F1F1F1" height="2" style="stroke:#181818;stroke-width:0.5;" width="4" x="1982.0391" y="91"/><rect fill="#F1F1F1" height="2" style="stroke:#181818;stroke-width:0.5;" width="4" x="1982.0391" y="95"/><text fill="#000000" font-family="sans-serif" font-size="14" lengthAdjust="spacing" textLength="124.0791" x="1854.96" y="116.9951">Restricted Access</text></g><!--entity User Authentication--><g class="entity" data-entity="User Authentication" data-source-line="23" data-uid="ent0019" id="entity_User Authentication"><rect fill="#F1F1F1" height="46.2969" rx="2.5" ry="2.5" style="stroke:#181818;stroke-width:0.5;" width="179.1318" x="2060.43" y="84"/><rect fill="#F1F1F1" height="10" style="stroke:#181818;stroke-width:0.5;" width="15" x="2219.5618" y="89"/><rect fill="#F1F1F1" height="2" style="stroke:#181818;stroke-width:0.5;" width="4" x="2217.5618" y="91"/><rect fill="#F1F1F1" height="2" style="stroke:#181818;stroke-width:0.5;" width="4" x="2217.5618" y="95"/><text fill="#000000" font-family="sans-serif" font-size="14" lengthAdjust="spacing" textLength="139.1318" x="2075.43" y="116.9951">User Authentication</text></g><!--entity Access Control--><g class="entity" data-entity="Access Control" data-source-line="24" data-uid="ent0020" id="entity_Access Control"><rect fill="#F1F1F1" height="46.2969" rx="2.5" ry="2.5" style="stroke:#181818;stroke-width:0.5;" width="143.5371" x="2274.23" y="84"/><rect fill="#F1F1F1" height="10" style="stroke:#181818;stroke-width:0.5;" width="15" x="2397.7671" y="89"/><rect fill="#F1F1F1" height="2" style="stroke:#181818;stroke-width:0.5;" width="4" x="2395.7671" y="91"/><rect fill="#F1F1F1" height="2" style="stroke:#181818;stroke-width:0.5;" width="4" x="2395.7671" y="95"/><text fill="#000000" font-family="sans-serif" font-size="14" lengthAdjust="spacing" textLength="103.5371" x="2289.23" y="116.9951">Access Control</text></g><!--entity Error Detection--><g class="entity" data-entity="Error Detection" data-source-line="27" data-uid="ent0022" id="entity_Error Detection"><rect fill="#F1F1F1" height="46.2969" rx="2.5" ry="2.5" style="stroke:#181818;stroke-width:0.5;" width="147.1396" x="2474.43" y="84"/><rect fill="#F1F1F1" height="10" style="stroke:#181818;stroke-width:0.5;" width="15" x="2601.5696" y="89"/><rect fill="#F1F1F1" height="2" style="stroke:#181818;stroke-width:0.5;" width="4" x="2599.5696" y="91"/><rect fill="#F1F1F1" height="2" style="stroke:#181818;stroke-width:0.5;" width="4" x="2599.5696" y="95"/><text fill="#000000" font-family="sans-serif" font-size="14" lengthAdjust="spacing" textLength="107.1396" x="2489.43" y="116.9951">Error Detection</text></g><!--entity Error Recovery--><g class="entity" data-entity="Error Recovery" data-source-line="28" data-uid="ent0023" id="entity_Error Recovery"><rect fill="#F1F1F1" height="46.2969" rx="2.5" ry="2.5" style="stroke:#181818;stroke-width:0.5;" width="144.6719" x="2656.66" y="84"/><rect fill="#F1F1F1" height="10" style="stroke:#181818;stroke-width:0.5;" width="15" x="2781.3319" y="89"/><rect fill="#F1F1F1" height="2" style="stroke:#181818;stroke-width:0.5;" width="4" x="2779.3319" y="91"/><rect fill="#F1F1F1" height="2" style="stroke:#181818;stroke-width:0.5;" width="4" x="2779.3319" y="95"/><text fill="#000000" font-family="sans-serif" font-size="14" lengthAdjust="spacing" textLength="104.6719" x="2671.66" y="116.9951">Error Recovery</text></g><!--entity Data Delivery--><g class="entity" data-entity="Data Delivery" data-source-line="31" data-uid="ent0025" id="entity_Data Delivery"><rect fill="#F1F1F1" height="46.2969" rx="2.5" ry="2.5" style="stroke:#181818;stroke-width:0.5;" width="135.9902" x="2857" y="84"/><rect fill="#F1F1F1" height="10" style="stroke:#181818;stroke-width:0.5;" width="15" x="2972.9902" y="89"/><rect fill="#F1F1F1" height="2" style="stroke:#181818;stroke-width:0.5;" width="4" x="2970.9902" y="91"/><rect fill="#F1F1F1" height="2" style="stroke:#181818;stroke-width:0.5;" width="4" x="2970.9902" y="95"/><text fill="#000000" font-family="sans-serif" font-size="14" lengthAdjust="spacing" textLength="95.9902" x="2872" y="116.9951">Data Delivery</text></g><!--entity Network Management--><g class="entity" data-entity="Network Management" data-source-line="32" data-uid="ent0026" id="entity_Network Management"><rect fill="#F1F1F1" height="46.2969" rx="2.5" ry="2.5" style="stroke:#181818;stroke-width:0.5;" width="195.1279" x="3028.44" y="84"/><rect fill="#F1F1F1" height="10" style="stroke:#181818;stroke-width:0.5;" width="15" x="3203.5679" y="89"/><rect fill="#F1F1F1" height="2" style="stroke:#181818;stroke-width:0.5;" width="4" x="3201.5679" y="91"/><rect fill="#F1F1F1" height="2" style="stroke:#181818;stroke-width:0.5;" width="4" x="3201.5679" y="95"/><text fill="#000000" font-family="sans-serif" font-size="14" lengthAdjust="spacing" textLength="155.1279" x="3043.44" y="116.9951">Network Management</text></g><!--entity Repository Integration--><g class="entity" data-entity="Repository Integration" data-source-line="35" data-uid="ent0028" id="entity_Repository Integration"><rect fill="#F1F1F1" height="46.2969" rx="2.5" ry="2.5" style="stroke:#181818;stroke-width:0.5;" width="196.666" x="3279.67" y="84"/><rect fill="#F1F1F1" height="10" style="stroke:#181818;stroke-width:0.5;" width="15" x="3456.336" y="89"/><rect fill="#F1F1F1" height="2" style="stroke:#181818;stroke-width:0.5;" width="4" x="3454.336" y="91"/><rect fill="#F1F1F1" height="2" style="stroke:#181818;stroke-width:0.5;" width="4" x="3454.336" y="95"/><text fill="#000000" font-family="sans-serif" font-size="14" lengthAdjust="spacing" textLength="156.666" x="3294.67" y="116.9951">Repository Integration</text></g><!--entity API Management--><g class="entity" data-entity="API Management" data-source-line="36" data-uid="ent0029" id="entity_API Management"><rect fill="#F1F1F1" height="46.2969" rx="2.5" ry="2.5" style="stroke:#181818;stroke-width:0.5;" width="158.8223" x="3511.59" y="84"/><rect fill="#F1F1F1" height="10" style="stroke:#181818;stroke-width:0.5;" width="15" x="3650.4123" y="89"/><rect fill="#F1F1F1" height="2" style="stroke:#181818;stroke-width:0.5;" width="4" x="3648.4123" y="91"/><rect fill="#F1F1F1" height="2" style="stroke:#181818;stroke-width:0.5;" width="4" x="3648.4123" y="95"/><text fill="#000000" font-family="sans-serif" font-size="14" lengthAdjust="spacing" textLength="118.8223" x="3526.59" y="116.9951">API Management</text></g><!--entity Calibration Algorithms--><g class="entity" data-entity="Calibration Algorithms" data-source-line="39" data-uid="ent0031" id="entity_Calibration Algorithms"><rect fill="#F1F1F1" height="46.2969" rx="2.5" ry="2.5" style="stroke:#181818;stroke-width:0.5;" width="196.4814" x="3725.76" y="84"/><rect fill="#F1F1F1" height="10" style="stroke:#181818;stroke-width:0.5;" width="15" x="3902.2414" y="89"/><rect fill="#F1F1F1" height="2" style="stroke:#181818;stroke-width:0.5;" width="4" x="3900.2414" y="91"/><rect fill="#F1F1F1" height="2" style="stroke:#181818;stroke-width:0.5;" width="4" x="3900.2414" y="95"/><text fill="#000000" font-family="sans-serif" font-size="14" lengthAdjust="spacing" textLength="156.4814" x="3740.76" y="116.9951">Calibration Algorithms</text></g><!--entity Validation Checks--><g class="entity" data-entity="Validation Checks" data-source-line="40" data-uid="ent0032" id="entity_Validation Checks"><rect fill="#F1F1F1" height="46.2969" rx="2.5" ry="2.5" style="stroke:#181818;stroke-width:0.5;" width="165.0293" x="3957.49" y="84"/><rect fill="#F1F1F1" height="10" style="stroke:#181818;stroke-width:0.5;" width="15" x="4102.5193" y="89"/><rect fill="#F1F1F1" height="2" style="stroke:#181818;stroke-width:0.5;" width="4" x="4100.5193" y="91"/><rect fill="#F1F1F1" height="2" style="stroke:#181818;stroke-width:0.5;" width="4" x="4100.5193" y="95"/><text fill="#000000" font-family="sans-serif" font-size="14" lengthAdjust="spacing" textLength="125.0293" x="3972.49" y="116.9951">Validation Checks</text></g><!--entity Compliance Checks--><g class="entity" data-entity="Compliance Checks" data-source-line="43" data-uid="ent0034" id="entity_Compliance Checks"><rect fill="#F1F1F1" height="46.2969" rx="2.5" ry="2.5" style="stroke:#181818;stroke-width:0.5;" width="177.2178" x="4179.39" y="84"/><rect fill="#F1F1F1" height="10" style="stroke:#181818;stroke-width:0.5;" width="15" x="4336.6078" y="89"/><rect fill="#F1F1F1" height="2" style="stroke:#181818;stroke-width:0.5;" width="4" x="4334.6078" y="91"/><rect fill="#F1F1F1" height="2" style="stroke:#181818;stroke-width:0.5;" width="4" x="4334.6078" y="95"/><text fill="#000000" font-family="sans-serif" font-size="14" lengthAdjust="spacing" textLength="137.2178" x="4194.39" y="116.9951">Compliance Checks</text></g><!--entity Reporting--><g class="entity" data-entity="Reporting" data-source-line="44" data-uid="ent0035" id="entity_Reporting"><rect fill="#F1F1F1" height="46.2969" rx="2.5" ry="2.5" style="stroke:#181818;stroke-width:0.5;" width="108.6875" x="4391.66" y="84"/><rect fill="#F1F1F1" height="10" style="stroke:#181818;stroke-width:0.5;" width="15" x="4480.3475" y="89"/><rect fill="#F1F1F1" height="2" style="stroke:#181818;stroke-width:0.5;" width="4" x="4478.3475" y="91"/><rect fill="#F1F1F1" height="2" style="stroke:#181818;stroke-width:0.5;" width="4" x="4478.3475" y="95"/><text fill="#000000" font-family="sans-serif" font-size="14" lengthAdjust="spacing" textLength="68.6875" x="4406.66" y="116.9951">Reporting</text></g><!--SRC=[XLDTRy8m37pVhx3u9ntT1nAR46piOTf32APOf77dfA1guhylRHcahDto5CMdkvpFBfJUgGnXbE8U3HSvMWzBmiC8lcuW7CrvmRP-7QNAAqZqPqcEFB659rwN1d-GzNb_GOCvUgbYuCUbtd3C10jXZSwHpThYyLfiTWR0dSt8TcKQcXTHrcrOSjKdibI6rb7bs6idakbnCqdl5_205gLN8h7AL8xSWC32izIzNLJEOzuXdh9M1XBHMzhZDUrjoAGi1aZVS0KBb3rAXt1MhWnfICaLHbKHunoT5z8Uro6Hske0RrBwRRYGRfms4gIxtNXrAD35HK8jEupPUc4pe78dmWAFogxDGCjRH8eUzPL0MvcZvc2- -YlKq8NWULKsJfxH7rXslySdHKCNfkRzX8KdPKDmzIuCHSiRVr22CB4UitOwOAgggrJcM71O0Gxh407Zfiqc_uirlns7SLwTX7hQ5fSJax6Gt-OkKhgi0uotg7T3Sp0ELqFAQeGb2ctE0_5xY2DeJ7bsBZvQx-Ct]--></g></svg>