<svg xmlns="http://www.w3.org/2000/svg" xmlns:xlink="http://www.w3.org/1999/xlink" contentStyleType="text/css" data-diagram-type="DESCRIPTION" height="641px" preserveAspectRatio="none" style="width:1277px;height:641px;background:#FFFFFF;" version="1.1" viewBox="0 0 1277 641" width="1277px" zoomAndPan="magnify"><defs/><g><!--cluster APAF System--><g class="cluster" data-entity="APAF System" data-source-line="1" data-uid="ent0002" id="cluster_APAF System"><path d="M8.5,6 L114.1855,6 A3.75,3.75 0 0 1 116.6855,8.5 L123.6855,28.2969 L1267.5,28.2969 A2.5,2.5 0 0 1 1270,30.7969 L1270,632.28 A2.5,2.5 0 0 1 1267.5,634.78 L8.5,634.78 A2.5,2.5 0 0 1 6,632.28 L6,8.5 A2.5,2.5 0 0 1 8.5,6 " fill="none" style="stroke:#000000;stroke-width:1.5;"/><line style="stroke:#000000;stroke-width:1.5;" x1="6" x2="123.6855" y1="28.2969" y2="28.2969"/><text fill="#000000" font-family="sans-serif" font-size="14" font-weight="bold" lengthAdjust="spacing" textLength="104.6855" x="10" y="20.9951">APAF System</text></g><!--entity Data Acquisition Module--><g class="entity" data-entity="Data Acquisition Module" data-source-line="2" data-uid="ent0003" id="entity_Data Acquisition Module"><rect fill="#F1F1F1" height="46.2969" rx="2.5" ry="2.5" style="stroke:#181818;stroke-width:0.5;" width="210.1602" x="21.92" y="41"/><rect fill="#F1F1F1" height="10" style="stroke:#181818;stroke-width:0.5;" width="15" x="212.0802" y="46"/><rect fill="#F1F1F1" height="2" style="stroke:#181818;stroke-width:0.5;" width="4" x="210.0802" y="48"/><rect fill="#F1F1F1" height="2" style="stroke:#181818;stroke-width:0.5;" width="4" x="210.0802" y="52"/><text fill="#000000" font-family="sans-serif" font-size="14" lengthAdjust="spacing" textLength="170.1602" x="36.92" y="73.9951">Data Acquisition Module</text></g><!--entity Processing Engine--><g class="entity" data-entity="Processing Engine" data-source-line="2" data-uid="ent0004" id="entity_Processing Engine"><rect fill="#F1F1F1" height="46.2969" rx="2.5" ry="2.5" style="stroke:#181818;stroke-width:0.5;" width="167.7432" x="22.13" y="147.3"/><rect fill="#F1F1F1" height="10" style="stroke:#181818;stroke-width:0.5;" width="15" x="169.8732" y="152.3"/><rect fill="#F1F1F1" height="2" style="stroke:#181818;stroke-width:0.5;" width="4" x="167.8732" y="154.3"/><rect fill="#F1F1F1" height="2" style="stroke:#181818;stroke-width:0.5;" width="4" x="167.8732" y="158.3"/><text fill="#000000" font-family="sans-serif" font-size="14" lengthAdjust="spacing" textLength="127.7432" x="37.13" y="180.2951">Processing Engine</text></g><!--entity Data Processing Module--><g class="entity" data-entity="Data Processing Module" data-source-line="3" data-uid="ent0006" id="entity_Data Processing Module"><rect fill="#F1F1F1" height="46.2969" rx="2.5" ry="2.5" style="stroke:#181818;stroke-width:0.5;" width="208.5469" x="21.73" y="253.59"/><rect fill="#F1F1F1" height="10" style="stroke:#181818;stroke-width:0.5;" width="15" x="210.2769" y="258.59"/><rect fill="#F1F1F1" height="2" style="stroke:#181818;stroke-width:0.5;" width="4" x="208.2769" y="260.59"/><rect fill="#F1F1F1" height="2" style="stroke:#181818;stroke-width:0.5;" width="4" x="208.2769" y="264.59"/><text fill="#000000" font-family="sans-serif" font-size="14" lengthAdjust="spacing" textLength="168.5469" x="36.73" y="286.5851">Data Processing Module</text></g><!--entity Storage System--><g class="entity" data-entity="Storage System" data-source-line="4" data-uid="ent0008" id="entity_Storage System"><rect fill="#F1F1F1" height="46.2969" rx="2.5" ry="2.5" style="stroke:#181818;stroke-width:0.5;" width="151.4326" x="50.28" y="359.89"/><rect fill="#F1F1F1" height="10" style="stroke:#181818;stroke-width:0.5;" width="15" x="181.7126" y="364.89"/><rect fill="#F1F1F1" height="2" style="stroke:#181818;stroke-width:0.5;" width="4" x="179.7126" y="366.89"/><rect fill="#F1F1F1" height="2" style="stroke:#181818;stroke-width:0.5;" width="4" x="179.7126" y="370.89"/><text fill="#000000" font-family="sans-serif" font-size="14" lengthAdjust="spacing" textLength="111.4326" x="65.28" y="392.8851">Storage System</text></g><!--entity Web Server--><g class="entity" data-entity="Web Server" data-source-line="5" data-uid="ent0010" id="entity_Web Server"><rect fill="#F1F1F1" height="46.2969" rx="2.5" ry="2.5" style="stroke:#181818;stroke-width:0.5;" width="121.7031" x="65.15" y="466.19"/><rect fill="#F1F1F1" height="10" style="stroke:#181818;stroke-width:0.5;" width="15" x="166.8531" y="471.19"/><rect fill="#F1F1F1" height="2" style="stroke:#181818;stroke-width:0.5;" width="4" x="164.8531" y="473.19"/><rect fill="#F1F1F1" height="2" style="stroke:#181818;stroke-width:0.5;" width="4" x="164.8531" y="477.19"/><text fill="#000000" font-family="sans-serif" font-size="14" lengthAdjust="spacing" textLength="81.7031" x="80.15" y="499.1851">Web Server</text></g><!--entity Authentication Service--><g class="entity" data-entity="Authentication Service" data-source-line="6" data-uid="ent0012" id="entity_Authentication Service"><rect fill="#F1F1F1" height="46.2969" rx="2.5" ry="2.5" style="stroke:#181818;stroke-width:0.5;" width="198.9629" x="26.52" y="572.48"/><rect fill="#F1F1F1" height="10" style="stroke:#181818;stroke-width:0.5;" width="15" x="205.4829" y="577.48"/><rect fill="#F1F1F1" height="2" style="stroke:#181818;stroke-width:0.5;" width="4" x="203.4829" y="579.48"/><rect fill="#F1F1F1" height="2" style="stroke:#181818;stroke-width:0.5;" width="4" x="203.4829" y="583.48"/><text fill="#000000" font-family="sans-serif" font-size="14" lengthAdjust="spacing" textLength="158.9629" x="41.52" y="605.4751">Authentication Service</text></g><!--entity Error Handling Module--><g class="entity" data-entity="Error Handling Module" data-source-line="7" data-uid="ent0014" id="entity_Error Handling Module"><rect fill="#F1F1F1" height="46.2969" rx="2.5" ry="2.5" style="stroke:#181818;stroke-width:0.5;" width="196.8916" x="267.55" y="41"/><rect fill="#F1F1F1" height="10" style="stroke:#181818;stroke-width:0.5;" width="15" x="444.4416" y="46"/><rect fill="#F1F1F1" height="2" style="stroke:#181818;stroke-width:0.5;" width="4" x="442.4416" y="48"/><rect fill="#F1F1F1" height="2" style="stroke:#181818;stroke-width:0.5;" width="4" x="442.4416" y="52"/><text fill="#000000" font-family="sans-serif" font-size="14" lengthAdjust="spacing" textLength="156.8916" x="282.55" y="73.9951">Error Handling Module</text></g><!--entity Logging System--><g class="entity" data-entity="Logging System" data-source-line="7" data-uid="ent0015" id="entity_Logging System"><rect fill="#F1F1F1" height="46.2969" rx="2.5" ry="2.5" style="stroke:#181818;stroke-width:0.5;" width="152.4443" x="224.78" y="147.3"/><rect fill="#F1F1F1" height="10" style="stroke:#181818;stroke-width:0.5;" width="15" x="357.2243" y="152.3"/><rect fill="#F1F1F1" height="2" style="stroke:#181818;stroke-width:0.5;" width="4" x="355.2243" y="154.3"/><rect fill="#F1F1F1" height="2" style="stroke:#181818;stroke-width:0.5;" width="4" x="355.2243" y="158.3"/><text fill="#000000" font-family="sans-serif" font-size="14" lengthAdjust="spacing" textLength="112.4443" x="239.78" y="180.2951">Logging System</text></g><!--entity Data Distribution Network--><g class="entity" data-entity="Data Distribution Network" data-source-line="8" data-uid="ent0017" id="entity_Data Distribution Network"><rect fill="#F1F1F1" height="46.2969" rx="2.5" ry="2.5" style="stroke:#181818;stroke-width:0.5;" width="222.458" x="499.77" y="41"/><rect fill="#F1F1F1" height="10" style="stroke:#181818;stroke-width:0.5;" width="15" x="702.228" y="46"/><rect fill="#F1F1F1" height="2" style="stroke:#181818;stroke-width:0.5;" width="4" x="700.228" y="48"/><rect fill="#F1F1F1" height="2" style="stroke:#181818;stroke-width:0.5;" width="4" x="700.228" y="52"/><text fill="#000000" font-family="sans-serif" font-size="14" lengthAdjust="spacing" textLength="182.458" x="514.77" y="73.9951">Data Distribution Network</text></g><!--entity Co-Investigator Access Portal--><g class="entity" data-entity="Co-Investigator Access Portal" data-source-line="8" data-uid="ent0018" id="entity_Co-Investigator Access Portal"><rect fill="#F1F1F1" height="46.2969" rx="2.5" ry="2.5" style="stroke:#181818;stroke-width:0.5;" width="245.0371" x="412.48" y="147.3"/><rect fill="#F1F1F1" height="10" style="stroke:#181818;stroke-width:0.5;" width="15" x="637.5171" y="152.3"/><rect fill="#F1F1F1" height="2" style="stroke:#181818;stroke-width:0.5;" width="4" x="635.5171" y="154.3"/><rect fill="#F1F1F1" height="2" style="stroke:#181818;stroke-width:0.5;" width="4" x="635.5171" y="158.3"/><text fill="#000000" font-family="sans-serif" font-size="14" lengthAdjust="spacing" textLength="205.0371" x="427.48" y="180.2951">Co-Investigator Access Portal</text></g><!--entity Software Integration Layer--><g class="entity" data-entity="Software Integration Layer" data-source-line="9" data-uid="ent0020" id="entity_Software Integration Layer"><rect fill="#F1F1F1" height="46.2969" rx="2.5" ry="2.5" style="stroke:#181818;stroke-width:0.5;" width="227.3457" x="757.33" y="41"/><rect fill="#F1F1F1" height="10" style="stroke:#181818;stroke-width:0.5;" width="15" x="964.6757" y="46"/><rect fill="#F1F1F1" height="2" style="stroke:#181818;stroke-width:0.5;" width="4" x="962.6757" y="48"/><rect fill="#F1F1F1" height="2" style="stroke:#181818;stroke-width:0.5;" width="4" x="962.6757" y="52"/><text fill="#000000" font-family="sans-serif" font-size="14" lengthAdjust="spacing" textLength="187.3457" x="772.33" y="73.9951">Software Integration Layer</text></g><!--entity NASA Data Repository Interface--><g class="entity" data-entity="NASA Data Repository Interface" data-source-line="9" data-uid="ent0021" id="entity_NASA Data Repository Interface"><rect fill="#F1F1F1" height="46.2969" rx="2.5" ry="2.5" style="stroke:#181818;stroke-width:0.5;" width="263.043" x="692.48" y="147.3"/><rect fill="#F1F1F1" height="10" style="stroke:#181818;stroke-width:0.5;" width="15" x="935.523" y="152.3"/><rect fill="#F1F1F1" height="2" style="stroke:#181818;stroke-width:0.5;" width="4" x="933.523" y="154.3"/><rect fill="#F1F1F1" height="2" style="stroke:#181818;stroke-width:0.5;" width="4" x="933.523" y="158.3"/><text fill="#000000" font-family="sans-serif" font-size="14" lengthAdjust="spacing" textLength="223.043" x="707.48" y="180.2951">NASA Data Repository Interface</text></g><!--entity Data Calibration Module--><g class="entity" data-entity="Data Calibration Module" data-source-line="10" data-uid="ent0023" id="entity_Data Calibration Module"><rect fill="#F1F1F1" height="46.2969" rx="2.5" ry="2.5" style="stroke:#181818;stroke-width:0.5;" width="209.4082" x="1019.3" y="41"/><rect fill="#F1F1F1" height="10" style="stroke:#181818;stroke-width:0.5;" width="15" x="1208.7082" y="46"/><rect fill="#F1F1F1" height="2" style="stroke:#181818;stroke-width:0.5;" width="4" x="1206.7082" y="48"/><rect fill="#F1F1F1" height="2" style="stroke:#181818;stroke-width:0.5;" width="4" x="1206.7082" y="52"/><text fill="#000000" font-family="sans-serif" font-size="14" lengthAdjust="spacing" textLength="169.4082" x="1034.3" y="73.9951">Data Calibration Module</text></g><!--entity Compliance Verification System--><g class="entity" data-entity="Compliance Verification System" data-source-line="10" data-uid="ent0024" id="entity_Compliance Verification System"><rect fill="#F1F1F1" height="46.2969" rx="2.5" ry="2.5" style="stroke:#181818;stroke-width:0.5;" width="263.2617" x="990.37" y="147.3"/><rect fill="#F1F1F1" height="10" style="stroke:#181818;stroke-width:0.5;" width="15" x="1233.6317" y="152.3"/><rect fill="#F1F1F1" height="2" style="stroke:#181818;stroke-width:0.5;" width="4" x="1231.6317" y="154.3"/><rect fill="#F1F1F1" height="2" style="stroke:#181818;stroke-width:0.5;" width="4" x="1231.6317" y="158.3"/><text fill="#000000" font-family="sans-serif" font-size="14" lengthAdjust="spacing" textLength="223.2617" x="1005.37" y="180.2951">Compliance Verification System</text></g><!--link Data Acquisition Module to Processing Engine--><g class="link" data-entity-1="Data Acquisition Module" data-entity-2="Processing Engine" data-source-line="2" data-uid="lnk5" id="link_Data Acquisition Module_Processing Engine"><path d="M122.44,87.78 C118.92,105.27 115.2538,123.4879 111.7338,140.9779 " fill="none" id="Data Acquisition Module-to-Processing Engine" style="stroke:#181818;stroke-width:1;"/><polygon fill="#181818" points="110.55,146.86,116.2471,138.8261,111.5365,141.9583,108.4043,137.2477,110.55,146.86" style="stroke:#181818;stroke-width:1;"/></g><!--link Processing Engine to Data Processing Module--><g class="link" data-entity-1="Processing Engine" data-entity-2="Data Processing Module" data-source-line="3" data-uid="lnk7" id="link_Processing Engine_Data Processing Module"><path d="M110.34,194.07 C113.69,211.57 117.1907,229.7772 120.5407,247.2572 " fill="none" id="Processing Engine-to-Data Processing Module" style="stroke:#181818;stroke-width:1;"/><polygon fill="#181818" points="121.67,253.15,123.9045,243.558,120.7289,248.2394,116.0475,245.0638,121.67,253.15" style="stroke:#181818;stroke-width:1;"/></g><!--link Data Processing Module to Storage System--><g class="link" data-entity-1="Data Processing Module" data-entity-2="Storage System" data-source-line="4" data-uid="lnk9" id="link_Data Processing Module_Storage System"><path d="M126,300.37 C126,317.87 126,335.97 126,353.45 " fill="none" id="Data Processing Module-to-Storage System" style="stroke:#181818;stroke-width:1;"/><polygon fill="#181818" points="126,359.45,130,350.45,126,354.45,122,350.45,126,359.45" style="stroke:#181818;stroke-width:1;"/></g><!--link Storage System to Web Server--><g class="link" data-entity-1="Storage System" data-entity-2="Web Server" data-source-line="5" data-uid="lnk11" id="link_Storage System_Web Server"><path d="M126,406.67 C126,424.16 126,442.27 126,459.75 " fill="none" id="Storage System-to-Web Server" style="stroke:#181818;stroke-width:1;"/><polygon fill="#181818" points="126,465.75,130,456.75,126,460.75,122,456.75,126,465.75" style="stroke:#181818;stroke-width:1;"/></g><!--link Web Server to Authentication Service--><g class="link" data-entity-1="Web Server" data-entity-2="Authentication Service" data-source-line="6" data-uid="lnk13" id="link_Web Server_Authentication Service"><path d="M126,512.97 C126,530.46 126,548.56 126,566.04 " fill="none" id="Web Server-to-Authentication Service" style="stroke:#181818;stroke-width:1;"/><polygon fill="#181818" points="126,572.04,130,563.04,126,567.04,122,563.04,126,572.04" style="stroke:#181818;stroke-width:1;"/></g><!--link Error Handling Module to Logging System--><g class="link" data-entity-1="Error Handling Module" data-entity-2="Logging System" data-source-line="7" data-uid="lnk16" id="link_Error Handling Module_Logging System"><path d="M351.9,87.78 C340.99,105.27 329.1414,124.2766 318.2514,141.7666 " fill="none" id="Error Handling Module-to-Logging System" style="stroke:#181818;stroke-width:1;"/><polygon fill="#181818" points="315.08,146.86,323.2326,141.3342,317.7228,142.6155,316.4414,137.1057,315.08,146.86" style="stroke:#181818;stroke-width:1;"/></g><!--link Data Distribution Network to Co-Investigator Access Portal--><g class="link" data-entity-1="Data Distribution Network" data-entity-2="Co-Investigator Access Portal" data-source-line="8" data-uid="lnk19" id="link_Data Distribution Network_Co-Investigator Access Portal"><path d="M594.51,87.78 C581.76,105.27 567.7327,124.5202 554.9927,142.0102 " fill="none" id="Data Distribution Network-to-Co-Investigator Access Portal" style="stroke:#181818;stroke-width:1;"/><polygon fill="#181818" points="551.46,146.86,559.9922,141.9404,554.4039,142.8185,553.5258,137.2302,551.46,146.86" style="stroke:#181818;stroke-width:1;"/></g><!--link Software Integration Layer to NASA Data Repository Interface--><g class="link" data-entity-1="Software Integration Layer" data-entity-2="NASA Data Repository Interface" data-source-line="9" data-uid="lnk22" id="link_Software Integration Layer_NASA Data Repository Interface"><path d="M860.8,87.78 C852.92,105.27 844.5247,123.8996 836.6447,141.3896 " fill="none" id="Software Integration Layer-to-NASA Data Repository Interface" style="stroke:#181818;stroke-width:1;"/><polygon fill="#181818" points="834.18,146.86,841.5239,140.2975,836.2339,142.3013,834.23,137.0113,834.18,146.86" style="stroke:#181818;stroke-width:1;"/></g><!--link Data Calibration Module to Compliance Verification System--><g class="link" data-entity-1="Data Calibration Module" data-entity-2="Compliance Verification System" data-source-line="10" data-uid="lnk25" id="link_Data Calibration Module_Compliance Verification System"><path d="M1123.57,87.78 C1123.23,105.27 1122.8866,123.3711 1122.5466,140.8611 " fill="none" id="Data Calibration Module-to-Compliance Verification System" style="stroke:#181818;stroke-width:1;"/><polygon fill="#181818" points="1122.43,146.86,1126.6042,137.9394,1122.5272,141.8609,1118.6057,137.784,1122.43,146.86" style="stroke:#181818;stroke-width:1;"/></g><!--SRC=[PP51ReD034NtFOMLFLUeX4YgHaeZLAHs4MLX9cPgXOof6HAXgdSlC2I2CalxV_jzJuNcZ9PW5QVn2sHjxUcoWfydwDvXZHuXDjyDr-nP7Bp9gIdf257q38TKnL1TixEmSPOT7ODhMG_wOTgaEGwRh5esWpFpeZram1iT_uf1-KavPAHNqb4rAGH5tFWlSfuD3edw7fixnKPL55xHdSe5n4wixOipY05xpRLNpfjXu9xyJVGycXA9jkvAjMUB7Mztp3uWfA8UotiGAVmDbM3hF5aDN3ji7yZxE8jXsFHEbNHV8TeEOYtGp0wOOCdvE646dyYbAXcT8VWWvU8HVmpp-mS0]--></g></svg>