<svg xmlns="http://www.w3.org/2000/svg" xmlns:xlink="http://www.w3.org/1999/xlink" contentStyleType="text/css" data-diagram-type="DESCRIPTION" height="337px" preserveAspectRatio="none" style="width:910px;height:337px;background:#FFFFFF;" version="1.1" viewBox="0 0 910 337" width="910px" zoomAndPan="magnify"><defs/><g><!--cluster SwRI Data Center--><g class="cluster" data-entity="SwRI Data Center" data-source-line="1" data-uid="ent0002" id="cluster_SwRI Data Center"><polygon fill="none" points="16,16,26,6,893,6,893,310.89,883,320.89,16,320.89,16,16" style="stroke:#181818;stroke-width:1;"/><line style="stroke:#181818;stroke-width:1;" x1="883" x2="893" y1="16" y2="6"/><line style="stroke:#181818;stroke-width:1;" x1="16" x2="883" y1="16" y2="16"/><line style="stroke:#181818;stroke-width:1;" x1="883" x2="883" y1="16" y2="320.89"/><text fill="#000000" font-family="sans-serif" font-size="14" font-weight="bold" lengthAdjust="spacing" textLength="138.79" x="381.105" y="31.9951">SwRI Data Center</text></g><!--entity Data Acquisition Module--><g class="entity" data-entity="Data Acquisition Module" data-source-line="2" data-uid="ent0003" id="entity_Data Acquisition Module"><rect fill="#F1F1F1" height="46.2969" rx="2.5" ry="2.5" style="stroke:#181818;stroke-width:0.5;" width="210.1602" x="31.92" y="46"/><rect fill="#F1F1F1" height="10" style="stroke:#181818;stroke-width:0.5;" width="15" x="222.0802" y="51"/><rect fill="#F1F1F1" height="2" style="stroke:#181818;stroke-width:0.5;" width="4" x="220.0802" y="53"/><rect fill="#F1F1F1" height="2" style="stroke:#181818;stroke-width:0.5;" width="4" x="220.0802" y="57"/><text fill="#000000" font-family="sans-serif" font-size="14" lengthAdjust="spacing" textLength="170.1602" x="46.92" y="78.9951">Data Acquisition Module</text></g><!--entity Processing Engine--><g class="entity" data-entity="Processing Engine" data-source-line="3" data-uid="ent0004" id="entity_Processing Engine"><rect fill="#F1F1F1" height="46.2969" rx="2.5" ry="2.5" style="stroke:#181818;stroke-width:0.5;" width="167.7432" x="277.13" y="46"/><rect fill="#F1F1F1" height="10" style="stroke:#181818;stroke-width:0.5;" width="15" x="424.8732" y="51"/><rect fill="#F1F1F1" height="2" style="stroke:#181818;stroke-width:0.5;" width="4" x="422.8732" y="53"/><rect fill="#F1F1F1" height="2" style="stroke:#181818;stroke-width:0.5;" width="4" x="422.8732" y="57"/><text fill="#000000" font-family="sans-serif" font-size="14" lengthAdjust="spacing" textLength="127.7432" x="292.13" y="78.9951">Processing Engine</text></g><!--entity Data Processing Module--><g class="entity" data-entity="Data Processing Module" data-source-line="4" data-uid="ent0005" id="entity_Data Processing Module"><rect fill="#F1F1F1" height="46.2969" rx="2.5" ry="2.5" style="stroke:#181818;stroke-width:0.5;" width="208.5469" x="479.73" y="46"/><rect fill="#F1F1F1" height="10" style="stroke:#181818;stroke-width:0.5;" width="15" x="668.2769" y="51"/><rect fill="#F1F1F1" height="2" style="stroke:#181818;stroke-width:0.5;" width="4" x="666.2769" y="53"/><rect fill="#F1F1F1" height="2" style="stroke:#181818;stroke-width:0.5;" width="4" x="666.2769" y="57"/><text fill="#000000" font-family="sans-serif" font-size="14" lengthAdjust="spacing" textLength="168.5469" x="494.73" y="78.9951">Data Processing Module</text></g><!--entity Storage System--><g class="entity" data-entity="Storage System" data-source-line="5" data-uid="ent0006" id="entity_Storage System"><rect fill="#F1F1F1" height="46.2969" rx="2.5" ry="2.5" style="stroke:#181818;stroke-width:0.5;" width="151.4326" x="723.28" y="46"/><rect fill="#F1F1F1" height="10" style="stroke:#181818;stroke-width:0.5;" width="15" x="854.7126" y="51"/><rect fill="#F1F1F1" height="2" style="stroke:#181818;stroke-width:0.5;" width="4" x="852.7126" y="53"/><rect fill="#F1F1F1" height="2" style="stroke:#181818;stroke-width:0.5;" width="4" x="852.7126" y="57"/><text fill="#000000" font-family="sans-serif" font-size="14" lengthAdjust="spacing" textLength="111.4326" x="738.28" y="78.9951">Storage System</text></g><!--entity Web Server--><g class="entity" data-entity="Web Server" data-source-line="6" data-uid="ent0007" id="entity_Web Server"><rect fill="#F1F1F1" height="46.2969" rx="2.5" ry="2.5" style="stroke:#181818;stroke-width:0.5;" width="121.7031" x="32.15" y="152.3"/><rect fill="#F1F1F1" height="10" style="stroke:#181818;stroke-width:0.5;" width="15" x="133.8531" y="157.3"/><rect fill="#F1F1F1" height="2" style="stroke:#181818;stroke-width:0.5;" width="4" x="131.8531" y="159.3"/><rect fill="#F1F1F1" height="2" style="stroke:#181818;stroke-width:0.5;" width="4" x="131.8531" y="163.3"/><text fill="#000000" font-family="sans-serif" font-size="14" lengthAdjust="spacing" textLength="81.7031" x="47.15" y="185.2951">Web Server</text></g><!--entity Authentication Service--><g class="entity" data-entity="Authentication Service" data-source-line="7" data-uid="ent0008" id="entity_Authentication Service"><rect fill="#F1F1F1" height="46.2969" rx="2.5" ry="2.5" style="stroke:#181818;stroke-width:0.5;" width="198.9629" x="188.52" y="152.3"/><rect fill="#F1F1F1" height="10" style="stroke:#181818;stroke-width:0.5;" width="15" x="367.4829" y="157.3"/><rect fill="#F1F1F1" height="2" style="stroke:#181818;stroke-width:0.5;" width="4" x="365.4829" y="159.3"/><rect fill="#F1F1F1" height="2" style="stroke:#181818;stroke-width:0.5;" width="4" x="365.4829" y="163.3"/><text fill="#000000" font-family="sans-serif" font-size="14" lengthAdjust="spacing" textLength="158.9629" x="203.52" y="185.2951">Authentication Service</text></g><!--entity Error Handling Module--><g class="entity" data-entity="Error Handling Module" data-source-line="8" data-uid="ent0009" id="entity_Error Handling Module"><rect fill="#F1F1F1" height="46.2969" rx="2.5" ry="2.5" style="stroke:#181818;stroke-width:0.5;" width="196.8916" x="422.55" y="152.3"/><rect fill="#F1F1F1" height="10" style="stroke:#181818;stroke-width:0.5;" width="15" x="599.4416" y="157.3"/><rect fill="#F1F1F1" height="2" style="stroke:#181818;stroke-width:0.5;" width="4" x="597.4416" y="159.3"/><rect fill="#F1F1F1" height="2" style="stroke:#181818;stroke-width:0.5;" width="4" x="597.4416" y="163.3"/><text fill="#000000" font-family="sans-serif" font-size="14" lengthAdjust="spacing" textLength="156.8916" x="437.55" y="185.2951">Error Handling Module</text></g><!--entity Data Distribution Network--><g class="entity" data-entity="Data Distribution Network" data-source-line="9" data-uid="ent0010" id="entity_Data Distribution Network"><rect fill="#F1F1F1" height="46.2969" rx="2.5" ry="2.5" style="stroke:#181818;stroke-width:0.5;" width="222.458" x="654.77" y="152.3"/><rect fill="#F1F1F1" height="10" style="stroke:#181818;stroke-width:0.5;" width="15" x="857.228" y="157.3"/><rect fill="#F1F1F1" height="2" style="stroke:#181818;stroke-width:0.5;" width="4" x="855.228" y="159.3"/><rect fill="#F1F1F1" height="2" style="stroke:#181818;stroke-width:0.5;" width="4" x="855.228" y="163.3"/><text fill="#000000" font-family="sans-serif" font-size="14" lengthAdjust="spacing" textLength="182.458" x="669.77" y="185.2951">Data Distribution Network</text></g><!--entity Software Integration Layer--><g class="entity" data-entity="Software Integration Layer" data-source-line="10" data-uid="ent0011" id="entity_Software Integration Layer"><rect fill="#F1F1F1" height="46.2969" rx="2.5" ry="2.5" style="stroke:#181818;stroke-width:0.5;" width="227.3457" x="32.33" y="258.59"/><rect fill="#F1F1F1" height="10" style="stroke:#181818;stroke-width:0.5;" width="15" x="239.6757" y="263.59"/><rect fill="#F1F1F1" height="2" style="stroke:#181818;stroke-width:0.5;" width="4" x="237.6757" y="265.59"/><rect fill="#F1F1F1" height="2" style="stroke:#181818;stroke-width:0.5;" width="4" x="237.6757" y="269.59"/><text fill="#000000" font-family="sans-serif" font-size="14" lengthAdjust="spacing" textLength="187.3457" x="47.33" y="291.5851">Software Integration Layer</text></g><!--entity Data Calibration Module--><g class="entity" data-entity="Data Calibration Module" data-source-line="11" data-uid="ent0012" id="entity_Data Calibration Module"><rect fill="#F1F1F1" height="46.2969" rx="2.5" ry="2.5" style="stroke:#181818;stroke-width:0.5;" width="209.4082" x="294.3" y="258.59"/><rect fill="#F1F1F1" height="10" style="stroke:#181818;stroke-width:0.5;" width="15" x="483.7082" y="263.59"/><rect fill="#F1F1F1" height="2" style="stroke:#181818;stroke-width:0.5;" width="4" x="481.7082" y="265.59"/><rect fill="#F1F1F1" height="2" style="stroke:#181818;stroke-width:0.5;" width="4" x="481.7082" y="269.59"/><text fill="#000000" font-family="sans-serif" font-size="14" lengthAdjust="spacing" textLength="169.4082" x="309.3" y="291.5851">Data Calibration Module</text></g><!--entity Compliance Verification System--><g class="entity" data-entity="Compliance Verification System" data-source-line="12" data-uid="ent0013" id="entity_Compliance Verification System"><rect fill="#F1F1F1" height="46.2969" rx="2.5" ry="2.5" style="stroke:#181818;stroke-width:0.5;" width="263.2617" x="538.37" y="258.59"/><rect fill="#F1F1F1" height="10" style="stroke:#181818;stroke-width:0.5;" width="15" x="781.6317" y="263.59"/><rect fill="#F1F1F1" height="2" style="stroke:#181818;stroke-width:0.5;" width="4" x="779.6317" y="265.59"/><rect fill="#F1F1F1" height="2" style="stroke:#181818;stroke-width:0.5;" width="4" x="779.6317" y="269.59"/><text fill="#000000" font-family="sans-serif" font-size="14" lengthAdjust="spacing" textLength="223.2617" x="553.37" y="291.5851">Compliance Verification System</text></g><!--SRC=[PL1B2i903DrxYk1DYWeAAc915-8YdSOQh1FDf1OHxswTjgAOvNkyNxpa1CEqNizWZ8Om8c-aGtWCeBbTn19thJYmiNXOI5wLj6_PbOgZ4DWNCF45-nwFgY_oHvIQA1O4wJqOdJjmIncaf3VI3aWgEpPLs66CVNFiUek9gYXCqUVbdttC7dCmvQoAsYLPBNhgu-LWDIh1h1bQQ6i_n_idkNq3bfnrv8_zICwNaj4xWWqf7pu5kpNF5m00]--></g></svg>