<svg xmlns="http://www.w3.org/2000/svg" xmlns:xlink="http://www.w3.org/1999/xlink" contentStyleType="text/css" data-diagram-type="DESCRIPTION" height="148px" preserveAspectRatio="none" style="width:3269px;height:148px;background:#FFFFFF;" version="1.1" viewBox="0 0 3269 148" width="3269px" zoomAndPan="magnify"><defs/><g><!--entity ESOC--><g class="entity" data-entity="ESOC" data-source-line="1" data-uid="ent0002" id="entity_ESOC"><ellipse cx="25.2637" cy="75.06" fill="#F1F1F1" rx="8" ry="8" style="stroke:#181818;stroke-width:0.5;"/><path d="M25.2637,83.06 L25.2637,110.06 M12.2637,91.06 L38.2637,91.06 M25.2637,110.06 L12.2637,125.06 M25.2637,110.06 L38.2637,125.06 " fill="none" style="stroke:#181818;stroke-width:0.5;"/><text fill="#000000" font-family="sans-serif" font-size="14" lengthAdjust="spacing" textLength="38.5273" x="6" y="139.5551">ESOC</text></g><!--entity Team--><g class="entity" data-entity="Team" data-source-line="2" data-uid="ent0003" id="entity_Team"><ellipse cx="2324.2638" cy="75.06" fill="#F1F1F1" rx="8" ry="8" style="stroke:#181818;stroke-width:0.5;"/><path d="M2324.2638,83.06 L2324.2638,110.06 M2311.2638,91.06 L2337.2638,91.06 M2324.2638,110.06 L2311.2638,125.06 M2324.2638,110.06 L2337.2638,125.06 " fill="none" style="stroke:#181818;stroke-width:0.5;"/><text fill="#000000" font-family="sans-serif" font-size="14" lengthAdjust="spacing" textLength="112.8477" x="2267.84" y="139.5551">ASPERA-3 Team</text></g><!--entity CoI--><g class="entity" data-entity="CoI" data-source-line="3" data-uid="ent0004" id="entity_CoI"><ellipse cx="2846.2681" cy="75.06" fill="#F1F1F1" rx="8" ry="8" style="stroke:#181818;stroke-width:0.5;"/><path d="M2846.2681,83.06 L2846.2681,110.06 M2833.2681,91.06 L2859.2681,91.06 M2846.2681,110.06 L2833.2681,125.06 M2846.2681,110.06 L2859.2681,125.06 " fill="none" style="stroke:#181818;stroke-width:0.5;"/><text fill="#000000" font-family="sans-serif" font-size="14" lengthAdjust="spacing" textLength="114.5361" x="2789" y="139.5551">Co-Investigators</text></g><!--entity PDS--><g class="entity" data-entity="PDS" data-source-line="4" data-uid="ent0005" id="entity_PDS"><ellipse cx="1753.2666" cy="75.06" fill="#F1F1F1" rx="8" ry="8" style="stroke:#181818;stroke-width:0.5;"/><path d="M1753.2666,83.06 L1753.2666,110.06 M1740.2666,91.06 L1766.2666,91.06 M1753.2666,110.06 L1740.2666,125.06 M1753.2666,110.06 L1766.2666,125.06 " fill="none" style="stroke:#181818;stroke-width:0.5;"/><text fill="#000000" font-family="sans-serif" font-size="14" lengthAdjust="spacing" textLength="71.0732" x="1717.73" y="139.5551">NASA PDS</text></g><!--entity Data Acquisition Module--><g class="entity" data-entity="Data Acquisition Module" data-source-line="6" data-uid="ent0006" id="entity_Data Acquisition Module"><rect fill="#F1F1F1" height="46.2969" rx="2.5" ry="2.5" style="stroke:#181818;stroke-width:0.5;" width="210.1602" x="236.18" y="81.56"/><rect fill="#F1F1F1" height="10" style="stroke:#181818;stroke-width:0.5;" width="15" x="426.3402" y="86.56"/><rect fill="#F1F1F1" height="2" style="stroke:#181818;stroke-width:0.5;" width="4" x="424.3402" y="88.56"/><rect fill="#F1F1F1" height="2" style="stroke:#181818;stroke-width:0.5;" width="4" x="424.3402" y="92.56"/><text fill="#000000" font-family="sans-serif" font-size="14" lengthAdjust="spacing" textLength="170.1602" x="251.18" y="114.5551">Data Acquisition Module</text></g><!--entity Processing Engine--><g class="entity" data-entity="Processing Engine" data-source-line="7" data-uid="ent0008" id="entity_Processing Engine"><rect fill="#F1F1F1" height="46.2969" rx="2.5" ry="2.5" style="stroke:#181818;stroke-width:0.5;" width="167.7432" x="604.39" y="81.56"/><rect fill="#F1F1F1" height="10" style="stroke:#181818;stroke-width:0.5;" width="15" x="752.1332" y="86.56"/><rect fill="#F1F1F1" height="2" style="stroke:#181818;stroke-width:0.5;" width="4" x="750.1332" y="88.56"/><rect fill="#F1F1F1" height="2" style="stroke:#181818;stroke-width:0.5;" width="4" x="750.1332" y="92.56"/><text fill="#000000" font-family="sans-serif" font-size="14" lengthAdjust="spacing" textLength="127.7432" x="619.39" y="114.5551">Processing Engine</text></g><!--entity Data Processing Module--><g class="entity" data-entity="Data Processing Module" data-source-line="8" data-uid="ent0010" id="entity_Data Processing Module"><rect fill="#F1F1F1" height="46.2969" rx="2.5" ry="2.5" style="stroke:#181818;stroke-width:0.5;" width="208.5469" x="947.99" y="81.56"/><rect fill="#F1F1F1" height="10" style="stroke:#181818;stroke-width:0.5;" width="15" x="1136.5369" y="86.56"/><rect fill="#F1F1F1" height="2" style="stroke:#181818;stroke-width:0.5;" width="4" x="1134.5369" y="88.56"/><rect fill="#F1F1F1" height="2" style="stroke:#181818;stroke-width:0.5;" width="4" x="1134.5369" y="92.56"/><text fill="#000000" font-family="sans-serif" font-size="14" lengthAdjust="spacing" textLength="168.5469" x="962.99" y="114.5551">Data Processing Module</text></g><!--entity Storage System--><g class="entity" data-entity="Storage System" data-source-line="9" data-uid="ent0012" id="entity_Storage System"><rect fill="#F1F1F1" height="46.2969" rx="2.5" ry="2.5" style="stroke:#181818;stroke-width:0.5;" width="151.4326" x="2081.55" y="81.56"/><rect fill="#F1F1F1" height="10" style="stroke:#181818;stroke-width:0.5;" width="15" x="2212.9826" y="86.56"/><rect fill="#F1F1F1" height="2" style="stroke:#181818;stroke-width:0.5;" width="4" x="2210.9826" y="88.56"/><rect fill="#F1F1F1" height="2" style="stroke:#181818;stroke-width:0.5;" width="4" x="2210.9826" y="92.56"/><text fill="#000000" font-family="sans-serif" font-size="14" lengthAdjust="spacing" textLength="111.4326" x="2096.55" y="114.5551">Storage System</text></g><!--entity Web Server--><g class="entity" data-entity="Web Server" data-source-line="10" data-uid="ent0014" id="entity_Web Server"><rect fill="#F1F1F1" height="46.2969" rx="2.5" ry="2.5" style="stroke:#181818;stroke-width:0.5;" width="121.7031" x="2632.41" y="81.56"/><rect fill="#F1F1F1" height="10" style="stroke:#181818;stroke-width:0.5;" width="15" x="2734.1131" y="86.56"/><rect fill="#F1F1F1" height="2" style="stroke:#181818;stroke-width:0.5;" width="4" x="2732.1131" y="88.56"/><rect fill="#F1F1F1" height="2" style="stroke:#181818;stroke-width:0.5;" width="4" x="2732.1131" y="92.56"/><text fill="#000000" font-family="sans-serif" font-size="14" lengthAdjust="spacing" textLength="81.7031" x="2647.41" y="114.5551">Web Server</text></g><!--entity Co-Investigator Access Portal--><g class="entity" data-entity="Co-Investigator Access Portal" data-source-line="12" data-uid="ent0017" id="entity_Co-Investigator Access Portal"><rect fill="#F1F1F1" height="46.2969" rx="2.5" ry="2.5" style="stroke:#181818;stroke-width:0.5;" width="245.0371" x="3018.75" y="81.56"/><rect fill="#F1F1F1" height="10" style="stroke:#181818;stroke-width:0.5;" width="15" x="3243.7871" y="86.56"/><rect fill="#F1F1F1" height="2" style="stroke:#181818;stroke-width:0.5;" width="4" x="3241.7871" y="88.56"/><rect fill="#F1F1F1" height="2" style="stroke:#181818;stroke-width:0.5;" width="4" x="3241.7871" y="92.56"/><text fill="#000000" font-family="sans-serif" font-size="14" lengthAdjust="spacing" textLength="205.0371" x="3033.75" y="114.5551">Co-Investigator Access Portal</text></g><!--entity Data Distribution Network--><g class="entity" data-entity="Data Distribution Network" data-source-line="13" data-uid="ent0019" id="entity_Data Distribution Network"><rect fill="#F1F1F1" height="46.2969" rx="2.5" ry="2.5" style="stroke:#181818;stroke-width:0.5;" width="222.458" x="1824.03" y="81.56"/><rect fill="#F1F1F1" height="10" style="stroke:#181818;stroke-width:0.5;" width="15" x="2026.488" y="86.56"/><rect fill="#F1F1F1" height="2" style="stroke:#181818;stroke-width:0.5;" width="4" x="2024.488" y="88.56"/><rect fill="#F1F1F1" height="2" style="stroke:#181818;stroke-width:0.5;" width="4" x="2024.488" y="92.56"/><text fill="#000000" font-family="sans-serif" font-size="14" lengthAdjust="spacing" textLength="182.458" x="1839.03" y="114.5551">Data Distribution Network</text></g><!--entity Data Calibration Module--><g class="entity" data-entity="Data Calibration Module" data-source-line="14" data-uid="ent0021" id="entity_Data Calibration Module"><rect fill="#F1F1F1" height="46.2969" rx="2.5" ry="2.5" style="stroke:#181818;stroke-width:0.5;" width="209.4082" x="1286.56" y="81.56"/><rect fill="#F1F1F1" height="10" style="stroke:#181818;stroke-width:0.5;" width="15" x="1475.9682" y="86.56"/><rect fill="#F1F1F1" height="2" style="stroke:#181818;stroke-width:0.5;" width="4" x="1473.9682" y="88.56"/><rect fill="#F1F1F1" height="2" style="stroke:#181818;stroke-width:0.5;" width="4" x="1473.9682" y="92.56"/><text fill="#000000" font-family="sans-serif" font-size="14" lengthAdjust="spacing" textLength="169.4082" x="1301.56" y="114.5551">Data Calibration Module</text></g><!--link ESOC to Data Acquisition Module--><g class="link" data-entity-1="ESOC" data-entity-2="Data Acquisition Module" data-source-line="6" data-uid="lnk7" id="link_ESOC_Data Acquisition Module"><path d="M44.56,104.71 C81.87,104.71 160.38,104.71 229.7,104.71 " fill="none" id="ESOC-to-Data Acquisition Module" style="stroke:#181818;stroke-width:1;"/><polygon fill="#181818" points="235.7,104.71,226.7,100.71,230.7,104.71,226.7,108.71,235.7,104.71" style="stroke:#181818;stroke-width:1;"/><text fill="#000000" font-family="sans-serif" font-size="13" lengthAdjust="spacing" textLength="155.1367" x="62.86" y="97.7769">Acquire Telemetry Data</text></g><!--link Data Acquisition Module to Processing Engine--><g class="link" data-entity-1="Data Acquisition Module" data-entity-2="Processing Engine" data-source-line="7" data-uid="lnk9" id="link_Data Acquisition Module_Processing Engine"><path d="M446.79,104.71 C497.23,104.71 550.79,104.71 598.13,104.71 " fill="none" id="Data Acquisition Module-to-Processing Engine" style="stroke:#181818;stroke-width:1;"/><polygon fill="#181818" points="604.13,104.71,595.13,100.71,599.13,104.71,595.13,108.71,604.13,104.71" style="stroke:#181818;stroke-width:1;"/><text fill="#000000" font-family="sans-serif" font-size="13" lengthAdjust="spacing" textLength="122.0273" x="464.37" y="97.7769">Process Data Daily</text></g><!--link Processing Engine to Data Processing Module--><g class="link" data-entity-1="Processing Engine" data-entity-2="Data Processing Module" data-source-line="8" data-uid="lnk11" id="link_Processing Engine_Data Processing Module"><path d="M772.23,104.71 C824.4,104.71 885.9,104.71 941.55,104.71 " fill="none" id="Processing Engine-to-Data Processing Module" style="stroke:#181818;stroke-width:1;"/><polygon fill="#181818" points="947.55,104.71,938.55,100.71,942.55,104.71,938.55,108.71,947.55,104.71" style="stroke:#181818;stroke-width:1;"/><text fill="#000000" font-family="sans-serif" font-size="13" lengthAdjust="spacing" textLength="139.5278" x="790.56" y="97.7769">Process Science Data</text></g><!--link Data Processing Module to Storage System--><g class="link" data-entity-1="Data Processing Module" data-entity-2="Storage System" data-source-line="9" data-uid="lnk13" id="link_Data Processing Module_Storage System"><path d="M1156.97,83.27 C1316.2,53.46 1628.75,6 1893.76,32.34 C1970.67,39.98 1990.28,44.19 2064.26,66.56 C2077.63,70.6 2086.1589,73.5974 2099.2189,78.8874 " fill="none" id="Data Processing Module-to-Storage System" style="stroke:#181818;stroke-width:1;"/><polygon fill="#181818" points="2104.78,81.14,2097.94,74.0538,2100.1457,79.2629,2094.9366,81.4686,2104.78,81.14" style="stroke:#181818;stroke-width:1;"/><text fill="#000000" font-family="sans-serif" font-size="13" lengthAdjust="spacing" textLength="69.8179" x="1823.76" y="32.6269">Store Data</text></g><!--link Storage System to Web Server--><g class="link" data-entity-1="Storage System" data-entity-2="Web Server" data-source-line="10" data-uid="lnk15" id="link_Storage System_Web Server"><path d="M2214.24,81.13 C2226.13,76.27 2238.59,71.21 2250.26,66.56 C2289.44,50.95 2297.31,40.07 2338.76,32.34 C2420.46,17.09 2444.37,15.51 2525.76,32.34 C2570.9,41.67 2613.5297,60.9871 2646.4997,78.3271 " fill="none" id="Storage System-to-Web Server" style="stroke:#181818;stroke-width:1;"/><polygon fill="#181818" points="2651.81,81.12,2645.7064,73.3904,2647.3847,78.7926,2641.9826,80.4709,2651.81,81.12" style="stroke:#181818;stroke-width:1;"/><text fill="#000000" font-family="sans-serif" font-size="13" lengthAdjust="spacing" textLength="185.3516" x="2339.76" y="32.6269">Provide Web-Based Displays</text></g><!--link Team to Web Server--><g class="link" data-entity-1="Team" data-entity-2="Web Server" data-source-line="11" data-uid="lnk16" id="link_Team_Web Server"><path d="M2381.11,104.71 C2449.04,104.71 2556.24,104.71 2626.05,104.71 " fill="none" id="Team-to-Web Server" style="stroke:#181818;stroke-width:1;"/><polygon fill="#181818" points="2632.05,104.71,2623.05,100.71,2627.05,104.71,2623.05,108.71,2632.05,104.71" style="stroke:#181818;stroke-width:1;"/><text fill="#000000" font-family="sans-serif" font-size="13" lengthAdjust="spacing" textLength="215.7759" x="2399.05" y="97.7769">Access Science Analysis Displays</text></g><!--link CoI to Co-Investigator Access Portal--><g class="link" data-entity-1="CoI" data-entity-2="Co-Investigator Access Portal" data-source-line="12" data-uid="lnk18" id="link_CoI_Co-Investigator Access Portal"><path d="M2903.84,104.71 C2936.54,104.71 2972.77,104.71 3012.53,104.71 " fill="none" id="CoI-to-Co-Investigator Access Portal" style="stroke:#181818;stroke-width:1;"/><polygon fill="#181818" points="3018.53,104.71,3009.53,100.71,3013.53,104.71,3009.53,108.71,3018.53,104.71" style="stroke:#181818;stroke-width:1;"/><text fill="#000000" font-family="sans-serif" font-size="13" lengthAdjust="spacing" textLength="79.9043" x="2921.64" y="97.7769">Access Data</text></g><!--link Data Processing Module to Data Distribution Network--><g class="link" data-entity-1="Data Processing Module" data-entity-2="Data Distribution Network" data-source-line="13" data-uid="lnk20" id="link_Data Processing Module_Data Distribution Network"><path d="M1125.66,81.14 C1183.84,63.74 1267.57,41.56 1342.76,32.34 C1478.3,15.71 1754.01,56.47 1806.26,66.56 C1825.41,70.26 1840.0338,73.9172 1858.8038,79.4372 " fill="none" id="Data Processing Module-to-Data Distribution Network" style="stroke:#181818;stroke-width:1;"/><polygon fill="#181818" points="1864.56,81.13,1857.0542,74.7533,1859.7631,79.7193,1854.7971,82.4282,1864.56,81.13" style="stroke:#181818;stroke-width:1;"/><text fill="#000000" font-family="sans-serif" font-size="13" lengthAdjust="spacing" textLength="99.2075" x="1343.76" y="32.6269">Distribute Data</text></g><!--link Data Processing Module to Data Calibration Module--><g class="link" data-entity-1="Data Processing Module" data-entity-2="Data Calibration Module" data-source-line="14" data-uid="lnk22" id="link_Data Processing Module_Data Calibration Module"><path d="M1156.74,104.71 C1197.89,104.71 1239.06,104.71 1280.26,104.71 " fill="none" id="Data Processing Module-to-Data Calibration Module" style="stroke:#181818;stroke-width:1;"/><polygon fill="#181818" points="1286.26,104.71,1277.26,100.71,1281.26,104.71,1277.26,108.71,1286.26,104.71" style="stroke:#181818;stroke-width:1;"/><text fill="#000000" font-family="sans-serif" font-size="13" lengthAdjust="spacing" textLength="94.0977" x="1174.55" y="97.7769">Calibrate Data</text></g><!--link Data Calibration Module to PDS--><g class="link" data-entity-1="Data Calibration Module" data-entity-2="PDS" data-source-line="15" data-uid="lnk23" id="link_Data Calibration Module_PDS"><path d="M1496.46,104.71 C1570.98,104.71 1660.43,104.71 1711.4,104.71 " fill="none" id="Data Calibration Module-to-PDS" style="stroke:#181818;stroke-width:1;"/><polygon fill="#181818" points="1717.4,104.71,1708.4,100.71,1712.4,104.71,1708.4,108.71,1717.4,104.71" style="stroke:#181818;stroke-width:1;"/><text fill="#000000" font-family="sans-serif" font-size="13" lengthAdjust="spacing" textLength="185.2627" x="1514.35" y="97.7769">Provide PDS-Compliant Data</text></g><!--SRC=[ZPB1JiCm38RlVGfhzvwuSK0AtGuxC2g2n05ny3ghiaYJ4QT3VNkIRDswgGWkRVBR_nV73ZR1ULZfvwh0l5meNQzUL7a7huJT0b3oOenMhbpR0qdW5gCWEQ5owp6-KLf1lTHPZ_-YI6me7-1zYG51DLyz2mTs5fxShZVq0VT7rLCyoL17mG-GaelVBObNUzUG2DiMLhPbcqadCVlZXyrGp2MUwvd4BkMC4DqmsOQcnSpa9vQEbyUMG0yIg4kCf8pEssXolD4MDFa3-TE91zuHHBLyHA4TB5ds1WSfKlTd7AgvAb5PD8EmN7nnADbsCx7HM3iVq4n8Vr_os5EMu7dRvt5iA7mx_vaePvt-IwhGyDRZpLCOrIlCN6hanFSrwLtSbPNhzeRHXkp-0G00]--></g></svg>