<svg xmlns="http://www.w3.org/2000/svg" xmlns:xlink="http://www.w3.org/1999/xlink" contentStyleType="text/css" data-diagram-type="DESCRIPTION" height="137px" preserveAspectRatio="none" style="width:2318px;height:137px;background:#FFFFFF;" version="1.1" viewBox="0 0 2318 137" width="2318px" zoomAndPan="magnify"><defs/><g><!--entity ESOC--><g class="entity" data-entity="ESOC" data-source-line="1" data-uid="ent0002" id="entity_ESOC"><ellipse cx="25.2637" cy="64.91" fill="#F1F1F1" rx="8" ry="8" style="stroke:#181818;stroke-width:0.5;"/><path d="M25.2637,72.91 L25.2637,99.91 M12.2637,80.91 L38.2637,80.91 M25.2637,99.91 L12.2637,114.91 M25.2637,99.91 L38.2637,114.91 " fill="none" style="stroke:#181818;stroke-width:0.5;"/><text fill="#000000" font-family="sans-serif" font-size="14" lengthAdjust="spacing" textLength="38.5273" x="6" y="129.4051">ESOC</text></g><!--entity Team--><g class="entity" data-entity="Team" data-source-line="2" data-uid="ent0003" id="entity_Team"><ellipse cx="1422.2638" cy="64.91" fill="#F1F1F1" rx="8" ry="8" style="stroke:#181818;stroke-width:0.5;"/><path d="M1422.2638,72.91 L1422.2638,99.91 M1409.2638,80.91 L1435.2638,80.91 M1422.2638,99.91 L1409.2638,114.91 M1422.2638,99.91 L1435.2638,114.91 " fill="none" style="stroke:#181818;stroke-width:0.5;"/><text fill="#000000" font-family="sans-serif" font-size="14" lengthAdjust="spacing" textLength="112.8477" x="1365.84" y="129.4051">ASPERA-3 Team</text></g><!--entity CoI--><g class="entity" data-entity="CoI" data-source-line="3" data-uid="ent0004" id="entity_CoI"><ellipse cx="1885.2681" cy="64.91" fill="#F1F1F1" rx="8" ry="8" style="stroke:#181818;stroke-width:0.5;"/><path d="M1885.2681,72.91 L1885.2681,99.91 M1872.2681,80.91 L1898.2681,80.91 M1885.2681,99.91 L1872.2681,114.91 M1885.2681,99.91 L1898.2681,114.91 " fill="none" style="stroke:#181818;stroke-width:0.5;"/><text fill="#000000" font-family="sans-serif" font-size="14" lengthAdjust="spacing" textLength="114.5361" x="1828" y="129.4051">Co-Investigators</text></g><!--entity Data Acquisition Module--><g class="entity" data-entity="Data Acquisition Module" data-source-line="5" data-uid="ent0005" id="entity_Data Acquisition Module"><rect fill="#F1F1F1" height="46.2969" rx="2.5" ry="2.5" style="stroke:#181818;stroke-width:0.5;" width="210.1602" x="236.18" y="71.41"/><rect fill="#F1F1F1" height="10" style="stroke:#181818;stroke-width:0.5;" width="15" x="426.3402" y="76.41"/><rect fill="#F1F1F1" height="2" style="stroke:#181818;stroke-width:0.5;" width="4" x="424.3402" y="78.41"/><rect fill="#F1F1F1" height="2" style="stroke:#181818;stroke-width:0.5;" width="4" x="424.3402" y="82.41"/><text fill="#000000" font-family="sans-serif" font-size="14" lengthAdjust="spacing" textLength="170.1602" x="251.18" y="104.4051">Data Acquisition Module</text></g><!--entity Processing Engine--><g class="entity" data-entity="Processing Engine" data-source-line="6" data-uid="ent0007" id="entity_Processing Engine"><rect fill="#F1F1F1" height="46.2969" rx="2.5" ry="2.5" style="stroke:#181818;stroke-width:0.5;" width="167.7432" x="567.39" y="71.41"/><rect fill="#F1F1F1" height="10" style="stroke:#181818;stroke-width:0.5;" width="15" x="715.1332" y="76.41"/><rect fill="#F1F1F1" height="2" style="stroke:#181818;stroke-width:0.5;" width="4" x="713.1332" y="78.41"/><rect fill="#F1F1F1" height="2" style="stroke:#181818;stroke-width:0.5;" width="4" x="713.1332" y="82.41"/><text fill="#000000" font-family="sans-serif" font-size="14" lengthAdjust="spacing" textLength="127.7432" x="582.39" y="104.4051">Processing Engine</text></g><!--entity Data Processing Module--><g class="entity" data-entity="Data Processing Module" data-source-line="7" data-uid="ent0009" id="entity_Data Processing Module"><rect fill="#F1F1F1" height="46.2969" rx="2.5" ry="2.5" style="stroke:#181818;stroke-width:0.5;" width="208.5469" x="865.99" y="71.41"/><rect fill="#F1F1F1" height="10" style="stroke:#181818;stroke-width:0.5;" width="15" x="1054.5369" y="76.41"/><rect fill="#F1F1F1" height="2" style="stroke:#181818;stroke-width:0.5;" width="4" x="1052.5369" y="78.41"/><rect fill="#F1F1F1" height="2" style="stroke:#181818;stroke-width:0.5;" width="4" x="1052.5369" y="82.41"/><text fill="#000000" font-family="sans-serif" font-size="14" lengthAdjust="spacing" textLength="168.5469" x="880.99" y="104.4051">Data Processing Module</text></g><!--entity Storage System--><g class="entity" data-entity="Storage System" data-source-line="8" data-uid="ent0011" id="entity_Storage System"><rect fill="#F1F1F1" height="46.2969" rx="2.5" ry="2.5" style="stroke:#181818;stroke-width:0.5;" width="151.4326" x="1179.55" y="71.41"/><rect fill="#F1F1F1" height="10" style="stroke:#181818;stroke-width:0.5;" width="15" x="1310.9826" y="76.41"/><rect fill="#F1F1F1" height="2" style="stroke:#181818;stroke-width:0.5;" width="4" x="1308.9826" y="78.41"/><rect fill="#F1F1F1" height="2" style="stroke:#181818;stroke-width:0.5;" width="4" x="1308.9826" y="82.41"/><text fill="#000000" font-family="sans-serif" font-size="14" lengthAdjust="spacing" textLength="111.4326" x="1194.55" y="104.4051">Storage System</text></g><!--entity Web Server--><g class="entity" data-entity="Web Server" data-source-line="9" data-uid="ent0013" id="entity_Web Server"><rect fill="#F1F1F1" height="46.2969" rx="2.5" ry="2.5" style="stroke:#181818;stroke-width:0.5;" width="121.7031" x="1671.41" y="71.41"/><rect fill="#F1F1F1" height="10" style="stroke:#181818;stroke-width:0.5;" width="15" x="1773.1131" y="76.41"/><rect fill="#F1F1F1" height="2" style="stroke:#181818;stroke-width:0.5;" width="4" x="1771.1131" y="78.41"/><rect fill="#F1F1F1" height="2" style="stroke:#181818;stroke-width:0.5;" width="4" x="1771.1131" y="82.41"/><text fill="#000000" font-family="sans-serif" font-size="14" lengthAdjust="spacing" textLength="81.7031" x="1686.41" y="104.4051">Web Server</text></g><!--entity Co-Investigator Access Portal--><g class="entity" data-entity="Co-Investigator Access Portal" data-source-line="11" data-uid="ent0016" id="entity_Co-Investigator Access Portal"><rect fill="#F1F1F1" height="46.2969" rx="2.5" ry="2.5" style="stroke:#181818;stroke-width:0.5;" width="245.0371" x="2067.75" y="71.41"/><rect fill="#F1F1F1" height="10" style="stroke:#181818;stroke-width:0.5;" width="15" x="2292.7871" y="76.41"/><rect fill="#F1F1F1" height="2" style="stroke:#181818;stroke-width:0.5;" width="4" x="2290.7871" y="78.41"/><rect fill="#F1F1F1" height="2" style="stroke:#181818;stroke-width:0.5;" width="4" x="2290.7871" y="82.41"/><text fill="#000000" font-family="sans-serif" font-size="14" lengthAdjust="spacing" textLength="205.0371" x="2082.75" y="104.4051">Co-Investigator Access Portal</text></g><!--link ESOC to Data Acquisition Module--><g class="link" data-entity-1="ESOC" data-entity-2="Data Acquisition Module" data-source-line="5" data-uid="lnk6" id="link_ESOC_Data Acquisition Module"><path d="M44.56,94.56 C81.87,94.56 160.38,94.56 229.7,94.56 " fill="none" id="ESOC-to-Data Acquisition Module" style="stroke:#181818;stroke-width:1;"/><polygon fill="#181818" points="235.7,94.56,226.7,90.56,230.7,94.56,226.7,98.56,235.7,94.56" style="stroke:#181818;stroke-width:1;"/><text fill="#000000" font-family="sans-serif" font-size="13" lengthAdjust="spacing" textLength="155.1367" x="62.86" y="87.6269">Acquire Telemetry Data</text></g><!--link Data Acquisition Module to Processing Engine--><g class="link" data-entity-1="Data Acquisition Module" data-entity-2="Processing Engine" data-source-line="6" data-uid="lnk8" id="link_Data Acquisition Module_Processing Engine"><path d="M446.65,94.56 C485.97,94.56 524.05,94.56 561.19,94.56 " fill="none" id="Data Acquisition Module-to-Processing Engine" style="stroke:#181818;stroke-width:1;"/><polygon fill="#181818" points="567.19,94.56,558.19,90.56,562.19,94.56,558.19,98.56,567.19,94.56" style="stroke:#181818;stroke-width:1;"/><text fill="#000000" font-family="sans-serif" font-size="13" lengthAdjust="spacing" textLength="85.0015" x="464.37" y="87.6269">Process Data</text></g><!--link Processing Engine to Data Processing Module--><g class="link" data-entity-1="Processing Engine" data-entity-2="Data Processing Module" data-source-line="7" data-uid="lnk10" id="link_Processing Engine_Data Processing Module"><path d="M735.49,94.56 C775.37,94.56 817.38,94.56 859.57,94.56 " fill="none" id="Processing Engine-to-Data Processing Module" style="stroke:#181818;stroke-width:1;"/><polygon fill="#181818" points="865.57,94.56,856.57,90.56,860.57,94.56,856.57,98.56,865.57,94.56" style="stroke:#181818;stroke-width:1;"/><text fill="#000000" font-family="sans-serif" font-size="13" lengthAdjust="spacing" textLength="94.4214" x="753.56" y="87.6269">Generate IDFS</text></g><!--link Data Processing Module to Storage System--><g class="link" data-entity-1="Data Processing Module" data-entity-2="Storage System" data-source-line="8" data-uid="lnk12" id="link_Data Processing Module_Storage System"><path d="M1074.77,94.56 C1109.4,94.56 1141.26,94.56 1173.33,94.56 " fill="none" id="Data Processing Module-to-Storage System" style="stroke:#181818;stroke-width:1;"/><polygon fill="#181818" points="1179.33,94.56,1170.33,90.56,1174.33,94.56,1170.33,98.56,1179.33,94.56" style="stroke:#181818;stroke-width:1;"/><text fill="#000000" font-family="sans-serif" font-size="13" lengthAdjust="spacing" textLength="69.8179" x="1092.54" y="87.6269">Store Data</text></g><!--link Storage System to Web Server--><g class="link" data-entity-1="Storage System" data-entity-2="Web Server" data-source-line="9" data-uid="lnk14" id="link_Storage System_Web Server"><path d="M1299.86,71.07 C1356.22,44.23 1456.43,6 1543.76,22.19 C1593.91,31.48 1642.5103,51.0583 1679.8103,68.4183 " fill="none" id="Storage System-to-Web Server" style="stroke:#181818;stroke-width:1;"/><polygon fill="#181818" points="1685.25,70.95,1678.7783,63.5259,1680.7169,68.8402,1675.4026,70.7789,1685.25,70.95" style="stroke:#181818;stroke-width:1;"/><text fill="#000000" font-family="sans-serif" font-size="13" lengthAdjust="spacing" textLength="83.0908" x="1459.76" y="22.4769">Display Data</text></g><!--link Team to Web Server--><g class="link" data-entity-1="Team" data-entity-2="Web Server" data-source-line="10" data-uid="lnk15" id="link_Team_Web Server"><path d="M1479.12,94.56 C1533.48,94.56 1609.2,94.56 1664.99,94.56 " fill="none" id="Team-to-Web Server" style="stroke:#181818;stroke-width:1;"/><polygon fill="#181818" points="1670.99,94.56,1661.99,90.56,1665.99,94.56,1661.99,98.56,1670.99,94.56" style="stroke:#181818;stroke-width:1;"/><text fill="#000000" font-family="sans-serif" font-size="13" lengthAdjust="spacing" textLength="156.9521" x="1497.05" y="87.6269">Access Science Analysis</text></g><!--link CoI to Co-Investigator Access Portal--><g class="link" data-entity-1="CoI" data-entity-2="Co-Investigator Access Portal" data-source-line="11" data-uid="lnk17" id="link_CoI_Co-Investigator Access Portal"><path d="M1942.99,94.56 C1978.13,94.56 2018.41,94.56 2061.41,94.56 " fill="none" id="CoI-to-Co-Investigator Access Portal" style="stroke:#181818;stroke-width:1;"/><polygon fill="#181818" points="2067.41,94.56,2058.41,90.56,2062.41,94.56,2058.41,98.56,2067.41,94.56" style="stroke:#181818;stroke-width:1;"/><text fill="#000000" font-family="sans-serif" font-size="13" lengthAdjust="spacing" textLength="89.9463" x="1960.64" y="87.6269">Retrieve Data</text></g><!--SRC=[TP0nQyCm48Lt_OeZkwTk7Gh2Tek74XCLEfGEL_Km0bbgTOh1_xuwnMbBI3RnxdjFTmzjZWbwisyLrkTEcx4_wEOENWZd7I3NntdQncO82t5s4nQ1Az36GId9WEO1tZhC2Df-7nsxx6A0v_XvzFGEzoSrKKdqD5DEAmYiRbiaRqpH4hCB4_HXSg4cRUBcluByRl9lzhV84mLAc0c6xj6ecw24c78cJWHcvKopc4MXxUVBgJXUwGCCfOMIq9tZBu_RfLBb5KRRUeonZe8bq07zoevLARRI5wsV-J6cZ5u23gLCHyjfgny0]--></g></svg>